<svg xmlns="http://www.w3.org/2000/svg" width="27.629" height="23.473"><g data-name="Group 498" fill="#535873"><g data-name="Group 497"><path data-name="Path 680" d="M19.958 5.125a.91.91 0 01-.915.75H1.049a.961.961 0 01-.857-.357A2.534 2.534 0 010 5.162v-.351a1.171 1.171 0 01.734-.766Q5.109 2.097 9.467.117a1.162 1.162 0 011.027.005l8.893 4a.914.914 0 01.571 1.003z"/><path data-name="Path 681" d="M19.963 19.02a.923.923 0 01-.591.862l-.181.064H.741a1.058 1.058 0 01-.74-.74v-.351a2.362 2.362 0 01.16-.33.958.958 0 01.862-.4q1.852.008 3.7.005h14.135a1.793 1.793 0 01.447.043.9.9 0 01.658.847z"/><path data-name="Path 682" d="M0 19.206a1.062 1.062 0 00.741.741H0z"/><path data-name="Path 683" d="M17.957 15.774c-.08-.005-.165 0-.245 0V7.61l.2-.016a.457.457 0 00.458-.436.469.469 0 00-.442-.463c-.053-.005-.106-.005-.154-.005H2.194a1.877 1.877 0 00-.25.027.431.431 0 00-.346.452.432.432 0 00.367.415c.1.016.192.021.293.032v8.158c-.106 0-.181-.005-.261 0a.9.9 0 00-.846.75.874.874 0 00.522.969 1.393 1.393 0 00.511.085q7.807.008 15.6 0c.064 0 .128 0 .192-.005a.9.9 0 00.851-.9.911.911 0 00-.87-.899zm-11.165-.016H4.104V7.61h2.688zm4.545 0h-2.7V7.62h2.7zm4.534.005h-2.7V7.62h2.7z"/></g><path data-name="Path 299" d="M23.578 15.09c0 6.475-8.094 6.475-8.094 0s8.094-6.475 8.094 0"/><path data-name="Path 300" d="M27.469 21.301a6.8 6.8 0 00-3.595-3.142 1.693 1.693 0 00-1.349.074 4.582 4.582 0 01-4.786 0 1.689 1.689 0 00-1.349 0 6.851 6.851 0 00-3.595 3.142 1.48 1.48 0 001.423 2.1h11.829a1.518 1.518 0 001.422-2.174z"/><g data-name="Group 495"><path data-name="Path 299" d="M23.069 14.801c0 4.956-6.194 4.956-6.194 0s6.194-4.956 6.194 0"/><path data-name="Path 300" d="M26.044 21.676a5.63 5.63 0 00-2.975-2.6 1.4 1.4 0 00-1.117.061 3.792 3.792 0 01-3.961 0 1.4 1.4 0 00-1.117 0 5.67 5.67 0 00-2.975 2.6 1.224 1.224 0 001.181 1.736h9.789a1.256 1.256 0 001.175-1.797z"/></g></g></svg>