<svg xmlns="http://www.w3.org/2000/svg" width="22.071" height="37.583"><path data-name="Path 905" d="M18.372 37.583a4.128 4.128 0 01-1.64-1.178Q8.76 28.421.776 20.45a2.105 2.105 0 01-.661-2.285 2.454 2.454 0 01.583-.912Q8.961 8.963 17.246.696a2.051 2.051 0 013.065-.015c.439.425.884.849 1.278 1.314a2 2 0 01-.039 2.651c-.1.12-.216.233-.328.345Q14.49 11.724 7.756 18.455a3.1 3.1 0 00-.422.441 1.623 1.623 0 01.384.215q6.8 6.792 13.6 13.593a2.021 2.021 0 01.318 2.8 6.208 6.208 0 01-2.454 2.073z" fill="#d3d6e0"/></svg>