<svg xmlns="http://www.w3.org/2000/svg" width="31.81" height="31.809"><g data-name="Group 485" fill="#535873"><path data-name="Path 713" d="M31.556 19.321a10.251 10.251 0 00-13.254-7.476 10.143 10.143 0 00-6.792 11.593 9.882 9.882 0 007.154 7.935 18.736 18.736 0 002.15.437h1.491c.668-.125 1.347-.207 2-.383a10.249 10.249 0 007.45-8.852 2.52 2.52 0 01.054-.27v-1.491c-.082-.498-.144-1.001-.253-1.493zm-8.819 6.617a.354.354 0 00-.251.387c.016.568.006 1.138.006 1.732h-1.85V26.08c-1.309-.713-1.886-1.529-1.866-2.645h1.827c.017.068.032.135.052.2a.93.93 0 10.877-1.144 2.818 2.818 0 01-1.569-.508 2.779 2.779 0 01.4-4.8l.264-.126v-2h1.861c0 .6.007 1.182 0 1.768a.315.315 0 00.222.343 2.707 2.707 0 011.624 2.512H22.52a9.085 9.085 0 00-.051-.182.931.931 0 00-1.839.241.937.937 0 00.94.887 2.788 2.788 0 011.168 5.312z"/><path data-name="Path 714" d="M19.527 8.275a8.777 8.777 0 01-3.781 2.228 17.615 17.615 0 01-5.533.811 16.214 16.214 0 01-6.775-1.425 7.485 7.485 0 01-2.344-1.653 3.481 3.481 0 010-5.063A8.641 8.641 0 014.64.963a17.251 17.251 0 018.169-.798 13.21 13.21 0 015.013 1.613 6.969 6.969 0 011.8 1.459 3.538 3.538 0 01-.095 5.038z"/><path data-name="Path 715" d="M12.933 13.038c-.286.334-.574.653-.844.988a11.442 11.442 0 00-1.6 2.647c-.061.139-.119.236-.309.232a15.943 15.943 0 01-7.023-1.565 6.616 6.616 0 01-2.457-2 3.5 3.5 0 01-.695-2.145c.007-.442 0-.883 0-1.335.5.368.964.748 1.465 1.065a15.022 15.022 0 006.091 2.06 20.337 20.337 0 005.294.032c.013-.003.037.01.078.021z"/><path data-name="Path 716" d="M11.368 28.08c-.5 0-.926.009-1.347 0a15.737 15.737 0 01-6.863-1.558 6.621 6.621 0 01-2.456-2 3.5 3.5 0 01-.7-2.144c.007-.442 0-.884 0-1.388.179.152.315.271.454.384a12.674 12.674 0 005.178 2.417 18.084 18.084 0 003.8.515.388.388 0 01.436.353 11.752 11.752 0 001.498 3.421z"/><path data-name="Path 717" d="M9.49 22.428c-.111 0-.209.006-.305 0a15.838 15.838 0 01-5.612-1.313 7.5 7.5 0 01-2.61-1.852 3.6 3.6 0 01-.964-2.545c.012-.419 0-.839 0-1.3 2.821 2.437 6.186 3.139 9.774 3.339a11.737 11.737 0 00-.283 3.671z"/></g></svg>