<svg xmlns="http://www.w3.org/2000/svg" width="22.834" height="22.805"><g data-name="Group 609" fill="#43475d"><path data-name="Path 680" d="M22.818 5.859a1.04 1.04 0 01-1.047.858H1.2a1.1 1.1 0 01-.98-.408 2.885 2.885 0 01-.219-.408v-.4a1.339 1.339 0 01.84-.876q5-2.227 9.985-4.49A1.327 1.327 0 0112 .141q5.084 2.291 10.167 4.576a1.045 1.045 0 01.651 1.142z"/><path data-name="Path 681" d="M22.824 21.746a1.056 1.056 0 01-.675.986l-.207.073H.842a1.21 1.21 0 01-.846-.846v-.4a2.692 2.692 0 01.183-.377 1.1 1.1 0 01.986-.462q2.117.009 4.235.006h16.16a2.052 2.052 0 01.511.049 1.033 1.033 0 01.753.971z"/><path data-name="Path 682" d="M0 21.958a1.214 1.214 0 00.848.847H0z"/><path data-name="Path 683" d="M20.53 18.034c-.091-.006-.189 0-.28 0V8.7l.231-.018a.523.523 0 00.523-.5.536.536 0 00-.505-.529 1.763 1.763 0 00-.176-.006H2.508a2.168 2.168 0 00-.286.03.493.493 0 00-.4.517.494.494 0 00.42.475c.11.018.219.024.335.036v9.328c-.122 0-.207-.006-.3 0a1.03 1.03 0 00-.967.858 1 1 0 00.6 1.107 1.593 1.593 0 00.584.1q8.926.009 17.84 0c.073 0 .146 0 .219-.006a1.033 1.033 0 00.974-1.028 1.041 1.041 0 00-.997-1.03zm-12.765-.018H4.692V8.701h3.073zm5.2 0H9.874V8.707h3.091zm5.184.006h-3.091V8.707h3.091z"/></g></svg>