<svg xmlns="http://www.w3.org/2000/svg" width="56" height="56"><g data-name="Group 6211" transform="translate(-1712 -1874.146)"><rect data-name="Rectangle 418" width="56" height="56" rx="10" transform="translate(1712 1874.146)" fill="#d37777"/><path data-name="Path 749" d="M1747.871 1893.02h-4.961a1.992 1.992 0 00-1.985-1.985h-1.985a1.992 1.992 0 00-1.984 1.985h-4.961a1.992 1.992 0 00-1.985 1.984v.992a.939.939 0 00.992.992h17.861a.939.939 0 00.992-.992v-.992a1.992 1.992 0 00-1.984-1.984zm-1.09 5.954h-13.696a.965.965 0 00-.992 1.09l1.586 13a1.944 1.944 0 001.985 1.686h8.434a1.943 1.943 0 001.985-1.686l1.588-13a.9.9 0 00-.894-1.09z" fill="#fafafa"/></g></svg>