<svg xmlns="http://www.w3.org/2000/svg" width="20.832" height="19.345"><g data-name="Group 786" fill="#43475d"><path data-name="Path 879" d="M1.161 5.335h15.644V2.743H1.161zm16.223 1.161H.581A.581.581 0 010 5.915V2.164a.58.58 0 01.581-.581h16.805a.58.58 0 01.581.581v3.752a.58.58 0 01-.581.581z"/><path data-name="Path 880" d="M14.003 4.363a.58.58 0 01-.581-.581V.597a.581.581 0 011.161 0v3.182a.581.581 0 01-.58.584zm-5.02 0a.58.58 0 01-.581-.581V.597a.581.581 0 011.161 0v3.182a.58.58 0 01-.58.584zm-5.021 0a.58.58 0 01-.58-.581V.597a.581.581 0 111.161 0v3.182a.58.58 0 01-.581.584z"/><path data-name="Path 881" d="M3.332 13.91h1.762v1.76H3.332zm0-5.023h1.762v1.76H3.332z"/><path data-name="Path 882" d="M6.061 11.034a.581.581 0 01-.581.581H2.944a.58.58 0 01-.58-.581V8.5a.58.58 0 01.58-.581H5.48a.58.58 0 01.581.581v2.534zm0 5.022a.58.58 0 01-.581.581H2.944a.58.58 0 01-.58-.581v-2.533a.58.58 0 01.58-.581H5.48a.58.58 0 01.581.581zm8.721-5.579a.58.58 0 00.622-.092l2.364-2.063a.577.577 0 00.2-.437V5.917a.58.58 0 00-.581-.581H.581A.581.581 0 000 5.917v12.848a.58.58 0 00.581.58h15.115a2.274 2.274 0 002.271-2.271v-5.652a.58.58 0 00-.977-.424l-2.368 2.211a.581.581 0 00-.183.424v1.845H8.298v-6.4h6.145v1.256c0 .228.133.047.34.142z"/><path data-name="Path 883" d="M11.369 14.104a.578.578 0 01-.482-.256L9.21 11.36a.581.581 0 01.963-.651l1.309 1.942 8.392-7.322a.581.581 0 01.764.875l-8.884 7.756a.578.578 0 01-.382.142z"/></g></svg>