<svg xmlns="http://www.w3.org/2000/svg" width="21.406" height="24.464"><path data-name="Path 709" d="M15.29 20.642a.767.767 0 00.765.765h1.529a.767.767 0 00.765-.765v-1.529a.767.767 0 00-.765-.765h-1.529a.767.767 0 00-.765.765zm-5.351-2.294a.767.767 0 00-.765.765v1.529a.767.767 0 00.765.765h1.529a.767.767 0 00.765-.765v-1.529a.767.767 0 00-.765-.765zm-6.881 2.294a.765.765 0 00.765.765h1.529a.767.767 0 00.765-.765v-1.529a.767.767 0 00-.765-.765H3.823a.765.765 0 00-.765.765zm13-8.41a.767.767 0 00-.768.768v1.529a.767.767 0 00.765.765h1.529a.767.767 0 00.765-.765V13a.767.767 0 00-.765-.765zm-6.884 2.294a.767.767 0 00.765.765h1.529a.767.767 0 00.765-.765V13a.767.767 0 00-.765-.765H9.939a.767.767 0 00-.765.765zm-6.116 0a.765.765 0 00.765.765h1.529a.767.767 0 00.765-.765V13a.767.767 0 00-.765-.765H3.823a.765.765 0 00-.765.765zM0 9.174h21.406v13a2.294 2.294 0 01-2.294 2.294H2.294A2.294 2.294 0 010 22.171zm7.645-7.645v1.529h6.116V1.529a1.529 1.529 0 113.058 0v1.529h2.294a2.294 2.294 0 012.294 2.294v2.293H0V5.352a2.293 2.293 0 012.294-2.294h2.293V1.529a1.529 1.529 0 013.058 0z" fill="#64c689"/></svg>