<svg xmlns="http://www.w3.org/2000/svg" width="29.46" height="28"><g data-name="Group 736" fill="#b6bdcd"><path data-name="Path 863" d="M4.581 13.127c-.086 0-.172.014-.258.014V28h.4c4.309-.014 8.6-.014 12.912-.014 3.822 0 7.63 0 11.452.014a3.522 3.522 0 00.372-.029V13.127zm23.047 9.505a.652.652 0 01-.243.573 1.327 1.327 0 00-.2.2.716.716 0 01-.616.272 1.406 1.406 0 00-1.431 1.517.593.593 0 01-.157.429 1.482 1.482 0 01-1.317.544q-6.936-.021-13.871 0a1 1 0 01-.8-.329 1.1 1.1 0 01-.372-.83 1.408 1.408 0 00-1.532-1.346.47.47 0 01-.4-.143 1.437 1.437 0 01-.558-1.331c.043-1.245.014-2.476.014-3.722a.605.605 0 01.229-.544 2.707 2.707 0 00.286-.286.516.516 0 01.472-.186 1.439 1.439 0 001.5-1.517.562.562 0 01.172-.444 1.433 1.433 0 011.26-.544c2.276.043 4.538.014 6.814.014 2.391 0 4.781.014 7.157 0a.928.928 0 01.687.272 1.21 1.21 0 01.429.9 1.378 1.378 0 001.474 1.317.658.658 0 01.487.172 1.4 1.4 0 01.53 1.274c-.043 1.247-.029 2.493-.014 3.738z"/><path data-name="Path 864" d="M24.922 10.35a4.147 4.147 0 00.2-.687.637.637 0 00-.043-.329 465.91 465.91 0 00-2.133-3.879c-.043-.1-.172-.157-.272-.215a3.046 3.046 0 00-.387-.115.728.728 0 00-.7.057 1.434 1.434 0 01-2.018-.716.485.485 0 00-.215-.2 1.58 1.58 0 00-1.546.115c-4.08 2.276-8.174 4.495-12.254 6.757a2.066 2.066 0 01-1.1.272 1.74 1.74 0 00-1.861 1.875v3.393c-.029.014-.043.014-.057.029a664.962 664.962 0 01-2.534-4.624C7.36 8.046 14.689 4.038 22.061.001c2.076 3.793 4.151 7.573 6.241 11.395H23.95a1.411 1.411 0 01.773-.845.669.669 0 00.199-.201z"/><path data-name="Path 865" d="M18.867 11.395h-8.245a4.477 4.477 0 011.632-1.961 4.571 4.571 0 014.81-.444 3.243 3.243 0 011.803 2.405z"/><path data-name="Path 866" d="M22.589 8.975a1.482 1.482 0 01-2.963.014A1.513 1.513 0 0121.1 7.5a1.494 1.494 0 011.489 1.475z"/><path data-name="Path 867" d="M20.255 23.119a4.936 4.936 0 01-6.542.2 3.591 3.591 0 01.358-5.812 5.085 5.085 0 012.963-.845 4.767 4.767 0 013.221 1.331 3.522 3.522 0 010 5.126z"/><path data-name="Path 868" d="M25.781 20.557a1.482 1.482 0 01-1.46 1.489 1.5 1.5 0 01-1.489-1.489 1.474 1.474 0 012.949 0z"/><path data-name="Path 869" d="M10.922 20.528a1.475 1.475 0 11-1.474-1.446 1.466 1.466 0 011.474 1.446z"/></g></svg>