<svg xmlns="http://www.w3.org/2000/svg" width="36.902" height="37.958"><g data-name="Group 486" fill="#535873"><path data-name="Path 718" d="M18.14 6.976A9.1 9.1 0 0011.185.225c-.392-.1-.8-.152-1.2-.225H8.502c-.364.058-.73.106-1.091.177a9.231 9.231 0 00-.475 17.993.47.47 0 00.584-.2 13.176 13.176 0 012.774-2.708 13.677 13.677 0 015.583-2.423c.207-.038.318-.1.346-.336a11.374 11.374 0 011.832-5.028.7.7 0 00.085-.499zm-4.838-1.4c-.548.952-1.132 1.882-1.7 2.822-.063.1-.119.2-.207.359.308 0 .563-.008.819 0 .44.013.687.243.677.614-.008.354-.25.563-.677.571-.346.008-.692 0-1.038 0-.632 0-.776.162-.73.887h1.42a3.838 3.838 0 01.483.01.575.575 0 01.543.629.56.56 0 01-.589.543c-.518.015-1.038.005-1.556.005h-.321v.518c0 .333.01.667-.005 1a1.205 1.205 0 11-2.41.01c-.02-.49 0-.985 0-1.529-.632 0-1.23.008-1.832 0a.583.583 0 01-.619-.753.608.608 0 01.657-.432H7.95c.141-.629-.051-.887-.642-.887-.369 0-.74.005-1.112 0-.422-.01-.657-.225-.657-.589s.24-.581.657-.6c.258-.01.518 0 .829 0-.078-.141-.129-.245-.19-.346-.584-.96-1.152-1.93-1.751-2.878a1.11 1.11 0 01.963-1.814 1.154 1.154 0 011.137.735l1.827 3.471c.058.109.116.215.21.387.654-1.248 1.283-2.451 1.918-3.648a3.122 3.122 0 01.379-.589 1.136 1.136 0 011.326-.268.916.916 0 01.733.874 1.9 1.9 0 01-.275.893z"/><path data-name="Path 719" d="M18.451 14.893a11.532 11.532 0 1011.526 11.528 11.509 11.509 0 00-11.526-11.528zm3.345 17.673a6.307 6.307 0 01-2.38.632c-.316.02-.4.136-.374.427a5.87 5.87 0 010 .816.615.615 0 01-.561.627.608.608 0 01-.558-.627c-.015-.381 0-.763 0-1.157-.51-.076-1-.116-1.475-.227a4.218 4.218 0 01-2.941-2 3.73 3.73 0 01-.394-1.364.987.987 0 01.773-1.109 1.28 1.28 0 011.5.508c.147.268.237.568.359.851a2 2 0 002.163 1.319v-3.934a12.612 12.612 0 01-1.306-.359 11.38 11.38 0 01-1.67-.773 3.5 3.5 0 01-.414-5.5 5.021 5.021 0 012.734-1.2c.207-.03.417-.048.672-.076 0-.316-.005-.622 0-.925.01-.445.24-.725.579-.715.323.01.538.283.551.707.005.149 0 .3 0 .445v.427c.647.149 1.276.258 1.885.44a4.694 4.694 0 012.1 1.192 1.779 1.779 0 01.538 1.407 1.04 1.04 0 01-.634.93 1.024 1.024 0 01-1.152-.1 5.548 5.548 0 01-.654-.7 2.535 2.535 0 00-1.87-1.129.541.541 0 00-.111 0 .427.427 0 00-.1.048v2.12c0 .371.013.743-.005 1.112-.01.235.056.341.308.4a9.522 9.522 0 012.645.912A3.336 3.336 0 0123.76 28.5a3.7 3.7 0 01-1.964 4.063z"/><path data-name="Path 720" d="M31.665 22.142c-.422-.922-.844-1.844-1.273-2.777a6.537 6.537 0 00.662-.169 1.14 1.14 0 00.819-1.22.821.821 0 00-1.008-.849 4.706 4.706 0 01-2.014-.008.774.774 0 01-.323-.157 42.597 42.597 0 01-1.147-1.1.409.409 0 01-.091-.285c.023-.3.076-.6.124-.96.4 0 .841.018 1.283-.005.523-.025.768-.27.763-.71s-.255-.68-.778-.7-1.036-.005-1.556-.023c-.106 0-.275-.045-.308-.119a4.822 4.822 0 01-.427-1.208 1.5 1.5 0 011.508-1.683 1.582 1.582 0 011.842 1.084c.328.682.69.882 1.3.717a1.1 1.1 0 00.687-1.571 2.508 2.508 0 00-1.357-1.5 4.921 4.921 0 00-5.007.177 2.984 2.984 0 00-1.008 3.863.663.663 0 01.048.111c-.308.162-.584.313-.864.447a.282.282 0 01-.207-.01 14.249 14.249 0 00-4.666-.9c-.023 0-.043-.02-.066-.03a9.093 9.093 0 017.4-7.787 9.218 9.218 0 015.664 17.374z"/><path data-name="Path 721" d="M21.051 30.426a2.519 2.519 0 01-1.986.824v-3.654a2.255 2.255 0 012.307 1.617 1.514 1.514 0 01-.321 1.213z"/><path data-name="Path 722" d="M17.903 21.417v3.3a2.016 2.016 0 01-2.12-1.63c-.05-.928.89-1.683 2.12-1.67z"/></g></svg>