<svg width="24.995" height="25.709" xmlns="http://www.w3.org/2000/svg"><g data-name="Group 659" fill="#64c689"><path data-name="Path 718" d="M12.287 4.72A6.165 6.165 0 007.576.148c-.265-.067-.539-.1-.809-.152h-1c-.246.039-.495.072-.739.12a6.252 6.252 0 00-.322 12.187.318.318 0 00.4-.133 8.924 8.924 0 011.879-1.834 9.264 9.264 0 013.782-1.641c.14-.026.216-.065.234-.228a7.7 7.7 0 011.241-3.405.474.474 0 00.045-.342zM9.01 3.769c-.371.645-.767 1.275-1.153 1.911-.043.068-.08.139-.14.243.209 0 .382-.005.554 0 .3.009.465.164.459.416s-.169.382-.459.387c-.234.005-.469 0-.7 0-.428 0-.525.109-.495.6h.962a2.6 2.6 0 01.327.007.39.39 0 01.368.426.379.379 0 01-.4.368c-.351.01-.7 0-1.054 0h-.217v.351c0 .226.007.452 0 .678a.816.816 0 11-1.632.007c-.014-.332 0-.667 0-1.035-.428 0-.833.005-1.241 0a.4.4 0 01-.419-.51.412.412 0 01.445-.293h1.174c.1-.426-.034-.6-.435-.6h-.753c-.286-.007-.445-.152-.445-.4s.163-.394.445-.4c.175-.007.351 0 .561 0-.053-.1-.087-.166-.128-.234-.4-.65-.78-1.307-1.186-1.949A.752.752 0 014.1 2.513a.782.782 0 01.77.5l1.237 2.351.142.262c.443-.845.869-1.66 1.3-2.471a2.117 2.117 0 01.257-.4.769.769 0 01.9-.181.62.62 0 01.5.592 1.286 1.286 0 01-.196.607z"/><path data-name="Path 719" d="M12.497 10.088a7.811 7.811 0 107.807 7.808 7.8 7.8 0 00-7.807-7.808zm2.266 11.97a4.272 4.272 0 01-1.612.428c-.214.014-.269.092-.253.289a3.973 3.973 0 010 .553.417.417 0 01-.38.424.412.412 0 01-.378-.424c-.01-.258 0-.517 0-.784-.346-.051-.678-.079-1-.154a2.857 2.857 0 01-1.992-1.352 2.526 2.526 0 01-.267-.924.669.669 0 01.524-.751.867.867 0 011.013.344c.1.181.161.385.243.577a1.357 1.357 0 001.465.893v-2.664a8.543 8.543 0 01-.885-.243 7.7 7.7 0 01-1.131-.524 2.372 2.372 0 01-.281-3.725 3.4 3.4 0 011.852-.813c.14-.021.282-.033.455-.051v-.626c.007-.3.163-.491.392-.484s.365.192.373.479v.589c.438.1.864.175 1.277.3a3.18 3.18 0 011.424.808 1.205 1.205 0 01.364.953.7.7 0 01-.43.63.694.694 0 01-.78-.068 3.759 3.759 0 01-.443-.474 1.717 1.717 0 00-1.266-.765.366.366 0 00-.075 0 .289.289 0 00-.07.033v1.426c0 .252.009.5 0 .753-.007.159.038.231.209.269a6.45 6.45 0 011.792.618 2.259 2.259 0 011.189 1.7 2.5 2.5 0 01-1.329 2.76z"/><path data-name="Path 720" d="M21.447 14.998a1981.7 1981.7 0 00-.862-1.881 4.427 4.427 0 00.448-.115.772.772 0 00.554-.827.556.556 0 00-.683-.575 3.187 3.187 0 01-1.364-.005.524.524 0 01-.219-.106 24.89 24.89 0 01-.777-.748.277.277 0 01-.062-.193c.015-.2.051-.406.084-.65.27 0 .57.012.869 0 .354-.017.52-.183.517-.481s-.173-.46-.527-.476-.7 0-1.054-.015c-.072 0-.187-.031-.209-.08a3.266 3.266 0 01-.289-.818 1.014 1.014 0 011.022-1.14 1.071 1.071 0 011.247.734c.222.462.467.6.883.486a.741.741 0 00.465-1.064 1.7 1.7 0 00-.919-1.013 3.333 3.333 0 00-3.392.12 2.021 2.021 0 00-.683 2.616.451.451 0 01.033.075c-.209.11-.4.212-.585.3a.191.191 0 01-.14-.007 9.651 9.651 0 00-3.161-.611c-.015 0-.029-.014-.044-.021a6.159 6.159 0 015.01-5.274 6.243 6.243 0 013.837 11.768z"/><path data-name="Path 721" d="M14.258 20.609a1.706 1.706 0 01-1.345.558v-2.474a1.528 1.528 0 011.562 1.1 1.025 1.025 0 01-.217.816z"/><path data-name="Path 722" d="M12.123 14.506v2.237a1.365 1.365 0 01-1.436-1.1c-.031-.634.606-1.146 1.436-1.137z"/></g></svg>