<svg xmlns="http://www.w3.org/2000/svg" width="48" height="48"><defs><clipPath id="a"><path data-name="Rectangle 448" fill="none" d="M0 0h48v48H0z"/></clipPath></defs><g data-name="Group 671" style="isolation:isolate"><path data-name="Path 786" d="M48 24A24 24 0 1124 0a24 24 0 0124 24" fill="#ebf0f1"/><path data-name="Path 787" d="M18 18a8.485 8.485 0 0012 12z" fill="#facc20"/><path data-name="Path 788" d="M18 18l12 12a8.485 8.485 0 00-12-12z" fill="#f7a90b"/><path data-name="Path 789" d="M30.227 24A6.227 6.227 0 1124 17.773 6.228 6.228 0 0130.227 24" fill="#fdef34"/><path data-name="Path 790" d="M24.449 27.375V24.75c1.274.375 1.274.9 1.274 1.273 0 .301-.075 1.051-1.274 1.352zm-.75-4.426c-.6-.3-1.051-.375-1.051-1.125 0-.3.075-.9 1.051-1.125zM27 24.824c-.148-.3-.523-1.273-2.551-1.648V20.7a1.422 1.422 0 01.977.977c.148.449.375.6.75.6.226 0 1.5-.375.148-1.949-.226-.3-.6-.676-1.875-.824v-.977H23.7v.973c-2.324.227-2.551 1.8-2.551 2.477 0 2.023 2.024 2.4 2.551 2.55V27.3a1.828 1.828 0 01-1.273-1.574.67.67 0 00-.75-.45.779.779 0 00-.75.75A2.6 2.6 0 0022.5 28.2a2.844 2.844 0 001.2.3v.976h.75V28.5a4.426 4.426 0 001.5-.449A2.6 2.6 0 0027 24.824z" fill="#dba92c"/><g data-name="Group 670"><g data-name="Group 669"><g data-name="Group 668" clip-path="url(#a)" opacity=".3"><path data-name="Path 791" d="M30.3 18.3l-12 12-.3-.3a8.739 8.739 0 01-1.051-1.273l11.774-11.774A8.739 8.739 0 0130 18l.3.3zm-2.324-1.8L16.5 27.977a2.809 2.809 0 01-.375-.825l11.023-11.023a8.227 8.227 0 01.825.375z" fill="#fff"/></g></g></g><path data-name="Path 792" d="M28.875 16.051l-.9-.3.9-.3.3-.824.226.824.9.3-.9.3-.226.824zm1.2 2.324l-1.426-.449 1.426-.449.524-1.5.449 1.5 1.426.449-1.426.449L30.6 19.8z" fill="#fff"/><path data-name="Path 793" d="M16.352 36.824a14.894 14.894 0 007.125 3.3 15.733 15.733 0 008.1-.6 16.575 16.575 0 005.852-3.449l3 3v-9.149h-9.156L34.348 33A13.2 13.2 0 0123.7 37.875a13.383 13.383 0 01-6.676-2.023 15.574 15.574 0 01-5.1-5.25 14.627 14.627 0 004.426 6.226z" fill="#474e5e"/><path data-name="Path 794" d="M25.949 38.926A16.352 16.352 0 0040.426 30h-9.153l3.075 3.074A13.2 13.2 0 0123.7 37.949a13.383 13.383 0 01-6.676-2.023 15.565 15.565 0 01-5.1-5.25 1.267 1.267 0 01.148.375 16.13 16.13 0 0013.875 7.875z" fill="#231f20" opacity=".1"/><path data-name="Path 795" d="M31.648 11.176a14.894 14.894 0 00-7.125-3.3 15.733 15.733 0 00-8.1.6 16.575 16.575 0 00-5.852 3.449l-3-3v9.148h9.149L13.648 15A13.2 13.2 0 0124.3 10.125a13.383 13.383 0 016.676 2.023 15.574 15.574 0 015.1 5.25 14.627 14.627 0 00-4.426-6.226z" fill="#40eeff"/><path data-name="Path 796" d="M22.051 9.074A16.352 16.352 0 007.574 18h9.149l-3.075-3.074A13.2 13.2 0 0124.3 10.051a13.383 13.383 0 016.676 2.023 15.565 15.565 0 015.1 5.25 1.267 1.267 0 01-.148-.375 16.128 16.128 0 00-13.877-7.875z" fill="#231f20" opacity=".1"/></g></svg>