<svg xmlns="http://www.w3.org/2000/svg" width="31" height="31"><g data-name="Group 687" transform="translate(-1183 -424)"><circle data-name="Ellipse 41" cx="15.5" cy="15.5" r="15.5" transform="translate(1183 424)" fill="#64c689"/><g data-name="Group 6127" fill="#fff" stroke="#fff"><path data-name="Path 906" d="M1189.955 436.386c.039-.138.068-.279.117-.413a2.627 2.627 0 011.548-1.517 3.914 3.914 0 011.545-.294h2.669c.038 0 .076.006.124.01v1.678h-2.81a2.17 2.17 0 00-1.073.259.777.777 0 00-.445.751q.019 3.529 0 7.058a.765.765 0 00.426.728 2.363 2.363 0 001.221.275h9.592c.422 0 .846 0 1.267-.024a1.732 1.732 0 00.929-.334.663.663 0 00.3-.58q-.008-3.587 0-7.174a.7.7 0 00-.347-.638 1.968 1.968 0 00-1.089-.315h-2.89v-1.67a.337.337 0 01.078-.018c1.045.006 2.091-.012 3.135.028a3.157 3.157 0 012 .806 2.209 2.209 0 01.79 1.731c0 2.408-.011 4.816 0 7.225a2.33 2.33 0 01-1.154 2.084 3.692 3.692 0 01-2.061.562c-3.553 0-7.106.005-10.66-.008a5.206 5.206 0 01-1.2-.167 2.87 2.87 0 01-1.381-.8 2.408 2.408 0 01-.636-1.259z"/><path data-name="Path 907" d="M1197.711 439.037v-8.468a1.44 1.44 0 01.038-.379.835.835 0 01.891-.6.848.848 0 01.753.788v8.601c.065-.06.1-.095.142-.132.307-.306.608-.618.923-.917a.837.837 0 011.191 1.177q-1.262 1.285-2.547 2.548a.825.825 0 01-1.174-.011q-1.27-1.255-2.524-2.525a.825.825 0 01.008-1.184.836.836 0 011.185 0c.324.313.638.636.957.953.042.039.082.075.157.149z"/></g></g></svg>