<svg xmlns="http://www.w3.org/2000/svg" width="56" height="56"><g data-name="Group 6193" transform="translate(-1695.535 -1173.582)"><rect data-name="Rectangle 488" width="56" height="56" rx="10" transform="translate(1695.535 1173.582)" fill="#64c689"/><path data-name="Path 870" d="M1732.38 1194.859l-2.127-2.122a2.235 2.235 0 00-3.123 0l-2.083 2.122 5.206 5.207 2.127-2.084a2.235 2.235 0 000-3.123zm-9.387 2.084l-7.254 7.333a.6.6 0 00-.19.336l-1.469 5.594a.707.707 0 00.19.7.69.69 0 00.512.145.4.4 0 00.192 0l5.6-1.466a.581.581 0 00.336-.192l7.253-7.282z" fill="#fafafa"/></g></svg>