<svg data-name="Layer 1" xmlns="http://www.w3.org/2000/svg" viewBox="0 0 37.29 23.8"><path fill="#fff" d="M0 0h37.57v23.8H0z"/><path fill="#243f9c" d="M-3.92 0h45.28v23.89H-3.92z"/><path d="M18.71 18.74l.31.93h.96l-.68.52.19.99-.78-.56-.78.55.19-.98-.68-.52h.96l.31-.93zm0-16.16l.31.93h.96l-.68.52.19 1-.78-.57-.78.55.19-.98-.68-.52h.96l.31-.93zm3.89 1.04l.31.93h.96l-.68.52.19 1-.78-.57-.78.55.19-.98-.67-.52h.95l.31-.93zm-7.97 0l.31.93h.96l-.68.52.19 1-.78-.57-.78.55.19-.98-.68-.52h.96l.31-.93zm7.97 14.03l.31.93h.96l-.68.51.19 1-.78-.56-.78.55.19-.99-.67-.51h.95l.31-.93zm-7.97 0l.31.93h.96l-.68.51.19 1-.78-.56-.78.55.19-.99-.68-.51h.96l.31-.93zM11.65 6.67l.31.93h.96l-.68.52.19 1-.78-.57-.78.55.18-.98-.67-.52h.96l.31-.93zm14.03 0l.31.93h.96l-.68.52.19 1-.78-.57-.78.55.19-.98-.68-.52h.96l.31-.93zm-14.03 8.07l.31.93h.96l-.68.51.19 1-.78-.57-.78.55.18-.98-.67-.52h.96l.31-.92zm14.03 0l.31.93h.96l-.68.51.19 1-.78-.57-.78.55.19-.98-.68-.52h.96l.31-.92zm-14.96-4.06l.32.93.95-.01-.68.52.19 1-.78-.57-.78.55.19-.98-.67-.52h.95l.31-.92zm15.99 0l.31.93.96-.01-.68.52.18 1-.77-.57-.79.55.19-.98-.67-.52h.96l.31-.92z" fill="#fcec00"/></svg>