<svg xmlns="http://www.w3.org/2000/svg" width="72" height="72"><g data-name="Group 6193" transform="translate(-445 -1064.901)"><circle data-name="Ellipse 36" cx="36" cy="36" r="36" transform="translate(445 1064.901)" fill="#f5f5f5"/><g data-name="Group 500" fill="#d8a0a0"><path data-name="Path 723" d="M493.728 1111.012a2.66 2.66 0 01-2.743 2.73q-11.376.005-22.754 0a2.659 2.659 0 01-2.759-2.746q-.007-6.846 0-13.692a2.657 2.657 0 012.751-2.754q11.376-.005 22.754 0a2.66 2.66 0 012.752 2.753v3.11h-5.031a2.484 2.484 0 00-2.862 2.369 7.239 7.239 0 00.09 3.139 2.365 2.365 0 002.528 1.957h5.249c.009.1.024.184.024.269.003.955.007 1.911.001 2.865z"/><path data-name="Path 724" d="M482.003 1088.636a.36.36 0 01-.229.385q-4.394 2.18-8.782 4.373a.594.594 0 01-.248.084c-.851.006-1.7 0-2.652 0 1.226-1.076 2.376-2.086 3.529-3.095 1.87-1.638 3.744-3.271 5.608-4.917a1.553 1.553 0 011.8-.372 1.64 1.64 0 01.973 1.641c-.008.636-.01 1.269.001 1.901z"/><path data-name="Path 725" d="M496.394 1103.152a1.6 1.6 0 00-1.678-1.67h-6.293a1.288 1.288 0 00-1.447 1.1 6.31 6.31 0 000 3.129 1.288 1.288 0 001.442 1.1q3.163.005 6.325 0a1.6 1.6 0 001.654-1.661q.005-.998-.003-1.998zm-6.413 3.126a2.132 2.132 0 112.148-2.124 2.138 2.138 0 01-2.149 2.124z"/><path data-name="Path 726" d="M496.857 1086.317a.664.664 0 01-.461.222c-.339.032-.684.01-1.052.01a7.088 7.088 0 01-3.207 5.869l-2.128-1.6a3.952 3.952 0 002.122-4.272c-.384 0-.739.024-1.089-.011a.647.647 0 01-.453-.236.571.571 0 01.108-.468c.763-1.052 1.54-2.092 2.318-3.132a.8.8 0 011.406-.009c.785 1.048 1.569 2.1 2.338 3.158a.556.556 0 01.098.469z"/><path data-name="Path 727" d="M486.797 1093.469h-11.513c.13-.078.206-.13.288-.171q4.389-2.19 8.779-4.376a1.6 1.6 0 012.447 1.516l-.001 3.031z"/><path data-name="Path 728" d="M491.061 1104.148a1.065 1.065 0 11-1.058-1.067 1.071 1.071 0 011.058 1.067z"/></g></g></svg>