<svg xmlns="http://www.w3.org/2000/svg" width="37.986" height="21.706"><g data-name="Group 19" fill="#79e8a3"><path data-name="Path 6" d="M18.993 18.595a7.743 7.743 0 117.6-7.742 7.682 7.682 0 01-7.6 7.742zm0-18.595C12.049 0 6.639 4.138 0 10.853c5.715 5.74 10.514 10.853 18.993 10.853s14.7-6.478 18.993-10.734C33.594 5.986 27.371 0 18.993 0z"/><path data-name="Path 7" d="M18.993 8.14a2.723 2.723 0 01.644-1.755 4.031 4.031 0 00-.644-.051 4.52 4.52 0 104.435 4.52c0-.2-.017-.39-.034-.585a2.716 2.716 0 01-4.4-2.128z"/></g></svg>