<svg id="Layer_1" data-name="Layer 1" xmlns="http://www.w3.org/2000/svg" viewBox="0 0 37.29 23.8"><defs><style>.cls-1{fill:#d70027}.cls-2{fill:#efefef}.cls-3{fill:#0052b3}</style></defs><path class="cls-1" d="M37.28 9.57v4.66H21v10.11h-4.66v-9.71a.7.7 0 000-.4H0V9.58h15.9a.67.67 0 00.41-.05V-.54H21v9.71a.62.62 0 00.05.4z"/><path class="cls-2" d="M28.82 16.21a.19.19 0 000 .08L37.28 21v1l-.28-.12-9.94-5.52a1.19 1.19 0 00-.58-.15h-3.43a.38.38 0 00-.27 0l.23.15 14 7.78c.08 0 .15.13.26.1v.07h-4a.51.51 0 00-.26-.19L23 18.52c-.07 0-.13-.12-.24-.06v5.59a.7.7 0 000 .29H21V14.23h16.3v2h-.4zm-5.98-8.68c0 .07.07 0 .1 0h3.64a.92.92 0 00.51-.15l3.81-2.07 6.38-3.53V4a.25.25 0 00-.16.06L31 7.42s-.15 0-.13.17h6.38v2H21a.62.62 0 01-.05-.4V-.54h1.79a.85.85 0 000 .32v6.71a.44.44 0 00.2-.08L35.1-.34a.83.83 0 00.26-.19h1.92v.07c-.12 0-.2.07-.29.12L23.12 7.35c-.12.05-.22.08-.28.18z"/><path class="cls-1" d="M37.28 24.28c-.11 0-.18-.06-.26-.1L23 16.4l-.24-.15a.38.38 0 01.27 0h3.46a1.07 1.07 0 01.58.15L37 21.88l.25.14zm0-22.5L30.9 5.32l-3.81 2.11a1 1 0 01-.51.16h-3.74c-.03 0 .18-.13.28-.18L37-.36c.09 0 .17-.14.29-.12z"/><path class="cls-3" d="M37.28 21l-8.48-4.72v-.07h8.46zm0-13.4h-6.42c0-.13.08-.13.13-.16Q34.05 5.72 37.12 4a.25.25 0 01.16 0z"/><path class="cls-2" d="M16.34-.54V9.52a.67.67 0 01-.41.05H0v-2h8.5a.55.55 0 00-.32-.24Q6.13 6.19 4.05 5.05T0 2.82v-1l10.2 5.61a.86.86 0 00.41.16h3.88c0-.13-.12-.14-.18-.18L.27-.39C.19-.43.12-.51 0-.48c0-.08.12-.07.19-.07H4a.78.78 0 00.29.21q5 2.81 10.09 5.6c.06 0 .12.13.23.07s0-.09 0-.14V-.25a.7.7 0 000-.29zm-1.75 18.09c0-.08 0-.17-.06-.25l-.25.13-12.06 6.7a1.15 1.15 0 00-.29.2H.2c-.07 0-.15 0-.19-.07.13 0 .22-.08.32-.14l13.88-7.71c.09-.05.21-.06.26-.22h-3.61a1.38 1.38 0 00-.69.17Q5.1 19.22 0 22v-2.2c.09 0 .16 0 .23-.08l6.07-3.34c.06 0 .15 0 .14-.16H0v-2h16.27a.7.7 0 010 .4v9.71h-1.72a.85.85 0 000-.32z"/><path class="cls-3" d="M35.36-.53a.83.83 0 01-.26.19L23 6.41a.44.44 0 01-.2.08c-.08-.07 0-.16 0-.24V-.22a.85.85 0 010-.32h12.56zM14.59 17.55V24a.85.85 0 010 .32H1.93a1.15 1.15 0 01.29-.2l12.06-6.7.25-.13c.09.09.06.18.06.26zm18.74 6.78H22.74a.7.7 0 010-.29v-5.58c.11-.06.17 0 .24.06l10.12 5.62a.51.51 0 01.23.19zM14.59-.25v5.59c0 .05-.17 0-.23-.07Q9.3 2.48 4.26-.33A.78.78 0 014-.54h10.55a.7.7 0 01.04.29z"/><path class="cls-1" d="M14.49 7.59h-3.88a.86.86 0 01-.41-.16L0 1.77V-.48c.11 0 .18 0 .26.09l14 7.8c.11.04.22.05.23.18zm-.02 8.62c-.05.16-.17.17-.26.22L.33 24.14c-.1.06-.19.15-.32.14V22q5.09-2.82 10.16-5.65a1.38 1.38 0 01.69-.17h3.61z"/><path class="cls-3" d="M8.5 7.58H0V2.82q2 1.11 4 2.23t4.18 2.29a.55.55 0 01.32.24zm-2.06 8.64c0 .12-.08.13-.14.16L.24 19.75c-.07 0-.14.1-.23.08v-3.61z"/></svg>