<svg xmlns="http://www.w3.org/2000/svg" width="48" height="48"><defs><clipPath id="a"><path data-name="Rectangle 150" fill="none" d="M0 0h48v48H0z"/></clipPath></defs><g data-name="Group 154" style="isolation:isolate"><path data-name="Path 329" d="M48 24A24 24 0 1124 0a24 24 0 0124 24" fill="#ebf0f1"/><path data-name="Path 330" d="M38.926 31.2L26.551 18.824 18.977 26.4 9 16.5l-2.023 2.1 12 12 7.574-7.575L36.9 33.3l-2.476 2.476h6.6V29.1z" fill="#f9c2af"/><path data-name="Path 331" d="M38.926 31.2L26.551 18.824 18.977 26.4 9 16.5l-2.023 2.1 12 12 7.574-7.575L36.9 33.3l-2.476 2.476h6.6V29.1z" fill="#fff"/><path data-name="Path 332" d="M8.477 20.1v20.025H12.9v-15.6z" fill="#dba92c"/><path data-name="Path 333" d="M18.977 30.6l-3.825-3.825v13.354H19.5V30.074z" fill="#fdef34"/><path data-name="Path 334" d="M21.75 27.824v12.3h4.35V23.477z" fill="#c64444"/><path data-name="Path 335" d="M28.352 24.75v15.375h4.425V29.176z" fill="#baca5b"/><path data-name="Path 336" d="M41.023 12.9a6.9 6.9 0 11-6.9-6.9 6.9 6.9 0 016.9 6.9" fill="#facc20"/><path data-name="Path 337" d="M38.773 12.9c0 6.2-9.3 6.2-9.3 0s9.3-6.2 9.3 0" fill="#fdef34"/><path data-name="Path 338" d="M27.75 13.5a6.906 6.906 0 0111.473-5.172A6.956 6.956 0 0034.051 6a6.906 6.906 0 00-4.574 12.074A7.037 7.037 0 0127.75 13.5z" fill="#fff" opacity=".2"/><path data-name="Path 339" d="M38.7 7.727a7.037 7.037 0 011.726 4.573 6.906 6.906 0 01-11.473 5.172 6.972 6.972 0 005.176 2.328 6.88 6.88 0 006.9-6.9A6.729 6.729 0 0038.7 7.723z" fill="#231f20" opacity=".1"/><g data-name="Group 141"><g data-name="Group 140"><g data-name="Group 139" clip-path="url(#a)" opacity=".3"><path data-name="Path 340" d="M40.051 9.3l-9.528 9.523a8.286 8.286 0 01-1.273-.976L39 8.023A8.747 8.747 0 0140.051 9.3zM38.1 7.2l-9.676 9.676c-.074-.148-.227-.3-.3-.449l9.523-9.449.45.226z" fill="#fff"/></g></g></g><path data-name="Path 341" d="M34.348 15.152v-1.8c.824.3.824.6.824.9.074.227 0 .75-.824.9zm-.524-3c-.375-.226-.676-.226-.75-.75 0-.226.074-.6.75-.75zm2.25 1.274c-.074-.227-.3-.824-1.726-1.125v-1.727c.375.074.523.3.675.676a.5.5 0 00.524.449c.148 0 .976-.226.148-1.351a1.884 1.884 0 00-1.273-.6V9.07H33.9v.676c-1.574.149-1.726 1.2-1.726 1.649 0 1.425 1.351 1.648 1.726 1.726V15c-.675-.148-.824-.824-.9-1.051a.42.42 0 00-.449-.3.554.554 0 00-.524.524 1.813 1.813 0 001.051 1.5 1.531 1.531 0 00.824.226v.676h.524V15.9a1.864 1.864 0 00.976-.3 1.7 1.7 0 00.676-2.176z" fill="#f7a90b"/><g data-name="Group 144"><g data-name="Group 143"><g data-name="Group 142" clip-path="url(#a)" opacity=".1"><path data-name="Path 342" d="M18.824 37.648a2.217 2.217 0 01-1.426 1.8l-.9.3c-.75.227-1.352.375-1.352.375H19.5V30.6l-.676 7.05z" fill="#231f20"/></g></g></g><g data-name="Group 147"><g data-name="Group 146"><g data-name="Group 145" clip-path="url(#a)" opacity=".1"><path data-name="Path 343" d="M25.426 37.648A2.217 2.217 0 0124 39.449l-.9.3c-.75.227-1.352.375-1.352.375H26.1V30.6l-.676 7.05z" fill="#231f20"/></g></g></g><g data-name="Group 150"><g data-name="Group 149"><g data-name="Group 148" clip-path="url(#a)" opacity=".1"><path data-name="Path 344" d="M32.1 37.648a2.219 2.219 0 01-1.426 1.8l-.977.3c-.75.227-1.351.375-1.351.375H32.7V30.6l-.6 7.05z" fill="#231f20"/></g></g></g><g data-name="Group 153"><g data-name="Group 152"><g data-name="Group 151" clip-path="url(#a)" opacity=".1"><path data-name="Path 345" d="M12.227 37.648a2.219 2.219 0 01-1.426 1.8l-.9.3c-.75.227-1.351.375-1.351.375h4.35V30.6l-.675 7.05z" fill="#231f20"/></g></g></g></g></svg>