<svg xmlns="http://www.w3.org/2000/svg" width="1091.47" height="456.393"><g data-name="Group 6211"><path data-name="Line 89" fill="none" stroke="#cdd0db" d="M88.546 414.844V5.683"/><path data-name="Line 92" fill="none" stroke="#cdd0db" d="M87.694 353.816H1091.47"/><path data-name="Line 119" fill="none" stroke="#cdd0db" d="M87.694 416.812H1091.47"/><path data-name="Line 98" fill="none" stroke="#cdd0db" d="M87.694 322.318H1091.47"/><path data-name="Line 118" fill="none" stroke="#cdd0db" d="M87.694 385.314H1091.47"/><path data-name="Line 99" fill="none" stroke="#cdd0db" d="M87.694 290.82H1091.47"/><path data-name="Line 100" fill="none" stroke="#cdd0db" d="M87.694 259.322H1091.47"/><path data-name="Line 101" fill="none" stroke="#cdd0db" d="M87.694 227.826H1091.47"/><path data-name="Line 102" fill="none" stroke="#cdd0db" d="M87.694 196.328H1091.47"/><path data-name="Line 103" fill="none" stroke="#cdd0db" d="M87.694 164.83H1091.47"/><path data-name="Line 104" fill="none" stroke="#cdd0db" d="M87.694 133.332H1091.47"/><path data-name="Path 924" d="M87.694 101.834H1091.47" fill="none" stroke="#cdd0db"/><path data-name="Path 925" d="M87.694 70.336H1091.47" fill="none" stroke="#cdd0db"/><path data-name="Path 926" d="M87.694 38.84H1091.47" fill="none" stroke="#cdd0db"/><path data-name="Path 927" d="M87.694 7.342H1091.47" fill="none" stroke="#cdd0db"/><text data-name="0" transform="translate(74 357)" fill="#43475d" font-size="15" font-family="Poppins-Regular, Poppins"><tspan x="-9.42" y="0">0</tspan></text><text data-name="- 5 000 zł" transform="translate(74 389)" fill="#43475d" font-size="15" font-family="Poppins-Regular, Poppins"><tspan x="-68.55" y="0">- 5 000 zł</tspan></text><text data-name="- 10 000 zł" transform="translate(74 421)" fill="#43475d" font-size="15" font-family="Poppins-Regular, Poppins"><tspan x="-73.35" y="0">- 10 000 zł</tspan></text><text data-name="5 000 zł" transform="translate(74 325)" fill="#43475d" font-size="15" font-family="Poppins-Regular, Poppins"><tspan x="-56.28" y="0">5 000 zł</tspan></text><text data-name="2022" transform="translate(1063 451.392)" fill="#43475d" font-size="15" font-family="Poppins-Regular, Poppins"><tspan x="-35.295" y="0">2022</tspan></text><text data-name="2021" transform="translate(922 451.392)" fill="#43475d" font-size="15" font-family="Poppins-Regular, Poppins"><tspan x="-31.47" y="0">2021</tspan></text><text data-name="2020" transform="translate(788 451.392)" fill="#43475d" font-size="15" font-family="Poppins-Regular, Poppins"><tspan x="-36.09" y="0">2020</tspan></text><text data-name="2019" transform="translate(652 451.392)" fill="#43475d" font-size="15" font-family="Poppins-Regular, Poppins"><tspan x="-32.295" y="0">2019</tspan></text><text data-name="2018" transform="translate(514 451.392)" fill="#43475d" font-size="15" font-family="Poppins-Regular, Poppins"><tspan x="-32.31" y="0">2018</tspan></text><text data-name="2017" transform="translate(376 451.392)" fill="#43475d" font-size="15" font-family="Poppins-Regular, Poppins"><tspan x="-31.035" y="0">2017</tspan></text><text data-name="2016" transform="translate(239 451.392)" fill="#43475d" font-size="15" font-family="Poppins-Regular, Poppins"><tspan x="-32.37" y="0">2016</tspan></text><text data-name="2015" transform="translate(107 451.392)" fill="#43475d" font-size="15" font-family="Poppins-Regular, Poppins"><tspan x="-32.265" y="0">2015</tspan></text><text data-name="10 000 zł" transform="translate(74 293)" fill="#43475d" font-size="15" font-family="Poppins-Regular, Poppins"><tspan x="-61.08" y="0">10 000 zł</tspan></text><text data-name="15 000 zł" transform="translate(74 262)" fill="#43475d" font-size="15" font-family="Poppins-Regular, Poppins"><tspan x="-61.08" y="0">15 000 zł</tspan></text><text data-name="20 000 zł" transform="translate(74 230)" fill="#43475d" font-size="15" font-family="Poppins-Regular, Poppins"><tspan x="-64.905" y="0">20 000 zł</tspan></text><text data-name="25 000 zł" transform="translate(74 198)" fill="#43475d" font-size="15" font-family="Poppins-Regular, Poppins"><tspan x="-64.905" y="0">25 000 zł</tspan></text><text data-name="30 000 zł" transform="translate(74 168)" fill="#43475d" font-size="15" font-family="Poppins-Regular, Poppins"><tspan x="-65.115" y="0">30 000 zł</tspan></text><text data-name="35 000 zł" transform="translate(74 136)" fill="#43475d" font-size="15" font-family="Poppins-Regular, Poppins"><tspan x="-65.115" y="0">35 000 zł</tspan></text><text data-name="40 000 zł" transform="translate(74 106)" fill="#43475d" font-size="15" font-family="Poppins-Regular, Poppins"><tspan x="-65.715" y="0">40 000 zł</tspan></text><text data-name="45 000 zł" transform="translate(74 76)" fill="#43475d" font-size="15" font-family="Poppins-Regular, Poppins"><tspan x="-65.715" y="0">45 000 zł</tspan></text><text data-name="50 000 zł" transform="translate(74 46)" fill="#43475d" font-size="15" font-family="Poppins-Regular, Poppins"><tspan x="-65.7" y="0">50 000 zł</tspan></text><text data-name="55 000 zł" transform="translate(74 16)" fill="#43475d" font-size="15" font-family="Poppins-Regular, Poppins"><tspan x="-65.7" y="0">55 000 zł</tspan></text><path data-name="Path 937" d="M224.895 7.967v408.846" fill="none" stroke="#cdd0db"/><path data-name="Path 938" d="M360.895 7.967v408.846" fill="none" stroke="#cdd0db"/><path data-name="Path 939" d="M497.895 7.967v408.846" fill="none" stroke="#cdd0db"/><path data-name="Path 940" d="M633.895 7.967v408.846" fill="none" stroke="#cdd0db"/><path data-name="Path 941" d="M769.895 7.967v408.846" fill="none" stroke="#cdd0db"/><path data-name="Path 942" d="M906.895 7.967v408.846" fill="none" stroke="#cdd0db"/><path data-name="Path 943" d="M1042.895 7.967v408.846" fill="none" stroke="#cdd0db"/><path data-name="Path 945" d="M88.4 316.556l272.75-43.205h137.488l592.614-77.477" fill="none" stroke="#707070"/></g></svg>