<svg xmlns="http://www.w3.org/2000/svg" width="32.083" height="32.083"><path data-name="Path 767" d="M18.334 16.877a2.776 2.776 0 00-1.54 2.506 1.17 1.17 0 11-2.339 0 5.141 5.141 0 012.575-4.45c1.611-1.081 2.522-1.766 2.522-3.273a2.608 2.608 0 00-1.8-2.378 4.389 4.389 0 00-1.7-.258 3.646 3.646 0 00-2.325.718 2.99 2.99 0 00-1.2 1.871 1.171 1.171 0 01-2.339-.113 5.188 5.188 0 012.07-3.576 5.958 5.958 0 013.76-1.235 6.55 6.55 0 012.734.486 4.908 4.908 0 013.134 4.485c.004 2.827-1.886 4.096-3.552 5.217zM15.54 25.4a1.672 1.672 0 111.181-.49 1.672 1.672 0 01-1.181.49zm.5-25.4a16.041 16.041 0 1016.043 16.041A16.045 16.045 0 0016.041 0z" fill="#61688d"/></svg>