<svg xmlns="http://www.w3.org/2000/svg" width="48" height="48"><g data-name="Group 155" style="isolation:isolate"><path data-name="Path 346" d="M48 24A24 24 0 1124 0a24 24 0 0124 24" fill="#ebf0f1"/><path data-name="Rectangle 155" d="M8.774 12h30.449a1.425 1.425 0 011.425 1.425V31.5a1.426 1.426 0 01-1.426 1.426H8.773A1.425 1.425 0 017.348 31.5V13.426A1.426 1.426 0 018.774 12z" fill="#fff"/><path data-name="Rectangle 156" fill="#00a8ea" d="M9.148 16.648h29.699v14.477H9.148z"/><path data-name="Path 347" d="M9.148 31.125l29.7-14.477v14.477z" fill="#231f20" opacity=".1"/><path data-name="Path 348" d="M41.4 33.523H30c-.375 0-.676.075-.676.149-.074.074-.226.3-.449.523a4.424 4.424 0 01-1.426.3h-6.9a5.176 5.176 0 01-1.125-.148 1.685 1.685 0 01-.75-.676 1.278 1.278 0 00-.674-.148H6.6a.594.594 0 00-.6.6v1.2a.594.594 0 00.6.6h34.728a.594.594 0 00.6-.6v-1.2a.5.5 0 00-.524-.6z" fill="#695652"/><path data-name="Path 349" d="M24.523 14.324a.523.523 0 11-1.046 0 .523.523 0 111.046 0" fill="#474e5e"/><path data-name="Path 350" d="M29.625 19.125h-11.25a.449.449 0 010-.9H29.7a.482.482 0 01.449.449.559.559 0 01-.524.451z" fill="#474e5e"/><path data-name="Rectangle 157" fill="#cade49" d="M19.648 18.676h8.699v10.5h-8.699z"/><path data-name="Rectangle 158" fill="#aad643" d="M21 18.676h6v9.148h-6z"/><path data-name="Path 351" d="M26.324 21.824c0 2.3-4.648 2.3-4.648 0s4.648-2.3 4.648 0" fill="#82c736"/><path data-name="Path 352" d="M22.875 27.75H21v-1.875a1.856 1.856 0 011.875 1.875zm4.125 0h-1.875A1.856 1.856 0 0127 25.875z" fill="#82c736"/><path data-name="Path 353" d="M22.945 21.9h.825c-.149.375-.3.375-.375.375s-.301-.002-.45-.375zm1.352-.226c.074-.149.148-.3.375-.3a.351.351 0 01.375.3zm-.524.976c.075 0 .375-.148.524-.75h.75a.579.579 0 01-.3.3.2.2 0 00-.226.227c0 .074.074.449.6.074.074-.074.227-.148.227-.6h.3v-.226h-.3c-.075-.676-.524-.75-.75-.75a.779.779 0 00-.75.75h-.825a.513.513 0 01.45-.375c.148-.074.148-.149.148-.227a.241.241 0 00-.226-.226.92.92 0 00-.676.449.57.57 0 00-.074.375h-.3v.229h.3a1.076 1.076 0 00.148.449.72.72 0 00.977.3z" fill="#fff"/><path data-name="Path 354" d="M24.449 24.6a.449.449 0 01-.9 0 .449.449 0 11.9 0" fill="#82c736"/></g></svg>