<svg xmlns="http://www.w3.org/2000/svg" width="508.234" height="267.146"><g data-name="Group 111"><path data-name="Path 174" d="M31.47 266.507s-59.139-63.5-10-132.24c43.6-60.994 94.429-56.825 131.723-32.073 15.884 10.542 61.679 1.3 100.657-60.765 53.155-84.638 237.408-33.3 203.813 96.913-16.258 63.017 49.479 65.307 15.984 128.3z" fill="#ebf3fa"/><g data-name="Group 88"><path data-name="Path 175" d="M310.988 198.783l4.536.746a1.933 1.933 0 01.933.423 1.615 1.615 0 01.536.826 1.378 1.378 0 01.027.569L306.584 264.6a1.666 1.666 0 01-1.911 1.256l-.09-.013-4.536-.746-.09-.016a1.663 1.663 0 01-1.406-1.8l10.437-63.253a1.385 1.385 0 01.208-.531 1.623 1.623 0 01.773-.611 1.937 1.937 0 011.019-.103z" fill="#ffb93e"/><path data-name="Path 176" d="M312.147 230.878l-5.591 33.887a1.6 1.6 0 01-1.883 1.092l-.09-.013-4.536-.746-.09-.016a1.6 1.6 0 01-1.433-1.637l4.9-29.725a15.172 15.172 0 008.723-2.842z" fill="#ffa412"/><g data-name="Group 87" fill="#ffa412"><path data-name="Rectangle 31" d="M307.852 206.908l.119-.72 8.03 1.328-.118.72z"/><path data-name="Rectangle 32" d="M307.45 209.344l.119-.72 8.031 1.324-.118.72z"/><path data-name="Rectangle 33" d="M306.969 212.261l.119-.72 8.032 1.327-.119.719z"/><path data-name="Rectangle 34" d="M306.231 216.734l.119-.72 8.032 1.326-.119.72z"/><path data-name="Rectangle 35" d="M305.45 221.464l.119-.72 8.031 1.326-.119.72z"/><path data-name="Rectangle 36" d="M304.254 228.716l.119-.72 8.032 1.324-.118.72z"/><path data-name="Rectangle 37" d="M303.133 235.503l.119-.72 8.032 1.328-.119.72z"/><path data-name="Rectangle 38" d="M302.133 241.567l.119-.72 8.032 1.326-.119.72z"/><path data-name="Rectangle 39" d="M308.234 204.594l.119-.72 8.032 1.324-.118.72z"/><path data-name="Rectangle 40" d="M308.486 203.063l.119-.72 8.032 1.326-.119.72z"/><path data-name="Rectangle 41" d="M308.73 201.586l.119-.72 8.032 1.324-.118.72z"/><path data-name="Path 177" d="M308.913 200.476l8.033 1.321.074-.449a1.348 1.348 0 00.017-.275l-7.977-1.312a1.324 1.324 0 00-.072.265z"/><path data-name="Path 178" d="M309.195 199.496l7.8 1.282a1.615 1.615 0 00-.536-.826l-6.488-1.067a1.623 1.623 0 00-.776.611z"/></g></g><g data-name="Group 90"><path data-name="Path 179" d="M319.217 198.783l4.536.746a1.935 1.935 0 01.933.423 1.616 1.616 0 01.536.826 1.33 1.33 0 01.043.295 1.311 1.311 0 01-.016.275l-10.437 63.253a1.666 1.666 0 01-1.911 1.256l-.09-.013-4.536-.746-.089-.016a1.664 1.664 0 01-1.406-1.8l10.437-63.253a1.379 1.379 0 01.208-.531 1.622 1.622 0 01.773-.611 1.938 1.938 0 011.019-.104z" fill="#ffb93e"/><path data-name="Path 180" d="M320.377 230.878l-5.591 33.887a1.6 1.6 0 01-1.884 1.092l-.09-.013-4.536-.746-.089-.016a1.6 1.6 0 01-1.433-1.637l4.9-29.725a15.171 15.171 0 008.723-2.842z" fill="#ffa412"/><g data-name="Group 89" fill="#ffa412"><path data-name="Rectangle 42" d="M316.08 206.908l.119-.72 8.032 1.328-.119.72z"/><path data-name="Rectangle 43" d="M315.679 209.344l.119-.72 8.034 1.327-.119.72z"/><path data-name="Rectangle 44" d="M315.197 212.261l.119-.72 8.032 1.327-.119.719z"/><path data-name="Rectangle 45" d="M314.459 216.734l.119-.72 8.032 1.326-.119.72z"/><path data-name="Rectangle 46" d="M313.679 221.464l.119-.72 8.031 1.326-.119.72z"/><path data-name="Rectangle 47" d="M312.482 228.715l.119-.72 8.032 1.327-.119.719z"/><path data-name="Rectangle 48" d="M311.362 235.504l.119-.72 8.032 1.326-.119.72z"/><path data-name="Rectangle 49" d="M310.362 241.567l.119-.72 8.032 1.326-.119.72z"/><path data-name="Rectangle 50" d="M316.463 204.593l.119-.72 8.031 1.326-.119.72z"/><path data-name="Rectangle 51" d="M316.715 203.064l.119-.72 8.035 1.327-.119.72z"/><path data-name="Rectangle 52" d="M316.959 201.586l.119-.72 8.032 1.324-.118.72z"/><path data-name="Path 181" d="M317.142 200.476l8.033 1.321.074-.449a1.313 1.313 0 00.016-.275l-7.977-1.312a1.332 1.332 0 00-.072.265z"/><path data-name="Path 182" d="M317.424 199.496l7.8 1.282a1.617 1.617 0 00-.536-.826l-6.488-1.067a1.623 1.623 0 00-.776.611z"/></g></g><g data-name="Group 96"><g data-name="Group 92"><path data-name="Path 183" d="M289.123 259.507l-.008 4.6a1.936 1.936 0 01-.268.989 1.618 1.618 0 01-.729.661 1.308 1.308 0 01-.284.09 1.325 1.325 0 01-.273.028l-64.108-.152a1.666 1.666 0 01-1.546-1.684v-.091l.008-4.6v-.091a1.664 1.664 0 011.553-1.677l64.108.152a1.346 1.346 0 01.273.029 1.327 1.327 0 01.284.092 1.616 1.616 0 01.727.665 1.934 1.934 0 01.263.989z" fill="#ffb93e"/><path data-name="Path 184" d="M257.631 265.801l-34.345-.081a1.6 1.6 0 01-1.38-1.684v-.091l.008-4.6v-.091a1.6 1.6 0 011.386-1.677l30.127.072a15.174 15.174 0 004.204 8.152z" fill="#ffa412"/><g data-name="Group 91" fill="#ffa412"><path data-name="Rectangle 53" d="M280.579 265.856l.02-8.14.728.002-.019 8.14z"/><path data-name="Rectangle 54" d="M278.113 265.85l.02-8.141.728.002-.019 8.14z"/><path data-name="Rectangle 55" d="M275.154 265.843l.021-8.141.73.002-.022 8.14z"/><path data-name="Rectangle 56" d="M270.622 265.832l.016-8.141.73.001-.017 8.141z"/><path data-name="Rectangle 57" d="M265.828 265.821l.02-8.141.727.002-.019 8.14z"/><path data-name="Rectangle 58" d="M258.479 265.804l.02-8.141.728.002-.019 8.14z"/><path data-name="Rectangle 59" d="M251.597 265.787l.02-8.141.728.002-.019 8.14z"/><path data-name="Rectangle 60" d="M245.452 265.773l.024-8.141.73.002-.025 8.141z"/><path data-name="Rectangle 61" d="M282.927 265.862l.02-8.141.728.002-.019 8.14z"/><path data-name="Rectangle 62" d="M284.479 265.865l.017-8.14.729.002-.017 8.14z"/><path data-name="Rectangle 63" d="M285.976 265.869l.02-8.14.728.002-.019 8.14z"/><path data-name="Path 185" d="M287.124 257.731l-.015 8.14h.455a1.337 1.337 0 00.273-.028l.015-8.084a1.332 1.332 0 00-.273-.029z"/><path data-name="Path 186" d="M288.132 257.853l-.014 7.9a1.617 1.617 0 00.729-.661l.012-6.576a1.618 1.618 0 00-.727-.663z"/></g></g><g data-name="Group 94"><path data-name="Path 187" d="M282.283 251.351l-.008 4.6a1.938 1.938 0 01-.268.989 1.618 1.618 0 01-.729.661 1.387 1.387 0 01-.557.118l-64.108-.152a1.666 1.666 0 01-1.546-1.684v-.091l.008-4.6v-.091a1.663 1.663 0 011.552-1.677l64.108.152c.041 0 .082 0 .122.006a.447.447 0 01.052.006.55.55 0 01.057.009l.041.008a1.339 1.339 0 01.283.092l.04.019.039.02.078.043.044.029.039.027c.013.01.049.034.073.053s.054.044.079.068l.06.056.039.04a1.562 1.562 0 01.112.132l.031.041.03.043.057.09a1.932 1.932 0 01.272.993z" fill="#ffb93e"/><path data-name="Path 188" d="M250.791 257.645l-34.345-.082a1.6 1.6 0 01-1.38-1.684v-.091l.008-4.6v-.091a1.6 1.6 0 011.386-1.677l30.126.072.042.2a15.06 15.06 0 004.163 7.953z" fill="#ffa412"/><g data-name="Group 93" fill="#ffa412"><path data-name="Rectangle 64" d="M273.739 257.7l.019-8.14.729.002-.019 8.14z"/><path data-name="Rectangle 65" d="M271.273 257.694l.016-8.141.728.001-.016 8.141z"/><path data-name="Rectangle 66" d="M268.315 257.687l.02-8.141.728.002-.019 8.14z"/><path data-name="Rectangle 67" d="M263.782 257.676l.02-8.14.727.002-.019 8.14z"/><path data-name="Rectangle 68" d="M258.989 257.665l.016-8.14.73.001-.017 8.14z"/><path data-name="Rectangle 69" d="M251.638 257.647l.021-8.141.728.002-.021 8.14z"/><path data-name="Rectangle 70" d="M244.758 257.631l.02-8.14.728.002-.019 8.14z"/><path data-name="Rectangle 71" d="M238.614 257.617l.016-8.141.73.001-.017 8.141z"/><path data-name="Rectangle 72" d="M276.087 257.705l.016-8.141.73.001-.017 8.141z"/><path data-name="Rectangle 73" d="M277.638 257.709l.02-8.141.727.002-.019 8.14z"/><path data-name="Rectangle 74" d="M279.136 257.713l.02-8.141.728.002-.019 8.14z"/><path data-name="Path 189" d="M280.28 249.572l-.015 8.141h.455a1.339 1.339 0 00.274-.028l.015-8.084a1.318 1.318 0 00-.274-.029z"/><path data-name="Path 190" d="M281.293 249.696l-.014 7.9a1.62 1.62 0 00.729-.661l.012-6.576a1.617 1.617 0 00-.727-.663z"/></g></g><path data-name="Path 191" d="M285.609 243.419l-.008 4.6a1.935 1.935 0 01-.268.989 1.618 1.618 0 01-.729.661 1.319 1.319 0 01-.284.09 1.341 1.341 0 01-.274.028l-64.108-.152a1.385 1.385 0 01-.715-.2 1.8 1.8 0 01-.826-1.4v-.17l.008-4.6v-.091a1.664 1.664 0 011.552-1.677l64.107.152a1.382 1.382 0 01.274.029 1.318 1.318 0 01.284.092 1.62 1.62 0 01.727.665 1.934 1.934 0 01.26.984z" fill="#ffb93e"/><path data-name="Path 192" d="M254.117 249.713l-34.345-.082a1.138 1.138 0 01-.638-.2 1.843 1.843 0 01-.737-1.4v-.17l.008-4.6v-.091a1.6 1.6 0 011.386-1.677l30.127.072a15.327 15.327 0 003.992 7.949q.101.099.207.199z" fill="#ffa412"/><path data-name="Path 193" d="M287.16 235.286l-.008 4.6a1.936 1.936 0 01-.268.989 1.616 1.616 0 01-.729.661 1.308 1.308 0 01-.284.091 1.333 1.333 0 01-.273.028l-64.108-.152a1.666 1.666 0 01-1.547-1.684v-.091l.009-4.6v-.091a1.7 1.7 0 011.369-1.665 1.247 1.247 0 01.184-.012l64.108.152a1.384 1.384 0 01.557.12 1.621 1.621 0 01.727.665 1.937 1.937 0 01.263.989z" fill="#ffb93e"/><path data-name="Path 194" d="M255.668 241.575l-34.345-.082a1.6 1.6 0 01-1.38-1.684v-.091l.009-4.6v-.091a1.657 1.657 0 011.222-1.665 1.021 1.021 0 01.164-.013l30.127.072v.013a15.17 15.17 0 004.203 8.141z" fill="#ffa412"/><path data-name="Path 195" d="M282.461 227.143l-.009 4.6a1.932 1.932 0 01-.268.988 1.614 1.614 0 01-.729.661 1.314 1.314 0 01-.284.091l-.09.015-.051.006h-.133l-64.108-.152a1.666 1.666 0 01-1.546-1.684v-.091l.008-4.6v-.165a1.728 1.728 0 011.166-1.548l.047-.013a1.367 1.367 0 01.335-.041l64.108.152c.047 0 .094 0 .139.007l.062.008.072.014a1.313 1.313 0 01.284.092 1.619 1.619 0 01.727.665 1.938 1.938 0 01.27.995z" fill="#ffb93e"/><path data-name="Path 196" d="M250.969 233.437l-34.345-.081a1.6 1.6 0 01-1.38-1.684v-.091l.008-4.6v-.165a1.7 1.7 0 011.077-1.56.5.5 0 01.06-.016 1.082 1.082 0 01.245-.028l30.127.071c0 .02.008.038.012.058a15.149 15.149 0 004.177 8.08z" fill="#ffa412"/><path data-name="Path 197" d="M282.341 219.06l-.008 4.6a1.931 1.931 0 01-.268.988 1.617 1.617 0 01-.729.661 1.286 1.286 0 01-.221.076.678.678 0 01-.061.015 1.318 1.318 0 01-.273.028l-64.108-.152a1.226 1.226 0 01-.2-.016.625.625 0 01-.076-.014 1.717 1.717 0 01-1.269-1.654v-.091l.008-4.6v-.091a1.664 1.664 0 011.553-1.677l64.108.152c.041 0 .082 0 .123.006l.052.006a.568.568 0 01.058.009l.041.008a1.3 1.3 0 01.284.092l.04.019.039.02.078.043c.028.018.057.035.084.055l.073.053a.93.93 0 01.079.068l.06.056.039.04a1.639 1.639 0 01.112.132l.031.041.03.043c.02.029.039.06.057.09a1.934 1.934 0 01.264.994z" fill="#ffb93e"/><path data-name="Path 198" d="M250.849 225.353l-34.345-.081h-.081c-.03 0-.059-.006-.089-.011a1.66 1.66 0 01-1.21-1.67v-.091l.008-4.6v-.091a1.6 1.6 0 011.386-1.677l30.127.071c.013.067.027.133.042.2a15.108 15.108 0 004.1 7.892z" fill="#ffa412"/><path data-name="Path 199" d="M285.669 211.127l-.008 4.6a1.937 1.937 0 01-.268.988 1.616 1.616 0 01-.729.661 1.382 1.382 0 01-.557.118l-64.108-.152a1.389 1.389 0 01-.715-.2 1.8 1.8 0 01-.827-1.4v-.17l.008-4.6v-.091a1.663 1.663 0 011.553-1.677l64.108.152a1.337 1.337 0 01.274.029 1.311 1.311 0 01.284.092 1.618 1.618 0 01.727.665 1.936 1.936 0 01.258.985z" fill="#ffb93e"/><path data-name="Path 200" d="M254.177 217.421l-34.345-.081a1.139 1.139 0 01-.638-.2 1.842 1.842 0 01-.737-1.4v-.17l.008-4.6v-.091a1.6 1.6 0 011.386-1.677l30.127.071a15.328 15.328 0 003.992 7.95q.1.099.207.198z" fill="#ffa412"/><path data-name="Path 201" d="M290.926 203l-.008 4.6a1.936 1.936 0 01-.268.989 1.615 1.615 0 01-.729.661 1.38 1.38 0 01-.558.118l-64.108-.152a1.666 1.666 0 01-1.546-1.684v-.091l.008-4.6v-.091a1.7 1.7 0 011.369-1.665 1.285 1.285 0 01.183-.012l64.108.152a1.383 1.383 0 01.557.12 1.621 1.621 0 01.727.665 1.937 1.937 0 01.265.99z" fill="#ffb93e"/><path data-name="Path 202" d="M259.426 209.293l-34.345-.082a1.6 1.6 0 01-1.38-1.684v-.091l.008-4.6v-.091a1.658 1.658 0 011.223-1.665 1.006 1.006 0 01.164-.012l30.127.072v.013a15.164 15.164 0 004.203 8.14z" fill="#ffa412"/><path data-name="Path 203" d="M282.519 194.852l-.008 4.6a1.935 1.935 0 01-.268.989 1.617 1.617 0 01-.729.661 1.3 1.3 0 01-.284.09c-.03.006-.06.012-.09.015a.693.693 0 01-.072.008h-.112l-64.108-.152a1.666 1.666 0 01-1.546-1.684v-.091l.008-4.6v-.091a1.664 1.664 0 011.553-1.677l64.107.152h.082a1.335 1.335 0 01.191.026 1.3 1.3 0 01.284.092 1.411 1.411 0 01.135.069c.027.016.054.031.08.049l.009.006.078.056.013.01a.89.89 0 01.069.058 1.353 1.353 0 01.154.154l.044.052.008.01a.355.355 0 01.027.033v.007q.024.031.046.065a.947.947 0 01.061.1 1.934 1.934 0 01.268.993z" fill="#ffb93e"/><path data-name="Path 204" d="M251.028 201.146l-34.345-.081a1.6 1.6 0 01-1.38-1.684v-.091l.008-4.6v-.091a1.6 1.6 0 011.386-1.677l30.127.072c.012.062.025.125.04.188a15.072 15.072 0 004.15 7.95z" fill="#ffa412"/><path data-name="Path 205" d="M287.247 186.91l-.008 4.6a1.937 1.937 0 01-.268.988 1.618 1.618 0 01-.729.661 1.388 1.388 0 01-.557.118l-64.108-.152a1.377 1.377 0 01-.693-.189 1.8 1.8 0 01-.85-1.422v-.164l.009-4.6v-.091a1.7 1.7 0 011.369-1.665 1.244 1.244 0 01.184-.012l64.108.152a1.382 1.382 0 01.557.12 1.623 1.623 0 01.727.665 1.933 1.933 0 01.259.991z" fill="#ffb93e"/><path data-name="Path 206" d="M255.756 193.205l-34.345-.082a1.13 1.13 0 01-.618-.19 1.836 1.836 0 01-.758-1.422v-.164l.009-4.6v-.091a1.658 1.658 0 011.222-1.665.994.994 0 01.164-.012l30.127.071v.013a15.306 15.306 0 004 7.949c.066.068.132.13.199.193z" fill="#ffa412"/><path data-name="Path 207" d="M282.549 178.771l-.008 4.6a1.936 1.936 0 01-.268.988 1.616 1.616 0 01-.729.662 1.319 1.319 0 01-.284.09l-.09.016-.051.006h-.133l-64.108-.152a1.665 1.665 0 01-1.546-1.684v-.091l.008-4.6v-.091a1.664 1.664 0 011.552-1.677l64.108.152a1.35 1.35 0 01.273.029 1.3 1.3 0 01.284.092 1.621 1.621 0 01.727.665 1.936 1.936 0 01.265.995z" fill="#ffb93e"/><path data-name="Path 208" d="M251.058 185.065l-34.345-.081a1.6 1.6 0 01-1.38-1.684v-.091l.008-4.6v-.091a1.6 1.6 0 011.386-1.677l30.128.071a15.18 15.18 0 004.189 8.138z" fill="#ffa412"/><g data-name="Group 95" fill="#ffa412"><path data-name="Rectangle 75" d="M277.066 249.768l.02-8.141.728.002-.019 8.14z"/><path data-name="Rectangle 76" d="M274.601 249.762l.017-8.141.729.002-.017 8.14z"/><path data-name="Rectangle 77" d="M271.643 249.755l.016-8.141.73.001-.017 8.141z"/><path data-name="Rectangle 78" d="M267.109 249.744l.02-8.141.728.002-.019 8.14z"/><path data-name="Rectangle 79" d="M262.315 249.732l.02-8.141.728.002-.019 8.14z"/><path data-name="Rectangle 80" d="M254.966 249.715l.02-8.141.728.002-.019 8.14z"/><path data-name="Rectangle 81" d="M248.085 249.699l.017-8.141.729.002-.017 8.14z"/><path data-name="Rectangle 82" d="M241.94 249.684l.02-8.14.727.002-.019 8.14z"/><path data-name="Rectangle 83" d="M279.414 249.773l.02-8.14.728.002-.019 8.14z"/><path data-name="Rectangle 84" d="M280.966 249.777l.017-8.14.729.002-.017 8.14z"/><path data-name="Rectangle 85" d="M282.463 249.78l.02-8.141.728.002-.019 8.14z"/><path data-name="Path 209" d="M283.606 241.642l-.015 8.141h.455a1.346 1.346 0 00.274-.028l.015-8.084a1.364 1.364 0 00-.274-.029z"/><path data-name="Path 210" d="M284.618 241.764l-.014 7.9a1.618 1.618 0 00.729-.661l.012-6.576a1.619 1.619 0 00-.727-.663z"/><path data-name="Rectangle 86" d="M256.516 241.578l.02-8.14.728.002-.019 8.14z"/><path data-name="Rectangle 87" d="M249.635 241.561l.016-8.141.73.001-.017 8.141z"/><path data-name="Rectangle 88" d="M243.49 241.547l.02-8.141.728.002-.019 8.14z"/><path data-name="Path 211" d="M281.695 241.638l.015-8.141h-.639c.034 0 .068-.009.1-.016l.015-8.084a1.314 1.314 0 00-.135-.021l.014-7.889h.284l-.014 7.82a1.615 1.615 0 00.729-.661l.012-6.576a1.653 1.653 0 00-.577-.583h.254l.015-8.14h-.728l-.015 7.962a1.339 1.339 0 00-.233-.023h-.455l-.015 8.141h.135l-.015 8.083h.538l-.015 8.132z"/><path data-name="Rectangle 89" d="M282.515 241.64l.02-8.141.728.002-.019 8.14z"/><path data-name="Rectangle 90" d="M284.012 241.643l.021-8.141.73.002-.022 8.14z"/><path data-name="Path 212" d="M285.158 233.505l-.015 8.141h.455a1.341 1.341 0 00.274-.028l.015-8.084a1.321 1.321 0 00-.273-.029z"/><path data-name="Path 213" d="M286.169 233.627l-.014 7.9a1.616 1.616 0 00.729-.661l.012-6.576a1.621 1.621 0 00-.727-.663z"/><path data-name="Path 214" d="M274.65 233.493l.015-8.141h-.135l.015-8.082h-.729l-.015 8.141h.135l-.015 8.07h-.711l-.015 8.141h.729l.015-8.128z"/><path data-name="Path 215" d="M269.24 225.339h-.135l.015-8.082h-.729l-.015 8.141h.135l-.015 8.083h.18l-.015 8.128h.728l.015-8.141h-.179z"/><path data-name="Path 216" d="M281.47 225.488l-.014 7.9a1.615 1.615 0 00.729-.661l.012-6.575a1.619 1.619 0 00-.727-.664z"/><path data-name="Path 217" d="M264.586 217.25h-.729l-.015 8.141h.135l-.015 8.07h-.081l-.015 8.14h.728l.015-8.128h.08l.015-8.141h-.135z"/><path data-name="Path 218" d="M259.792 217.235h-.729l-.015 8.141h.135l-.015 8.082h.728l.015-8.141h-.135z"/><path data-name="Path 219" d="M252.443 217.217h-.729l-.015 8.14h.135l-.015 8.082h.729l.015-8.141h-.135z"/><path data-name="Path 220" d="M245.562 217.201h-.729l-.015 8.141h.135l-.015 8.083h.729l.015-8.141h-.135z"/><path data-name="Path 221" d="M239.418 217.186h-.729l-.015 8.141h.135l-.015 8.083h.729l.015-8.14h-.135z"/><path data-name="Path 222" d="M276.891 217.275h-.729l-.015 8.141h.135l-.015 8.07h-.1l-.015 8.141h.729l.015-8.128h.1l.015-8.141h-.135z"/><path data-name="Path 223" d="M278.443 217.279h-.586l.015-7.94h-.729l-.015 8.141h.586l-.015 7.94h.135l-.015 8.082h.729l.015-8.14h-.135z"/><path data-name="Rectangle 91" d="M274.659 217.471l.02-8.14.727.002-.019 8.14z"/><path data-name="Path 224" d="M271.704 217.262h-.355l-.015 8.141h.135l-.015 8.082h.729l.015-8.141h-.135l.014-7.882h.355l.015-8.14h-.729z"/><path data-name="Rectangle 92" d="M267.167 217.453l.021-8.141.73.002-.022 8.14z"/><path data-name="Rectangle 93" d="M262.374 217.442l.02-8.14.728.002-.019 8.14z"/><path data-name="Rectangle 94" d="M255.024 217.424l.019-8.141.729.002-.019 8.14z"/><path data-name="Rectangle 95" d="M248.144 217.408l.016-8.14.73.001-.017 8.14z"/><path data-name="Rectangle 96" d="M241.999 217.393l.02-8.141.728.002-.019 8.14z"/><path data-name="Path 225" d="M279.475 217.281h-.264l-.015 8.14h.135l-.015 8.07h-.683l-.015 8.141h.729l.015-8.128h.683l.015-8.141h-.135l.014-7.882h.264l.015-8.14h-.729z"/><path data-name="Rectangle 97" d="M282.521 217.49l.02-8.141.728.002-.019 8.14z"/><path data-name="Path 226" d="M284.379 217.47l.015-8.084a1.339 1.339 0 00-.274-.029h-.455l-.015 8.141h.455a1.325 1.325 0 00.274-.028z"/><path data-name="Path 227" d="M285.392 216.713l.012-6.575a1.619 1.619 0 00-.727-.665l-.014 7.9a1.619 1.619 0 00.729-.66z"/><path data-name="Rectangle 98" d="M282.379 209.348l.02-8.141.728.002-.019 8.14z"/><path data-name="Rectangle 99" d="M272.422 209.325l.02-8.141.728.002-.019 8.14z"/><path data-name="Rectangle 100" d="M267.628 209.313l.02-8.141.728.002-.019 8.14z"/><path data-name="Rectangle 101" d="M260.278 209.296l.02-8.141.728.002-.019 8.14z"/><path data-name="Rectangle 102" d="M253.397 209.28l.02-8.141.728.002-.019 8.14z"/><path data-name="Rectangle 103" d="M247.254 209.265l.017-8.141.729.002-.017 8.14z"/><path data-name="Rectangle 104" d="M284.727 209.354l.02-8.141.728.002-.019 8.14z"/><path data-name="Rectangle 105" d="M286.278 209.358l.02-8.141.728.002-.019 8.14z"/><path data-name="Rectangle 106" d="M287.775 209.361l.016-8.14.728.001-.016 8.14z"/><path data-name="Path 228" d="M288.919 201.223l-.015 8.141h.455a1.35 1.35 0 00.274-.028l.015-8.084a1.357 1.357 0 00-.273-.029z"/><path data-name="Path 229" d="M289.931 201.345l-.014 7.9a1.62 1.62 0 00.729-.661l.012-6.576a1.62 1.62 0 00-.727-.663z"/><path data-name="Path 230" d="M273.98 201.2h.729l.015-8.141h-.711l.014-7.94h.711l.015-8.141h-.729l-.015 8.128h-.711l-.015 8.141h.711z"/><path data-name="Rectangle 107" d="M271.51 201.194l.021-8.14.73.002-.022 8.14z"/><path data-name="Rectangle 108" d="M259.226 201.166l.02-8.141.728.002-.019 8.14z"/><path data-name="Rectangle 109" d="M251.876 201.148l.016-8.141.73.001-.017 8.141z"/><path data-name="Rectangle 110" d="M244.995 201.132l.02-8.14.728.002-.019 8.14z"/><path data-name="Rectangle 111" d="M238.851 201.117l.019-8.141.729.002-.019 8.14z"/><path data-name="Path 231" d="M276.327 201.206h.645l-.015 8.128h.729l.015-8.141h-.645l.015-8.128h-.1l.014-7.94h.1l.015-8.14h-.729l-.015 8.128h-.1l-.015 8.141h.1z"/><path data-name="Rectangle 112" d="M277.878 201.21l.015-8.141.729.001-.015 8.141z"/><path data-name="Path 232" d="M281.655 193.269h.128l.015-8.141h-.639c.034 0 .068-.009.1-.016l.015-8.084a1.321 1.321 0 00-.273-.029h-.455l-.015 8.141h.538l-.015 7.948h-.537l-.015 8.128h-.4l.015-8.128h-.683l.014-7.94h.683l.015-8.141h-.729l-.015 8.128h-.683l-.015 8.141h.683l-.014 7.953h.554l-.015 8.128h.729l.015-8.128h.3a1.331 1.331 0 00.274-.028l.015-7.924h.284l-.014 7.833a1.616 1.616 0 00.729-.661l.012-6.576a1.647 1.647 0 00-.601-.604z"/><path data-name="Rectangle 113" d="M256.605 193.206l.017-8.14.728.002-.017 8.14z"/><path data-name="Rectangle 114" d="M249.723 193.19l.02-8.141.728.002-.019 8.14z"/><path data-name="Rectangle 115" d="M243.578 193.176l.02-8.141.728.002-.019 8.14z"/><path data-name="Rectangle 116" d="M282.604 193.268l.016-8.141.728.001-.016 8.141z"/><path data-name="Rectangle 117" d="M284.101 193.272l.02-8.141.727.002-.019 8.14z"/><path data-name="Path 233" d="M285.245 185.133l-.015 8.141h.455a1.331 1.331 0 00.274-.028l.015-8.084a1.329 1.329 0 00-.273-.029z"/><path data-name="Path 234" d="M286.972 192.496l.012-6.576a1.621 1.621 0 00-.727-.665l-.014 7.9a1.617 1.617 0 00.729-.659z"/><path data-name="Rectangle 118" d="M271.54 185.114l.02-8.141.728.002-.019 8.14z"/><path data-name="Path 235" d="M269.328 176.969h-.729l-.015 8.141h.18l-.014 7.94h-.176l-.015 8.141h.729l.015-7.953h.18l.015-8.141h-.18z"/><path data-name="Path 236" d="M264.052 185.083h-.081l-.015 8.141h.081l-.015 7.953h.729l.015-8.141h-.081l.015-7.94h.081l.015-8.141h-.728z"/><path data-name="Rectangle 119" d="M259.255 185.085l.02-8.141.728.002-.019 8.14z"/><path data-name="Rectangle 120" d="M251.906 185.067l.02-8.14.728.002-.019 8.14z"/><path data-name="Rectangle 121" d="M245.023 185.051l.021-8.141.73.002-.022 8.14z"/><path data-name="Rectangle 122" d="M238.881 185.037l.016-8.141.73.001-.017 8.141z"/><path data-name="Rectangle 123" d="M277.904 185.129l.021-8.141.73.002-.022 8.14z"/><path data-name="Path 237" d="M281.558 177.116l-.014 7.9a1.618 1.618 0 00.729-.661l.012-6.576a1.617 1.617 0 00-.727-.663z"/></g></g><g data-name="Group 98"><path data-name="Path 238" d="M302.918 198.821l4.526.8a1.933 1.933 0 01.927.435 1.618 1.618 0 01.526.832 1.312 1.312 0 01.04.3 1.345 1.345 0 01-.02.274l-11.245 63.114a1.666 1.666 0 01-1.926 1.231l-.09-.014-4.526-.8-.089-.017a1.664 1.664 0 01-1.383-1.819l11.245-63.114c.007-.041.016-.081.027-.12a.489.489 0 01.015-.051.597.597 0 01.019-.055l.015-.039a1.32 1.32 0 01.14-.263l.025-.036.026-.035.056-.069.036-.039.033-.034.065-.063a1.408 1.408 0 01.146-.115l.046-.032a1.577 1.577 0 01.15-.088l.046-.023.048-.022.1-.041a1.934 1.934 0 011.022-.097z" fill="#ffb93e"/><path data-name="Path 239" d="M303.666 230.93l-6.024 33.813a1.6 1.6 0 01-1.9 1.068l-.09-.014-4.526-.8-.089-.017a1.6 1.6 0 01-1.412-1.656l5.284-29.659.2-.006a15.056 15.056 0 008.557-2.729z" fill="#ffa412"/><g data-name="Group 97" fill="#ffa412"><path data-name="Rectangle 124" d="M299.678 206.904l.128-.718 8.014 1.43-.128.719z"/><path data-name="Rectangle 125" d="M299.245 209.334l.128-.718 8.017 1.424-.127.719z"/><path data-name="Rectangle 126" d="M298.726 212.245l.128-.718 8.015 1.429-.128.717z"/><path data-name="Rectangle 127" d="M297.931 216.708l.128-.718 8.015 1.429-.128.717z"/><path data-name="Rectangle 128" d="M297.09 221.429l.128-.718 8.017 1.424-.127.719z"/><path data-name="Rectangle 129" d="M295.801 228.663l.128-.718 8.015 1.429-.128.717z"/><path data-name="Rectangle 130" d="M294.594 235.439l.128-.718 8.018 1.425-.127.718z"/><path data-name="Rectangle 131" d="M293.516 241.486l.128-.718 8.014 1.43-.128.718z"/><path data-name="Rectangle 132" d="M300.089 204.594l.128-.718 8.015 1.429-.128.717z"/><path data-name="Rectangle 133" d="M300.361 203.067l.128-.718 8.014 1.429-.128.717z"/><path data-name="Rectangle 134" d="M300.624 201.593l.128-.718 8.015 1.429-.128.717z"/><path data-name="Path 240" d="M300.821 200.486l8.015 1.423.08-.448a1.32 1.32 0 00.02-.274l-7.959-1.414a1.343 1.343 0 00-.076.264z"/><path data-name="Path 241" d="M301.116 199.51l7.78 1.382a1.616 1.616 0 00-.525-.833l-6.474-1.15a1.622 1.622 0 00-.781.601z"/></g></g><path data-name="Path 242" d="M455.708 265.798h-27.549c-1.477-1.252 1.021-4.1 3.632-4.287a16.087 16.087 0 014.2.5c.379-5.035 2.544-27.671 10.7-26.761 9.174 1.018 0 9.968-2.594 15.267a126.162 126.162 0 00-4.874 12.209c.745.162 1.516.32 2.3.465 1.216-3.734 5.74-16.292 11.494-15.561 6.756.857 4.04 5.892-.748 8.881-3.513 2.2-7.826 5.322-9.876 6.831a29.3 29.3 0 005.388.431c4.731-.114 7.034 1.274 7.927 2.025z" fill="#82b378"/><path data-name="Path 243" d="M96.502 264.881c-1.094-1.719-4.387-6.18-8.773-5.589-4.779.643 5.277 3.794 8.356 5.6a5.1 5.1 0 01-1.7-.2c-2.058-.734-5.583.674-6.71 1.167h19.6a3.1 3.1 0 00-1.4-1.792 3.5 3.5 0 00-1.8-.161c1.165-1.373 1.974-5.761-1.269-4.632-2.37.825-2.363 3.506-2.13 5.092-.5.079-1.016.159-1.52.232-.976-4.972-4.426-19.544-11.42-19.932-7.09-.394 6.012 15.112 10.375 20.072-.573.071-1.111.121-1.609.143z" fill="#82b378"/><g data-name="Group 101" transform="translate(230.941 81.26)"><circle data-name="Ellipse 13" cx="28.218" cy="28.218" r="28.218" transform="rotate(-45 48.17 19.953)" fill="#e2810e"/><circle data-name="Ellipse 14" cx="28.218" cy="28.218" r="28.218" transform="rotate(-75.284 41.332 28.477)" fill="#ffb93e"/><g data-name="Group 99"><path data-name="Path 244" d="M37.955 67.092a25.7 25.7 0 1112.368-3.19 25.73 25.73 0 01-12.368 3.19zm-.078-49.893a24.249 24.249 0 106.753.964 24.287 24.287 0 00-6.753-.964z" fill="#ffa412"/></g><g data-name="Group 100"><path data-name="Path 245" d="M44.613 46.214a4.237 4.237 0 00-.774-1.278 3.1 3.1 0 00-1.151-.781 5.864 5.864 0 00-1.643-.366 15.448 15.448 0 00-2.242-.015 40.581 40.581 0 01-4.122.005 12.8 12.8 0 01-3.426-.621 7.531 7.531 0 01-2.69-1.576 8.492 8.492 0 01-2.5-5.958 7.142 7.142 0 01.676-2.9 8.914 8.914 0 011.843-2.567 11.9 11.9 0 012.92-2.079l-1.6-3.954 3.182-1.292 1.628 4.009a10.672 10.672 0 013.47-.354 8.062 8.062 0 015.635 2.78 10.73 10.73 0 011.881 3.121l-5.748 2.334a5.226 5.226 0 00-2.331-2.917 3.632 3.632 0 00-3.082-.029 4.622 4.622 0 00-1.44.876 3.131 3.131 0 00-.787 1.115 2.92 2.92 0 00-.2 1.276 4.281 4.281 0 00.319 1.356 3.923 3.923 0 00.7 1.157 2.9 2.9 0 001.1.747 5.861 5.861 0 001.653.362 19.758 19.758 0 002.348.047q2.221-.062 4.11.053a12.943 12.943 0 013.424.644 7.27 7.27 0 014.581 4.435 7.771 7.771 0 01.618 3.149 7.058 7.058 0 01-.693 2.886 8.618 8.618 0 01-1.881 2.529 12.859 12.859 0 01-2.952 2.059l1.493 3.676-3.163 1.284-1.485-3.658a14.4 14.4 0 01-3.484.576 9.133 9.133 0 01-3.384-.487A8.172 8.172 0 0132.437 54a9.944 9.944 0 01-2.261-3.515l5.748-2.334a6.126 6.126 0 001.257 2.04 3.964 3.964 0 001.555 1 3.845 3.845 0 001.7.17 6.589 6.589 0 001.688-.438 5.511 5.511 0 001.543-.906 3.665 3.665 0 00.913-1.146 2.922 2.922 0 00.307-1.3 3.559 3.559 0 00-.274-1.357z" fill="#ffa412"/></g></g><g data-name="Group 104"><path data-name="Path 246" d="M296.772 105.98c-1.181-.833-3.857-2.667-4-2.259a1.8 1.8 0 00.364 1.313c-1.619-.6-3.263-1-7.151-.255a2.913 2.913 0 00-1.913 1.259 1.285 1.285 0 00.448 2.006c1.984 1.234 1.409.495 4.166 2.291s6.133 2.255 8.15.994l2.707-.451.336-4.452s-1.54-.184-3.107-.446z" fill="#ffb27d"/><path data-name="Path 247" d="M367.704 68.636s-6.382 7.571-14.508 4.4a24.622 24.622 0 01-1.773-7.345c0-.384-.008-.755-.013-1.109-.043-3.51-.162-5.479-.162-5.479h.008c.37-.154 12.423-5.1 12.413-4.692-.206 9.495 4.035 14.225 4.035 14.225z" fill="#ffb27d"/><path data-name="Path 248" d="M362.459 56.677c-1.163 2.155-5.151 6.369-11.05 7.909-.043-3.51-.162-5.479-.162-5.479h.008c.335-.091 11.55-3.065 11.204-2.43z" fill="#ed975d"/><path data-name="Path 249" d="M348.724 58.739s13.555 3.187 15.41-5.285 4.853-13.766-3.723-16.159-10.971.47-12.278 3.148-2.888 17.251.591 18.296z" fill="#ffb27d"/><path data-name="Path 250" d="M363.67 55.765c.185.118 3.1 1.014 8.625-9.989a9.584 9.584 0 00-.563-8.766c-2.021-3.3-9.188-5.9-15.143-7.028s-7.384 2.221-8.786 5.588c-1.472 3.535-5.723 6.445-5.723 6.445 5.135 2.868 11.319-1.234 13.461-.56s2.9 4.051 3.06 5.134.408 1.982 3.1 1.015 1.218 3.818.787 4.733c.002.001-.364 2.438 1.182 3.428z" fill="#a9453d"/><g data-name="Group 102"><path data-name="Path 251" d="M398.589 267.038h8.208c1.72 0 3.632-1.723 4.111-4.877s4.015-4.877 4.781-7.459-3.156-6.217-3.156-6.217l-.656-.842-.682-.878-6.5 1.529s-.16 1.548-.261 3.52a44.928 44.928 0 00-.026 4.513c.191 3.444-.965 7.15-4.023 7.82s-1.796 2.891-1.796 2.891z" fill="#2c3a64"/><path data-name="Path 252" d="M341.449 267.038h21.757a1.96 1.96 0 00.462-.134c1.452-.727 1-6.289.823-8.007-.033-.318-.057-.5-.057-.5s-7.65-6.119-8.7-1.434c-.034.146-.072.29-.112.431-1.328 4.384-7.265 6.375-10.694 6.93-2.629.424-3.304 1.95-3.479 2.714z" fill="#2c3a64"/><path data-name="Path 253" d="M345.834 141.574s1.162 14.5 2.528 31.921c1.856 23.671 4.088 52.747 4.309 58.255.382 9.565 1.914 24.864 1.914 24.864s3.632 3.635 10.9 2.1a250.3 250.3 0 008.328-44.949l.086-1.142c1.721-23.524 4.4-73.06 4.4-73.06z" fill="#2b478b"/><path data-name="Path 254" d="M345.834 141.574s1.162 14.5 2.528 31.921l25.453 40.273.086-1.142c1.721-23.524 4.4-73.06 4.4-73.06z" fill="#233862"/><path data-name="Path 255" d="M351.14 143.295s20.942 52.5 34.713 77.172 18.073 31.557 18.073 31.557 7.89-3.156 8.607-5.307c0 0-5.266-47.631-14.488-59.241-5.211-6.561-11.332-26.25-11.619-33.135s-1.865-20.512-1.865-20.512z" fill="#2b478b"/></g><g data-name="Group 103"><path data-name="Path 256" d="M398.9 133.757l.221 3.376a7.276 7.276 0 004.012 9.075s2.671 1.077 2.779-1-.233-1.3-.016-4.225-.934-5.695-2.871-6.627l-1.589-1.833z" fill="#ffb27d"/><path data-name="Path 257" d="M401.337 136.215c-2.318.744-2.689.576-2.689.576s-11.282-20.541-12.425-22.421-23.955-23.034-23.955-23.034l5.862-21.86s25.946 33.6 28.747 38.419c4.63 7.967 7.343 26.469 7.343 26.469a6.786 6.786 0 01-2.883 1.851z" fill="#1e3d70"/></g><path data-name="Path 258" d="M341.413 99.918c.081 4.489.342 9.536.694 14.662l.064.912c.225 3.175.469 6.358.75 9.462.112 1.244.232 2.474.356 3.683l.019.163c.01.452.065.943.115 1.39 1.144 11.625 2.343 20.809 2.565 20.951a1.306 1.306 0 00.893.227c3.049-.383 12.145.309 19.591-1.311a56.462 56.462 0 0017.428-7.227c.761-.45 2.5-1.642 2.355-2.532-.139-.979-.4-2.393-.72-4.171a225.746 225.746 0 01-3.745-29.268q-.193-3.478-.562-6.861a104.125 104.125 0 00-3.036-16.385c-2.554-9.194-6.306-16.234-11.013-18.988-.615-.345-3.924 1.761-6.963 3.711a13.418 13.418 0 01-8.636 2.046l-2.53 2.8a28.249 28.249 0 00-7.215 15.04q-.1.747-.172 1.589a98.839 98.839 0 00-.238 10.107z" fill="#2a4e96"/><path data-name="Path 259" d="M341.413 99.918c.081 4.489.342 9.536.694 14.662l.064.912c17.414-10.9 20.1-30.846 20.1-30.846-8.567.376-15.373 2.345-20.618 5.161a98.839 98.839 0 00-.24 10.111z" fill="#1e3d70"/><path data-name="Path 260" d="M297.414 108.504c-.179-2.583 1.158-3.013 1.158-3.013s26.255-4.758 28.487-5.46 21.317-20.556 21.317-20.556 7.315-8.25 13.305-6.428c5.205 1.583 7.24 5.643 7.932 9.511a11.393 11.393 0 01-5.291 11.7c-8.96 5.5-26.9 16.324-31.122 17.562-9.4 2.757-34.665.221-34.665.221a8.149 8.149 0 01-1.121-3.537z" fill="#2a4e96"/></g><path data-name="Path 261" d="M328.307 158.933v97.593a10.381 10.381 0 01-10.349 10.351H217.642a10.534 10.534 0 01-7.123-2.774 10.662 10.662 0 01-2.267-2.944 7.556 7.556 0 01-.091-.18 10.432 10.432 0 01-1.073-3.953 9.748 9.748 0 01-.026-.729v-96.739a16.015 16.015 0 017.443-13.483l.012-.007a13.869 13.869 0 005.752-15.843h94.833a13.866 13.866 0 005.282 15.528c.239.167.483.327.732.477a14.884 14.884 0 017.191 12.703z" fill="#ed9f4a" opacity=".2"/><path data-name="Path 262" d="M328.307 158.933v97.593a10.385 10.385 0 01-9.619 10.325 9.813 9.813 0 01-.73.026h-44.172a10.611 10.611 0 01-10.58-10.58v-96.739a16.016 16.016 0 017.443-13.483 13.865 13.865 0 005.765-15.849h38.687a13.869 13.869 0 006.019 16.008 14.883 14.883 0 017.187 12.699z" fill="#ed9f4a" opacity=".2"/><path data-name="Path 263" d="M320.383 145.758c-3.1-1.855-16.517-8.429-50.642-8.151-39.087.32-54.745 8.22-55.225 8.466a13.869 13.869 0 005.752-15.843h94.833a13.866 13.866 0 005.282 15.528z" fill="#ed9f4a" opacity=".6"/><path data-name="Path 264" d="M317.248 129.544v4.426a.794.794 0 01-.791.793h-97.545a.794.794 0 01-.793-.793v-4.426a.8.8 0 01.793-.793h97.545a.8.8 0 01.791.793z" fill="#2b478b"/><path data-name="Path 265" d="M317.249 129.544v4.426a.794.794 0 01-.791.793h-36.923a.8.8 0 01-.793-.793v-4.426a.8.8 0 01.793-.793h36.925a.8.8 0 01.789.793z" fill="#233862"/><g data-name="Group 105"><path data-name="Path 266" d="M252.168 151.461s-2.514 3.54-4.819 3.589-5.812-1.641-5.812-1.641-2.116-4.717-.681-6.562a3.081 3.081 0 012.945.484 4.508 4.508 0 01.779.746 2.473 2.473 0 001.21.82c1.645.5 3.6-.677 4.327.459a7.724 7.724 0 001.271 1.505 5.81 5.81 0 00.78.6z" fill="#f9ddbf"/><path data-name="Path 267" d="M219.391 176.992s8.886-21.532 24.882-21.942c0 0 14.765 1.64 15.585 21.942z" fill="#f9ddbf"/><path data-name="Path 268" d="M239.891 155.707s6.411 1.426 8.39.588a1.98 1.98 0 00-2.4-2.3 5.665 5.665 0 01-3.76-.991c-1.003-.515-2.496 1.582-2.23 2.703z" fill="#f1a34f"/><path data-name="Path 269" d="M245.47 151.666c-.41.308-1.669-4.335-1.669-4.335a4.51 4.51 0 01.779.746 2.471 2.471 0 001.21.82c.004.136.078 2.47-.32 2.769z" fill="#e5c1a1"/><path data-name="Path 270" d="M251.388 150.862a26.437 26.437 0 01-3.457 1.829c-.41 0 2.186-3.334 2.186-3.334a7.718 7.718 0 001.271 1.505z" fill="#e5c1a1"/><path data-name="Path 271" d="M228.072 170.977c-.164-.14 6.289-9.5 8.066-9.57s5.77 2.051 8.661 2.324 5.694-.547 6.24 1.162 2.051 7.768 1.128 8.737-20.546.379-24.095-2.653z" fill="#e5c1a1"/></g><g data-name="Group 110"><path data-name="Path 272" d="M220.888 259.503c-.514.27-1.032.526-1.553.773-.5.287-1 .569-1.515.837a41.349 41.349 0 01-7.3 2.989 10.663 10.663 0 01-2.267-2.944c-.4.211-.791.414-1.19.612v-73.636a41.909 41.909 0 015.409 1.088 39.74 39.74 0 0124.194 18.327c10.702 18.498 3.637 41.758-15.778 51.954z" fill="#e2810e" opacity=".5"/><g data-name="Group 108"><path data-name="Path 273" d="M227.614 204.652a40.143 40.143 0 10-15.776 54.536 40.143 40.143 0 0015.776-54.536z" fill="#e2810e"/><path data-name="Path 274" d="M210.28 260.003q-.742.452-1.509.875c-.173.1-.346.189-.519.28-.4.211-.791.414-1.19.612a40.144 40.144 0 01-37.05-71.2q.771-.425 1.554-.812a38.62 38.62 0 011.53-.721 40.084 40.084 0 0112.049-3.239 40.15 40.15 0 0125.134 74.21z" fill="#ffb93e"/><g data-name="Group 106"><path data-name="Path 275" d="M189.672 262.73a36.724 36.724 0 01-10.216-1.458 36.352 36.352 0 1110.216 1.458zM159.5 242.741a34.393 34.393 0 10-2.918-26.161 34.168 34.168 0 002.918 26.161z" fill="#ffa412"/></g><g data-name="Group 107"><path data-name="Path 276" d="M207.31 229.632c-.079-.2-.163-.389-.249-.577a10.536 10.536 0 00-2.435-3.478 10.876 10.876 0 00-3.833-2.255 18.345 18.345 0 00-4.87-.915q-2.688-.166-5.849-.076a28.188 28.188 0 01-3.34-.068 8.378 8.378 0 01-2.351-.514 4.124 4.124 0 01-1.57-1.063 5.592 5.592 0 01-1-1.645 6.1 6.1 0 01-.454-1.929 4.137 4.137 0 01.286-1.815 4.437 4.437 0 011.119-1.586 6.538 6.538 0 012.047-1.246 5.166 5.166 0 014.385.041 7.441 7.441 0 013.315 4.149l8.178-3.32a15.289 15.289 0 00-2.677-4.439 11.474 11.474 0 00-8.017-3.955 15.153 15.153 0 00-4.936.5l-2.316-5.7-4.527 1.838 2.283 5.625a16.98 16.98 0 00-4.156 2.957 12.7 12.7 0 00-2.62 3.652 10.176 10.176 0 00-.963 4.126 12.086 12.086 0 003.557 8.476 10.707 10.707 0 003.828 2.242 18.114 18.114 0 004.873.884 57.642 57.642 0 005.864-.006 21.623 21.623 0 013.19.021 8.327 8.327 0 012.338.519 4.422 4.422 0 011.637 1.111 6.022 6.022 0 011.1 1.818 5.044 5.044 0 01.391 1.939 4.136 4.136 0 01-.437 1.847 5.212 5.212 0 01-1.3 1.63 7.844 7.844 0 01-2.2 1.289 9.451 9.451 0 01-2.4.623 5.482 5.482 0 01-2.422-.242 5.637 5.637 0 01-2.211-1.429 8.687 8.687 0 01-1.789-2.9l-8.177 3.32a14.119 14.119 0 003.216 5 11.607 11.607 0 004.237 2.643 12.961 12.961 0 004.814.694 20.424 20.424 0 004.959-.82l2.112 5.2 4.5-1.827-2.123-5.229a18.273 18.273 0 004.2-2.931 12.392 12.392 0 002.534-3.309c.049-.1.1-.191.144-.289a10.06 10.06 0 00.986-4.1 11.05 11.05 0 00-.871-4.481z" fill="#ffa412"/></g></g><g data-name="Group 109"><path data-name="Path 277" d="M159.564 84.395c.122-.492-10.693 4.888-11.241 5.5-5.072 5.626-3.625 12.968-.724 13.039 1.861.045 1.5 3.14 1.5 3.14l20.736-8.772s-2.495-14.563-10.271-12.907z" fill="#2c3a64"/><path data-name="Path 278" d="M162.117 85.531s.741-8.078-8.284-8.078a10.6 10.6 0 014.15 2.226s-5.757-3.38-12.021 1.813-2.372 18.217-4.277 20.689-9.324 2.968-8.417 10.963 23.545 18.01 22.091 24.625c0 0 8.871-13.041 2.528-18.992 0 0 3.092 2.912 3.407 6.374 0 0 .839-6.759-3.462-8.921-3.806-1.913-6.924-8.91-6.594-10.16s10.879-20.539 10.879-20.539z" fill="#2c3a64"/><path data-name="Path 279" d="M153.922 123.534a8.014 8.014 0 00-14.188-3.309 7.26 7.26 0 00-1.429 3.521c-.939 7.607 11.225 38.593 12.966 41.4 3.171 5.108 21.845 22.617 21.845 22.617l3.442-2.086s-13.245-22.424-15.3-24.522c-2.373-2.43-4.694-24.896-7.336-37.621z" fill="#ed985f"/><path data-name="Path 280" d="M171.802 185.687s5.023-3.3 6.924-3.086 7.405 1.8 7.472 2.605-6.132 1.314-6.548 1.756-4.625 3.252-6.151 2.371-1.697-3.646-1.697-3.646z" fill="#ed985f"/><path data-name="Path 281" d="M136.766 260.196l-4.488-.659a53.049 53.049 0 01-17.334-34.367 40.009 40.009 0 01-.107-6.917 1.211 1.211 0 00-.157-.763v-.007c-.483-.74-1.685-2.595-3.312-5.233-1.6-2.6-4.349-7.511-7.369-13.024-5.44-9.927-11.774-21.8-13.947-25.582-6.922-12.053-3.586-20.157-3.586-20.157s19.311-1.909 24.6-6.538l1.906 2.938s4.184 18.523 3.986 18.609l.628 1.924a322.111 322.111 0 019.171 33.3c1.164 5.837 1.78 10.923 1.449 14.388a25.234 25.234 0 00.341 5.27c1.868 13.303 8.219 36.818 8.219 36.818z" fill="#2b478b"/><path data-name="Path 282" d="M146.179 265.873h-18.721a10.278 10.278 0 01.529-5.018c.937-2.077 2.273-2.143.171-5.4 1.19 1.225 5.014 1.731 7.72 1.367.332.538 2.138 4.145 3.246 4.94 1.223.881 6.678.568 7.055 4.111z" fill="#233862"/><path data-name="Path 283" d="M117.585 170.423c-1.635 9.019-5.5 24.029-13.591 28.807-5.44-9.927-11.774-21.8-13.947-25.582-6.922-12.053-3.586-20.157-3.586-20.157s19.311-1.909 24.6-6.538l1.906 2.938s4.184 18.523 3.986 18.609z" fill="#233862"/><path data-name="Path 284" d="M151.919 119.376a20.039 20.039 0 013.856 6.05s-4.223 12.125-14.091 13.646c0 0 7.808-19.701 10.235-19.696z" fill="#ed7d2b"/><path data-name="Path 285" d="M104.455 154.884l.064-3.5c-6.976.88-24.054-8.336-24.054-8.336s-7.3 4.854-8.3 18.717c-.488 6.766-3.573 35.382-3.914 43.926-.124 3.1-.166 5.307-.18 6.19a.023.023 0 010 .009 1.217 1.217 0 01-.3.721 39.964 39.964 0 00-3.78 5.794c-10.645 19.806-5.078 46.718-5.078 46.718l2.472-.628s9-27.9 14.883-39.966a25.285 25.285 0 012.664-4.561c2.212-2.686 4.544-7.249 6.843-12.739 4.346-10.381 8.565-24.078 11.573-34.684.22.035 7.107-17.661 7.107-17.661z" fill="#2b478b"/><path data-name="Path 286" d="M145.279 131.515c-11.4-2.617-4.119-18.643-3.458-18.361 1.58-.322 5.051-3.1 8.155-8.515l.42.364 7 6.141s-1.619 2.388-2.981 4.728c-1.064 1.832-1.969 3.636-1.825 4.256.568.443-4.269 12.086-7.311 11.387z" fill="#ffb27d"/><path data-name="Path 287" d="M157.4 111.145s-1.62 2.385-2.981 4.728c-4.355-2.685-4.36-8.076-4.024-10.869z" fill="#ed985f"/><path data-name="Path 288" d="M157.594 114.221s-10.574-5.884-6.809-12.412 4.937-11.685 11.847-8.2 6.774 6.722 6.047 9.206-8.237 12.768-11.085 11.406z" fill="#ffb27d"/><path data-name="Path 289" d="M170.468 99.003c-.484-2.9-1.957-3.175-2.984-2.982a8.457 8.457 0 00-10.285-3.937 14.4 14.4 0 01-8.334 5.006s1.227 2.283 6.283 3.7a8.639 8.639 0 004.987-.4 28.23 28.23 0 01-7.176 2.705c6.662.61 13-5.481 13.659-6.133a9.484 9.484 0 01.524 4.365c-.439 1.963-2.182 5.52-1.117 5.98-.001-.003 5.168-3.957 4.443-8.304z" fill="#2c3a64"/><path data-name="Path 290" d="M73.807 265.872H55.086a10.277 10.277 0 01.529-5.018c.937-2.077 2.4-3.021 2.053-5.535a6.741 6.741 0 005.835 2.233c.332.537 2.141 3.415 3.249 4.211 1.224.878 6.678.566 7.055 4.109z" fill="#233862"/><path data-name="Path 291" d="M146.621 144.219a45.543 45.543 0 01-9.249 1.676c-4.922.538-10 .905-12.667 1.967a2.859 2.859 0 00-1.823 1.477c-1.154 3.47-6.24 8.825-6.24 8.825-32.6-1.484-36.177-15.119-36.177-15.119 21.932-25.5 59.068-32.885 59.068-32.885s2.653-1.125 9.332 4.184c4.458 3.544 3.871 4.9 3.871 4.9s.973 22.502-6.115 24.975z" fill="#f99746"/><path data-name="Path 292" d="M137.372 145.896c-4.923.538-10 .905-12.668 1.967a51.912 51.912 0 016.584-28.487s5.006 20.368 6.084 26.52z" fill="#ed7d2b"/><path data-name="Path 293" d="M142.439 116.23s-12.338 1.219-13.327 9.236 11.828 40.669 13.664 43.625c3.342 5.383 23.02 23.833 23.02 23.833l3.627-2.2s-13.958-23.629-16.119-25.841c-3.392-3.469-6.687-45.876-10.865-48.653z" fill="#ffb27d"/><path data-name="Path 294" d="M129.468 130.288c.032.182 11.386 3.709 18.693 0 0 0 1.564-16.859-7.159-15.944s-13.889 3.662-14.109 7.839 2.575 8.105 2.575 8.105z" fill="#f99746"/><path data-name="Path 295" d="M164.675 190.581s4.426-4.064 6.336-4.161 7.6.579 7.794 1.367-5.84 2.285-6.18 2.788-4.041 3.955-5.689 3.332-2.261-3.326-2.261-3.326z" fill="#ffb27d"/></g></g><path data-name="Rectangle 135" d="M.674 265.798H507.56a.674.674 0 01.674.674.674.674 0 01-.674.674H.674a.674.674 0 01-.674-.674.674.674 0 01.674-.674z" fill="#2e3552"/></g></svg>