<svg xmlns="http://www.w3.org/2000/svg" width="199.055" height="25.477"><g data-name="Group 6093" opacity=".86" fill="#f0f1f7"><path data-name="Path 769" d="M13.3 15.295L19.274.444h5.705L15.1 25.032h-3.565L5.83 10.869v14.163H0V.444h7.328zm0 0"/><path data-name="Rectangle 439" d="M20.801 15.222h5.878v9.811h-5.878z"/><path data-name="Path 770" d="M57.317 12.739A12.725 12.725 0 1144.601 0a12.721 12.721 0 0112.716 12.739zm-5.854-.026a6.861 6.861 0 10-6.861 6.863 6.864 6.864 0 006.861-6.863zm0 0"/><path data-name="Path 771" d="M75.807 15.295L81.781.444h5.707l-9.886 24.588h-3.565l-5.705-14.163v14.163h-5.828V.444h7.328zm0 0"/><path data-name="Rectangle 440" d="M83.306 15.222h5.878v9.811h-5.878z"/><path data-name="Path 772" d="M119.814 12.739A12.725 12.725 0 11107.107 0a12.719 12.719 0 0112.707 12.739zm-5.852-.026a6.861 6.861 0 10-6.86 6.863 6.864 6.864 0 006.86-6.863zm0 0"/><path data-name="Path 773" d="M147.043.444v24.59h-5.781l-10.425-14.239v14.239h-5.828V.444h5.381L141.211 15.1V.444zm0 0"/><path data-name="Path 774" d="M152.263 25.035h17.412v-5.187h-17.412zm0-9.589h17.412v-5.189h-17.412zm0-15v5.19h17.412V.446zm0 0"/><path data-name="Path 775" d="M189.931 25.032h-5.828V14.51l-9.2-14.066h6.688l8.335 13.473zm0 0"/><path data-name="Path 776" d="M192.367.444h6.691l-4.129 6.369h-6.443zm0 0"/></g></svg>