<svg xmlns="http://www.w3.org/2000/svg" width="28.274" height="28.274"><g data-name="Group 522" fill="#61688d"><path data-name="Path 303" d="M14.137 11.31a2.838 2.838 0 002.827-2.827V2.827a2.828 2.828 0 10-5.655 0v5.655a2.838 2.838 0 002.828 2.828z"/><path data-name="Path 304" d="M24.173 4.101a1.918 1.918 0 00-1.553-.567 2.169 2.169 0 00-2.12 2.125 2.89 2.89 0 00.567 1.553 9.607 9.607 0 012.827 6.929 9.9 9.9 0 11-19.792 0 9.517 9.517 0 012.967-6.933 2.25 2.25 0 00.706-1.549 2.169 2.169 0 00-2.12-2.125 2.89 2.89 0 00-1.555.567 14.16 14.16 0 1024.174 10.036 14.058 14.058 0 00-4.101-10.036z"/></g></svg>