<svg xmlns="http://www.w3.org/2000/svg" width="27.07" height="29.731"><path data-name="Path 301" d="M26.881 21.193l-.544-.677a15.947 15.947 0 01-3.253-9.75v-.945a9.68 9.68 0 00-8.4-9.752A9.438 9.438 0 004.12 9.41v1.355a15.947 15.947 0 01-3.253 9.75l-.544.677a1.122 1.122 0 00-.267 1.087 2.886 2.886 0 002.709 2.031h21.674a2.613 2.613 0 002.576-2.032 1.467 1.467 0 00-.134-1.085zm-10.98 4.474H11.16a1.392 1.392 0 00-1.219 2.032 4.435 4.435 0 003.654 2.032 4.038 4.038 0 003.52-2.032 1.347 1.347 0 00-1.219-2.032z" fill="#61688d"/></svg>