<svg xmlns="http://www.w3.org/2000/svg" width="372.569" height="267.704"><g data-name="Group 50"><g fill="#ebebeb"><path d="M286.015 238.173c3.921 2.263 11.627 1.484 17.212-1.74l32.192-18.7c5.585-3.224 6.927-7.677 3-9.945s-11.641-1.491-17.224 1.735l-32.166 18.7c-5.587 3.236-6.935 7.686-3.014 9.95z"/><path data-name="Shadow" d="M92.216 255.415L59.473 236.51l32.743-18.9zm92.545 11.31l-52.775-30.489 52.787-30.429z"/></g><g data-name="Plants"><g data-name="Group 23"><g data-name="Group 21"><path data-name="Path 8" d="M47.922 211.214c.092-7.659-5.256-23.588-13.084-33.628s-20.237-17.462-29.149-14.532c-8.3 2.729-7.536 13.585 2.408 20.892s24.912 16.517 29.173 28.992l9.072 15.351z" fill="#27debf"/><path data-name="Path 9" d="M47.922 211.214c.092-7.659-5.256-23.588-13.084-33.628s-20.237-17.462-29.149-14.532c-8.3 2.729-7.536 13.585 2.408 20.892s24.912 16.517 29.173 28.992l9.072 15.351z" opacity=".1"/></g><g data-name="Group 22"><path data-name="Path 10" d="M48.362 221.701a.562.562 0 01-.5-.456c-4.814-26.2-25.708-47.71-38.31-52.557a.561.561 0 01-.322-.723.554.554 0 01.724-.322c12.842 4.939 34.122 26.8 39.009 53.4a.56.56 0 01-.449.651.544.544 0 01-.152.007z" fill="#fff"/></g></g><g data-name="Group 26"><g data-name="Group 24"><path data-name="Path 11" d="M44.261 238.389c-1.179-4.32-6.352-11.487-14.786-17.458-9.33-6.605-21.2-9.733-23.885-14.819-3.224-6.109 1.96-11.783 11.611-10.469s26.484 14.705 28.961 34.591z" fill="#27debf"/></g><g data-name="Group 25"><path data-name="Path 12" d="M46.185 233.894a.562.562 0 01-.478-.376c-7.745-22.494-24.745-30.56-32.645-31.683a.561.561 0 01-.476-.633.552.552 0 01.633-.476c8.743 1.246 25.643 9.468 33.543 32.428a.562.562 0 01-.581.74z" fill="#fff"/></g></g></g><g data-name="Plants"><g data-name="Group 28"><path data-name="Path 13" d="M333.734 189.415s1.075-16.147 10.59-28.133 8.931-16.922 2.369-19.342-21.8 12.026-18.409 31.371 5.45 16.104 5.45 16.104z" fill="#27debf"/><path data-name="Path 14" d="M333.734 189.415s1.075-16.147 10.59-28.133 8.931-16.922 2.369-19.342-21.8 12.026-18.409 31.371 5.45 16.104 5.45 16.104z" opacity=".1"/><g data-name="Group 27"><path data-name="Path 15" d="M330.824 180.193a.374.374 0 01-.374-.351c-1.112-17.781 11.446-32.371 16.147-35.672a.375.375 0 01.43.613c-4.608 3.238-16.921 17.55-15.829 35.012a.376.376 0 01-.351.4z" fill="#fff"/></g></g><g data-name="Group 31"><g data-name="Group 30"><path data-name="Path 16" d="M331.144 202.749a85.185 85.185 0 0013.1 3.153c7.368 1.167 10.62-2.357 10.62-2.357s-2.9-6.911-7.085-8.85a41.117 41.117 0 0112.789 5.246s4.5.068 6.291-6.8c0 0-2.667-4.133-11.611-6.365 0 0 5.442-1.37 13.283.63.588.234 3.095-8.645 3.853-12.742s-.888-4.053-4.081-4.906-13.771-3.228-15.77-1.472-3.015 7.763-3.015 7.763a14.16 14.16 0 01-.3-7.612 12.222 12.222 0 00-7.334.174c-3.648 1.061-3.826 3.544-3.66 6.349a27.422 27.422 0 001.579 7.123s-2.844-3.645-2.932-11.547c0 0-7.465 3.709-8.74 11.118-.686 4.006-1.663 15.772 3.013 21.095z" fill="#27debf"/><g data-name="Group 29"><path data-name="Path 17" d="M332.551 201.309a.413.413 0 00.373-.235c5.946-12.353 28.053-26.708 35.972-28.248a.415.415 0 10-.159-.814c-8.049 1.565-30.519 16.151-36.559 28.7a.412.412 0 00.193.552.407.407 0 00.18.045z" fill="#fff"/></g></g></g></g><g data-name="Computer Screen"><g data-name="Group 36"><g data-name="Group 34"><g data-name="Path 18" fill="#fafafa" stroke-miterlimit="10"><path d="M45.036 243.987c-.843 0-1.346-.713-1.346-1.907V106.555l165.82-95.738.002 134.85c0 .975-.336 2.092-.945 3.147-.608 1.054-1.41 1.904-2.254 2.391l-160.01 92.383c-.452.261-.89.399-1.267.399z"/><path d="M45.036 244.572v-1.17c.192 0 .516-.056.974-.32l160.011-92.383c1.576-.91 2.907-3.214 2.907-5.033l-.002-133.836-164.651 95.063V242.08c0 .488.1.881.28 1.108.08.1.206.214.481.214v1.17m0 0c-1.145 0-1.931-.913-1.931-2.492V106.217l166.99-96.413.002 135.862c0 2.226-1.563 4.933-3.49 6.046L46.594 244.095c-.56.323-1.09.477-1.559.477z" fill="#e0e0e0"/></g><path data-name="Path 19" d="M43.105 106.217V128.9l166.99-96.412V9.8z" fill="#27debf"/><path data-name="Path 20" d="M56.202 107.428v3.254c0 .665.472.937 1.048.6l51.341-29.642v-5.668l-51.342 29.642a2.321 2.321 0 00-1.047 1.814z" fill="#fafafa"/><path data-name="Path 21" d="M114.093 72.795c.578-.334 1.047-.063 1.047.6v3.253a2.316 2.316 0 01-1.047 1.814l-5.5 3.177v-5.672z" fill="#455a64"/><path data-name="Path 22" d="M43.105 98.904a7.715 7.715 0 013.49-6.046L206.605.476c1.928-1.112 3.49-.21 3.49 2.015v7.312l-166.99 96.414z" fill="#455a64"/><g data-name="Group 32" fill="#27debf"><path data-name="Path 23" d="M191.536 12.973a3.619 3.619 0 00-1.636 2.836c0 1.044.733 1.468 1.636.946a3.62 3.62 0 001.638-2.836c0-1.045-.733-1.468-1.638-.946z"/><path data-name="Path 24" d="M196.723 9.974a3.618 3.618 0 00-1.637 2.836c0 1.044.733 1.467 1.637.946a3.619 3.619 0 001.637-2.836c-.002-1.045-.732-1.468-1.637-.946z"/><path data-name="Path 25" d="M201.911 6.976a3.617 3.617 0 00-1.637 2.836c0 1.044.733 1.467 1.637.946a3.619 3.619 0 001.637-2.836c-.001-1.045-.737-1.468-1.637-.946z"/></g><g data-name="Group 33" opacity=".1"><path data-name="Path 26" d="M157.706 47.263a7.909 7.909 0 00-3.579 6.2c0 2.283 1.6 3.208 3.579 2.067a7.91 7.91 0 003.578-6.2c0-2.283-1.601-3.208-3.578-2.067z"/><path data-name="Path 27" d="M141.334 56.715a7.91 7.91 0 00-3.578 6.2c0 2.283 1.6 3.208 3.578 2.067a7.909 7.909 0 003.579-6.2c0-2.283-1.602-3.208-3.579-2.067z"/><path data-name="Path 28" d="M174.073 37.811a7.912 7.912 0 00-3.579 6.2c0 2.283 1.6 3.208 3.579 2.067a7.912 7.912 0 003.579-6.2c.004-2.283-1.598-3.208-3.579-2.067z"/><path data-name="Path 29" d="M190.45 28.34a7.912 7.912 0 00-3.579 6.2c0 2.283 1.6 3.208 3.579 2.067a7.91 7.91 0 003.578-6.2c0-2.283-1.601-3.208-3.578-2.067z"/></g></g><path data-name="Path 30" d="M59.692 130.669l38.86-22.436c1.928-1.112 3.491-.21 3.491 2.015v37.31a7.716 7.716 0 01-3.491 6.046L59.693 176.04c-1.927 1.113-3.49.211-3.49-2.015v-37.31a7.717 7.717 0 013.489-6.046z" fill="#e0e0e0"/><path data-name="Path 31" d="M115.359 98.532l81.419-47.013c1.927-1.112 3.49-.21 3.49 2.015v37.31a7.717 7.717 0 01-3.49 6.046l-81.423 47.012c-1.927 1.113-3.49.211-3.49-2.015v-37.308a7.715 7.715 0 013.494-6.047z" fill="#e0e0e0"/><g data-name="Group 35" fill="#e0e0e0"><path data-name="Path 32" d="M59.693 187.382l61.78-35.669c1.927-1.112 3.49-.322 3.49 1.766a7.483 7.483 0 01-3.49 5.8l-61.78 35.666c-1.928 1.112-3.49.322-3.49-1.766a7.484 7.484 0 013.49-5.797z"/><path data-name="Path 33" d="M59.693 200.614l61.78-35.668c1.927-1.113 3.49-.322 3.49 1.765a7.483 7.483 0 01-3.49 5.8l-61.78 35.665c-1.928 1.113-3.49.322-3.49-1.765a7.484 7.484 0 013.49-5.797z"/><path data-name="Path 34" d="M59.693 213.846l61.78-35.669c1.927-1.113 3.49-.322 3.49 1.765a7.48 7.48 0 01-3.49 5.8l-61.78 35.665c-1.928 1.113-3.49.322-3.49-1.765a7.481 7.481 0 013.49-5.796z"/></g></g></g><g data-name="Group 39"><g data-name="Group 38"><g data-name="Group 37"><path data-name="Path 35" d="M88.945 168.981a4.628 4.628 0 012.094-3.627l107.137-61.856a4.628 4.628 0 014.188 0l2.36 1.363a4.628 4.628 0 012.094 3.627v82.123a4.647 4.647 0 01-2.094 3.627L97.592 256.093a4.651 4.651 0 01-4.188 0l-2.36-1.363a4.648 4.648 0 01-2.094-3.627z" fill="#27debf"/></g></g><path data-name="Path 36" d="M89.556 166.918l5.944 3.427 110.7-63.922a4.331 4.331 0 00-1.476-1.565l-2.368-1.357a4.575 4.575 0 00-4.18 0L91.045 165.352a4.263 4.263 0 00-1.489 1.566z" fill="#fff" opacity=".4"/><path data-name="Path 37" d="M88.942 168.977v82.126a4.618 4.618 0 002.1 3.627l2.358 1.367a3.358 3.358 0 00.575.257 4.521 4.521 0 00.862.2 5.129 5.129 0 001.654-.06c.139-.029.278-.069.406-.109a1.9 1.9 0 00.248-.1 1.242 1.242 0 01-1-.019 1.45 1.45 0 01-.644-1.378v-82.126a1.836 1.836 0 011.09-1.783l-1.09-.634-5.944-3.427a4.3 4.3 0 00-.615 2.059z" opacity=".1"/><path data-name="Path 38" d="M95.5 170.345l49.615 18.537a8.061 8.061 0 009.571-3.151l7.967-12.207 43.947-67.329-42.358 67.788 42.573 16.662a4.357 4.357 0 01-.654 2.09l-42.041-18.563-9.259 14.817a8.062 8.062 0 01-10.1 3.1l-6.593-2.91-42.032 67.08a1.45 1.45 0 01-.644-1.378v-1.367l42.471-64.425z" opacity=".2"/></g><g data-name="Mobile Screen"><g data-name="Group 46"><path data-name="Path 39" d="M183.901 76.065v188.546c0 2.226 1.563 3.128 3.49 2.015l84.7-48.9a7.717 7.717 0 003.49-6.046V23.133c0-2.226-1.563-3.128-3.49-2.015l-84.7 48.9a7.717 7.717 0 00-3.49 6.047z" fill="#fafafa" stroke="#e0e0e0" stroke-miterlimit="10" stroke-width="1.17"/><path data-name="Path 40" d="M188.81 79.578a1.914 1.914 0 01.907-1.47l9.651-5.568c.5-.289.908-.1.908.421a1.913 1.913 0 01-.908 1.469l-9.649 5.568c-.503.29-.909.102-.909-.42z" fill="#455a64"/><path data-name="Path 41" d="M188.81 83.337a1.914 1.914 0 01.907-1.469l9.649-5.568c.5-.289.908-.1.908.421a1.913 1.913 0 01-.908 1.469l-9.649 5.568c-.501.285-.907.097-.907-.421z" fill="#455a64"/><path data-name="Path 42" d="M188.81 87.088a1.914 1.914 0 01.907-1.469l9.649-5.568c.5-.289.908-.1.908.421a1.913 1.913 0 01-.908 1.469l-9.649 5.568c-.501.289-.907.101-.907-.421z" fill="#455a64"/><path data-name="Path 43" d="M269.034 38.74v-1.506a.1.1 0 00-.148-.1l-1.161.523a.138.138 0 01-.193-.089 2.54 2.54 0 00-.259-.576.32.32 0 01-.017-.281l.773-1.56a.174.174 0 00-.069-.227l-.839-.485a.177.177 0 00-.231.054l-.964 1.45a.318.318 0 01-.252.125 2.61 2.61 0 00-.628.064.138.138 0 01-.174-.123l-.127-1.266a.1.1 0 00-.157-.081l-1.3.753a.351.351 0 00-.156.243l-.131 1.451a.486.486 0 01-.135.271 7.8 7.8 0 00-.725.767.249.249 0 01-.256.073l-.837-.292a.2.2 0 00-.235.087l-.963 1.663a.2.2 0 00.042.247l.671.579a.248.248 0 01.065.258 7.885 7.885 0 00-.3 1.011.488.488 0 01-.167.253l-1.191.838a.352.352 0 00-.133.256v1.506a.1.1 0 00.148.1l1.161-.523a.138.138 0 01.193.089 2.54 2.54 0 00.259.576.32.32 0 01.017.281l-.773 1.56a.175.175 0 00.069.227l.839.484a.177.177 0 00.231-.054l.964-1.45a.32.32 0 01.252-.125 2.61 2.61 0 00.628-.064.138.138 0 01.174.123l.127 1.266a.1.1 0 00.157.081l1.3-.753a.351.351 0 00.156-.243l.131-1.451a.487.487 0 01.136-.271 7.9 7.9 0 00.724-.767.249.249 0 01.256-.073l.837.292a.2.2 0 00.235-.087l.958-1.66a.2.2 0 00-.042-.247l-.671-.579a.248.248 0 01-.065-.258 7.875 7.875 0 00.3-1.011.488.488 0 01.167-.253l1.191-.838a.352.352 0 00.138-.258zm-5.1 4.735c-1.217.7-2.2.133-2.2-1.272a4.869 4.869 0 012.2-3.816c1.216-.7 2.2-.133 2.2 1.272a4.87 4.87 0 01-2.199 3.819z" fill="#37474f"/><g data-name="Group 40"><path data-name="Path 44" d="M229.742 75.899c9.9-5.714 17.92-1.082 17.92 10.346s-8.023 25.324-17.92 31.043-17.919 1.082-17.919-10.346 8.023-25.328 17.919-31.043z" fill="#455a64"/><path data-name="Path 45" d="M229.616 84.894c3.211-1.854 5.814-.351 5.814 3.356a12.852 12.852 0 01-5.814 10.07c-3.211 1.853-5.813.351-5.813-3.357a12.849 12.849 0 015.813-10.069z" fill="#27debf"/><path data-name="Path 46" d="M241.074 104.663c0-6.092-4.277-8.561-9.551-5.514l-3.3 1.9c-5.274 3.045-9.551 10.452-9.551 16.543v1.661a9.8 9.8 0 003.079.476 16.16 16.16 0 007.989-2.448 35.3 35.3 0 0011.332-11.209z" fill="#27debf"/></g><path data-name="Path 47" d="M213.568 134.287l32.349-18.68c.964-.556 1.745-.161 1.745.883a3.741 3.741 0 01-1.745 2.9l-32.349 18.677c-.964.556-1.745.161-1.745-.883a3.743 3.743 0 011.745-2.897z" fill="#27debf"/><path data-name="Path 48" d="M210.096 147.647l39.293-22.71c.963-.557 1.745-.161 1.745.883a3.743 3.743 0 01-1.745 2.9l-39.293 22.71c-.964.556-1.745.161-1.745-.883a3.741 3.741 0 011.745-2.9z" fill="#455a64"/><path data-name="Path 49" d="M250.436 143.243l11-6.353c.578-.334 1.046-.181 1.046.341a2.1 2.1 0 01-1.046 1.55l-11 6.353c-.578.334-1.047.181-1.047-.341a2.1 2.1 0 011.047-1.55z" fill="#37474f"/><g data-name="Group 41"><path data-name="Path 50" d="M195.47 171.204l16.156-9.329c.964-.556 1.745-.106 1.745 1.008v11.092a3.856 3.856 0 01-1.745 3.023l-16.156 9.327c-.963.557-1.745.106-1.745-1.008v-11.091a3.858 3.858 0 011.745-3.022z" fill="#27debf"/><path data-name="Path 51" d="M198.047 172.753l11-6.353c.578-.334 1.047-.181 1.047.341a2.1 2.1 0 01-1.047 1.55l-11 6.353c-.579.334-1.047.181-1.047-.341a2.1 2.1 0 011.047-1.55z" fill="#fafafa"/><path data-name="Path 52" d="M196.998 178.349v3.253c0 .667.468.938 1.047.6l11-6.353a2.316 2.316 0 001.047-1.814v-3.253c0-.667-.469-.938-1.047-.6l-11 6.354a2.312 2.312 0 00-1.047 1.813z" fill="#fafafa"/></g><g data-name="Group 42"><path data-name="Path 53" d="M221.664 156.08l16.156-9.327c.964-.556 1.745-.106 1.745 1.008v11.093a3.858 3.858 0 01-1.745 3.023l-16.156 9.327c-.964.556-1.745.106-1.745-1.008v-11.093a3.859 3.859 0 011.745-3.023z" fill="#27debf"/><path data-name="Path 54" d="M224.241 157.63l11-6.353c.578-.335 1.047-.181 1.047.34a2.1 2.1 0 01-1.047 1.55l-11 6.353c-.579.334-1.047.181-1.047-.34a2.1 2.1 0 011.047-1.55z" fill="#fafafa"/><path data-name="Path 55" d="M223.196 163.226v3.253c0 .667.468.938 1.047.6l11-6.353a2.316 2.316 0 001.047-1.814v-3.253c0-.667-.468-.938-1.047-.6l-11 6.353a2.315 2.315 0 00-1.047 1.814z" fill="#fafafa"/></g><g data-name="Group 43"><path data-name="Path 56" d="M247.859 140.95l16.156-9.328c.963-.556 1.745-.1 1.745 1.008v11.093a3.858 3.858 0 01-1.745 3.023l-16.156 9.327c-.964.557-1.746.106-1.746-1.008v-11.087a3.858 3.858 0 011.746-3.028z" fill="#27debf"/><path data-name="Path 57" d="M250.436 142.505l11-6.353c.579-.334 1.047-.181 1.047.341a2.1 2.1 0 01-1.047 1.55l-11 6.353c-.578.334-1.047.181-1.047-.341a2.1 2.1 0 011.047-1.55z" fill="#fafafa"/><path data-name="Path 58" d="M249.389 148.1v3.253c0 .668.469.939 1.047.6l11-6.353a2.312 2.312 0 001.047-1.814v-3.253c0-.668-.469-.938-1.047-.6l-11 6.353a2.316 2.316 0 00-1.047 1.814z" fill="#fafafa"/></g><path data-name="Path 59" d="M197.215 196.661l65.055-37.556c1.927-1.113 3.49-.322 3.49 1.765a7.486 7.486 0 01-3.49 5.8l-65.055 37.559c-1.927 1.113-3.49.322-3.49-1.765a7.485 7.485 0 013.49-5.803z" fill="#e0e0e0"/><path data-name="Path 60" d="M197.215 211.784l65.055-37.559c1.927-1.113 3.49-.322 3.49 1.765a7.485 7.485 0 01-3.49 5.8l-65.055 37.56c-1.927 1.113-3.49.322-3.49-1.765a7.486 7.486 0 013.49-5.801z" fill="#e0e0e0"/><path data-name="Path 61" d="M218.391 218.464l22.7-13.109c.964-.556 1.745-.1 1.745 1.008v7.313a3.859 3.859 0 01-1.746 3.023l-22.7 13.108c-.964.557-1.745.106-1.745-1.008v-7.312a3.856 3.856 0 011.746-3.023z" fill="#27debf"/><g data-name="Group 44" fill="#fafafa"><path data-name="Path 62" d="M198.636 197.772a3.619 3.619 0 00-1.637 2.836c0 1.044.734 1.467 1.637.946a3.619 3.619 0 001.637-2.836c0-1.045-.732-1.468-1.637-.946z"/><path data-name="Path 63" d="M203.822 194.773a3.62 3.62 0 00-1.636 2.837c0 1.044.733 1.467 1.636.946a3.619 3.619 0 001.637-2.837c.001-1.044-.732-1.467-1.637-.946z"/><path data-name="Path 64" d="M209.009 191.778a3.619 3.619 0 00-1.637 2.836c0 1.045.733 1.468 1.637.946a3.619 3.619 0 001.637-2.836c0-1.046-.733-1.471-1.637-.946z"/><path data-name="Path 65" d="M214.196 188.775a3.619 3.619 0 00-1.637 2.836c0 1.045.733 1.468 1.637.946a3.617 3.617 0 001.637-2.836c0-1.044-.732-1.467-1.637-.946z"/><path data-name="Path 66" d="M219.382 185.777a3.621 3.621 0 00-1.637 2.836c0 1.045.734 1.468 1.637.945a3.618 3.618 0 001.637-2.836c0-1.044-.732-1.467-1.637-.945z"/><path data-name="Path 67" d="M224.569 182.778a3.618 3.618 0 00-1.637 2.836c0 1.044.733 1.468 1.637.946a3.62 3.62 0 001.636-2.836c.001-1.045-.732-1.468-1.636-.946z"/><path data-name="Path 68" d="M229.756 179.78a3.617 3.617 0 00-1.637 2.836c0 1.044.733 1.467 1.637.945a3.621 3.621 0 001.637-2.836c0-1.044-.733-1.467-1.637-.945z"/></g><g data-name="Group 45" fill="#fafafa"><path data-name="Path 69" d="M198.636 212.912a3.62 3.62 0 00-1.637 2.836c0 1.044.734 1.468 1.637.946a3.619 3.619 0 001.637-2.836c0-1.045-.732-1.465-1.637-.946z"/><path data-name="Path 70" d="M203.822 209.915a3.618 3.618 0 00-1.636 2.836c0 1.044.733 1.467 1.636.946a3.619 3.619 0 001.637-2.836c.001-1.046-.732-1.469-1.637-.946z"/><path data-name="Path 71" d="M209.009 206.915a3.617 3.617 0 00-1.637 2.836c0 1.044.733 1.467 1.637.946a3.621 3.621 0 001.637-2.837c0-1.044-.733-1.467-1.637-.945z"/><path data-name="Path 72" d="M214.196 203.915a3.619 3.619 0 00-1.637 2.836c0 1.045.733 1.468 1.637.946a3.617 3.617 0 001.637-2.836c0-1.044-.732-1.467-1.637-.946z"/><path data-name="Path 73" d="M219.382 200.917a3.621 3.621 0 00-1.637 2.836c0 1.045.734 1.468 1.637.946a3.617 3.617 0 001.637-2.836c0-1.044-.732-1.467-1.637-.946z"/><path data-name="Path 74" d="M224.569 197.918a3.619 3.619 0 00-1.637 2.836c0 1.045.733 1.468 1.637.946a3.618 3.618 0 001.636-2.836c.001-1.044-.732-1.464-1.636-.946z"/><path data-name="Path 75" d="M229.756 194.922a3.618 3.618 0 00-1.637 2.836c0 1.045.733 1.468 1.637.946a3.62 3.62 0 001.637-2.836c0-1.046-.733-1.47-1.637-.946z"/></g></g></g><g data-name="Group 49"><g data-name="Group 48"><g data-name="Group 47"><path data-name="Path 76" d="M302.504 228.999a15.7 15.7 0 01-7.938-2.1c-5.809-3.355-9.14-10.372-9.14-19.255 0-15.624 9.93-33.6 22.607-40.915 6.826-3.94 13.6-4.368 19.09-1.2 5.809 3.354 9.14 10.374 9.14 19.258 0 15.624-9.93 33.6-22.607 40.915a22.463 22.463 0 01-11.152 3.297zm16.654-54.317a11.936 11.936 0 00-5.5 1.784c-9.207 5.315-16.984 19.592-16.984 31.176 0 4.688 1.315 8.247 3.517 9.518 2.508 1.448 5.991-.132 7.844-1.2 9.206-5.315 16.984-19.592 16.984-31.176 0-4.688-1.316-8.247-3.518-9.519a4.619 4.619 0 00-2.344-.583z" fill="#455a64"/></g><path data-name="Path 77" d="M327.027 187.285c0-8.776-5.529-12.021-5.529-12.021 2.2 1.272 3.518 4.831 3.518 9.519 0 11.584-7.778 25.861-16.984 31.176-1.853 1.069-5.336 2.649-7.844 1.2 0 0 4.666 2.9 11.112-.621 9.332-5.089 15.727-17.669 15.727-29.253z" fill="#37474f"/></g><path data-name="Path 78" d="M318.159 77.592a5.815 5.815 0 00-11.629 0v92.48a2.889 2.889 0 001.7 2.374 9.084 9.084 0 008.223 0 2.89 2.89 0 001.7-2.374V77.603z" fill="#37474f"/><path data-name="Path 79" d="M313.515 98.249a7.42 7.42 0 00-3.358-5.816 2.33 2.33 0 00-2.4-.212l-14.347 8.266-.347.206a.774.774 0 00-.14.083 4.548 4.548 0 00-.687.562 4.752 4.752 0 005.6 7.555c.091-.05.182-.108.272-.157l14.438-8.316a2.366 2.366 0 00.969-2.171z" fill="#455a64"/><path data-name="Path 80" d="M313.514 121.404a7.422 7.422 0 00-3.358-5.816 2.332 2.332 0 00-2.4-.212l-16.815 9.657-.347.206a.774.774 0 00-.14.083 4.5 4.5 0 00-.686.562 4.752 4.752 0 005.6 7.555c.091-.05.182-.108.272-.157l16.906-9.706a2.365 2.365 0 00.968-2.172z" fill="#455a64"/></g></g></svg>