<svg xmlns="http://www.w3.org/2000/svg" width="31" height="31"><g data-name="Group 6194" transform="translate(-733.541 -1048.458)"><circle data-name="Ellipse 29" cx="15.5" cy="15.5" r="15.5" transform="translate(733.541 1048.458)" fill="#64c689"/><path data-name="Path 700" d="M755.606 1058.965l-1.576-1.573a1.66 1.66 0 00-2.319 0l-1.548 1.573 3.867 3.867 1.576-1.547a1.66 1.66 0 000-2.32zm-6.968 1.547l-5.386 5.443a.447.447 0 00-.141.25l-1.086 4.157a.525.525 0 00.141.521.512.512 0 00.38.107.3.3 0 00.142 0l4.156-1.089a.431.431 0 00.25-.142l5.383-5.407z" fill="#fafafa"/></g></svg>