<svg xmlns="http://www.w3.org/2000/svg" width="48" height="48"><g data-name="Group 191" transform="translate(-1144 -889)"><circle data-name="Ellipse 16" cx="24" cy="24" r="24" transform="translate(1144 889)" fill="#ebf0f1"/><g data-name="Group 189"><path data-name="Path 403" d="M1176.205 920.101c.089.138.261.175.358.311a.934.934 0 01-.093 1.246c-.436.459-.892.9-1.339 1.348a.612.612 0 01-.283.14c-.889.253-1.776.511-2.664.763a1.063 1.063 0 01-.29.029c-1.052 0-2.1.018-3.155-.005a12.663 12.663 0 01-1.839-.289c-1.5-.255-3.007-.518-4.51-.78q-1.809-.315-3.618-.635c0 .141-.01.283-.016.423 0 .374 0 .748.011 1.122 0 .13-.046.166-.17.165h-4.8c-.124 0-.173-.035-.17-.165.009-.374.008-.748.011-1.122q0-2.48-.012-4.959c0-.157.054-.194.2-.193q2.367.006 4.736 0c.167 0 .217.051.208.214-.011.213 0 .429 0 .642l1.61-.322a8.48 8.48 0 01-.755-3.1 7.287 7.287 0 01.881-3.651 21.912 21.912 0 013.167-4.623c.29-.338.59-.669.885-1a.85.85 0 01.4-1.411 2.845 2.845 0 01.661-.044h6.841a2.8 2.8 0 01.661.044.85.85 0 01.4 1.411c.733.826 1.468 1.652 2.128 2.54a23.015 23.015 0 011.565 2.387 9.092 9.092 0 011.193 3.233 7.589 7.589 0 01-.556 3.87 7.219 7.219 0 01-1.646 2.411z" fill="#fefefe"/><path data-name="Path 404" d="M1177.219 910.588a12.636 12.636 0 01-2.3 4.008 5.783 5.783 0 01-1.161 1.188l-.035.021-.044.028-.036.011a.233.233 0 01-.044.009h-.008c-.1 0-.21.016-.288-.069l-.013-.016-.007-.009a.651.651 0 01-.046-.288v-1.957a.567.567 0 01.049-.281v-.006l.013-.011c.144-.127.326-.074.492-.083.275-.015.3-.031.3-.313v-.958c0-.2-.07-.294-.279-.287a1.069 1.069 0 01-.472-.041.191.191 0 01-.045-.041.161.161 0 01-.02-.031.485.485 0 01-.033-.218 8.292 8.292 0 010-.669.353.353 0 00-.3-.4c-.77-.22-1.537-.458-2.3-.689-.461-.138-.924-.271-1.381-.418a.712.712 0 00-.444 0q-1.815.556-3.634 1.094c-.337.1-.355.126-.357.489v.589a.5.5 0 01-.034.229.166.166 0 01-.021.031.2.2 0 01-.035.036 1.11 1.11 0 01-.5.046c-.176 0-.263.062-.26.248v1.066c0 .168.075.235.24.243.187.01.389-.052.558.084h.006a.113.113 0 01.007.014.594.594 0 01.049.3v1.939a.586.586 0 01-.051.3.06.06 0 01-.006.011l-.007.006c-.158.132-.35.082-.528.084s-.271.077-.268.27c.006.338 0 .675 0 1.013a.747.747 0 01-.04.315.176.176 0 01-.011.024l-.006.006a.268.268 0 01-.235.082 8.969 8.969 0 00-2.072.3c-.322.058-.642.131-.964.19-.094.017-.193.05-.276-.032a8.478 8.478 0 01-.755-3.1 7.286 7.286 0 01.881-3.651 21.914 21.914 0 013.167-4.623c.29-.338.59-.669.885-1a5.365 5.365 0 002.131.173c1.692.015 3.384.007 5.075 0a4.213 4.213 0 001.757-.175c.733.826 1.468 1.652 2.127 2.54a23.015 23.015 0 011.579 2.379z" fill="#39b44a"/><path data-name="Path 405" d="M1177.855 917.691a7.218 7.218 0 01-1.65 2.411c-.116.108-.255.036-.383.046h-.009l-.1.005a.633.633 0 00-.2.034 2.215 2.215 0 00-1.237.749 2.191 2.191 0 01-1.21.655 14.572 14.572 0 01-3.85.273 3.741 3.741 0 01-1.195-.368q-1.659-.6-3.315-1.207a.48.48 0 01-.272-.157v-.005a.025.025 0 010-.006c.075-.171.247-.14.381-.157.645-.074 1.289-.176 1.936-.21a1.34 1.34 0 001.4-1 .275.275 0 01.044-.046l.019-.014a.752.752 0 01.241-.089 13.147 13.147 0 002.595-1.029l.106-.057.1-.057a.415.415 0 01.135-.025h.153c.73-.016 1.461 0 2.191-.007.341 0 .36-.022.363-.365 0-.275-.007-.552 0-.827.008-.213-.031-.372-.286-.381a.134.134 0 01-.089-.044.169.169 0 01-.021-.024 12.927 12.927 0 002.874-3.841c.185-.374.328-.769.489-1.155.034-.079.037-.18.15-.2a9.092 9.092 0 011.193 3.233 7.589 7.589 0 01-.553 3.865z" fill="#39b44a"/><path data-name="Path 406" d="M1175.745 921.172a17.329 17.329 0 01-1.418 1.454.922.922 0 01-.412.184q-1.26.359-2.519.72a1.613 1.613 0 01-.448.059c-1.007 0-2.014.013-3.02-.005a12.083 12.083 0 01-1.846-.286q-3.49-.6-6.978-1.216a.753.753 0 01-.3-.083.249.249 0 01-.027-.021.267.267 0 01-.049-.056.759.759 0 01-.044-.314v-2.876c0-.13-.021-.27.092-.374l1.61-.322c.836-.165 1.673-.327 2.508-.5.336-.069.675-.005 1.01-.042a.311.311 0 01.045-.03.421.421 0 01.205-.045c.922 0 1.844-.009 2.767 0a.532.532 0 01.13.021.751.751 0 01.078.064.429.429 0 01.031.031 1.1 1.1 0 01.008 1.368 1.264 1.264 0 01-.831.491c-.642.1-1.291.162-1.934.265-.077.012-.183-.022-.222.056s.065.132.112.19a1.157 1.157 0 01.142.21l.006.011c1.306.471 2.617.929 3.916 1.418a3.173 3.173 0 001.429.247 1.087 1.087 0 01.187 0 12.153 12.153 0 003.6-.389.611.611 0 00.32-.175c.216-.226.435-.449.667-.658a1.628 1.628 0 01.95-.449.579.579 0 01.306.024c.1.049.137.156.151.352a.944.944 0 01-.222.676z" fill="#fbcba6"/><path data-name="Path 407" d="M1158.772 922.231c0 .141-.01.283-.016.423a.457.457 0 01-.353.084h-4.413a.459.459 0 01-.354-.084q0-2.48-.012-4.959c0-.157.054-.194.2-.193q2.367.006 4.736 0c.167 0 .217.051.208.214-.011.213 0 .429 0 .642v3.6a.246.246 0 01.027.044.213.213 0 01-.023.229z" fill="#fec741"/><path data-name="Path 408" d="M1164.907 902.531c-.147-.449-.3-.9-.44-1.346a1.12 1.12 0 01.339-1.258 1.091 1.091 0 011.318-.091 1.126 1.126 0 001.442-.179 2.111 2.111 0 012.967.013 1.122 1.122 0 001.4.184 1.114 1.114 0 011.34.092 1.138 1.138 0 01.312 1.316l-.421 1.268a.568.568 0 01-.338.045h-7.664a.348.348 0 01-.255-.044z" fill="#39b44a"/><path data-name="Path 409" d="M1164.907 902.531a1.222 1.222 0 01.4-.043h7.491a1 1 0 01.369.041.834.834 0 01.585.8.822.822 0 01-.539.808c-.052.023-.1.034-.085.106-.063.068-.146.054-.225.053q-3.856-.024-7.713 0c-.079 0-.162.015-.225-.053a.081.081 0 00-.061-.1.822.822 0 01-.564-.823.847.847 0 01.567-.789z" fill="#8b6239"/><path data-name="Path 410" d="M1173.524 905.659a1.056 1.056 0 01-.757.264q-3.725-.009-7.449 0a1.047 1.047 0 01-.757-.265.85.85 0 01.4-1.411 2.845 2.845 0 01.661-.044h6.841a2.8 2.8 0 01.661.044.85.85 0 01.4 1.412z" fill="#603813"/><path data-name="Path 411" d="M1176.471 921.659c-.436.459-.892.9-1.339 1.348a.613.613 0 01-.283.14c-.889.253-1.776.512-2.664.763a1.063 1.063 0 01-.29.029c-1.052 0-2.1.018-3.155-.005a12.661 12.661 0 01-1.838-.289c-1.5-.255-3.007-.518-4.51-.78q-1.809-.315-3.618-.635v-.276c.777.132 1.554.262 2.33.4 1.081.187 2.162.38 3.243.568s2.163.375 3.245.561a1.712 1.712 0 00.29.029c1.044 0 2.087.008 3.13 0a6.082 6.082 0 001.366-.337c.517-.125 1.024-.294 1.537-.436a1.1 1.1 0 00.539-.323c.409-.448.881-.833 1.256-1.314a.85.85 0 00.186-.571c-.007-.238-.041-.333-.185-.374a.949.949 0 00-.2-.029 1.678 1.678 0 01.7-.024c.089.138.261.175.358.311a.934.934 0 01-.098 1.244z" fill="#fbcba6"/><path data-name="Path 412" d="M1158.768 923.776c0 .13-.046.166-.17.165h-4.8c-.124 0-.173-.035-.169-.165.009-.374.008-.748.011-1.122h5.121c-.001.374-.002.748.007 1.122z" fill="#fec741"/><path data-name="Path 413" d="M1173.328 911.496c.213 0 .426.01.639 0 .158-.007.221.041.217.209q-.015.653 0 1.307c0 .173-.069.211-.222.2-.213-.008-.426 0-.639 0-.276.15-.573.056-.86.076-.566.01-1.133.011-1.7 0-.29.008-.58.009-.87 0-.566.01-1.133.011-1.7 0-.29.008-.58.009-.87 0-.567.01-1.134.011-1.7 0-.288-.02-.587.075-.863-.076-.222 0-.444-.007-.666 0-.129 0-.2-.03-.194-.177q.01-.68 0-1.36c0-.143.056-.185.19-.182.222.006.444 0 .666 0a.51.51 0 01.356-.084h7.859a.51.51 0 01.357.087z" fill="gray"/><path data-name="Path 414" d="M1173.328 911.495h-8.575c0-.33.016-.661 0-.99a.313.313 0 01.267-.377c1.3-.383 2.6-.779 3.9-1.173a.377.377 0 01.233 0c1.309.4 2.617.8 3.929 1.183a.286.286 0 01.241.341c-.008.339.004.677.005 1.016z" fill="#666"/><path data-name="Path 415" d="M1167.113 917.514l-3.211-.017c0-.482.013-.965 0-1.447-.007-.221.07-.28.275-.264s.392 0 .588 0c.276-.15.573-.056.86-.076.566-.01 1.133-.011 1.7 0 .29-.008.58-.009.87 0 .566-.01 1.133-.011 1.7 0 .29-.008.58-.009.87 0 .567-.01 1.134-.011 1.7 0 .288.02.587-.075.863.076l.321.009c.019.152-.1.218-.192.295a13.211 13.211 0 01-1.7 1.229 1.472 1.472 0 01-.41.18l-.1.015a1.222 1.222 0 01-.5.078h-3.306a.431.431 0 01-.328-.078z" fill="#7f7f7f"/><path data-name="Path 416" d="M1171.346 917.498a16.2 16.2 0 002-1.4 1.512 1.512 0 00.3-.3l.06-.013c.476.022.476.022.476.512 0 .338-.006.677 0 1.015 0 .151-.049.2-.2.2-.878-.012-1.756-.012-2.636-.014z" fill="#7f7f7f"/><path data-name="Path 417" d="M1165.617 915.786h-.855v-2.568h.855a.438.438 0 01.086.326v1.916a.438.438 0 01-.086.326z" fill="#cbcbcb"/><path data-name="Path 418" d="M1173.324 915.786h-.855a.438.438 0 01-.086-.326v-1.916a.438.438 0 01.086-.326h.855z" fill="#cbcbcb"/><path data-name="Path 419" d="M1167.113 917.513a.437.437 0 01.269.036.97.97 0 01.812 1.19 1.232 1.232 0 01-1.29 1.072c-.778.069-1.553.172-2.33.26-.05.006-.11-.007-.135.059-.2-.1-.283-.3-.508-.454a10.083 10.083 0 011.2-.187c.437-.066.882-.092 1.313-.184a1.11 1.11 0 00.71-1.694.567.567 0 01-.041-.098z" fill="#fbcba6"/><path data-name="Path 420" d="M1168.194 918.74a1.131 1.131 0 00-.812-1.19.171.171 0 01.147-.045l3.712.008a7.632 7.632 0 01-1.553.747 11.452 11.452 0 01-1.494.48z" fill="#39b44a"/><path data-name="Path 421" d="M1165.616 915.786v-2.568h1.715a.442.442 0 01.084.326v1.915a.442.442 0 01-.084.326z" fill="#39b44a"/><path data-name="Path 422" d="M1169.9 915.786h-1.715a.442.442 0 01-.084-.326v-1.915a.442.442 0 01.084-.326h1.715a.442.442 0 01.084.326v1.915a.442.442 0 01-.084.326z" fill="#39b44a"/><path data-name="Path 423" d="M1172.469 913.218v2.568h-1.715a.442.442 0 01-.084-.326v-1.915a.442.442 0 01.084-.326z" fill="#39b44a"/><path data-name="Path 424" d="M1168.186 913.218v2.568h-.855v-2.568z" fill="#cbcbcb"/><path data-name="Path 425" d="M1170.755 913.218v2.568h-.855v-2.568z" fill="#cbcbcb"/></g></g></svg>