<svg xmlns="http://www.w3.org/2000/svg" width="48" height="48"><g data-name="Group 190"><circle data-name="Ellipse 15" cx="24" cy="24" r="24" fill="#79e8a3"/><path data-name="Path 426" d="M23.452 37.42a2.811 2.811 0 100-5.592 2.805 2.805 0 100 5.592zm-6.968-19.328h2.468a.837.837 0 00.8-.748 3.752 3.752 0 014.028-3.408c2.064 0 3.94 1.032 3.94 3.5 0 1.908-1.128 2.784-2.892 4.112-2.016 1.468-3.624 3.188-3.5 5.968l.016.656a.747.747 0 00.748.736h2.44a.74.74 0 00.748-.752v-.312c0-2.156.812-2.78 3.032-4.452 1.828-1.392 3.736-2.94 3.736-6.172 0-4.532-3.828-6.72-8.016-6.72-3.8 0-7.968 1.764-8.252 6.86a.7.7 0 00.72.732zM48 24A24 24 0 1124 0a24.009 24.009 0 0124 24z" fill="#ebf0f1"/></g></svg>