<svg xmlns="http://www.w3.org/2000/svg" width="46.468" height="46.469"><path data-name="Path 957" d="M22.7 36.226a2.721 2.721 0 100-5.414 2.716 2.716 0 100 5.414zm-6.742-18.711h2.389a.81.81 0 00.774-.724 3.632 3.632 0 013.9-3.3c2 0 3.814 1 3.814 3.388 0 1.847-1.092 2.7-2.8 3.981-1.952 1.421-3.508 3.086-3.388 5.778l.015.635a.723.723 0 00.724.713h2.362a.717.717 0 00.724-.728v-.3c0-2.087.786-2.691 2.935-4.31 1.77-1.348 3.617-2.846 3.617-5.975 0-4.387-3.706-6.506-7.76-6.506-3.675 0-7.714 1.708-7.989 6.641a.678.678 0 00.7.709zm30.51 5.719A23.234 23.234 0 1123.234 0a23.243 23.243 0 0123.234 23.234z" fill="#58a67e"/></svg>