<svg xmlns="http://www.w3.org/2000/svg" width="31" height="31"><g data-name="Group 687" transform="translate(-1183 -424)"><circle data-name="Ellipse 41" cx="15.5" cy="15.5" r="15.5" transform="translate(1183 424)" fill="#64c689"/><path data-name="Path 801" d="M1206.125 439.503a1.275 1.275 0 00-1.271 1.122 6.589 6.589 0 01-6.352 5.23 6.355 6.355 0 110-12.71 6.293 6.293 0 013.787 1.271h-1.248a1.271 1.271 0 100 2.542h3.813a1.271 1.271 0 001.271-1.271v-3.813a1.271 1.271 0 10-2.542 0v.329a8.9 8.9 0 10-5.084 16.2c6.342 0 8.9-6.037 8.9-7.547a1.266 1.266 0 00-1.274-1.353z" fill="#fff"/></g></svg>