<svg xmlns="http://www.w3.org/2000/svg" width="431.168" height="238.789"><g data-name="Group 85"><path data-name="Path 81" d="M111.922.433c60.919-3.523 124.789 14.828 115.4 41.429s50.193-9.449 73.97.142c16.928 6.828 10.161 27.614 18.351 35.99 18.777 19.2 37.981-4.979 61.879 9.531s13.961 150.2 4.23 150.179l-368.536-.673-4.41.142s-27.028-38.977-2.561-61.737 7.668-33.167 4.694-41.964c-3.414-10.1-11.38-27.739 23.329-40.684s25.747-41.111 24.894-46.943S51.001 3.956 111.919.433z" fill="#eafcfc"/><path data-name="Rectangle 13" fill="#9bc1f9" opacity=".6" d="M299.701 20.977h27.918v216.09h-27.918z"/><path data-name="Rectangle 14" fill="#9bc1f9" opacity=".6" d="M260.713 86.89h27.917v150.177h-27.917z"/><path data-name="Rectangle 15" fill="#9bc1f9" opacity=".6" d="M339.251 67.795h27.917v169.272h-27.917z"/><path data-name="Rectangle 16" fill="#9bc1f9" opacity=".6" d="M221.725 61.138h27.918v175.929h-27.918z"/><path data-name="Rectangle 17" fill="#9bc1f9" opacity=".6" d="M182.736 113.3h27.918v123.767h-27.918z"/><g data-name="Group 52" fill="#9bc1f9"><path data-name="Rectangle 18" opacity=".3" style="mix-blend-mode:multiply;isolation:isolate" d="M299.701 70.78h27.918v166.287h-27.918z"/><path data-name="Rectangle 19" opacity=".3" style="mix-blend-mode:multiply;isolation:isolate" d="M260.713 121.501h27.917v115.566h-27.917z"/><path data-name="Rectangle 20" opacity=".3" style="mix-blend-mode:multiply;isolation:isolate" d="M339.25 106.808h27.917v130.259H339.25z"/><path data-name="Rectangle 21" opacity=".3" style="mix-blend-mode:multiply;isolation:isolate" d="M221.724 101.685h27.918v135.382h-27.918z"/><path data-name="Rectangle 22" opacity=".3" style="mix-blend-mode:multiply;isolation:isolate" d="M182.736 141.825h27.918v95.242h-27.918z"/></g><path data-name="Path 82" d="M380.738 22.631l-22.246 16.824 8.486.541-53.1 93.461-29.4-44.082-41.594 97.019-26.754-38-33.345 47.136 2.1 8.436 31.233-43.936 28.28 40.168 41.441-96.663 28.528 42.771 58.785-103.472 5.458 5.87z" fill="#5183bf"/><g data-name="Group 54"><path data-name="Path 83" d="M157.345 174.584c-31.923-25.421-58.746-58.3-79.055-96.909l-43.908 35.271c23.482 44.639 54.495 82.656 91.405 112.048z" fill="#3c8f7c"/><path data-name="Path 84" d="M71.415 86.893l-27.275 22.26c2.165 4.036 1.379 9.482-1.846 12.244 20.643 36.5 46.513 68.213 76.638 93.946a6.986 6.986 0 0110.442-1.707l19.9-31.3c-3.07-2.492-3.509-7.583-1.047-11.277-26.455-22.6-49.173-50.446-67.3-82.5-3.224 2.76-7.52 2.048-9.512-1.666z" fill="#96d9c9"/><g data-name="Group 53"><path data-name="Path 85" d="M108.156 170.331c6.816-8.8 6.751-21.773.321-29.536-6.447-7.743-17.462-8.108-25.082-.28-7.608 7.812-8.335 21.7-1.087 30.415s19.046 8.183 25.848-.599z" fill="#50bfa5"/><path data-name="Path 86" d="M107.705 145.37l-2.57 2.853c2.049 3.756 1.615 7.637-.594 10.173-2.23 2.553-4.728 2.79-8.534.534-2.765-1.562-4.094-2.023-4.936-1.11-.713.771-.949 2.169.562 4.079A10.418 10.418 0 0094 164.115a2.56 2.56 0 01.677 3.25 1.837 1.837 0 01-2.727.791 14.551 14.551 0 01-2.493-2.313l-2.223 2.453q-1.164-1.46-2.314-2.935l2.42-2.623c-1.957-3.78-1.568-7.537.7-9.921 2.507-2.634 5.407-1.824 8.73.26 2.3 1.438 3.641 1.665 4.6.6 1.006-1.122.679-2.831-.589-4.447a11.3 11.3 0 00-2.875-2.583 2.452 2.452 0 01-.586-3.249l.072-.123a1.845 1.845 0 012.606-.8 15.327 15.327 0 013.154 2.806l2.413-2.631q1.062 1.367 2.14 2.72z" fill="#3c8f7c"/><path data-name="Path 87" d="M133.307 192.967q-10.912-9.344-21.014-19.784l-3.459 4.5q10.238 10.575 21.307 20.063z" fill="#50bfa5"/></g></g><g data-name="Group 56"><path data-name="Path 88" d="M150.836 164.334c-40.1-5.085-79.422-18.5-115.9-39.54L14.131 173.54c42.179 24.327 87.647 39.838 134.008 45.718z" fill="#3c8f7c"/><path data-name="Path 89" d="M33.484 135.36l-12.753 30.558c3.85 2.18 5.832 6.873 4.387 10.589a356.155 356.155 0 00112.356 38.331 7.015 7.015 0 018.215-6.291l1.94-34.246a7.853 7.853 0 01-6.422-8.455 312.754 312.754 0 01-98.668-33.661 6.182 6.182 0 01-9.055 3.175z" fill="#96d9c9"/><g data-name="Group 55"><path data-name="Path 90" d="M106.128 184.211c1.606-10.2-4.8-20.471-14.165-23.592a16.831 16.831 0 00-21.874 11.634c-2.773 9.8 3.387 21.159 13.931 24.651s20.507-2.508 22.108-12.693z" fill="#50bfa5"/><path data-name="Path 91" d="M93.53 164.615l-.832 3.478c3.613 2.012 5.134 5.3 4.46 8.354-.684 3.08-2.733 4.448-7.135 4.458-3.16.067-4.537.329-4.821 1.452-.241.948.238 2.17 2.481 2.972a10.892 10.892 0 003.135.64 2.368 2.368 0 012.176 2.26 1.81 1.81 0 01-1.977 1.917 15.209 15.209 0 01-3.292-.658l-.727 3q-1.723-.608-3.441-1.235l.815-3.225c-3.544-2.075-5.045-5.24-4.242-8.206.885-3.275 3.794-4 7.693-3.92 2.7.052 3.969-.4 4.277-1.694.323-1.366-.8-2.567-2.685-3.251a11.847 11.847 0 00-3.755-.691 2.26 2.26 0 01-2.1-2.3v-.132a1.815 1.815 0 011.867-1.868 16.092 16.092 0 014.106.736l.8-3.229q1.601.578 3.197 1.142z" fill="#3c8f7c"/></g></g><path data-name="Path 92" d="M132.424 83.415a24.789 24.789 0 01-2.854-1.139 14.352 14.352 0 00-3.255-1.222c-1.8-.277-4.894-.092-6.6 1.754-2.128 2.3-5.91.416-5.148 12.466.862 13.64 8.472 12.143 8.657 11.912s6.787-8.726 6.787-8.726 2.309 5.033 2.309 4.848 11.785-15.973.104-19.893z" fill="#0e2e35"/><g data-name="Group 58"><path data-name="Path 93" d="M140.444 173.338c-31.548 12.464-66.356 18.162-102.59 16.793l7.215 46.255c41.9 1.583 82.141-5 118.617-19.417z" fill="#3c8f7c"/><path data-name="Path 94" d="M41.646 198.906l4.734 28.878c3.806.113 7.4 2.936 8.057 6.4 34.854.255 68.427-5.24 99.454-16.28a5.808 5.808 0 013.1-8.231l-14.3-27.311c-3.068 1.179-6.918-.615-8.559-3.92a254.577 254.577 0 01-87.336 14.3 4.948 4.948 0 01-5.15 6.164z" fill="#96d9c9"/><g data-name="Group 57"><path data-name="Path 95" d="M116.993 207.016c-3.513-8.557-12.89-13.888-21.148-12.473-8.251 1.436-13.079 9.221-10.6 17.956 2.475 8.719 12.179 15 21.464 13.39s13.793-10.332 10.284-18.873z" fill="#50bfa5"/><path data-name="Path 96" d="M98.821 196.995q.5 1.516.99 3.034c3.555.08 6.172 2 7.084 4.644.915 2.665.05 4.563-3.152 6.371-2.271 1.345-3.154 2.111-2.846 3.1.26.833 1.17 1.583 3.172 1.286a8.66 8.66 0 002.578-.787 2.128 2.128 0 012.623.859 1.527 1.527 0 01-.561 2.293 12.089 12.089 0 01-2.7.837l.846 2.619q-1.535.234-3.074.451l-.887-2.831c-3.535-.157-6.081-1.994-6.857-4.619-.858-2.9.926-4.652 3.806-6.182 1.991-1.064 2.709-1.933 2.339-3.061-.391-1.19-1.759-1.662-3.448-1.419a9.389 9.389 0 00-3.053 1 2.038 2.038 0 01-2.584-.924l-.059-.1a1.534 1.534 0 01.5-2.21 12.745 12.745 0 013.329-1.109q-.448-1.414-.9-2.829 1.432-.207 2.854-.423z" fill="#3c8f7c"/><path data-name="Path 97" d="M143.726 198.277q-11.255 3.99-22.964 6.941l1.808 4.357q11.863-2.991 23.286-7.038z" fill="#50bfa5"/></g></g><g data-name="Group 60" transform="translate(88.395 220.761)"><path data-name="Path 98" d="M0 3.426v11.295c0 1.826 20.37 3.307 45.5 3.307S91 16.548 91 14.721V3.426z" fill="#e59f39"/><g data-name="Group 59" fill="#eab054"><path data-name="Path 99" d="M32.926 17.899V3.426H0v11.295c0 1.509 13.913 2.782 32.926 3.178z"/><path data-name="Path 100" d="M34.456 17.929a610.95 610.95 0 0027.151-.114V3.427H34.456z"/><path data-name="Path 101" d="M63.433 17.761c16.21-.506 27.563-1.677 27.563-3.04V3.426H63.433z"/></g><ellipse data-name="Ellipse 2" cx="45.498" cy="3.306" rx="45.498" ry="3.306" fill="#e59f39"/><path data-name="Path 102" d="M82.966 3.306c0 1.266-16.775 2.292-37.467 2.292S8.032 4.572 8.032 3.306s16.775-2.292 37.467-2.292S82.966 2.04 82.966 3.306z" fill="#f7cc7f"/></g><g data-name="Group 62" transform="translate(80.61 208.809)"><path data-name="Path 103" d="M0 3.426v11.295c0 1.826 20.37 3.306 45.5 3.306S91 16.547 91 14.721V3.426z" fill="#e59f39"/><g data-name="Group 61" fill="#eab054"><path data-name="Path 104" d="M32.924 17.899V3.426H0v11.295c0 1.509 13.913 2.782 32.924 3.178z"/><path data-name="Path 105" d="M34.459 17.929a610.979 610.979 0 0027.152-.113V3.428H34.459z"/><path data-name="Path 106" d="M63.433 17.76c16.21-.506 27.563-1.676 27.563-3.039V3.426H63.433z"/></g><ellipse data-name="Ellipse 3" cx="45.498" cy="3.306" rx="45.498" ry="3.306" fill="#e59f39"/><path data-name="Path 107" d="M82.965 3.307c0 1.266-16.775 2.292-37.467 2.292S8.031 4.573 8.031 3.307s16.774-2.292 37.467-2.292S82.965 2.04 82.965 3.307z" fill="#f7cc7f"/></g><g data-name="Group 64" transform="translate(85.797 196.539)"><path data-name="Path 108" d="M0 3.426v11.295c0 1.826 20.37 3.306 45.5 3.306S91 16.547 91 14.721V3.426z" fill="#e59f39"/><g data-name="Group 63" fill="#eab054"><path data-name="Path 109" d="M32.926 17.899V3.426H0v11.295c0 1.509 13.913 2.782 32.926 3.178z"/><path data-name="Path 110" d="M34.459 17.929a610.95 610.95 0 0027.151-.113V3.428H34.459z"/><path data-name="Path 111" d="M63.433 17.76c16.21-.506 27.563-1.676 27.563-3.04V3.425H63.433z"/></g><ellipse data-name="Ellipse 4" cx="45.498" cy="3.306" rx="45.498" ry="3.306" fill="#e59f39"/><path data-name="Path 112" d="M82.965 3.306c0 1.266-16.775 2.292-37.467 2.292S8.031 4.572 8.031 3.306s16.774-2.292 37.467-2.292S82.965 2.04 82.965 3.306z" fill="#f7cc7f"/></g><g data-name="Group 66" transform="translate(80.61 184.437)"><path data-name="Path 113" d="M0 3.426v11.293c0 1.826 20.37 3.306 45.5 3.306S91 16.545 91 14.719V3.424z" fill="#e59f39"/><g data-name="Group 65" fill="#eab054"><path data-name="Path 114" d="M32.924 17.899V3.426H0v11.293c0 1.511 13.913 2.784 32.924 3.18z"/><path data-name="Path 115" d="M34.459 17.929a610.979 610.979 0 0027.152-.114V3.427H34.459z"/><path data-name="Path 116" d="M63.433 17.76c16.21-.506 27.563-1.676 27.563-3.039V3.426H63.433z"/></g><ellipse data-name="Ellipse 5" cx="45.498" cy="3.306" rx="45.498" ry="3.306" fill="#e59f39"/><path data-name="Path 117" d="M82.965 3.306c0 1.266-16.775 2.293-37.467 2.293S8.031 4.572 8.031 3.306s16.774-2.292 37.467-2.292 37.467 1.027 37.467 2.292z" fill="#f7cc7f"/></g><g data-name="Group 68" transform="translate(311.659 219.927)"><path data-name="Path 118" d="M87.507 3.295v10.862c0 1.756-19.589 3.179-43.754 3.179S-.001 15.913-.001 14.157V3.295z" fill="#e59f39"/><g data-name="Group 67" fill="#eab054"><path data-name="Path 119" d="M55.844 17.214V3.296h31.664v10.862c0 1.45-13.38 2.674-31.664 3.056z"/><path data-name="Path 120" d="M54.369 17.242c-3.4.062-6.955.094-10.616.094-5.455 0-10.678-.073-15.494-.205V3.295h26.11z"/><path data-name="Path 121" d="M26.507 17.079C10.918 16.592 0 15.467 0 14.156V3.294h26.507z"/></g><ellipse data-name="Ellipse 6" cx="43.754" cy="3.179" rx="43.754" ry="3.179" fill="#e59f39"/><path data-name="Path 122" d="M7.723 3.179c0 1.218 16.131 2.2 36.03 2.2s36.03-.987 36.03-2.2-16.131-2.2-36.03-2.2-36.03.983-36.03 2.2z" fill="#f7cc7f"/></g><g data-name="Group 70" transform="translate(319.145 208.433)"><path data-name="Path 123" d="M87.508 3.295v10.862c0 1.756-19.589 3.18-43.754 3.18S0 15.913 0 14.157V3.295z" fill="#e59f39"/><g data-name="Group 69" fill="#eab054"><path data-name="Path 124" d="M55.844 17.213V3.295h31.664v10.862c0 1.451-13.38 2.675-31.664 3.056z"/><path data-name="Path 125" d="M54.37 17.242a593.245 593.245 0 01-26.11-.111V3.295h26.11z"/><path data-name="Path 126" d="M26.507 17.084C10.918 16.598 0 15.472 0 14.161V3.299h26.507z"/></g><ellipse data-name="Ellipse 7" cx="43.754" cy="3.179" rx="43.754" ry="3.179" fill="#e59f39"/><ellipse data-name="Ellipse 8" cx="36.03" cy="2.204" rx="36.03" ry="2.204" transform="translate(7.724 .975)" fill="#f7cc7f"/></g><g data-name="Group 72" transform="translate(314.157 196.634)"><path data-name="Path 127" d="M87.508 3.295v10.862c0 1.756-19.589 3.179-43.754 3.179S0 15.913 0 14.157V3.295z" fill="#e59f39"/><g data-name="Group 71" fill="#eab054"><path data-name="Path 128" d="M55.844 17.213V3.295h31.664v10.862c0 1.451-13.38 2.675-31.664 3.056z"/><path data-name="Path 129" d="M54.37 17.242c-3.4.062-6.955.094-10.616.094-5.456 0-10.678-.072-15.494-.2V3.3h26.11z"/><path data-name="Path 130" d="M26.507 17.082C10.919 16.596 0 15.47 0 14.159V3.297h26.507z"/></g><ellipse data-name="Ellipse 9" cx="43.754" cy="3.179" rx="43.754" ry="3.179" fill="#e59f39"/><ellipse data-name="Ellipse 10" cx="36.03" cy="2.204" rx="36.03" ry="2.204" transform="translate(7.724 .975)" fill="#f7cc7f"/></g><g data-name="Group 74" transform="translate(319.145 184.996)"><path data-name="Path 131" d="M87.508 3.295v10.862c0 1.756-19.589 3.18-43.754 3.18S0 15.913 0 14.157V3.295z" fill="#e59f39"/><g data-name="Group 73" fill="#eab054"><path data-name="Path 132" d="M55.844 17.213V3.295h31.664v10.862c0 1.451-13.38 2.675-31.664 3.056z"/><path data-name="Path 133" d="M54.37 17.242c-3.4.062-6.955.094-10.616.094a569.31 569.31 0 01-15.494-.205V3.295h26.11z"/><path data-name="Path 134" d="M26.507 17.08C10.918 16.594 0 15.468 0 14.157V3.295h26.507z"/></g><ellipse data-name="Ellipse 11" cx="43.754" cy="3.179" rx="43.754" ry="3.179" fill="#e59f39"/><ellipse data-name="Ellipse 12" cx="36.03" cy="2.204" rx="36.03" ry="2.204" transform="translate(7.724 .975)" fill="#f7cc7f"/></g><g data-name="Group 76"><path data-name="Path 135" d="M427.012 175.091l-2.628 9.176c-.425 1.484-17.318-2.054-37.732-7.9s-36.618-11.79-36.194-13.273l2.629-9.176z" fill="#e59f39"/><g data-name="Group 75" fill="#eab054"><path data-name="Path 136" d="M396.895 179.188l3.368-11.758 26.749 7.662-2.628 9.176c-.352 1.229-11.951-.977-27.489-5.08z"/><path data-name="Path 137" d="M395.64 178.855c-2.886-.77-5.9-1.6-8.991-2.489-4.609-1.32-9-2.645-13.04-3.922l3.348-11.689 22.058 6.318z"/><path data-name="Path 138" d="M372.138 171.981c-13.051-4.183-22-7.776-21.685-8.883l2.629-9.176 22.392 6.414z"/></g><path data-name="Path 139" d="M353.113 153.819c-.425 1.483 15.779 7.426 36.193 13.273s37.307 9.385 37.732 7.9-15.779-7.426-36.193-13.273-37.307-9.384-37.732-7.9z" fill="#e59f39"/><path data-name="Path 140" d="M359.638 155.688c-.295 1.029 13.094 5.766 29.9 10.581s30.677 7.885 30.971 6.856-13.094-5.766-29.9-10.581-30.676-7.881-30.971-6.856z" fill="#f7cc7f"/></g><g data-name="Group 78"><path data-name="Path 141" d="M403.104 111.934l2.8 9.125c.453 1.475-15.639 7.718-35.94 13.944s-37.126 10.077-37.579 8.6l-2.8-9.125z" fill="#e59f39"/><g data-name="Group 77" fill="#eab054"><path data-name="Path 142" d="M380.088 131.79l-3.586-11.693 26.6-8.158 2.8 9.125c.374 1.219-10.551 5.694-25.814 10.726z"/><path data-name="Path 143" d="M378.857 132.194c-2.84.927-5.819 1.871-8.895 2.815a498.757 498.757 0 01-13.07 3.82l-3.565-11.624 21.936-6.727z"/><path data-name="Path 144" d="M355.406 139.233c-13.222 3.608-22.685 5.475-23.023 4.374l-2.8-9.125 22.269-6.83z"/></g><path data-name="Path 145" d="M329.556 134.387c.452 1.475 17.277-2.376 37.579-8.6s36.392-12.469 35.94-13.944-17.277 2.376-37.578 8.6-36.394 12.469-35.941 13.944z" fill="#e59f39"/><path data-name="Path 146" d="M336.044 132.397c.313 1.023 14.12-2.3 30.838-7.431s30.016-10.112 29.7-11.135-14.121 2.3-30.838 7.431-30.014 10.112-29.7 11.135z" fill="#f7cc7f"/></g><path data-name="Path 147" d="M163.207 225.473s1.081 5.739 1.082 5.751c.061.748.038 2.638.2 3.291.607 2.454 10.929-3.51 8.221-3.99a11.236 11.236 0 01-2.428-2.6 22.8 22.8 0 01-1.358-3.791z" fill="#f7a491"/><path data-name="Path 148" d="M172.198 230.167a40.344 40.344 0 01-4.021.8c-1.356.135-3.1-1.971-4.069-1.573-1.07.438-1.653 7.122-1.653 7.122s17.026.775 21.049-.336c1.594-.445-6.009-3.983-11.306-6.013z" fill="#f47458"/><path data-name="Path 149" d="M186.947 225.212s1.082 5.739 1.083 5.751c.06.748.038 2.638.2 3.291.607 2.454 10.739-3.118 8.031-3.6a15.317 15.317 0 01-2.238-2.994 22.784 22.784 0 01-1.358-3.791z" fill="#f7a491"/><path data-name="Path 150" d="M195.676 230.167a40.349 40.349 0 01-4.021.8c-1.356.135-3.1-1.971-4.069-1.573-1.07.438-1.653 7.122-1.653 7.122s17.026.775 21.049-.336c1.594-.445-6.009-3.983-11.306-6.013z" fill="#f47458"/><path data-name="Path 151" d="M127.916 167.764l30.973-7.185s13.89-3.672 17.243.639 17.59 63.8 17.59 63.8-7.344.638-7.823.319l-17.191-30.513a26.615 26.615 0 01-3.171-9.385l-1.219-8.737-12.613 3.672s-14.529 3.193-20.436-.479-3.353-12.131-3.353-12.131z" fill="#0e2e35"/><path data-name="Path 152" d="M139.81 114.365c.489.02 1.83.467 3.79 4.16 2.5 4.715 6.162 18.959 6.162 18.959l-10.922 4.054-1.4-2.973-2.317-22.889s4.552-1.317 4.687-1.311z" fill="#eab054"/><path data-name="Path 153" d="M125.373 112.312a66.94 66.94 0 0114.437 2.054s2.635 22.569-2.372 39.719c-1.121 3.839.927 15.914.927 15.914l-32.362-.426s3.834-29.192 2.39-33.907-1.479-21.148-1.479-21.148.222-.034 7.271-1.249a73.487 73.487 0 0111.188-.957z" fill="#f7cc7f"/><path data-name="Path 154" d="M106.561 117.027c3.026-1.131 4.506 26.039 4.914 37.223a132.275 132.275 0 0017.023-.17c1.094-.082 3.615-1 4.7-1.144a10.914 10.914 0 012.673-.126 50.51 50.51 0 016.264 2.81c.593.619 2.194 2.181 1.924 2.856s-3.081-1.881-3.081-1.881l-1.373-.768c1.71 1.665 4.971 3.857 4.5 4.656-.458.778-3.4-1.447-5.5-2.963 1.8 1.619 4.033 4.516 3.518 4.968-.463.406-3-2.948-5.72-3.914-1.006-.358-2.01.633-2.8.753a5.719 5.719 0 01-2.051.114l-2.728-.263a14.231 14.231 0 00-2.251.328c-1.174.249-3.1.511-4.6.876-8.613 2.1-11.485 3.071-14.122 3.069-7.978-.007-8.441-43.746-1.29-46.424z" fill="#f7a491"/><path data-name="Path 155" d="M100.819 142.536c-.567-11.456-.484-25.575 5.96-27.984 2.542-.951 7.024 4.765 6.218 28.217-3.44.282-8.49.51-12.178-.233z" fill="#eab054"/><path data-name="Path 156" d="M172.587 135.535l-30.49 1.992a1.992 1.992 0 00-1.759 1.354l-7.892 23.51-16.809 1.1a.853.853 0 00-.8.906.852.852 0 00.907.795l47.841-3.125a3.346 3.346 0 002.918-2.171l8.078-21.675a1.992 1.992 0 00-1.994-2.686z" fill="#f47458"/><path data-name="Path 157" d="M157.395 150.062a1.681 1.681 0 11-1.554-2 1.8 1.8 0 011.554 2z" fill="#fff"/><path data-name="Path 158" d="M106.022 168.835l33.752-5.828s14.593-2.223 17.946 2.087 13.092 60.19 13.092 60.19-7.344.639-7.823.319c-.371-.247-9.262-18.876-13.256-27.27a31.909 31.909 0 01-2.65-8.4l-1.283-7.605-4.247 1.462a51.841 51.841 0 01-23.25 2.488c-3.28-.407-6.34-1.108-8.239-2.288-5.909-3.669-4.042-15.155-4.042-15.155z" fill="#184655"/><path data-name="Path 159" d="M126.646 108.194l.657 4.874s1.472 7.022-.422 8.375-8.052-8.576-8.052-8.576l.65-12.35z" fill="#f7a491"/><path data-name="Path 160" d="M119.271 104.521a14.009 14.009 0 007.933 7.806l-.557-4.132-7.166-7.676z" fill="#f47458"/><path data-name="Path 161" d="M126.258 87.079a6.513 6.513 0 017.51 6.573 49.252 49.252 0 01-.549 6.251c-.872 5.626-4.724 10.581-7.271 10.138s-8.955-5.3-7.827-13.3c.697-4.945 3.927-8.985 8.137-9.662z" fill="#f7a491"/><path data-name="Path 162" d="M119.888 97.694a1.9 1.9 0 11-1.443-2.558 2.1 2.1 0 011.443 2.558z" fill="#f7a491"/><path data-name="Path 163" d="M118.445 95.136s3.079.763 4.222-1.211 5.229-6.233 10.423-4.467-4.571-4.294-4.987-4.294-5.4-.035-5.4-.035-3.844 3.151-3.982 3.5-1.247 4.121-1.247 4.121z" fill="#0e2e35"/><g data-name="Group 80"><path data-name="Rectangle 23" fill="#50bfa5" d="M345.985 236.769h-76.651v-27.898h76.651z"/><g data-name="Group 79"><path data-name="Rectangle 24" fill="#96d9c9" d="M345.985 216.525h-76.651v-3.589h76.651z"/><path data-name="Rectangle 25" fill="#96d9c9" d="M345.985 223.536h-76.651v-3.589h76.651z"/><path data-name="Rectangle 26" fill="#96d9c9" d="M345.985 230.546h-76.651v-3.589h76.651z"/><path data-name="Rectangle 27" fill="#96d9c9" d="M345.985 236.769h-76.651v-3.589h76.651z"/><path data-name="Rectangle 28" fill="#f7cc7f" d="M313.81 236.769h-15.942v-27.898h15.942z"/></g><path data-name="Rectangle 29" fill="#3c8f7c" d="M356.63 236.769h-11.576v-27.898h11.576z"/></g><path data-name="Path 173" d="M7.605 236.371h423.563v2.417H7.605z" fill="#c5e9f2"/><path data-name="Path 164" d="M187.519 26.91a7.615 7.615 0 00-9.336-5.655 11.209 11.209 0 00-13.479-5.954 13.808 13.808 0 00-24.8 2.412 9.472 9.472 0 00-14.078 8.278c0 .31.016.617.045.919z" fill="#fff" opacity=".8"/><path data-name="Path 165" d="M215.301 64.506a5.763 5.763 0 00-7.065-4.28 8.484 8.484 0 00-10.2-4.506 10.45 10.45 0 00-18.77 1.826 7.168 7.168 0 00-10.653 6.264c0 .235.012.467.034.7z" fill="#fff" opacity=".8"/><path data-name="Path 166" d="M85.385 59.221a5.025 5.025 0 016.161-3.732 7.4 7.4 0 018.895-3.929 9.112 9.112 0 0116.368 1.592 6.251 6.251 0 019.29 5.462c0 .2-.011.407-.03.607z" fill="#fff" opacity=".8"/><g data-name="Group 81"><path data-name="Path 167" d="M171.512 91.045l.543 6.61 3.84-4.324 12.418-10.17-10.589 3.336s-5.214 2.533-5.453 2.867a13.687 13.687 0 00-.759 1.681z" fill="#50bfa5"/><path data-name="Path 168" d="M165.885 88.205l22.427-5.044-16.8 7.884z" fill="#96d9c9"/><path data-name="Path 169" d="M180.137 95.94l-6.913-3.449 15.088-9.33z" fill="#96d9c9"/></g><g data-name="Group 84"><g data-name="Group 82"><path data-name="Path 170" d="M168.893 94.715a8.187 8.187 0 011.806-.474l-.051-.481a8.557 8.557 0 00-1.925.5z" fill="#3c8f7c"/></g><g data-name="Group 83"><path data-name="Path 171" d="M157.825 133.784a19.649 19.649 0 002.432-2.659l.386.291a20.1 20.1 0 01-2.492 2.725zm4.3-5.734a18.547 18.547 0 001.223-3.387l.468.121a20.13 20.13 0 01-.589 1.893c-.2.539-.422 1.071-.665 1.582zm1.952-10.568l.483-.011a31.189 31.189 0 01-.119 3.678l-.481-.046a30.707 30.707 0 00.116-3.621zm-.687-7.239l.478-.068c.2 1.414.347 2.569.455 3.636l-.481.049a88.59 88.59 0 00-.452-3.617zm-.541-3.639a17.79 17.79 0 01-.183-3.668l.482.03a17.315 17.315 0 00.178 3.566v.028l-.479.066zm.607-7.3a8.776 8.776 0 012.1-3.082l.332.351a8.294 8.294 0 00-1.982 2.914z" fill="#3c8f7c"/></g></g></g></svg>