<svg xmlns="http://www.w3.org/2000/svg" width="26.349" height="20.858"><g data-name="Group 6112" fill="#b6bdcd"><path data-name="Path 901" d="M0 .014h2.192v18.637H26.35v2.2H.875A1.293 1.293 0 010 19.976z"/><path data-name="Path 902" d="M25.246 17.554h-5.484V1.245A1.107 1.107 0 0120.993.002h3.061a1.1 1.1 0 011.2 1.2v16.13c.002.066-.004.133-.008.222z"/><path data-name="Path 903" d="M12.082 17.549v-.292c0-3.859.013-7.718-.01-11.577a1.2 1.2 0 011.3-1.3c1 .037 2.006.008 3.01.01a1.087 1.087 0 011.183 1.161V17.36c0 .059-.007.117-.011.19z"/><path data-name="Path 904" d="M9.881 17.554H4.387v-7.509a1.13 1.13 0 011.275-1.263h2.959a1.122 1.122 0 011.26 1.248v7.256z"/></g></svg>