<svg xmlns="http://www.w3.org/2000/svg" width="29.794" height="31.905"><path data-name="Path 302" d="M14.897 21.27a5.318 5.318 0 115.317-5.318 5.338 5.338 0 01-5.317 5.318zm13.556-2.125l-1.592-.929a2.733 2.733 0 010-4.653l1.592-.927a2.52 2.52 0 00.929-3.588l-1.329-2.256a2.518 2.518 0 00-3.588-.927l-1.592.927a2.649 2.649 0 01-3.988-2.256V2.659A2.669 2.669 0 0016.227 0h-2.659a2.669 2.669 0 00-2.663 2.659V4.39a2.649 2.649 0 01-3.984 2.257l-1.592-.8a2.58 2.58 0 00-3.588.927L.413 9.036a2.908 2.908 0 00.929 3.724l1.592.929a2.616 2.616 0 010 4.52l-1.592.929a2.518 2.518 0 00-.929 3.586l1.329 2.258a2.52 2.52 0 003.588.927l1.592-.8a2.649 2.649 0 013.983 2.26v1.877a2.669 2.669 0 002.659 2.659h2.659a2.669 2.669 0 002.659-2.659v-1.731a2.649 2.649 0 013.988-2.256l1.592.927a2.579 2.579 0 003.588-.927L29.382 23a3.041 3.041 0 00-.929-3.855z" fill="#61688d"/></svg>