<svg xmlns="http://www.w3.org/2000/svg" width="23.649" height="23.611"><g data-name="Group 605" fill="#43475d"><path data-name="Path 677" d="M23.632 12.52c-.038.355-.061.692-.112 1.026a11.307 11.307 0 01-2.49 5.668 11.565 11.565 0 01-10.808 4.3 11.237 11.237 0 01-6.619-3.215A11.543 11.543 0 01.18 13.832c-.076-.437-.121-.88-.18-1.32v-1.43c.014-.058.031-.117.04-.175a16.949 16.949 0 01.317-1.951A11.65 11.65 0 019.417.24c.467-.112.951-.156 1.427-.232h.277v4.209a7.672 7.672 0 00-6.881 8.28 7.638 7.638 0 006.737 6.875 7.253 7.253 0 004.871-1.108 7.564 7.564 0 003.562-5.74z"/><path data-name="Path 678" d="M23.649 11.1c-.106.006-.173.014-.24.014h-3.782c-.176 0-.232-.049-.252-.226a7.6 7.6 0 00-5.543-6.427 8.856 8.856 0 00-1.106-.211c-.167-.024-.216-.075-.215-.242.006-1.253 0-2.506 0-3.759 0-.084 0-.169-.007-.253h.323c.461.074.925.13 1.381.226a11.8 11.8 0 019.214 9.286c.106.521.152 1.049.227 1.592z"/><path data-name="Path 679" d="M11.84 5.58a6.246 6.246 0 00-6.246 6.226 6.259 6.259 0 006.23 6.225 6.244 6.244 0 006.228-6.221 6.23 6.23 0 00-6.212-6.23zm2.231 7.559a1.568 1.568 0 01-1.078 1.411c-.152.053-.307.1-.482.15v1.036h-1.387c0-.312-.006-.609 0-.907 0-.131-.038-.183-.171-.215a4.355 4.355 0 01-1.46-.593l.574-1.141a3.524 3.524 0 001.464.609 2.727 2.727 0 00.84-.029.392.392 0 00.256-.272.479.479 0 00-.158-.389 4.373 4.373 0 00-.776-.335c-.359-.133-.737-.224-1.083-.383a1.511 1.511 0 01-.659-2.2 1.691 1.691 0 01.925-.789.318.318 0 00.249-.384c-.018-.25 0-.5 0-.768h1.385c0 .271.013.545 0 .817-.011.176.063.228.216.28.4.134.785.293 1.2.453l-.595 1.121a3.023 3.023 0 00-1.428-.522 1.144 1.144 0 00-.515.073.606.606 0 00-.272.325.329.329 0 00.182.408 4.986 4.986 0 00.616.249c.419.146.855.252 1.261.43a1.438 1.438 0 01.896 1.564z"/></g></svg>