<svg width="27.072" height="27.028" xmlns="http://www.w3.org/2000/svg"><g data-name="Group 320" fill="#64c689"><path data-name="Path 677" d="M27.053 14.328c-.043.406-.07.792-.128 1.174a12.943 12.943 0 01-2.851 6.488 13.239 13.239 0 01-12.373 4.92 12.864 12.864 0 01-7.577-3.681 13.214 13.214 0 01-3.918-7.4c-.087-.5-.139-1.008-.206-1.512v-1.638c.016-.067.035-.133.046-.2a19.4 19.4 0 01.363-2.234A13.337 13.337 0 0110.78.267c.535-.128 1.089-.179 1.634-.266h.317v4.818a8.783 8.783 0 00-7.877 9.479 8.744 8.744 0 007.712 7.87 8.3 8.3 0 005.576-1.268 8.659 8.659 0 004.078-6.571z"/><path data-name="Path 678" d="M27.072 12.707c-.122.007-.2.016-.275.016h-4.33c-.2 0-.265-.056-.289-.259a8.7 8.7 0 00-6.345-7.358 10.139 10.139 0 00-1.267-.242c-.191-.027-.247-.086-.246-.277.007-1.434 0-2.869 0-4.3 0-.1-.005-.193-.008-.29h.37c.527.085 1.059.148 1.58.259A13.506 13.506 0 0126.81 10.887c.124.594.176 1.199.262 1.82z"/><path data-name="Path 679" d="M13.553 6.387a7.15 7.15 0 00-7.15 7.127 7.165 7.165 0 007.127 7.13 7.148 7.148 0 007.13-7.121 7.132 7.132 0 00-7.107-7.136zm2.554 8.653a1.8 1.8 0 01-1.234 1.615c-.174.06-.351.11-.552.172v1.186h-1.588c0-.357-.006-.7 0-1.039 0-.15-.043-.21-.2-.246a4.986 4.986 0 01-1.671-.678l.657-1.306a4.037 4.037 0 001.676.7 3.125 3.125 0 00.961-.033.449.449 0 00.293-.311.549.549 0 00-.18-.446 5.007 5.007 0 00-.889-.383c-.411-.152-.843-.257-1.24-.439a1.73 1.73 0 01-.754-2.514 1.936 1.936 0 011.059-.9.364.364 0 00.285-.44c-.021-.287-.005-.576-.005-.879h1.586c0 .31.015.624 0 .935-.013.2.072.261.247.32.454.153.9.336 1.378.518l-.681 1.283a3.461 3.461 0 00-1.634-.6 1.308 1.308 0 00-.589.084.693.693 0 00-.311.373.376.376 0 00.208.467 5.706 5.706 0 00.706.285c.48.167.979.288 1.443.492a1.646 1.646 0 011.03 1.782z"/></g></svg>