<svg width="30.059" height="30.081" xmlns="http://www.w3.org/2000/svg"><g data-name="Group 673" fill="#64c689"><path data-name="Path 797" d="M29.853 2.712a1.115 1.115 0 00-1.4-.347l-1.461.724.717-1.459a1.114 1.114 0 00-1.78-1.293L21.48 4.791a1.125 1.125 0 00-.325.794v1.768l-7.469 7.459a1.12 1.12 0 101.583 1.583l7.458-7.469h1.768a1.111 1.111 0 00.788-.325l4.454-4.454a1.117 1.117 0 00.11-1.439z"/><path data-name="Path 798" d="M11.232 14.818a2.437 2.437 0 01.169-.5.1.1 0 010-.058 3.152 3.152 0 01.69-1.015l3.131-3.131a6.388 6.388 0 00-.748-.076 5.567 5.567 0 105.567 5.567 6.56 6.56 0 00-.076-.766l-3.131 3.132a3.248 3.248 0 01-1 .69h-.07a3.178 3.178 0 01-.5.168h-.122a3.253 3.253 0 01-1.333 0h-.122a2.434 2.434 0 01-.5-.168h-.058a3.354 3.354 0 01-1.706-1.706.1.1 0 010-.058 3.079 3.079 0 01-.168-.5v-.118a3.253 3.253 0 010-1.333z"/><path data-name="Path 799" d="M18.783 6.577a9.821 9.821 0 00-4.309-.992 10.018 10.018 0 1010.021 10.021 9.821 9.821 0 00-.992-4.308l-1.694 1.7c2.784 7.83-6.982 14-12.856 8.125s.3-15.64 8.125-12.856z"/><path data-name="Path 800" d="M26.856 10.172a3.387 3.387 0 01-1.113.724 12.074 12.074 0 01.98 4.709A12.246 12.246 0 1114.474 3.358a12.04 12.04 0 014.709.946 3.281 3.281 0 01.724-1.113l.7-.714a14.3 14.3 0 00-6.133-1.346A14.474 14.474 0 1028.95 15.605a14.292 14.292 0 00-1.381-6.136z"/></g></svg>