<svg xmlns="http://www.w3.org/2000/svg" xmlns:xlink="http://www.w3.org/1999/xlink" width="302.866" height="307.978"><defs><linearGradient id="a" x1="1.671" y1="-.084" x2="-2.854" y2="2.172" gradientUnits="objectBoundingBox"><stop offset="0" stop-color="#4f52ff"/><stop offset="1" stop-color="#4042e2"/></linearGradient><linearGradient id="f" x1="3.187" y1="-1.358" x2="-3.193" y2="3.054" xlink:href="#a"/><linearGradient id="g" x1="3.441" y1="-6.155" x2="1.858" y2="-2.573" xlink:href="#a"/><linearGradient id="b" x1="-120.435" y1="5.077" x2="-128.435" y2="5.935" gradientUnits="objectBoundingBox"><stop offset="0" stop-color="#09005d"/><stop offset="1" stop-color="#1a0f91"/></linearGradient><linearGradient id="h" x1="-14.31" y1="22.195" x2="-14.631" y2="25.642" xlink:href="#b"/><linearGradient id="c" x1="1.279" y1="-.226" x2="-1.294" y2="2.192" gradientUnits="objectBoundingBox"><stop offset="0" stop-color="#ff928e"/><stop offset="1" stop-color="#fe7062"/></linearGradient><linearGradient id="i" x1="2.347" y1="-2.157" x2="-1.192" y2="2.973" xlink:href="#c"/><linearGradient id="d" x1=".634" y1="-2.27" x2=".558" y2="-.967" gradientUnits="objectBoundingBox"><stop offset="0" stop-color="#e1473d"/><stop offset="1" stop-color="#e9605a"/></linearGradient><linearGradient id="j" x1=".288" y1="1.688" x2=".458" y2=".425" xlink:href="#c"/><linearGradient id="k" x1=".624" y1="-15.904" x2=".56" y2="-7.44" xlink:href="#d"/><linearGradient id="l" x1="1.845" y1="-11.526" x2="1.117" y2="-4.746" xlink:href="#c"/><linearGradient id="m" x1=".399" y1="1.998" x2=".617" y2="-1.196" xlink:href="#c"/><linearGradient id="n" x1="1.782" y1="-.392" x2="-1.003" y2="1.512" xlink:href="#c"/><linearGradient id="o" x1="-21.603" y1="33.315" x2="-24.388" y2="35.219" xlink:href="#c"/><linearGradient id="p" x1=".927" y1=".632" x2="-1.894" y2="-.425" xlink:href="#a"/><linearGradient id="e" x1="1.121" y1="-.158" x2="-1.164" y2="1.904" gradientUnits="objectBoundingBox"><stop offset="0" stop-color="#febbba"/><stop offset="1" stop-color="#ff928e"/></linearGradient><linearGradient id="q" x1=".642" y1=".453" x2="-5.223" y2="3.274" xlink:href="#e"/><linearGradient id="r" x1="0" y1=".5" x2="1" y2=".5" xlink:href="#b"/><linearGradient id="s" x1="0" y1=".5" x2="1" y2=".5" xlink:href="#e"/><linearGradient id="t" x1=".528" y1=".175" x2="-.362" y2="1.576" xlink:href="#a"/><linearGradient id="u" x1=".891" y1=".756" x2="-1.329" y2="-.937" xlink:href="#e"/><linearGradient id="v" x1=".276" y1="1.206" x2=".6" y2=".434" xlink:href="#e"/><linearGradient id="w" x1=".821" y1=".35" x2="-.291" y2="1.106" xlink:href="#e"/><linearGradient id="x" x1=".28" y1=".152" x2="1.03" y2="1.129" xlink:href="#b"/><linearGradient id="y" x1="2.74" y1="-.685" x2="-1.811" y2="1.784" xlink:href="#e"/></defs><g data-name="Group 212"><path data-name="Path 427" d="M264.292 256.048c-5.4 6.921-19.547 21.5-24.216 24.521-41.525 26.9-102.319 18.344-115.681 15.631-19.731-4.007-65.355-.636-92.929-33.062-41.717-49.059-37.819-131.572-5.46-182.593 5.919-9.333 42.175-64.922 105.722-73.228 38.458-5.027 96.082.909 128.546 28.107 68.145 57.089 38.999 175.799 4.018 220.624z" fill="#cbe2f6"/><g data-name="Group 202"><g data-name="Group 200"><path data-name="Path 428" d="M88.696 53.085a1.26 1.26 0 012.379-.563c5.78 11.271 21.861 40.352 40.248 53.784 29.939 21.87 55.085 62.147 43.981 87.906 0 0-88.321 1.619-86.608-141.127z" fill="#bdd0fb"/><path data-name="Path 429" d="M94.517 69.66c.109.385.231.693.346 1.031l.362.988.746 1.965c.506 1.307 1.032 2.6 1.558 3.9q1.592 3.889 3.271 7.741c2.243 5.134 4.625 10.207 7.083 15.242s5.043 10.011 7.739 14.925 5.471 9.787 8.4 14.568a269.088 269.088 0 0019.2 27.614c3.543 4.351 7.2 8.611 11.1 12.651a145.633 145.633 0 0012.383 11.383.221.221 0 00.285-.338 162.806 162.806 0 01-12-11.672c-3.811-4.079-7.381-8.376-10.834-12.759s-6.726-8.911-9.9-13.507-6.146-9.325-9.1-14.067c-5.86-9.512-11.21-19.333-16.285-29.292q-3.791-7.477-7.291-15.1-1.759-3.806-3.439-7.648l-1.646-3.856-.8-1.935-.39-.971c-.123-.32-.26-.662-.356-.947l-.016-.047a.219.219 0 00-.418.13z" fill="#fff" opacity=".43"/></g><g data-name="Group 201"><path data-name="Path 430" d="M132.515 12.86a1.206 1.206 0 012.335.132c2.225 11.913 9.039 42.969 22.237 60.3 21.49 28.223 33.562 72.019 16.352 92.612 0 .003-81.437-22.607-40.924-153.044z" fill="#91b3fa"/><path data-name="Path 431" d="M133.323 29.649c0 .383.022.7.036 1.04l.062 1 .147 2.006c.107 1.336.235 2.67.363 4q.4 4 .887 7.991c.656 5.32 1.456 10.622 2.335 15.911s1.892 10.556 3.024 15.8 2.347 10.468 3.729 15.652a257.182 257.182 0 0010.076 30.562c2.063 4.956 4.256 9.861 6.73 14.629a139.2 139.2 0 008.255 13.816.215.215 0 00.36-.236 155.958 155.958 0 01-7.818-13.98c-2.381-4.781-4.482-9.695-6.452-14.656s-3.736-10.007-5.389-15.086-3.091-10.227-4.5-15.38c-2.78-10.321-5.006-20.787-6.945-31.3q-1.438-7.891-2.569-15.836-.575-3.97-1.069-7.952l-.462-3.983-.209-1.994-.094-1c-.025-.327-.058-.679-.068-.965v-.048a.214.214 0 00-.427.005z" fill="#fff" opacity=".43"/></g></g><g data-name="Group 208"><g data-name="Group 206" transform="translate(114.303)"><circle data-name="Ellipse 17" cx="65.031" cy="65.031" r="65.031" transform="rotate(-45 111.015 45.984)" fill="#fff"/><g data-name="Group 203" transform="translate(33.687 33.686)"><circle data-name="Ellipse 18" cx="55.502" cy="55.502" r="55.502" transform="translate(2.78 2.78)" fill="url(#a)"/><path data-name="Path 432" d="M58.282 116.564a58.282 58.282 0 1158.282-58.282 58.348 58.348 0 01-58.282 58.282zm0-113.784a55.5 55.5 0 1055.5 55.5 55.564 55.564 0 00-55.5-55.5z" fill="#fff"/></g><g data-name="Group 204" transform="translate(44.116 44.116)"><circle data-name="Ellipse 19" cx="33.837" cy="33.837" r="33.837" transform="rotate(-45 57.762 23.926)" fill="url(#f)"/><path data-name="Path 433" d="M47.853 84.469a36.616 36.616 0 1136.616-36.617 36.658 36.658 0 01-36.616 36.617zm0-67.673A31.057 31.057 0 1078.91 47.852a31.092 31.092 0 00-31.057-31.054z" fill="#fff"/></g><g data-name="Group 205" transform="translate(75.835 75.835)"><circle data-name="Ellipse 20" cx="13.109" cy="13.109" r="13.109" transform="rotate(-74.518 16.608 12.633)" fill="url(#g)"/><path data-name="Path 434" d="M16.137 32.022a15.889 15.889 0 1115.889-15.889 15.907 15.907 0 01-15.889 15.889zm0-26.219a10.33 10.33 0 1010.33 10.33 10.341 10.341 0 00-10.33-10.33z" fill="#fff"/></g></g><g data-name="Group 207"><path data-name="Rectangle 180" transform="rotate(-135 127.042 -5.137)" fill="url(#b)" d="M0 0h2.479v93.86H0z"/><path data-name="Path 435" d="M2371.675 1108.216c1.006-1.005 5.746 3.735 4.74 4.74l-17.581 13.822a.7.7 0 01-.98-.981z" transform="translate(-2151.695 -1033.149)" fill="url(#h)"/><path data-name="Path 436" d="M286.822 14.717l8.929.887-12.257 12.257a18.949 18.949 0 01-15.274 5.456z" fill="#91b3fa"/><path data-name="Path 437" d="M285.07 12.965l-.888-8.929-12.257 12.258a18.951 18.951 0 00-5.457 15.273z" fill="#91b3fa"/></g></g><path data-name="Rectangle 181" d="M48.659 0h31.228a48.659 48.659 0 0148.659 48.659v115.648A17.688 17.688 0 01110.858 182H0V48.659A48.659 48.659 0 0148.659 0z" transform="translate(174.32 125.472)" fill="url(#c)"/><path data-name="Rectangle 182" d="M166.917 162.3h14.715a48.659 48.659 0 0148.659 48.659v97.019H118.258v-97.019a48.659 48.659 0 0148.659-48.659z" fill="#91b3fa"/><path data-name="Rectangle 183" d="M48.268 0a48.268 48.268 0 0148.269 48.268V88.66H17.546A17.546 17.546 0 010 71.113V48.268A48.268 48.268 0 0148.268 0z" transform="translate(55.591 218.807)" fill="url(#i)"/><path data-name="Rectangle 184" d="M39.648 253.406h17.24a39.648 39.648 0 0139.649 39.648v14.413H14.413A14.413 14.413 0 010 293.054a39.648 39.648 0 0139.648-39.648z" fill="#91b3fa"/><g data-name="Group 209"><path data-name="Path 438" d="M2804.249 1378.639h-3.656l-5.747-16.9 15.974-.97z" transform="translate(-2541.392 -1258.407)" fill="url(#d)"/><path data-name="Path 439" d="M2705.261 1063.667c-.018 1.427-.018 29.362 14.163 33.9s20.586-19.1 20.078-35.933z" transform="translate(-2461.531 -991.746)" fill="url(#j)"/><path data-name="Rectangle 185" transform="translate(249.693 122.796)" fill="url(#k)" d="M0 0h22.672v2.753H0z"/><path data-name="Path 440" d="M2782.869 1523.774H2760.2l5.738-3.078h11.2z" transform="translate(-2510.504 -1400.978)" fill="url(#l)"/><path data-name="Path 441" d="M2671.547 1024.4a2.279 2.279 0 00-2.264 2.048v2.149a1.986 1.986 0 002.264 1.789l38.865-2.091a2.26 2.26 0 002.265-2.032v-2.454a1.969 1.969 0 00-2.263-1.772z" transform="translate(-2429.459 -956.442)" fill="url(#m)"/><path data-name="Path 442" d="M2913.44 1262.407a1.725 1.725 0 01-1.792-1.348 1.6 1.6 0 011.588-1.683c.189-.019 13.231-1.4 14.468-8.534.209-1.2.186-2.776-1.109-3.432a4.554 4.554 0 00-4.068.4 2.079 2.079 0 00-1.158 2.372 1.529 1.529 0 01-1.338 1.832 1.845 1.845 0 01-2.177-1.126c-.6-2.116.349-4.184 2.54-5.533a8.687 8.687 0 018.064-.551c1.353.686 3.519 2.44 2.82 6.476-.691 3.991-4.024 7.188-9.637 9.246a35.8 35.8 0 01-7.993 1.871c-.07.003-.139.01-.208.01z" transform="translate(-2645.505 -1154.368)" fill="url(#n)"/><path data-name="Path 443" d="M2656.037 1262.407a1.726 1.726 0 001.793-1.348 1.6 1.6 0 00-1.589-1.683c-.188-.019-13.23-1.4-14.467-8.534-.208-1.2-.186-2.776 1.109-3.432a4.555 4.555 0 014.068.4 2.08 2.08 0 011.158 2.372 1.529 1.529 0 001.337 1.832 1.844 1.844 0 002.176-1.126c.6-2.116-.349-4.184-2.539-5.533a8.688 8.688 0 00-8.065-.551c-1.354.686-3.52 2.44-2.82 6.476.691 3.991 4.024 7.188 9.638 9.246a35.8 35.8 0 007.993 1.871c.071.003.14.01.208.01z" transform="translate(-2401.628 -1154.368)" fill="url(#o)"/><path data-name="Path 444" d="M270.279 69.726a.3.3 0 01-.015-.59l3.47-.187a.3.3 0 11.032.59l-3.471.187z" fill="#fff" opacity=".63"/><path data-name="Path 445" d="M243.729 71.155a.3.3 0 01-.016-.59l20.735-1.116a.3.3 0 01.032.59l-20.736 1.116z" fill="#fff" opacity=".63"/><path data-name="Path 446" d="M259.785 102.652h-.034c-3.755-.432-6.756-3.49-8.922-9.088a56.559 56.559 0 01-3.024-13.757.3.3 0 11.587-.062c.675 6.394 3.138 21.367 11.427 22.32a.3.3 0 01-.033.589z" fill="#fff" opacity=".63"/><path data-name="Path 447" d="M247.847 77.149a.3.3 0 01-.294-.276c-.055-.853-.07-1.343-.071-1.363a.3.3 0 01.287-.3.285.285 0 01.3.286c0 .005.015.5.07 1.343a.3.3 0 01-.276.314z" fill="#fff" opacity=".63"/></g><g data-name="Group 211"><path data-name="Path 448" d="M1223.325 1772.124l-7.52 11.569c3.5 6.815 7.384 10.578 11.271 12.366a20.793 20.793 0 014.995-9.864c-6.935-3.944-8.746-14.071-8.746-14.071z" transform="translate(-1133.757 -1625.113)" fill="url(#p)"/><path data-name="Path 449" d="M1341.724 1882.618c-7.7 4.557-13.2 4.29-17.091 2.077a20.8 20.8 0 00-4.995 9.864c12.358 5.686 24.732-8.625 24.732-8.625z" transform="translate(-1226.319 -1723.612)" fill="url(#e)"/><path data-name="Path 450" d="M1521.183 1835.9s-2.078-3.624.91-6.406c0 0 .964-1.1 2.022.516 0 0 3.215-2.919 4.095-1.743s3.21 4.087.934 7.408c-2.302 3.354-6.944 1.857-7.961.225z" transform="translate(-1405.359 -1674.908)" fill="url(#q)"/><path data-name="Path 451" d="M118.985 158.971a1.806 1.806 0 01-.927-.229 1.576 1.576 0 01-.733-1.236.377.377 0 01.747-.1.856.856 0 00.368.683 1.51 1.51 0 001.024.068l-.729-2.31a.376.376 0 01.718-.226l.844 2.676a.376.376 0 01-.221.463 3.238 3.238 0 01-1.091.211z" fill="#f79e6d"/><path data-name="Path 452" d="M511.953 2598.364a1.988 1.988 0 00-.852 2.082c.628 3.271 2.691 11.912 7.7 17.027a.753.753 0 001.1 0 28.715 28.715 0 01-4.682-7.42c-2.819-5.896-3.344-9.534-3.266-11.689z" transform="translate(-505.515 -2361.664)" fill="url(#r)"/><path data-name="Path 453" d="M525.677 2591.074a7.013 7.013 0 00-6.449.107c-.008 0-.015.011-.022.016-.078 2.155.445 5.793 3.272 11.692a28.71 28.71 0 004.682 7.42.878.878 0 00.209-.367c.942-3.272 2.931-12.359-1.692-18.868z" transform="translate(-512.768 -2354.496)" fill="url(#r)"/><path data-name="Path 454" d="M568.933 2564.624l-2.928 2.81a1.535 1.535 0 01-1.91.18 4.026 4.026 0 01-1.489-1.834 1.544 1.544 0 01.282-1.634l2.923-3.216a1.541 1.541 0 012.467.252l.914 1.546a1.541 1.541 0 01-.259 1.896z" transform="translate(-551.356 -2327.843)" fill="url(#s)"/><path data-name="Path 455" d="M1493.8 2334.921a1.99 1.99 0 002.231-.289c2.534-2.162 9.025-8.226 11-15.112a.752.752 0 00-.543-.961 28.726 28.726 0 01-4.136 7.737c-3.739 5.373-6.643 7.627-8.552 8.625z" transform="translate(-1381.572 -2112.232)" fill="url(#r)"/><path data-name="Path 456" d="M1463.352 2329.143a7.011 7.011 0 003.28 5.553c.008.005.017.007.025.012 1.912-1 4.816-3.25 8.547-8.623a28.712 28.712 0 004.136-7.738.88.88 0 00-.423 0c-3.308.798-12.19 3.561-15.565 10.796z" transform="translate(-1354.432 -2112.02)" fill="url(#r)"/><path data-name="Path 457" d="M1428.318 2358.794l3.06 2.665a1.536 1.536 0 01.35 1.887 4.025 4.025 0 01-1.694 1.646 1.545 1.545 0 01-1.653-.135l-3.464-2.625a1.541 1.541 0 01.031-2.48l1.458-1.048a1.541 1.541 0 011.912.09z" transform="translate(-1319.625 -2147.761)" fill="url(#s)"/><path data-name="Path 458" d="M617.068 2113.364s-5.971 20.341-9.831 29.281c0 0-6.748 1.029-10.925 3.47s-13.173 15.966-13.173 15.966 2.349 4.46 5.184 5.144l25.61-17.745 20.439-23.769-.97-11.024z" transform="translate(-569.768 -1929.311)" fill="url(#r)"/><path data-name="Path 459" d="M884.737 2098.078l-1.747 5.57s1.6 14.6 20.008 12.141 20.724-5.468 20.724-5.468-1.6 9.327 18.533 20.541c0 0 3.06-2.31 3.733-4.933l-14.107-23.252c-1.962-3.05-3.782-3.853-7.365-3.293-7.923 1.239-22.758 2.854-25 2.471z" transform="translate(-837.069 -1915.684)" fill="url(#r)"/><path data-name="Path 460" d="M872.851 1716.2c-5.365.273-13.846 2.823-19.324 7.867a66.167 66.167 0 016.206 7.866 16.911 16.911 0 017.693-3.834 227.857 227.857 0 01-10.925 31.993 1.166 1.166 0 00.681 1.572c3.362 1.172 13.274 3.961 21.225-.532l17.627-25.24a21.6 21.6 0 003.642-9.1l.7-4.553s-15.834-6.639-27.525-6.039z" transform="translate(-810.804 -1575.222)" fill="url(#t)"/><path data-name="Path 461" d="M819.7 1819.3c-.766-1.692-3.389-3.272-4.641-3.951-1.089-2.245-5.436-12.341 1.136-18.51a66.136 66.136 0 00-6.206-7.866c-6.321 5.819-8.634 14.96 2.449 27.759-.6 3.152 1.369 6.823 2.436 7.338.489.237 5.84-2.52 4.826-4.77z" transform="translate(-767.262 -1640.134)" fill="url(#u)"/><path data-name="Path 462" d="M1102.062 1654.746l-4.6 9.014a1.489 1.489 0 00.215 1.674c1.115 1.242 3.749 3.259 8.33 1.814a1.388 1.388 0 00.945-1.127l1.2-8.186z" transform="translate(-1028.109 -1520.476)" fill="url(#v)"/><g data-name="Group 210"><path data-name="Path 463" d="M1122.992 1558.324s2.7 6.2 2.882 9.462.883 5.37-2.882 6.026a8.005 8.005 0 01-8.656-4.464s-2.693-5-2.089-7.046 10.745-3.978 10.745-3.978z" transform="translate(-1041.362 -1434.521)" fill="url(#w)"/><path data-name="Path 464" d="M1075.826 1511.393l.214-.094a.517.517 0 00.253-.71c-.531-1.026-1.566-3.377-.229-3.925 1.723-.707 8.55-2.1 10.023-4.521a4.507 4.507 0 00-1.724-6.188.26.26 0 00-.34.11l-.157.3a.256.256 0 01-.472-.048.255.255 0 00-.461-.066c-.453.725-1.675 1.9-4.944 2.5-4.645.857-7.717 2.737-7.793 5.948a.256.256 0 01-.4.211c-.343-.209-.892-.307-1.626.31-1.276 1.073-.754 3.855 2.043 6.145a.254.254 0 01-.012.41c-.507.33-1.263 1.115.7 2.162a6.6 6.6 0 004.121.9.255.255 0 00.207-.308l-.622-2.821a.256.256 0 01.25-.311z" transform="translate(-1001.565 -1378.899)" fill="url(#x)"/><path data-name="Path 465" d="M1117.278 1618.832s-1.03-3.964-2.807-2.852.922 4.441 2.351 4.589z" transform="translate(-1042.901 -1485.743)" fill="url(#y)"/></g></g></g></svg>