<svg xmlns="http://www.w3.org/2000/svg" width="39.005" height="28.601"><g data-name="Group 488" fill="#535873"><path data-name="Path 688" d="M38.459 10.181q-3.745 3.748-7.49 7.5a1.341 1.341 0 01-1.572.416 1.346 1.346 0 01-.8-1.417c.016-1.2 0-2.409 0-3.678H17.155c-1.073 0-1.555-.485-1.555-1.564V6.687a1.318 1.318 0 011.47-1.483h11.522V1.365a1.26 1.26 0 01.8-1.25 1.244 1.244 0 011.451.315q1.914 1.9 3.82 3.817 1.9 1.894 3.789 3.791a1.333 1.333 0 01.007 2.143z"/><path data-name="Path 689" d="M23.402 17.131v4.791a1.321 1.321 0 01-1.481 1.475H10.407v3.6a2.683 2.683 0 01-.018.486 1.275 1.275 0 01-.87 1.033 1.24 1.24 0 01-1.285-.26c-.082-.069-.155-.151-.232-.227Q4.283 24.31.567 20.591a1.348 1.348 0 01.01-2.2l7.521-7.525a1.291 1.291 0 011.358-.406 1.255 1.255 0 01.92.985 2.175 2.175 0 01.03.484v3.669h11.45a1.345 1.345 0 011.546 1.533z"/></g></svg>