<svg width="33.238" height="24.372" xmlns="http://www.w3.org/2000/svg"><g data-name="Group 324" fill="#64c689"><path data-name="Path 688" d="M32.773 8.676l-6.383 6.388a1.143 1.143 0 01-1.34.354 1.147 1.147 0 01-.682-1.207c.014-1.026 0-2.052 0-3.134h-9.75c-.914 0-1.325-.413-1.325-1.333V5.696a1.123 1.123 0 011.253-1.264h9.821V1.161a1.074 1.074 0 01.684-1.065 1.06 1.06 0 011.236.268q1.631 1.622 3.255 3.252 1.615 1.614 3.229 3.23a1.136 1.136 0 01.002 1.83z"/><path data-name="Path 689" d="M19.942 14.599v4.083a1.126 1.126 0 01-1.262 1.257H8.87v3.071a2.287 2.287 0 01-.016.414 1.087 1.087 0 01-.741.88 1.056 1.056 0 01-1.095-.222c-.07-.059-.132-.128-.2-.193L.482 17.551a1.149 1.149 0 01.008-1.878q3.2-3.206 6.409-6.412a1.1 1.1 0 011.157-.346 1.069 1.069 0 01.784.839 1.855 1.855 0 01.026.412v3.127h9.757a1.146 1.146 0 011.319 1.306z"/></g></svg>