<svg id="Layer_1" data-name="Layer 1" xmlns="http://www.w3.org/2000/svg" viewBox="0 0 37.29 23.8"><defs><style>.cls-1{fill:#fff}</style></defs><path class="cls-1" d="M0 .09h45.38v23.77H0z"/><path d="M0 0h45.35v1.88H0zm0 3.68h45.35v1.88H0zm0 3.68h45.35v1.88H0zm0 3.67h45.35v1.88H0zm0 3.68h45.35v1.88H0zm0 3.68h45.35v1.88H0zm0 3.68h45.35v1.88H0z" fill="#cf1c31"/><path fill="#3a3870" d="M0 0h18.11v12.91H0z"/><path class="cls-1" d="M1.54.49l.17.53h.55l-.45.33.17.53-.44-.33-.44.33.17-.53-.45-.33h.55l.17-.53zm1.49 1.33l.17.53h.55l-.44.32.17.53-.45-.33-.44.33.17-.53-.45-.32h.55l.17-.53zm0 2.59l.17.53h.55l-.44.32.17.53-.45-.33-.44.33.17-.53-.45-.32h.55l.17-.53zm0 2.59l.17.53h.55l-.44.32.17.53-.45-.33-.44.33.17-.53-.45-.32h.55L3.03 7zm0 2.59l.17.52h.55l-.44.33.17.53-.45-.33-.44.33.17-.53-.45-.33h.55l.17-.52zm3.03-7.77l.17.53h.55l-.45.32.17.53-.44-.33-.44.33.17-.53-.45-.32h.55l.17-.53zm0 2.59l.17.53h.55l-.45.32.17.53-.44-.33-.44.33.17-.53-.45-.32h.55l.17-.53zm0 2.59l.17.53h.55l-.45.32.17.53-.44-.33-.44.33.17-.53-.45-.32h.55L6.06 7zm0 2.59l.17.52h.55l-.45.33.17.53-.44-.33-.44.33.17-.53-.45-.33h.55l.17-.52zm3.03-7.77l.16.53h.55l-.44.32.17.53-.44-.33-.45.33.17-.53-.44-.32h.54l.18-.53zm0 2.59l.16.53h.55l-.44.32.17.53-.44-.33-.45.33.17-.53-.44-.32h.54l.18-.53zm0 2.59l.16.53h.55l-.44.32.17.53-.44-.33-.45.33.17-.53-.44-.32h.54L9.09 7zm0 2.59l.16.52h.55l-.44.33.17.53-.44-.33-.45.33.17-.53-.44-.33h.54l.18-.52zm3.02-7.77l.17.53h.55l-.45.32.17.53-.44-.33-.44.33.17-.53-.45-.32h.55l.17-.53zm0 2.59l.17.53h.55l-.45.32.17.53-.44-.33-.44.33.17-.53-.45-.32h.55l.17-.53zm0 2.59l.17.53h.55l-.45.32.17.53-.44-.33-.44.33.17-.53-.45-.32h.55l.17-.53zm0 2.59l.17.52h.55l-.45.33.17.53-.44-.33-.44.33.17-.53-.45-.33h.55l.17-.52zm3.03-7.77l.17.53h.54l-.44.32.17.53-.44-.33-.45.33.17-.53-.44-.32h.55l.17-.53zm0 2.59l.17.53h.54l-.44.32.17.53-.44-.33-.45.33.17-.53-.44-.32h.55l.17-.53zm0 2.59l.17.53h.54l-.44.32.17.53-.44-.33-.45.33.17-.53-.44-.32h.55l.17-.53zm0 2.59l.17.52h.54l-.44.33.17.53-.44-.33-.45.33.17-.53-.44-.33h.55l.17-.52zM1.54 3.08l.17.53h.55l-.45.33.17.52-.44-.32-.44.32.17-.52-.45-.33h.55l.17-.53zm0 2.59l.17.53h.55l-.45.33.17.52-.44-.32-.44.32.17-.52-.45-.33h.55l.17-.53zm0 2.59l.17.53h.55l-.45.33.17.52-.44-.32-.44.32.17-.52-.45-.33h.55l.17-.53zm0 2.59l.17.53h.55l-.45.32.17.53-.44-.33-.44.33.17-.53-.45-.32h.55l.17-.53zM4.53.49l.17.53h.54l-.44.33.17.53-.44-.33-.45.33.17-.53-.44-.33h.55l.17-.53zm0 2.59l.17.53h.54l-.44.33.17.52-.44-.32-.45.32.17-.52-.44-.33h.55l.17-.53zm0 2.59l.17.53h.54l-.44.33.17.52-.44-.32-.45.32.17-.52-.44-.33h.55l.17-.53zm0 2.59l.17.53h.54l-.44.33.17.52-.44-.32-.45.32.17-.52-.44-.33h.55l.17-.53zm0 2.59l.17.53h.54l-.44.32.17.53-.44-.33-.45.33.17-.53-.44-.32h.55l.17-.53zM7.59.49l.17.53h.55l-.44.33.17.53-.45-.33-.44.33.17-.53-.45-.33h.55l.17-.53zm0 2.59l.17.53h.55l-.44.33.17.52-.45-.32-.44.32.17-.52-.45-.33h.55l.17-.53zm0 2.59l.17.53h.55l-.44.33.17.52-.45-.32-.44.32.17-.52-.45-.33h.55l.17-.53zm0 2.59l.17.53h.55l-.44.33.17.52-.45-.32-.44.32.17-.52-.45-.33h.55l.17-.53zm0 2.59l.17.53h.55l-.44.32.17.53-.45-.33-.44.33.17-.53-.45-.32h.55l.17-.53zM10.6.49l.17.53h.55l-.45.33.17.53-.44-.33-.45.33.17-.53-.44-.33h.55l.17-.53zm0 2.59l.17.53h.55l-.45.33.17.52-.44-.32-.45.32.17-.52-.44-.33h.55l.17-.53zm0 2.59l.17.53h.55l-.45.33.17.52-.44-.32-.45.32.17-.52-.44-.33h.55l.17-.53zm0 2.59l.17.53h.55l-.45.33.17.52-.44-.32-.45.32.17-.52-.44-.33h.55l.17-.53zm0 2.59l.17.53h.55l-.45.32.17.53-.44-.33-.45.33.17-.53-.44-.32h.55l.17-.53zm3-10.36l.17.53h.55l-.44.33.17.53-.45-.33-.44.33.17-.53-.45-.33h.55l.17-.53zm0 2.59l.17.53h.55l-.44.33.17.52-.45-.32-.44.32.17-.52-.45-.33h.55l.17-.53zm0 2.59l.17.53h.55l-.44.33.17.52-.45-.32-.44.32.17-.52-.45-.33h.55l.17-.53zm0 2.59l.17.53h.55l-.44.33.17.52-.45-.32-.44.32.17-.52-.45-.33h.55l.17-.53zm0 2.59l.17.53h.55l-.44.32.17.53-.45-.33-.44.33.17-.53-.45-.32h.55l.17-.53zM16.67.49l.17.53h.55l-.45.33.17.53-.44-.33-.44.33.16-.53-.44-.33h.55l.17-.53zm0 2.59l.17.53h.55l-.45.33.17.52-.44-.32-.44.32.16-.52-.44-.33h.55l.17-.53zm0 2.59l.17.53h.55l-.45.33.17.52-.44-.32-.44.32.16-.52-.44-.33h.55l.17-.53zm0 2.59l.17.53h.55l-.45.33.17.52-.44-.32-.44.32.16-.52-.44-.33h.55l.17-.53zm0 2.59l.17.53h.55l-.45.32.17.53-.44-.33-.44.33.16-.53-.44-.32h.55l.17-.53z"/></svg>