<svg xmlns="http://www.w3.org/2000/svg" width="48" height="48"><defs><clipPath id="a"><path data-name="Rectangle 146" fill="none" d="M0 0h21.817v31.167H0z"/></clipPath><clipPath id="b"><path data-name="Path 315" d="M24.442 17.375L33.5 41.75a1.5 1.5 0 001.928.883l10.66-3.961a1.5 1.5 0 00.883-1.927l-9.058-24.374a1.5 1.5 0 00-1.928-.883l-10.658 3.959a1.5 1.5 0 00-.885 1.928z" transform="translate(-24.35 -11.395)" fill="none"/></clipPath><clipPath id="c"><rect data-name="Rectangle 148" height="7.272" fill="none"/></clipPath><clipPath id="d"><path data-name="Path 323" d="M72.907 52.1h-1.9v6.316h1.9a.789.789 0 00.789-.789v-4.74a.789.789 0 00-.789-.787z" transform="translate(-71.008 -52.098)" fill="none"/></clipPath><clipPath id="e"><path data-name="Rectangle 149" fill="none" d="M0 0h6.233v4.156H0z"/></clipPath><clipPath id="f"><path data-name="Path 325" d="M64.58 58.411h-7.3a3 3 0 01-3-3v-.317a3 3 0 013-3h7.3a.75.75 0 01.75.75v4.816a.75.75 0 01-.75.751z" transform="translate(-54.277 -52.094)" fill="none"/></clipPath></defs><g data-name="Group 138" style="isolation:isolate"><path data-name="Path 307" d="M48 24A24 24 0 1124 0a24 24 0 0124 24" fill="#ebf0f1"/><path data-name="Path 310" d="M22.049 7.381L11.258 31.037A1.5 1.5 0 0012 33.025l10.348 4.72a1.5 1.5 0 001.986-.742l10.793-23.657a1.5 1.5 0 00-.742-1.986L24.037 6.639a1.5 1.5 0 00-1.988.742z" fill="#016938"/><path data-name="Path 311" d="M16.652 8.277l-1.387 25.965a1.506 1.506 0 001.418 1.578l11.357.605a1.505 1.505 0 001.578-1.418l1.388-25.965a1.505 1.505 0 00-1.418-1.578l-11.357-.605a1.505 1.505 0 00-1.579 1.418z" fill="#027b38"/><path data-name="Path 312" d="M12.267 11.678l9.058 24.375a1.5 1.5 0 001.928.883l10.66-3.961a1.5 1.5 0 00.883-1.927L25.738 6.674a1.5 1.5 0 00-1.928-.883L13.152 9.75a1.5 1.5 0 00-.885 1.928z" fill="#89bc49"/><path data-name="Path 313" d="M12.267 11.678l9.058 24.375a1.5 1.5 0 001.928.883l10.66-3.961a1.5 1.5 0 00.883-1.927L25.738 6.674a1.5 1.5 0 00-1.928-.883L13.152 9.75a1.5 1.5 0 00-.885 1.928z" fill="#92c142"/><g data-name="Group 129"><g data-name="Group 128" transform="translate(12.467 6.233)" clip-path="url(#a)"><g data-name="Group 127"><g data-name="Group 126" clip-path="url(#b)" transform="translate(-.292 -.536)"><path data-name="Path 314" d="M2.133 7.783L9.518 27.66a4.105 4.105 0 013.361 1.541l6.164-2.289a4.118 4.118 0 011.578-3.395L13.248 3.669a4.117 4.117 0 01-3.415-1.538L3.673 4.42a4.109 4.109 0 01-1.54 3.363zm1.166-4.922c.043.094.086.186.121.283L9.195 1C9.158.9 9.131.8 9.104.7l4.215-1.567 1.529 4.115c-.107.053-.217.1-.33.147l7.242 19.493c.115-.041.228-.074.344-.105l1.744 4.694-4.129 1.533a4.119 4.119 0 01-.424-.828l-5.773 2.146a4.084 4.084 0 01.221.9l-3.994 1.485-1.748-4.7c.08-.035.158-.072.24-.1L1.001 8.424c-.082.031-.166.053-.25.078L-.783 4.377z" fill="#3c9c36"/></g></g></g></g><path data-name="Path 316" d="M22.326 18.114c2.291-.852 4.689-.088 5.357 1.707s-.652 3.938-2.943 4.789-4.691.088-5.357-1.705.65-3.939 2.943-4.791" fill="#3c9c36"/><path data-name="Path 317" d="M24.188 28.623l.938 2.521a1.716 1.716 0 002.209 1.011l.17-.062a1.716 1.716 0 001.012-2.209l-.937-2.521a1.716 1.716 0 00-2.213-1.011l-.17.062a1.718 1.718 0 00-1.009 2.209zm-5.846-15.731l.938 2.521a1.716 1.716 0 002.209 1.012l.17-.062a1.716 1.716 0 001.008-2.212l-.938-2.522a1.716 1.716 0 00-2.209-1.012l-.17.063a1.718 1.718 0 00-1.008 2.212z" fill="#3c9c36"/><path data-name="Path 318" d="M35.903 39.469H12.059a1.5 1.5 0 01-1.5-1.5V20.441a1.5 1.5 0 011.5-1.5h23.842a1.5 1.5 0 011.5 1.5v17.528a1.5 1.5 0 01-1.5 1.5z" fill="#f49c0b"/><path data-name="Path 319" d="M35.823 18.941h-1.18a1.58 1.58 0 011.58 1.58v11.427l-8.361-.74 7.841 7.842a1.562 1.562 0 01-1.06.416h1.18a1.58 1.58 0 001.58-1.58V20.521a1.58 1.58 0 00-1.58-1.58z" fill="#e48316" opacity=".67"/><path data-name="Path 320" d="M16.029 20.883h-.793a.2.2 0 110-.395h.793a.2.2 0 110 .395zm2.773 0h-.793a.2.2 0 110-.395h.793a.2.2 0 11.001.395zm2.773 0h-.79a.2.2 0 110-.395h.793a.2.2 0 11-.002.395zm2.773 0h-.793a.2.2 0 110-.395h.793a.2.2 0 11.001.395zm2.774 0h-.793a.2.2 0 110-.395h.793a.2.2 0 11.001.395zm2.774 0h-.793a.2.2 0 110-.395h.793a.2.2 0 11.001.395zm2.773 0h-.793a.2.2 0 110-.395h.793a.2.2 0 11.001.395zm2.381.563a.2.2 0 01-.2-.2v-.168a.2.2 0 00-.2-.2.2.2 0 01-.2-.2.2.2 0 01.2-.2.592.592 0 01.592.591v.168a.2.2 0 01-.2.2zm-22.139.061a.2.2 0 01-.2-.2v-.228a.594.594 0 01.507-.586.2.2 0 11.055.391.2.2 0 00-.17.195v.232a.2.2 0 01-.2.2zM35.05 24.22a.2.2 0 01-.2-.2v-.793a.2.2 0 11.395 0v.793a.2.2 0 01-.194.199zm-22.139.06a.2.2 0 01-.2-.2v-.793a.2.2 0 11.395 0v.793a.2.2 0 01-.194.199zm0 2.775a.2.2 0 01-.2-.2v-.793a.2.2 0 11.395 0v.793a.2.2 0 01-.194.199zm0 2.773a.2.2 0 01-.2-.2v-.793a.2.2 0 11.395 0v.793a.2.2 0 01-.194.2zm0 2.773a.2.2 0 01-.2-.2v-.79a.2.2 0 11.395 0v.793a.2.2 0 01-.194.197zm22.14 2.71a.2.2 0 01-.2-.2v-.793a.2.2 0 11.395 0v.793a.2.2 0 01-.195.2zm-22.139.06a.2.2 0 01-.2-.2v-.792a.2.2 0 11.395 0v.792a.2.2 0 01-.195.203zm21.805 2.545a.2.2 0 01-.029-.392.2.2 0 00.166-.2v-.235a.2.2 0 11.395 0v.235a.592.592 0 01-.5.586.152.152 0 01-.032.009zm-21.4 0h-.01a.593.593 0 01-.592-.592v-.172a.2.2 0 11.394 0v.172a.2.2 0 00.2.2.2.2 0 01.2.2.192.192 0 01-.191.2zm2.773 0h-.793a.2.2 0 110-.395h.793a.202.202 0 11.002.403zm2.773 0h-.793a.2.2 0 110-.395h.793a.202.202 0 11.002.403zm2.775 0h-.793a.2.2 0 110-.395h.793a.202.202 0 11.002.403zm2.774 0h-.793a.2.2 0 110-.395h.791a.2.2 0 110 .395zm2.773 0h-.79a.2.2 0 110-.395h.79a.201.201 0 110 .403zm2.774 0h-.793a.2.2 0 110-.395h.793a.202.202 0 11.002.403zm2.773 0h-.793a.2.2 0 110-.395h.793a.202.202 0 11.003.403z" fill="#fbca76"/><path data-name="Path 321" d="M11.74 37.888V20.521a1.579 1.579 0 011.58-1.58h-1.18a1.579 1.579 0 00-1.58 1.58V37.89a1.58 1.58 0 001.58 1.58h1.184a1.58 1.58 0 01-1.58-1.58z" fill="#f9c187" opacity=".5"/><path data-name="Path 322" d="M37.442 32.364h-7.3a3 3 0 01-3-3v-.317a3 3 0 013-3h7.3a.75.75 0 01.75.75v4.816a.75.75 0 01-.75.751z" fill="#d17311"/><g data-name="Group 133"><g data-name="Group 132" transform="translate(37.4 25.972)" clip-path="url(#c)"><g data-name="Group 131"><g data-name="Group 130" clip-path="url(#d)" transform="translate(-1.896 .077)"><path data-name="Rectangle 147" fill="#ca6213" d="M1.502-1.438h1.183v9.627H1.502z"/></g></g></g></g><g data-name="Group 137"><g data-name="Group 136" transform="translate(30.128 29.089)" clip-path="url(#e)"><g data-name="Group 135"><g data-name="Group 134" clip-path="url(#f)" transform="translate(-2.99 -3.042)"><path data-name="Path 324" d="M2.033 4.213L4.35 6.492h4.074L4.112 2.178z" fill="#c56415"/></g></g></g></g><path data-name="Path 326" d="M31.633 29.205a1.458 1.458 0 11-2.916 0 1.458 1.458 0 012.916 0" fill="#d8b997"/><path data-name="Path 327" d="M29.506 29.205a2.355 2.355 0 01.457-1.438 1.452 1.452 0 000 2.875 2.359 2.359 0 01-.457-1.437z" fill="#f1d2ae"/><path data-name="Path 328" d="M30.845 29.205a2.354 2.354 0 01-.458 1.437 1.452 1.452 0 000-2.875 2.36 2.36 0 01.458 1.438z" fill="#c8a57e"/></g></svg>