<svg xmlns="http://www.w3.org/2000/svg" width="27.629" height="23.473" viewBox="0 0 27.629 23.473">
  <g id="Group_498" data-name="Group 498" transform="translate(-863.613 -757.371)">
    <g id="Group_497" data-name="Group 497" transform="translate(863.613 757.371)">
      <path id="Path_680" data-name="Path 680" d="M331.787-738.775a.91.91,0,0,1-.915.75H312.878a.961.961,0,0,1-.857-.357,2.534,2.534,0,0,1-.192-.356v-.351a1.171,1.171,0,0,1,.734-.766q4.375-1.948,8.733-3.928a1.162,1.162,0,0,1,1.027.005q4.446,2,8.893,4A.914.914,0,0,1,331.787-738.775Z" transform="translate(-311.829 743.9)" fill="#535873"/>
      <path id="Path_681" data-name="Path 681" d="M331.792-708.951a.923.923,0,0,1-.591.862l-.181.064H312.57a1.058,1.058,0,0,1-.74-.74v-.351a2.362,2.362,0,0,1,.16-.33.958.958,0,0,1,.862-.4q1.852.008,3.7.005,7.065,0,14.135,0a1.793,1.793,0,0,1,.447.043A.9.9,0,0,1,331.792-708.951Z" transform="translate(-311.829 727.971)" fill="#535873"/>
      <path id="Path_682" data-name="Path 682" d="M311.828-707.811a1.062,1.062,0,0,0,.741.741h-.741Z" transform="translate(-311.828 727.017)" fill="#535873"/>
      <path id="Path_683" data-name="Path 683" d="M330.783-722.246c-.08-.005-.165,0-.245,0v-8.164l.2-.016a.457.457,0,0,0,.458-.436.469.469,0,0,0-.442-.463c-.053-.005-.106-.005-.154-.005H315.02a1.877,1.877,0,0,0-.25.027.431.431,0,0,0-.346.452.432.432,0,0,0,.367.415c.1.016.192.021.293.032v8.158c-.106,0-.181-.005-.261,0a.9.9,0,0,0-.846.75.874.874,0,0,0,.522.969,1.393,1.393,0,0,0,.511.085q7.807.008,15.6,0c.064,0,.128,0,.192-.005a.9.9,0,0,0,.851-.9A.911.911,0,0,0,330.783-722.246Zm-11.165-.016h-2.688v-8.148h2.688Zm4.545,0h-2.7V-730.4h2.7Zm4.534.005h-2.7V-730.4h2.7Z" transform="translate(-312.826 738.02)" fill="#535873"/>
    </g>
    <path id="Path_299" data-name="Path 299" d="M13.344,6.356c0,6.475-8.094,6.475-8.094,0s8.094-6.475,8.094,0" transform="translate(873.847 766.105)" fill="#535873"/>
    <path id="Path_300" data-name="Path 300" d="M16.322,14.317a6.8,6.8,0,0,0-3.595-3.142,1.693,1.693,0,0,0-1.349.074,4.582,4.582,0,0,1-4.786,0,1.689,1.689,0,0,0-1.349,0,6.851,6.851,0,0,0-3.595,3.142,1.48,1.48,0,0,0,1.423,2.1H14.9A1.518,1.518,0,0,0,16.322,14.317Z" transform="translate(874.76 764.355)" fill="#535873"/>
    <g id="Group_495" data-name="Group 495" transform="translate(877.38 768.455)">
      <path id="Path_299-2" data-name="Path 299" d="M11.444,5.217c0,4.956-6.194,4.956-6.194,0s6.194-4.956,6.194,0" transform="translate(-2.142 -1.5)" fill="#535873"/>
      <path id="Path_300-2" data-name="Path 300" d="M13.764,13.758a5.63,5.63,0,0,0-2.975-2.6,1.4,1.4,0,0,0-1.117.061,3.792,3.792,0,0,1-3.961,0,1.4,1.4,0,0,0-1.117,0,5.67,5.67,0,0,0-2.975,2.6A1.224,1.224,0,0,0,2.8,15.555h9.789A1.256,1.256,0,0,0,13.764,13.758Z" transform="translate(-1.487 -3.166)" fill="#535873"/>
    </g>
  </g>
</svg>
