<svg xmlns="http://www.w3.org/2000/svg" width="15.576" height="9.147" viewBox="0 0 15.576 9.147">
  <path id="Path_953" data-name="Path 953" d="M-3.266,293.313a1.711,1.711,0,0,1,.679.488q3.3,3.309,6.613,6.612a.872.872,0,0,1,.274.947,1.017,1.017,0,0,1-.241.378Q.634,305.174-2.8,308.6a.85.85,0,0,1-1.27.006c-.182-.176-.366-.352-.53-.544a.83.83,0,0,1,.016-1.1c.043-.05.09-.1.136-.143q2.79-2.79,5.581-5.58a1.281,1.281,0,0,0,.174-.184.673.673,0,0,1-.159-.089q-2.819-2.815-5.635-5.633a.838.838,0,0,1-.132-1.162,2.573,2.573,0,0,1,1.017-.859Z" transform="translate(308.888 4.799) rotate(90)" fill="#64c689"/>
</svg>
