<svg xmlns="http://www.w3.org/2000/svg" width="22.071" height="37.583" viewBox="0 0 22.071 37.583">
  <path id="Path_905" data-name="Path 905" d="M-1.1,293.313A4.128,4.128,0,0,1,.54,294.491q7.972,7.984,15.956,15.955a2.105,2.105,0,0,1,.661,2.285,2.454,2.454,0,0,1-.583.912Q8.311,321.933.026,330.2a2.051,2.051,0,0,1-3.065.015c-.439-.425-.884-.849-1.278-1.314a2,2,0,0,1,.039-2.651c.1-.12.216-.233.328-.345q6.732-6.733,13.466-13.464A3.1,3.1,0,0,0,9.938,312a1.623,1.623,0,0,1-.384-.215q-6.8-6.792-13.6-13.593a2.021,2.021,0,0,1-.318-2.8,6.208,6.208,0,0,1,2.454-2.073Z" transform="translate(17.272 330.896) rotate(180)" fill="#d3d6e0"/>
</svg>
