<svg xmlns="http://www.w3.org/2000/svg" width="31.81" height="31.809" viewBox="0 0 31.81 31.809">
  <g id="Group_485" data-name="Group 485" transform="translate(-496.11 -241.835)">
    <path id="Path_713" data-name="Path 713" d="M652.772,386.079a10.251,10.251,0,0,0-13.254-7.476,10.143,10.143,0,0,0-6.792,11.593,9.882,9.882,0,0,0,7.154,7.935,18.736,18.736,0,0,0,2.15.437h1.491c.668-.125,1.347-.207,2-.383a10.249,10.249,0,0,0,7.45-8.852,2.52,2.52,0,0,1,.054-.27v-1.491C652.943,387.074,652.881,386.571,652.772,386.079Zm-8.819,6.617a.354.354,0,0,0-.251.387c.016.568.006,1.138.006,1.732h-1.85v-1.977c-1.309-.713-1.886-1.529-1.866-2.645h1.827c.017.068.032.135.052.2a.93.93,0,1,0,.877-1.144,2.818,2.818,0,0,1-1.569-.508,2.779,2.779,0,0,1,.4-4.8l.264-.126v-2h1.861c0,.6.007,1.182,0,1.768a.315.315,0,0,0,.222.343,2.707,2.707,0,0,1,1.624,2.512h-1.814c-.014-.052-.032-.117-.051-.182a.931.931,0,0,0-1.839.241.937.937,0,0,0,.94.887,2.788,2.788,0,0,1,1.168,5.312Z" transform="translate(-125.106 -124.923)" fill="#535873"/>
    <path id="Path_714" data-name="Path 714" d="M515.678,250.11a8.777,8.777,0,0,1-3.781,2.228,17.615,17.615,0,0,1-5.533.811,16.214,16.214,0,0,1-6.775-1.425,7.485,7.485,0,0,1-2.344-1.653,3.481,3.481,0,0,1,0-5.063,8.641,8.641,0,0,1,3.546-2.21A17.251,17.251,0,0,1,508.96,242a13.21,13.21,0,0,1,5.013,1.613,6.969,6.969,0,0,1,1.8,1.459A3.538,3.538,0,0,1,515.678,250.11Z" transform="translate(-0.041 0)" fill="#535873"/>
    <path id="Path_715" data-name="Path 715" d="M509.065,363.818c-.286.334-.574.653-.844.988a11.442,11.442,0,0,0-1.6,2.647c-.061.139-.119.236-.309.232a15.943,15.943,0,0,1-7.023-1.565,6.616,6.616,0,0,1-2.457-2,3.5,3.5,0,0,1-.695-2.145c.007-.442,0-.883,0-1.335.5.368.964.748,1.465,1.065a15.022,15.022,0,0,0,6.091,2.06,20.337,20.337,0,0,0,5.294.032C509,363.794,509.024,363.807,509.065,363.818Z" transform="translate(-0.022 -108.945)" fill="#535873"/>
    <path id="Path_716" data-name="Path 716" d="M507.5,501.877c-.5,0-.926.009-1.347,0a15.737,15.737,0,0,1-6.863-1.558,6.621,6.621,0,0,1-2.456-2,3.5,3.5,0,0,1-.7-2.144c.007-.442,0-.884,0-1.388.179.152.315.271.454.384a12.674,12.674,0,0,0,5.178,2.417,18.084,18.084,0,0,0,3.8.515.388.388,0,0,1,.436.353A11.752,11.752,0,0,0,507.5,501.877Z" transform="translate(-0.022 -231.962)" fill="#535873"/>
    <path id="Path_717" data-name="Path 717" d="M505.6,434.611c-.111,0-.209.006-.305,0a15.838,15.838,0,0,1-5.612-1.313,7.5,7.5,0,0,1-2.61-1.852,3.6,3.6,0,0,1-.964-2.545c.012-.419,0-.839,0-1.3,2.821,2.437,6.186,3.139,9.774,3.339A11.737,11.737,0,0,0,505.6,434.611Z" transform="translate(0 -170.348)" fill="#535873"/>
  </g>
</svg>
