<svg xmlns="http://www.w3.org/2000/svg" width="22.834" height="22.805" viewBox="0 0 22.834 22.805">
  <g id="Group_609" data-name="Group 609" transform="translate(-311.828 743.9)">
    <path id="Path_680" data-name="Path 680" d="M334.647-738.041a1.04,1.04,0,0,1-1.047.858H313.029a1.1,1.1,0,0,1-.98-.408,2.885,2.885,0,0,1-.219-.408v-.4a1.339,1.339,0,0,1,.84-.876q5-2.227,9.985-4.49a1.327,1.327,0,0,1,1.174.006q5.084,2.291,10.167,4.576A1.045,1.045,0,0,1,334.647-738.041Z" transform="translate(-0.001 0)" fill="#43475d"/>
    <path id="Path_681" data-name="Path 681" d="M334.653-708.822a1.056,1.056,0,0,1-.675.986l-.207.073h-21.1a1.21,1.21,0,0,1-.846-.846v-.4a2.692,2.692,0,0,1,.183-.377,1.1,1.1,0,0,1,.986-.462q2.117.009,4.235.006,8.077,0,16.16,0a2.052,2.052,0,0,1,.511.049A1.033,1.033,0,0,1,334.653-708.822Z" transform="translate(-0.001 -13.332)" fill="#43475d"/>
    <path id="Path_682" data-name="Path 682" d="M311.828-707.811a1.214,1.214,0,0,0,.848.847h-.848Z" transform="translate(0 -14.131)" fill="#43475d"/>
    <path id="Path_683" data-name="Path 683" d="M333.194-720.944c-.091-.006-.189,0-.28,0v-9.334l.231-.018a.523.523,0,0,0,.523-.5.536.536,0,0,0-.505-.529,1.763,1.763,0,0,0-.176-.006H315.172a2.168,2.168,0,0,0-.286.03.493.493,0,0,0-.4.517.494.494,0,0,0,.42.475c.11.018.219.024.335.036v9.328c-.122,0-.207-.006-.3,0a1.03,1.03,0,0,0-.967.858,1,1,0,0,0,.6,1.107,1.593,1.593,0,0,0,.584.1q8.926.009,17.84,0c.073,0,.146,0,.219-.006a1.033,1.033,0,0,0,.974-1.028A1.041,1.041,0,0,0,333.194-720.944Zm-12.765-.018h-3.073v-9.315h3.073Zm5.2,0h-3.091v-9.309h3.091Zm5.184.006h-3.091v-9.315h3.091Z" transform="translate(-0.836 -4.922)" fill="#43475d"/>
  </g>
</svg>
