<?xml version="1.0" encoding="UTF-8" standalone="no"?>
<svg
   width="27.072"
   height="27.038"
   viewBox="0 0 27.072 27.038"
   version="1.1"
   id="svg7"
   sodipodi:docname="bank_green.svg"
   inkscape:version="1.1.2 (b8e25be833, 2022-02-05)"
   xmlns:inkscape="http://www.inkscape.org/namespaces/inkscape"
   xmlns:sodipodi="http://sodipodi.sourceforge.net/DTD/sodipodi-0.dtd"
   xmlns="http://www.w3.org/2000/svg"
   xmlns:svg="http://www.w3.org/2000/svg">
  <defs
     id="defs11" />
  <sodipodi:namedview
     id="namedview9"
     pagecolor="#ffffff"
     bordercolor="#666666"
     borderopacity="1.0"
     inkscape:pageshadow="2"
     inkscape:pageopacity="0.0"
     inkscape:pagecheckerboard="0"
     showgrid="false"
     inkscape:zoom="26.592203"
     inkscape:cx="13.537803"
     inkscape:cy="13.500198"
     inkscape:window-width="3440"
     inkscape:window-height="1377"
     inkscape:window-x="-8"
     inkscape:window-y="-8"
     inkscape:window-maximized="1"
     inkscape:current-layer="svg7" />
  <g
     id="Group_321"
     data-name="Group 321"
     transform="translate(-311.828 743.9)"
     style="fill:#64c689;fill-opacity:1">
    <path
       id="Path_680"
       data-name="Path 680"
       d="M338.882-736.953a1.234,1.234,0,0,1-1.241,1.017h-24.39a1.3,1.3,0,0,1-1.161-.483,3.423,3.423,0,0,1-.26-.483v-.476a1.587,1.587,0,0,1,1-1.039q5.93-2.64,11.838-5.324a1.574,1.574,0,0,1,1.392.007q6.027,2.716,12.054,5.425A1.24,1.24,0,0,1,338.882-736.953Z"
       transform="translate(-0.001 0)"
       fill="#b6bdcd"
       style="fill:#64c689;fill-opacity:1" />
    <path
       id="Path_681"
       data-name="Path 681"
       d="M338.889-708.631a1.251,1.251,0,0,1-.8,1.169l-.245.087h-25.01a1.434,1.434,0,0,1-1-1v-.476a3.2,3.2,0,0,1,.216-.447,1.3,1.3,0,0,1,1.169-.548q2.51.011,5.021.007,9.576,0,19.16,0a2.437,2.437,0,0,1,.606.058A1.225,1.225,0,0,1,338.889-708.631Z"
       transform="translate(-0.001 -9.487)"
       fill="#b6bdcd"
       style="fill:#64c689;fill-opacity:1" />
    <path
       id="Path_682"
       data-name="Path 682"
       d="M311.828-707.811a1.439,1.439,0,0,0,1,1h-1Z"
       transform="translate(0 -10.055)"
       fill="#b6bdcd"
       style="fill:#64c689;fill-opacity:1" />
    <path
       id="Path_683"
       data-name="Path 683"
       d="M336.763-719.016c-.108-.007-.224,0-.332,0v-11.066l.274-.022a.62.62,0,0,0,.62-.592.635.635,0,0,0-.6-.628c-.072-.007-.144-.007-.209-.007H315.4a2.561,2.561,0,0,0-.339.036.584.584,0,0,0-.469.613.586.586,0,0,0,.5.563c.13.022.26.029.4.043v11.059c-.144,0-.245-.007-.353,0A1.221,1.221,0,0,0,313.982-718a1.185,1.185,0,0,0,.707,1.313,1.888,1.888,0,0,0,.693.115q10.583.011,21.151,0c.087,0,.173,0,.26-.007a1.224,1.224,0,0,0,1.154-1.219A1.235,1.235,0,0,0,336.763-719.016Zm-15.135-.022h-3.643v-11.044h3.643Zm6.161,0h-3.665v-11.037h3.665Zm6.146.007h-3.665v-11.044h3.665Z"
       transform="translate(-0.595 -3.502)"
       fill="#b6bdcd"
       style="fill:#64c689;fill-opacity:1" />
  </g>
</svg>
