<svg xmlns="http://www.w3.org/2000/svg" width="56" height="56" viewBox="0 0 56 56">
  <g id="Group_6211" data-name="Group 6211" transform="translate(-1712 -1874.146)">
    <rect id="Rectangle_418" data-name="Rectangle 418" width="56" height="56" rx="10" transform="translate(1712 1874.146)" fill="#d37777"/>
    <path id="Path_749" data-name="Path 749" d="M19.361,1.985H14.4A1.992,1.992,0,0,0,12.415,0H10.43A1.992,1.992,0,0,0,8.446,1.985H3.485A1.992,1.992,0,0,0,1.5,3.969v.992a.939.939,0,0,0,.992.992H20.353a.939.939,0,0,0,.992-.992V3.969A1.992,1.992,0,0,0,19.361,1.985Zm-1.09,5.954H4.575a.965.965,0,0,0-.992,1.09l1.586,13a1.944,1.944,0,0,0,1.985,1.686h8.434a1.943,1.943,0,0,0,1.985-1.686l1.588-13a.9.9,0,0,0-.894-1.09Z" transform="translate(1728.51 1891.035)" fill="#fafafa"/>
  </g>
</svg>
