<svg xmlns="http://www.w3.org/2000/svg" width="16.178" height="19.33" viewBox="0 0 16.178 19.33">
  <path id="Path_749" data-name="Path 749" d="M16.061,1.618H12.016A1.624,1.624,0,0,0,10.4,0H8.78A1.624,1.624,0,0,0,7.162,1.618H3.118A1.624,1.624,0,0,0,1.5,3.236v.809a.765.765,0,0,0,.809.809H16.869a.765.765,0,0,0,.809-.809V3.236A1.624,1.624,0,0,0,16.061,1.618Zm-.889,4.854H4.007A.787.787,0,0,0,3.2,7.36l1.293,10.6A1.584,1.584,0,0,0,6.109,19.33h6.876A1.584,1.584,0,0,0,14.6,17.956L15.9,7.36a.732.732,0,0,0-.729-.889Z" transform="translate(-1.5)" fill="#8e929d"/>
</svg>
