<svg xmlns="http://www.w3.org/2000/svg" width="21.406" height="24.464" viewBox="0 0 21.406 24.464">
  <path id="Path_709" data-name="Path 709" d="M15.29,20.642a.767.767,0,0,0,.765.765h1.529a.767.767,0,0,0,.765-.765V19.113a.767.767,0,0,0-.765-.765H16.055a.767.767,0,0,0-.765.765ZM9.939,18.348a.767.767,0,0,0-.765.765v1.529a.767.767,0,0,0,.765.765h1.529a.767.767,0,0,0,.765-.765V19.113a.767.767,0,0,0-.765-.765ZM3.058,20.642a.765.765,0,0,0,.765.765H5.352a.767.767,0,0,0,.765-.765V19.113a.767.767,0,0,0-.765-.765H3.823a.765.765,0,0,0-.765.765Zm13-8.41A.767.767,0,0,0,15.29,13v1.529a.767.767,0,0,0,.765.765h1.529a.767.767,0,0,0,.765-.765V13a.767.767,0,0,0-.765-.765ZM9.174,14.526a.767.767,0,0,0,.765.765h1.529a.767.767,0,0,0,.765-.765V13a.767.767,0,0,0-.765-.765H9.939A.767.767,0,0,0,9.174,13Zm-6.116,0a.765.765,0,0,0,.765.765H5.352a.767.767,0,0,0,.765-.765V13a.767.767,0,0,0-.765-.765H3.823A.765.765,0,0,0,3.058,13ZM0,9.174H21.406v13a2.294,2.294,0,0,1-2.294,2.294H2.294A2.294,2.294,0,0,1,0,22.171ZM7.645,1.529V3.058h6.116V1.529a1.529,1.529,0,1,1,3.058,0V3.058h2.294a2.294,2.294,0,0,1,2.294,2.294V7.645H0V5.352A2.293,2.293,0,0,1,2.294,3.058H4.587V1.529a1.529,1.529,0,0,1,3.058,0Z" fill="#64c689"/>
</svg>
