<svg xmlns="http://www.w3.org/2000/svg" width="20.832" height="19.345" viewBox="0 0 20.832 19.345">
  <g id="Group_786" data-name="Group 786" transform="translate(-0.578 -2.137)">
    <path id="Path_879" data-name="Path 879" d="M1.739,11.01H17.383V8.418H1.739Zm16.223,1.161H1.159a.581.581,0,0,1-.581-.581V7.839a.58.58,0,0,1,.581-.581H17.964a.58.58,0,0,1,.581.581v3.752a.58.58,0,0,1-.581.581Z" transform="translate(0 -3.538)" fill="#43475d"/>
    <path id="Path_880" data-name="Path 880" d="M22.141,6.5a.58.58,0,0,1-.581-.581V2.734a.581.581,0,0,1,1.161,0V5.916A.581.581,0,0,1,22.141,6.5Zm-5.02,0a.58.58,0,0,1-.581-.581V2.734a.581.581,0,0,1,1.161,0V5.916A.58.58,0,0,1,17.121,6.5ZM12.1,6.5a.58.58,0,0,1-.58-.581V2.734a.581.581,0,1,1,1.161,0V5.916A.58.58,0,0,1,12.1,6.5Z" transform="translate(-7.56)" fill="#43475d"/>
    <path id="Path_881" data-name="Path 881" d="M11.359,35.914h1.762v1.76H11.359Zm0-5.023h1.762v1.76H11.359Z" transform="translate(-7.449 -19.867)" fill="#43475d"/>
    <path id="Path_882" data-name="Path 882" d="M6.639,25.1a.581.581,0,0,1-.581.581H3.522a.58.58,0,0,1-.58-.581V22.566a.58.58,0,0,1,.58-.581H6.058a.58.58,0,0,1,.581.581V25.1Zm0,5.022a.58.58,0,0,1-.581.581H3.522a.58.58,0,0,1-.58-.581V27.589a.58.58,0,0,1,.58-.581H6.058a.58.58,0,0,1,.581.581Zm8.721-5.579a.58.58,0,0,0,.622-.092l2.364-2.063a.577.577,0,0,0,.2-.437V19.983a.58.58,0,0,0-.581-.581H1.159a.581.581,0,0,0-.581.581V32.831a.58.58,0,0,0,.581.58H16.274a2.274,2.274,0,0,0,2.271-2.271V25.488a.58.58,0,0,0-.977-.424L15.2,27.275a.581.581,0,0,0-.183.424v1.845H8.876v-6.4h6.145V24.4c0,.228.133.047.34.142Z" transform="translate(0 -11.929)" fill="#43475d"/>
    <path id="Path_883" data-name="Path 883" d="M32.315,27.839a.578.578,0,0,1-.482-.256l-1.677-2.488a.581.581,0,0,1,.963-.651l1.309,1.942,8.392-7.322a.581.581,0,0,1,.764.875L32.7,27.695a.578.578,0,0,1-.382.142Z" transform="translate(-20.368 -11.598)" fill="#43475d"/>
  </g>
</svg>
