<svg xmlns="http://www.w3.org/2000/svg" width="19.274" height="21.415" viewBox="0 0 19.274 21.415">
  <path id="Path_876" data-name="Path 876" d="M19.382,9H4.392V6.854H19.382ZM14.469,19.7l-2.621-1.378L9.227,19.7l.5-2.922L7.6,14.717l2.934-.424,1.311-2.654,1.311,2.654,2.932.424-2.119,2.069.5,2.922ZM19.382,3.642H17.241V1.5H15.1V3.642H8.675V1.5H6.533V3.642H4.392A2.142,2.142,0,0,0,2.25,5.783V20.774a2.142,2.142,0,0,0,2.142,2.142H19.382a2.142,2.142,0,0,0,2.142-2.142V5.783A2.142,2.142,0,0,0,19.382,3.642Z" transform="translate(-2.25 -1.5)" fill="#43475d"/>
</svg>
