<svg xmlns="http://www.w3.org/2000/svg" width="29.46" height="28" viewBox="0 0 29.46 28">
  <g id="Group_736" data-name="Group 736" transform="translate(-98.04 -140.55)">
    <path id="Path_863" data-name="Path 863" d="M101.318,149.72c-.086,0-.172.014-.258.014v14.859h.4c4.309-.014,8.6-.014,12.912-.014,3.822,0,7.63,0,11.452.014a3.522,3.522,0,0,0,.372-.029V149.72Zm23.047,9.505a.652.652,0,0,1-.243.573,1.327,1.327,0,0,0-.2.2.716.716,0,0,1-.616.272,1.406,1.406,0,0,0-1.431,1.517.593.593,0,0,1-.157.429,1.482,1.482,0,0,1-1.317.544q-6.936-.021-13.871,0a1,1,0,0,1-.8-.329,1.1,1.1,0,0,1-.372-.83,1.408,1.408,0,0,0-1.532-1.346.47.47,0,0,1-.4-.143,1.437,1.437,0,0,1-.558-1.331c.043-1.245.014-2.476.014-3.722a.605.605,0,0,1,.229-.544,2.707,2.707,0,0,0,.286-.286.516.516,0,0,1,.472-.186,1.439,1.439,0,0,0,1.5-1.517.562.562,0,0,1,.172-.444,1.433,1.433,0,0,1,1.26-.544c2.276.043,4.538.014,6.814.014,2.391,0,4.781.014,7.157,0a.928.928,0,0,1,.687.272,1.21,1.21,0,0,1,.429.9,1.378,1.378,0,0,0,1.474,1.317.658.658,0,0,1,.487.172,1.4,1.4,0,0,1,.53,1.274C124.336,156.734,124.35,157.98,124.365,159.225Z" transform="translate(1.303 3.957)" fill="#b6bdcd"/>
    <path id="Path_864" data-name="Path 864" d="M122.962,150.9a4.147,4.147,0,0,0,.2-.687.637.637,0,0,0-.043-.329c-.7-1.288-1.417-2.591-2.133-3.879-.043-.1-.172-.157-.272-.215a3.046,3.046,0,0,0-.387-.115.728.728,0,0,0-.7.057,1.434,1.434,0,0,1-2.018-.716.485.485,0,0,0-.215-.2,1.58,1.58,0,0,0-1.546.115c-4.08,2.276-8.174,4.495-12.254,6.757a2.066,2.066,0,0,1-1.1.272,1.74,1.74,0,0,0-1.861,1.875v3.393c-.029.014-.043.014-.057.029-.845-1.532-1.689-3.063-2.534-4.624,7.358-4.037,14.687-8.045,22.059-12.082,2.076,3.793,4.151,7.573,6.241,11.395h-4.352a1.411,1.411,0,0,1,.773-.845A.669.669,0,0,0,122.962,150.9Z" transform="translate(0)" fill="#b6bdcd"/>
    <path id="Path_865" data-name="Path 865" d="M113.705,149.383H105.46a4.477,4.477,0,0,1,1.632-1.961,4.571,4.571,0,0,1,4.81-.444A3.243,3.243,0,0,1,113.705,149.383Z" transform="translate(3.202 2.562)" fill="#b6bdcd"/>
    <path id="Path_866" data-name="Path 866" d="M114.713,147.264a1.482,1.482,0,0,1-2.963.014,1.513,1.513,0,0,1,1.474-1.489A1.494,1.494,0,0,1,114.713,147.264Z" transform="translate(5.916 2.261)" fill="#b6bdcd"/>
    <path id="Path_867" data-name="Path 867" d="M114.558,158.648a4.936,4.936,0,0,1-6.542.2,3.591,3.591,0,0,1,.358-5.812,5.085,5.085,0,0,1,2.963-.845,4.767,4.767,0,0,1,3.221,1.331A3.522,3.522,0,0,1,114.558,158.648Z" transform="translate(3.737 5.021)" fill="#b6bdcd"/>
    <path id="Path_868" data-name="Path 868" d="M116.939,155.355a1.482,1.482,0,0,1-1.46,1.489,1.5,1.5,0,0,1-1.489-1.489,1.474,1.474,0,0,1,2.949,0Z" transform="translate(6.882 5.752)" fill="#b6bdcd"/>
    <path id="Path_869" data-name="Path 869" d="M106.559,155.326a1.475,1.475,0,1,1-1.474-1.446A1.466,1.466,0,0,1,106.559,155.326Z" transform="translate(2.403 5.752)" fill="#b6bdcd"/>
  </g>
</svg>
