<?xml version="1.0" encoding="UTF-8" standalone="no"?>
<svg
   width="24.995"
   height="25.709"
   viewBox="0 0 24.995 25.709"
   version="1.1"
   id="svg8"
   sodipodi:docname="currency2_green.svg"
   inkscape:version="1.1.2 (b8e25be833, 2022-02-05)"
   xmlns:inkscape="http://www.inkscape.org/namespaces/inkscape"
   xmlns:sodipodi="http://sodipodi.sourceforge.net/DTD/sodipodi-0.dtd"
   xmlns="http://www.w3.org/2000/svg"
   xmlns:svg="http://www.w3.org/2000/svg">
  <defs
     id="defs12" />
  <sodipodi:namedview
     id="namedview10"
     pagecolor="#ffffff"
     bordercolor="#666666"
     borderopacity="1.0"
     inkscape:pageshadow="2"
     inkscape:pageopacity="0.0"
     inkscape:pagecheckerboard="0"
     showgrid="false"
     inkscape:zoom="27.96686"
     inkscape:cx="12.514812"
     inkscape:cy="12.836622"
     inkscape:window-width="3440"
     inkscape:window-height="1377"
     inkscape:window-x="-8"
     inkscape:window-y="-8"
     inkscape:window-maximized="1"
     inkscape:current-layer="svg8" />
  <g
     id="Group_659"
     data-name="Group 659"
     transform="translate(-293.528 -138.98)"
     style="fill:#64c689;fill-opacity:1">
    <path
       id="Path_718"
       data-name="Path 718"
       d="M305.815,143.7a6.165,6.165,0,0,0-4.711-4.572c-.265-.067-.539-.1-.809-.152h-1c-.246.039-.495.072-.739.12a6.252,6.252,0,0,0-.322,12.187.318.318,0,0,0,.4-.133,8.924,8.924,0,0,1,1.879-1.834,9.264,9.264,0,0,1,3.782-1.641c.14-.026.216-.065.234-.228a7.7,7.7,0,0,1,1.241-3.405A.474.474,0,0,0,305.815,143.7Zm-3.277-.951c-.371.645-.767,1.275-1.153,1.911-.043.068-.08.139-.14.243.209,0,.382-.005.554,0,.3.009.465.164.459.416s-.169.382-.459.387c-.234.005-.469,0-.7,0-.428,0-.525.109-.495.6.318,0,.64,0,.962,0a2.6,2.6,0,0,1,.327.007.39.39,0,0,1,.368.426.379.379,0,0,1-.4.368c-.351.01-.7,0-1.054,0h-.217v.351c0,.226.007.452,0,.678a.816.816,0,1,1-1.632.007c-.014-.332,0-.667,0-1.035-.428,0-.833.005-1.241,0a.4.4,0,0,1-.419-.51.412.412,0,0,1,.445-.293c.394,0,.785,0,1.174,0,.1-.426-.034-.6-.435-.6-.25,0-.5,0-.753,0-.286-.007-.445-.152-.445-.4s.163-.394.445-.4c.175-.007.351,0,.561,0-.053-.1-.087-.166-.128-.234-.4-.65-.78-1.307-1.186-1.949a.752.752,0,0,1,.652-1.229.782.782,0,0,1,.77.5l1.237,2.351c.039.074.079.145.142.262.443-.845.869-1.66,1.3-2.471a2.117,2.117,0,0,1,.257-.4.769.769,0,0,1,.9-.181.62.62,0,0,1,.5.592A1.286,1.286,0,0,1,302.538,142.753Z"
       fill="#b6bdcd"
       style="fill:#64c689;fill-opacity:1" />
    <path
       id="Path_719"
       data-name="Path 719"
       d="M328.705,197.93a7.811,7.811,0,1,0,7.807,7.808A7.8,7.8,0,0,0,328.705,197.93Zm2.266,11.97a4.272,4.272,0,0,1-1.612.428c-.214.014-.269.092-.253.289a3.973,3.973,0,0,1,0,.553.417.417,0,0,1-.38.424.412.412,0,0,1-.378-.424c-.01-.258,0-.517,0-.784-.346-.051-.678-.079-1-.154a2.857,2.857,0,0,1-1.992-1.352,2.526,2.526,0,0,1-.267-.924.669.669,0,0,1,.524-.751.867.867,0,0,1,1.013.344c.1.181.161.385.243.577a1.357,1.357,0,0,0,1.465.893v-2.664a8.543,8.543,0,0,1-.885-.243,7.7,7.7,0,0,1-1.131-.524,2.372,2.372,0,0,1-.281-3.725,3.4,3.4,0,0,1,1.852-.813c.14-.021.282-.033.455-.051,0-.214,0-.421,0-.626.007-.3.163-.491.392-.484s.365.192.373.479c0,.1,0,.2,0,.3v.289c.438.1.864.175,1.277.3a3.18,3.18,0,0,1,1.424.808,1.205,1.205,0,0,1,.364.953.7.7,0,0,1-.43.63.694.694,0,0,1-.78-.068,3.759,3.759,0,0,1-.443-.474,1.717,1.717,0,0,0-1.266-.765.366.366,0,0,0-.075,0,.289.289,0,0,0-.07.033V203.8c0,.252.009.5,0,.753-.007.159.038.231.209.269a6.45,6.45,0,0,1,1.792.618,2.259,2.259,0,0,1,1.189,1.7A2.5,2.5,0,0,1,330.971,209.9Z"
       transform="translate(-22.68 -48.862)"
       fill="#b6bdcd"
       style="fill:#64c689;fill-opacity:1" />
    <path
       id="Path_720"
       data-name="Path 720"
       d="M376.007,169.1c-.286-.625-.572-1.249-.862-1.881a4.427,4.427,0,0,0,.448-.115.772.772,0,0,0,.554-.827.556.556,0,0,0-.683-.575,3.187,3.187,0,0,1-1.364-.005.524.524,0,0,1-.219-.106c-.263-.243-.524-.493-.777-.748a.277.277,0,0,1-.062-.193c.015-.2.051-.406.084-.65.27,0,.57.012.869,0,.354-.017.52-.183.517-.481s-.173-.46-.527-.476-.7,0-1.054-.015c-.072,0-.187-.031-.209-.08a3.266,3.266,0,0,1-.289-.818,1.014,1.014,0,0,1,1.022-1.14,1.071,1.071,0,0,1,1.247.734c.222.462.467.6.883.486a.741.741,0,0,0,.465-1.064,1.7,1.7,0,0,0-.919-1.013,3.333,3.333,0,0,0-3.392.12,2.021,2.021,0,0,0-.683,2.616.451.451,0,0,1,.033.075c-.209.11-.4.212-.585.3a.191.191,0,0,1-.14-.007,9.651,9.651,0,0,0-3.161-.611c-.015,0-.029-.014-.044-.021a6.159,6.159,0,0,1,5.01-5.274,6.243,6.243,0,0,1,3.837,11.768Z"
       transform="translate(-61.032 -15.122)"
       fill="#b6bdcd"
       style="fill:#64c689;fill-opacity:1" />
    <path
       id="Path_721"
       data-name="Path 721"
       d="M370.335,250.116a1.706,1.706,0,0,1-1.345.558V248.2a1.528,1.528,0,0,1,1.562,1.1A1.025,1.025,0,0,1,370.335,250.116Z"
       transform="translate(-62.549 -90.527)"
       fill="#b6bdcd"
       style="fill:#64c689;fill-opacity:1" />
    <path
       id="Path_722"
       data-name="Path 722"
       d="M357.411,223.75v2.237a1.365,1.365,0,0,1-1.436-1.1C355.944,224.253,356.581,223.741,357.411,223.75Z"
       transform="translate(-51.76 -70.264)"
       fill="#b6bdcd"
       style="fill:#64c689;fill-opacity:1" />
  </g>
</svg>
