<svg id="Group_245" data-name="Group 245" xmlns="http://www.w3.org/2000/svg" xmlns:xlink="http://www.w3.org/1999/xlink" width="334.663" height="332.427" viewBox="0 0 334.663 332.427">
  <defs>
    <linearGradient id="linear-gradient" x1="1.304" y1="0.234" x2="0.459" y2="0.547" gradientUnits="objectBoundingBox">
      <stop offset="0" stop-color="#aa80f9"/>
      <stop offset="0.996" stop-color="#6165d7"/>
    </linearGradient>
    <linearGradient id="linear-gradient-2" x1="0.128" y1="0.248" x2="0.636" y2="0.763" gradientUnits="objectBoundingBox">
      <stop offset="0.004" stop-color="#e38ddd"/>
      <stop offset="1" stop-color="#9571f6"/>
    </linearGradient>
    <linearGradient id="linear-gradient-3" x1="0.045" y1="0.076" x2="0.702" y2="1.124" xlink:href="#linear-gradient-2"/>
    <linearGradient id="linear-gradient-4" x1="1.1" y1="-0.072" x2="0.483" y2="0.389" xlink:href="#linear-gradient"/>
    <clipPath id="clip-path">
      <path id="Path_471" data-name="Path 471" d="M2069.03,897.958c19.291,3.955,44.361,5.861,69.789-1.634,6.49-1.913,46.578-13.728,45.119-33.87-.514-7.095-5.75-9.231-6.582-18.7-.987-11.224,5.732-15.409,11.854-27.948,3.654-7.482,14.346-29.378,4.044-44.7-6.156-9.155-19.531-15.548-30.562-14.82-16.18,1.068-24.148,17.247-37.213,44.888-11.582,24.5-10.593,31.272-19.2,48.75C2099.885,862.9,2088.916,880.327,2069.03,897.958Z" transform="translate(-2069.03 -756.229)" fill="url(#linear-gradient)"/>
    </clipPath>
    <clipPath id="clip-path-2">
      <path id="Path_477" data-name="Path 477" d="M1553.39,639.763c11.122-7.3,26.275-19.667,35.574-39.268,12.2-25.705,3.61-41.269,12.825-86.784,5.826-28.779,10.183-48.8,26.642-57.05,12.9-6.462,31.686-4.916,41.543,4.879,8.2,8.144,11.177,22.945,11.1,33.125-.064,8.3-2.164,13.963,1.743,19.021,3.992,5.169,9.549,3.606,13.429,7.6,7.869,8.091-1.113,28.777-2.565,32.12-16.149,37.19-56.492,57.134-74.194,65.621A245.62,245.62,0,0,1,1553.39,639.763Z" transform="translate(-1553.39 -452.767)" fill="url(#linear-gradient-2)"/>
    </clipPath>
    <clipPath id="clip-path-3">
      <path id="Path_483" data-name="Path 483" d="M678.536,1298.459c-13.1-2.323-31.9-7.71-48.178-22.054-21.346-18.811-19.594-36.5-46.014-74.69-16.7-24.148-28.606-40.832-46.984-41.917-14.4-.851-31.056,7.979-36.251,20.868-4.319,10.716-1.221,25.493,2.866,34.817,3.331,7.6,7.5,11.977,5.9,18.166-1.63,6.325-7.352,7.08-9.344,12.277-4.04,10.539,12.373,26.005,15.026,28.5,29.508,27.805,74.447,30.221,94.062,31.039A245.624,245.624,0,0,0,678.536,1298.459Z" transform="translate(-499.024 -1159.742)" fill="url(#linear-gradient-3)"/>
    </clipPath>
    <clipPath id="clip-path-4">
      <path id="Path_488" data-name="Path 488" d="M598.941,2178.5c-9.209,14.966-23.282,32.441-43.689,44.408-5.208,3.054-37.381,21.919-49.593,8.668-4.3-4.668-2.494-9.378-8.148-15.706-6.7-7.5-13.526-5.682-25.423-9.357-7.1-2.193-27.875-8.61-31.551-24.67-2.2-9.6,1.813-22.2,9.025-28.936,10.577-9.875,25.97-5.177,51.933,3.205,23.015,7.43,26.816,12.208,43.447,17.282C557.283,2177.158,575.324,2180.668,598.941,2178.5Z" transform="translate(-439.935 -2147.354)" fill="url(#linear-gradient-4)"/>
    </clipPath>
    <linearGradient id="linear-gradient-9" x1="0.329" y1="0.554" x2="-0.255" y2="0.738" gradientUnits="objectBoundingBox">
      <stop offset="0" stop-color="#fcb148"/>
      <stop offset="0.052" stop-color="#fdb946"/>
      <stop offset="0.142" stop-color="#fec144"/>
      <stop offset="0.318" stop-color="#ffc444"/>
      <stop offset="0.485" stop-color="#fdb946"/>
      <stop offset="0.775" stop-color="#f99c4c"/>
      <stop offset="0.866" stop-color="#f8924f"/>
      <stop offset="1" stop-color="#f8924f"/>
    </linearGradient>
    <linearGradient id="linear-gradient-10" x1="0.727" y1="0.007" x2="0.207" y2="1.135" gradientUnits="objectBoundingBox">
      <stop offset="0" stop-color="#ffdb44"/>
      <stop offset="1" stop-color="#feef06"/>
    </linearGradient>
    <linearGradient id="linear-gradient-11" x1="0.636" y1="1.231" x2="0.531" y2="0.666" xlink:href="#linear-gradient-9"/>
    <linearGradient id="linear-gradient-12" x1="0.409" y1="0.31" x2="0.858" y2="1.247" xlink:href="#linear-gradient-9"/>
    <linearGradient id="linear-gradient-13" x1="0.253" y1="0.019" x2="0.711" y2="1.039" xlink:href="#linear-gradient-10"/>
    <linearGradient id="linear-gradient-14" x1="0.464" y1="0.369" x2="1.215" y2="1.306" xlink:href="#linear-gradient-9"/>
    <linearGradient id="linear-gradient-20" x1="0.399" y1="0.034" x2="0.728" y2="1.008" xlink:href="#linear-gradient-10"/>
    <linearGradient id="linear-gradient-21" x1="6.819" y1="-42.794" x2="7.066" y2="-37.409" xlink:href="#linear-gradient-10"/>
    <linearGradient id="linear-gradient-22" x1="7.137" y1="-52.416" x2="7.387" y2="-46.047" xlink:href="#linear-gradient-10"/>
    <linearGradient id="linear-gradient-23" x1="2.879" y1="-0.561" x2="2.338" y2="0.812" gradientUnits="objectBoundingBox">
      <stop offset="0" stop-color="#fb6fbb"/>
      <stop offset="1" stop-color="#ff9085"/>
    </linearGradient>
    <linearGradient id="linear-gradient-24" x1="-2.113" y1="-6.038" x2="-2.654" y2="-4.666" xlink:href="#linear-gradient-23"/>
  </defs>
  <path id="Path_466" data-name="Path 466" d="M630.206,427.382C545.088,424.8,471.358,488.312,460.219,571.65c-12.179,91.119,54.854,173.1,137.335,186.235,102.593,16.333,202.1-78.155,193.167-180.66C783.989,500,716.73,430.01,630.206,427.382Z" transform="translate(-456.618 -427.306)" fill="#f4f7fa"/>
  <g id="Group_228" data-name="Group 228" transform="translate(127.953 2.926)">
    <g id="Group_223" data-name="Group 223" transform="translate(59.255 34.872)">
      <g id="Group_222" data-name="Group 222">
        <path id="Path_467" data-name="Path 467" d="M2069.03,897.958c19.291,3.955,44.361,5.861,69.789-1.634,6.49-1.913,46.578-13.728,45.119-33.87-.514-7.095-5.75-9.231-6.582-18.7-.987-11.224,5.732-15.409,11.854-27.948,3.654-7.482,14.346-29.378,4.044-44.7-6.156-9.155-19.531-15.548-30.562-14.82-16.18,1.068-24.148,17.247-37.213,44.888-11.582,24.5-10.593,31.272-19.2,48.75C2099.885,862.9,2088.916,880.327,2069.03,897.958Z" transform="translate(-2069.03 -756.229)" fill="url(#linear-gradient)"/>
        <g id="Group_221" data-name="Group 221" clip-path="url(#clip-path)">
          <g id="Group_220" data-name="Group 220" transform="translate(-83.782 -22.38)" opacity="0.5" style="mix-blend-mode: soft-light;isolation: isolate">
            <path id="Path_468" data-name="Path 468" d="M1393.7,729.919c-17.915,0-35.959-4.707-53.749-14.036l.383-.731c20.162,10.573,40.646,15.168,60.881,13.662,72.425-5.392,111.338-90.312,121.54-116.211,5.794-14.711,7.72-31.884,5.723-51.04l.82-.085c2.012,19.289.069,36.592-5.775,51.428-8.39,21.3-23.355,51.978-47,77.16-22.757,24.234-48.073,37.548-75.245,39.571Q1397.492,729.92,1393.7,729.919Z" transform="translate(-1339.949 -561.479)" fill="#fff"/>
            <path id="Path_469" data-name="Path 469" d="M2688.442,838.718l-.18-.369a99.661,99.661,0,0,1-6.881-21.424c-2.393-11.628-3.829-29.016,2.926-45.815l.765.308c-6.678,16.609-5.254,33.824-2.883,45.341a101.019,101.019,0,0,0,6.638,20.855c45.548-22.263,50.414-57.037,50.817-67.187.012-.307.017-.416.029-.49l.814.131-.407-.066.408.063c-.007.055-.011.188-.02.395-.41,10.293-5.345,45.623-51.656,68.079Z" transform="translate(-2525.468 -745.982)" fill="#fff"/>
            <path id="Path_470" data-name="Path 470" d="M2534.272,895.134c-8.5,0-18.6-1.584-30.285-5.955l-.2-.076-.052-.212c-.071-.29-7-29.415,1-65.59l8.065-36.5.806.178-8.065,36.5c-7.593,34.359-1.659,62.309-1.049,65.005,24.307,9.036,41.61,5.9,51.857,1.674,11.131-4.594,16.569-11.435,16.622-11.5l.65.508c-.055.07-5.6,7.058-16.911,11.74A58.308,58.308,0,0,1,2534.272,895.134Z" transform="translate(-2367.47 -760.908)" fill="#fff"/>
          </g>
        </g>
      </g>
    </g>
    <g id="Group_227" data-name="Group 227">
      <g id="Group_226" data-name="Group 226">
        <path id="Path_472" data-name="Path 472" d="M1553.39,639.763c11.122-7.3,26.275-19.667,35.574-39.268,12.2-25.705,3.61-41.269,12.825-86.784,5.826-28.779,10.183-48.8,26.642-57.05,12.9-6.462,31.686-4.916,41.543,4.879,8.2,8.144,11.177,22.945,11.1,33.125-.064,8.3-2.164,13.963,1.743,19.021,3.992,5.169,9.549,3.606,13.429,7.6,7.869,8.091-1.113,28.777-2.565,32.12-16.149,37.19-56.492,57.134-74.194,65.621A245.62,245.62,0,0,1,1553.39,639.763Z" transform="translate(-1553.39 -452.767)" fill="url(#linear-gradient-2)"/>
        <g id="Group_225" data-name="Group 225" clip-path="url(#clip-path-2)">
          <g id="Group_224" data-name="Group 224" transform="translate(-12.328 -9.29)" opacity="0.5" style="mix-blend-mode: soft-light;isolation: isolate">
            <path id="Path_473" data-name="Path 473" d="M1446.265,573.489l-.156-.81c31.124-6,71.2-19.94,85.366-52.286,5.21-11.894,6.377-24.955,7.992-43.032a244.967,244.967,0,0,0,.56-33.907c-.447-11.929-.8-21.351,2.849-34.3a101.823,101.823,0,0,1,20-37.232l.635.526a101,101,0,0,0-19.842,36.93c-3.614,12.82-3.263,22.185-2.818,34.041a245.759,245.759,0,0,1-.562,34.008c-1.562,17.475-2.795,31.276-8.059,43.293-6.732,15.368-19.992,28.069-39.414,37.749C1479.7,565.012,1464.035,570.064,1446.265,573.489Z" transform="translate(-1446.109 -371.926)" fill="#fff"/>
            <path id="Path_474" data-name="Path 474" d="M2044.316,667.1l-.389-.257a68.885,68.885,0,0,1-16.587-17.293c-7.165-10.511-14.956-28.034-11.383-51.825l.816.122c-3.533,23.527,4.167,40.849,11.248,51.238a69.5,69.5,0,0,0,15.978,16.8c12.262-24.383,28.893-38.112,40.719-45.345,12.9-7.89,23.042-9.974,23.144-9.995l.161.809c-.1.02-10.128,2.086-22.909,9.91-11.791,7.219-28.4,20.958-40.59,45.415Z" transform="translate(-1949.679 -571.777)" fill="#fff"/>
            <path id="Path_475" data-name="Path 475" d="M1807.965,1009.227l-.124-.273A199.254,199.254,0,0,0,1790.8,979.6c-9.938-13.857-37.312-22.847-37.587-22.937l.254-.784c.278.09,27.906,9.162,38,23.24a200.312,200.312,0,0,1,17,29.217c12.788-1.6,29.746-13.8,49.073-35.284a349.589,349.589,0,0,0,25.889-32.725l.682.464a350.538,350.538,0,0,1-25.958,32.813c-19.893,22.118-36.678,34.091-49.888,35.587Z" transform="translate(-1717.92 -875.012)" fill="#fff"/>
            <path id="Path_476" data-name="Path 476" d="M1829.032,1487.96c-2.611,0-4.083-.075-4.128-.078l-.821-.045.526-.631c9.812-11.768,11.114-25.7,3.869-41.4a77.139,77.139,0,0,0-13.96-20.223l.578-.589a78.053,78.053,0,0,1,14.121,20.445c5.015,10.859,8.431,26.832-3.448,41.649a181.141,181.141,0,0,0,33.165-2.5c17.973-2.954,44.113-9.951,66.578-26.514l43.631-32.167.49.664L1926,1458.743c-22.6,16.665-48.888,23.7-66.956,26.667A189.692,189.692,0,0,1,1829.032,1487.96Z" transform="translate(-1772.183 -1303.982)" fill="#fff"/>
          </g>
        </g>
      </g>
    </g>
  </g>
  <g id="Group_237" data-name="Group 237" transform="translate(0 84.168)">
    <g id="Group_232" data-name="Group 232" transform="translate(6.79)">
      <g id="Group_231" data-name="Group 231">
        <path id="Path_478" data-name="Path 478" d="M678.536,1298.459c-13.1-2.323-31.9-7.71-48.178-22.054-21.346-18.811-19.594-36.5-46.014-74.69-16.7-24.148-28.606-40.832-46.984-41.917-14.4-.851-31.056,7.979-36.251,20.868-4.319,10.716-1.221,25.493,2.866,34.817,3.331,7.6,7.5,11.977,5.9,18.166-1.63,6.325-7.352,7.08-9.344,12.277-4.04,10.539,12.373,26.005,15.026,28.5,29.508,27.805,74.447,30.221,94.062,31.039A245.624,245.624,0,0,0,678.536,1298.459Z" transform="translate(-499.024 -1159.742)" fill="url(#linear-gradient-3)"/>
        <g id="Group_230" data-name="Group 230" clip-path="url(#clip-path-3)">
          <g id="Group_229" data-name="Group 229" transform="translate(-19.669 -0.465)" opacity="0.5" style="mix-blend-mode: soft-light;isolation: isolate">
            <path id="Path_479" data-name="Path 479" d="M695.259,1299.707q-4.032,0-7.9-.221c-21.666-1.235-38.861-7.676-51.108-19.143-9.577-8.968-16.154-21.164-24.48-36.605a245.786,245.786,0,0,1-13.93-31.03c-4.268-11.071-7.639-19.815-16.016-30.17a101,101,0,0,0-32.8-26.11l.377-.734a101.806,101.806,0,0,1,33.064,26.325c8.459,10.456,11.851,19.254,16.145,30.392a245.051,245.051,0,0,0,13.886,30.935c8.615,15.976,14.839,27.519,24.318,36.395,25.776,24.135,68.1,21.141,99.068,14.378l.176.806A192.507,192.507,0,0,1,695.259,1299.707Z" transform="translate(-523.606 -1155.694)" fill="#fff"/>
            <path id="Path_480" data-name="Path 480" d="M434.893,1264.833l-.355-.3c-20.859-17.681-41.559-23.751-55.251-25.729-14.822-2.142-24.822-.087-24.921-.066l-.171-.807c.1-.021,10.245-2.107,25.21.056,13.719,1.983,34.417,8.039,55.3,25.609a69.592,69.592,0,0,0,8.062-21.776c2.4-12.332,2.639-31.274-9.879-51.487l.7-.434c12.667,20.453,12.419,39.629,9.981,52.113a68.879,68.879,0,0,1-8.422,22.433Z" transform="translate(-351.169 -1185.967)" fill="#fff"/>
            <path id="Path_481" data-name="Path 481" d="M469.412,1595.552c-12.388,0-29.052-4.808-49.744-14.37a350.537,350.537,0,0,1-36.8-19.914l.444-.7a349.574,349.574,0,0,0,36.706,19.865c26.231,12.121,46.62,16.635,59,13.065a200.307,200.307,0,0,1,4.1-33.552c3.726-16.919,25.536-36.153,25.756-36.345l.543.621c-.218.19-21.826,19.248-25.493,35.9a199.109,199.109,0,0,0-4.084,33.694l-.006.3-.287.087A35.151,35.151,0,0,1,469.412,1595.552Z" transform="translate(-376.551 -1481.326)" fill="#fff"/>
            <path id="Path_482" data-name="Path 482" d="M411.072,1948.044a133.652,133.652,0,0,1-30.43-3.37l-52.781-12.351.188-.8,52.781,12.35c27.178,6.36,53.958,2.48,71.638-1.895a181.117,181.117,0,0,0,31.462-10.786c-16.76-8.93-19.921-24.955-19.6-36.913a78.042,78.042,0,0,1,4.913-24.357l.763.313a77.154,77.154,0,0,0-4.852,24.09c-.464,17.286,6.225,29.573,19.884,36.516l.733.373-.737.365a184.259,184.259,0,0,1-73.966,16.468Z" transform="translate(-327.861 -1787.845)" fill="#fff"/>
          </g>
        </g>
      </g>
    </g>
    <g id="Group_236" data-name="Group 236" transform="translate(0 113.492)">
      <g id="Group_235" data-name="Group 235">
        <path id="Path_484" data-name="Path 484" d="M598.941,2178.5c-9.209,14.966-23.282,32.441-43.689,44.408-5.208,3.054-37.381,21.919-49.593,8.668-4.3-4.668-2.494-9.378-8.148-15.706-6.7-7.5-13.526-5.682-25.423-9.357-7.1-2.193-27.875-8.61-31.551-24.67-2.2-9.6,1.813-22.2,9.025-28.936,10.577-9.875,25.97-5.177,51.933,3.205,23.015,7.43,26.816,12.208,43.447,17.282C557.283,2177.158,575.324,2180.668,598.941,2178.5Z" transform="translate(-439.935 -2147.354)" fill="url(#linear-gradient-4)"/>
        <g id="Group_234" data-name="Group 234" clip-path="url(#clip-path-4)">
          <g id="Group_233" data-name="Group 233" transform="translate(-12.279 -29.502)" opacity="0.5" style="mix-blend-mode: soft-light;isolation: isolate">
            <path id="Path_485" data-name="Path 485" d="M449.026,1963.968c-30.827,0-59.922-9-78.9-16.551-13.228-5.262-25.678-14.57-37-27.666l.624-.54c11.239,12.994,23.582,22.227,36.685,27.438,23.075,9.179,102.071,35.722,149.795-8.088,13.334-12.24,22.849-28.366,28.283-47.934l.8.221c-5.476,19.718-15.072,35.975-28.52,48.321-17.92,16.45-42.055,24.794-71.733,24.8Z" transform="translate(-333.113 -1890.629)" fill="#fff"/>
            <path id="Path_486" data-name="Path 486" d="M375.735,2155.131c-23.106,0-37.486-10.39-42.389-14.638-.137-.119-.226-.2-.266-.227l.465-.681c.045.03.16.127.342.285,6.844,5.93,32.406,23.981,74.662,7.981-1.494-3.657-13.962-32.377-40.732-42.808l.3-.768c15.066,5.87,25.509,17.431,31.615,26.095a89,89,0,0,1,9.741,17.571l.145.385-.384.147C396.583,2153.313,385.394,2155.131,375.735,2155.131Z" transform="translate(-333.08 -2079.723)" fill="#fff"/>
            <path id="Path_487" data-name="Path 487" d="M735.238,2127.95c-.819,0-1.3-.041-1.375-.047l.075-.822c.076.006,7.842.646,17.62-3.787,9-4.079,21.588-13.412,30.547-34.713-1.457-2.152-16.007-23-42.906-38.988l-28.673-17.046.422-.709,28.673,17.046c28.426,16.9,43.151,39.2,43.3,39.427l.119.183-.084.2c-9.08,21.718-21.924,31.223-31.1,35.371A41.3,41.3,0,0,1,735.238,2127.95Z" transform="translate(-667.151 -2015.612)" fill="#fff"/>
          </g>
        </g>
      </g>
    </g>
  </g>
  <g id="Group_239" data-name="Group 239" transform="translate(41.325 77.803)">
    <path id="Path_489" data-name="Path 489" d="M816.163,1326.815a15.726,15.726,0,0,1-16.618-15.841V1121.257a17.058,17.058,0,0,1,17.289-16.907l236.037,1.218.235,0c7.765.19,14.035,7.142,14.035,15.5v167.774c0,8.312-6.229,15.644-13.936,16.348L817.22,1326.75C816.86,1326.782,816.521,1326.8,816.163,1326.815Z" transform="translate(-799.545 -1104.35)" fill="#a5acb7"/>
    <path id="Path_490" data-name="Path 490" d="M846.207,1327.326a15.706,15.706,0,0,1-16.59-15.828V1121.94a17.037,17.037,0,0,1,17.261-16.894l235.656,1.213.234,0c7.753.19,14.013,7.136,14.013,15.486v167.643c0,8.3-6.22,15.632-13.914,16.335l-235.6,21.534C846.9,1327.293,846.565,1327.315,846.207,1327.326Z" transform="translate(-826.161 -1104.966)" fill="#bfc8d6"/>
    <path id="Path_491" data-name="Path 491" d="M1120.076,1336.8l-235.662,21.275a11.2,11.2,0,0,1-12.459-11.317V1157.428a12.4,12.4,0,0,1,12.459-12.392l235.662.95c5.475.022,9.892,4.978,9.892,11.068v167.828C1129.968,1330.974,1125.551,1336.311,1120.076,1336.8Z" transform="translate(-863.633 -1140.361)" fill="#f4f7fa"/>
    <path id="Path_492" data-name="Path 492" d="M1192.839,2519.844l-38.024,2.736a.763.763,0,0,1-.827-.775v-9.157a.9.9,0,0,1,.827-.889l38.024-2.552a.747.747,0,0,1,.8.766v9A.884.884,0,0,1,1192.839,2519.844Z" transform="translate(-1113.257 -2347.766)" fill="#d8dee8"/>
    <path id="Path_493" data-name="Path 493" d="M1300.642,2623.751l-145.827,11.832a.754.754,0,0,1-.827-.767v-9.157a.912.912,0,0,1,.827-.9l145.827-11.127a.687.687,0,0,1,.723.724v8.554A.83.83,0,0,1,1300.642,2623.751Z" transform="translate(-1113.257 -2440.194)" fill="#d8dee8"/>
    <g id="Group_238" data-name="Group 238" transform="translate(35.492 30.47)">
      <path id="Path_494" data-name="Path 494" d="M1112.122,1398.6c-2.1,1.32-4.118,4.162-3.658,7.225.466,3.108,3.272,5.015,5.483,5.6,3.107.827,4.13-1.194,7.47-.985,5.05.316,8.976,5.335,10.614,9.074,1.609,3.673.355,4.613,1.394,8.866,1.826,7.468,7.482,11.891,12.864,16.1,4.478,3.5,11.3,7.681,12.521,6.322.439-.486.044-1.55-.195-2.192-.945-2.548-3.1-3.062-6.048-5.373-2.1-1.644-4.741-3.721-4.313-5.465.423-1.717,3.773-2.887,6.267-2.225s3.837,3.081,4.483,4.246c.552,1,.46,2.317.972,2.364.353.032.746-.517.923-.984.456-1.2-.341-2.317-.631-3.225-.668-2.091.915-4.424,2.49-6.744,2.633-3.879,4.174-3.955,8.239-8.489,2.717-3.031,4.075-4.587,4.224-6.739.255-3.691-2.812-6.36-3.327-6.808-2.482-2.16-6.7-3.579-8.491-1.938-1.611,1.473.085,4.168-1.81,6.3a5.478,5.478,0,0,1-5.447,1.335,5.993,5.993,0,0,1-4.168-5.38,5.3,5.3,0,0,1,1.174-3.9c.381-.409,1.308-1.226,4.423-1.426,4.373-.281,5.284,1.156,7.892.506,2.172-.541,4.79-2.35,4.759-4.077-.037-2.023-3.677-2.158-7.857-6.644-1.628-1.747-2.953-3.211-2.848-5.155.148-2.737,3.048-4.935,3.623-5.371,2.255-1.709,4.254-3.1,4.254-3.1.563-.391,1.38-.952,1.286-1.472-.062-.342-.5-.572-1.286-.786a9.753,9.753,0,0,0-4.384-.23c-2.955.693-3.9,2.171-7.519,4.2a27.739,27.739,0,0,1-7.309,3.021c-3.854.932-5.179.226-7.094,1.694-1.848,1.417-1.265,2.572-3.168,4.75-1.993,2.283-4.431,3.074-8.225,4.306a41.767,41.767,0,0,1-8.421,1.763C1115.538,1398.177,1114.323,1397.211,1112.122,1398.6Z" transform="translate(-1108.397 -1376.74)" fill="#d8dee8"/>
      <path id="Path_495" data-name="Path 495" d="M1623.326,1372.475c-4,1.127-7.483,2.107-8.209,4.592a4.069,4.069,0,0,0,1.03,3.973c2.1,1.831,5.264-1.149,7.563.432,1.228.845.763,2,2.169,8.3.938,4.2,1.707,6.211,3.182,8,.836,1.013,2.008,2.434,3.173,2.175,1.725-.382,1.072-3.923,3.8-6.531.955-.914,1.13-.568,5.669-2.863,2.645-1.337,3.972-2.016,4.263-2.563,1.491-2.8-2.469-6.1-.876-9.421.3-.626.342-.3,2.377-2.908,2.337-3,2.308-3.458,2.247-3.685-.26-.964-2-1.02-6.5-1.516-7.5-.826-8.105-1.266-10.337-.706-1.482.372-1.877.732-5.079,1.625C1625.287,1372.076,1625.007,1372,1623.326,1372.475Z" transform="translate(-1556.757 -1369.503)" fill="#d8dee8"/>
      <path id="Path_496" data-name="Path 496" d="M1576.631,2001.7c-2.22,1.754-2.662,4.664-2.841,5.843-.443,2.917.387,4.78,1.938,9.494,1.883,5.723,2.824,8.582,2.965,10.219.219,2.542-.238,3.01-2.062,13.142-1.357,7.54-1.5,9.49-.258,10.789,1.83,1.909,5.761,1.47,5.919.948.076-.254-.772-.424-1.412-1.236-1.427-1.809-.4-4.993-.129-5.832,1.068-3.31,3.108-4.809,6.406-8.2,3.887-4,6.417-6.6,8.272-10.365a19.778,19.778,0,0,0,2.28-11.184,17.165,17.165,0,0,0-3.167-8.026,16.355,16.355,0,0,0-9.046-6.089C1582.957,2000.522,1579.343,1999.557,1576.631,2001.7Z" transform="translate(-1520.204 -1927.887)" fill="#d8dee8"/>
      <path id="Path_497" data-name="Path 497" d="M1895.793,1488.136a40.7,40.7,0,0,0-3.619,8.891c-.553,2.578-1.082,8.4,1.748,10.531,2.559,1.927,5.507-.942,9.072,1.183,1.817,1.083,2.617,2.763,3.583,4.789,2.074,4.354,1.085,6.85,1.972,12.514.416,2.661,1.739,11.113,5.035,11.539,2.746.355,5.732-5.013,6.231-5.908,1.324-2.379,1.833-4.81,2.8-9.572,1.3-6.418.817-7.288,2.185-9.133,1.759-2.374,3.889-2.728,4.355-4.957a5.7,5.7,0,0,0-.966-3.949c-1.816-3.259-4.35-2.8-6.06-5.949-.984-1.813-1.25-4-.851-4.229.357-.2,1.344,1.106,1.823,1.741,1.471,1.949,1.291,2.681,2.184,3.658,1.8,1.974,4.849,1.514,5.077,1.476,1.4-.232,3.906-1.159,4.213-2.861.237-1.311-.908-2.659-2.285-4.281-1.111-1.309-1.943-1.859-1.807-2.121s1.125.039,3.732.9c2.827.93,4.238,1.394,4.437,1.508.95.542,1.759,1.291,4.418,5.847,2.692,4.612,3.671,6.942,4.281,6.721.3-.11.251-.755.475-2.953.334-3.287.517-4.956,1.3-6.171.663-1.025,2.082-2.434,3.548-2.3.879.081,1.935,1.489,4.007,4.3,2.041,2.765,2.728,3.7,4.109,4.4.724.366,2.021,1.022,3.042.38,1.132-.712,1.52-2.768,1.051-4.218-.568-1.755-2.148-1.866-2.1-2.956.065-1.554,3.333-2.7,3.618-2.793,2.106-.716,2.645-.014,3.722-.768,1.6-1.119,2.258-3.957,1.856-6.119-.414-2.227-1.817-3.006-1.392-3.99.358-.827,1.48-.577,3.708-1.251,1.652-.5,4.09-1.237,5.421-3.309.793-1.233.933-2.532,1.15-4.553a20.848,20.848,0,0,0,0-4.017c-.268-2.945-.858-3.136-.575-4,.621-1.9,3.609-1.451,9.271-3.344,3.234-1.081,5.568-2.335,5.8-1.873.286.579-3.491,2.345-3.746,5.449-.193,2.352,1.7,4.675,2.5,4.43.657-.2.183-2.039,1.36-4.772a8.038,8.038,0,0,1,2.49-3.545c1.677-1.215,2.665-.421,4.173-1.707,1.206-1.029.9-1.817,1.912-2.9,2.287-2.442,6.137-.844,6.384-1.735.229-.824-2.739-3.34-6.609-3.846-3.446-.451-3.977,1.165-7.9,1.257-2.229.052-4.932-.862-10.358-2.7-3.07-1.039-4.671-1.757-7.463-1.89-1.945-.092-2,.217-4.041.062-2.313-.176-5.182-.394-7.43-2.414-1.765-1.586-1.226-2.556-2.683-3.506-2.354-1.535-5.581-.193-8.326.993-2.919,1.261-4.993,2.773-8.512,5.34-4.1,2.989-5.473,4.463-7.744,4.216-1.7-.185-2.046-1.13-3.954-1.087-1.544.035-2.029.669-5.174,2.144-3.045,1.428-4.6,2.138-5.927,1.91-2.06-.354-2.139-1.869-4.376-2.762-2.387-.953-4.667-.175-7.456.776-3.448,1.177-6.845,2.336-8.5,5.487-1.751,3.339-.127,6.213-2.1,7.731-1.641,1.261-3.323-.284-4.842,1.029-1.827,1.578-1.283,5.437-1,7.473.565,4.01,1.969,4.96,1.494,7.795C1897.325,1485.417,1896.952,1485.815,1895.793,1488.136Z" transform="translate(-1801.718 -1434.048)" fill="#d8dee8"/>
      <path id="Path_498" data-name="Path 498" d="M2202.052,2121.744c-.851-.052-2.275,3.634-1.934,7.049.02.2.3,2.851,1.088,2.9.731.05,1.492-2.168,1.57-2.4a9.117,9.117,0,0,0,.362-3.62C2203.1,2125.117,2202.849,2121.792,2202.052,2121.744Z" transform="translate(-2074.617 -2035.299)" fill="#d8dee8"/>
      <path id="Path_499" data-name="Path 499" d="M2481.365,2036.3c-.062.16.177.419.841.959a12.316,12.316,0,0,0,4.074,2.616c1.247.412,4.344,1.122,5.009-.107.426-.788-.186-2.3-1.163-2.977-1.041-.72-1.824-.021-4.312-.058C2483.232,2036.7,2481.517,2035.912,2481.365,2036.3Z" transform="translate(-2323.583 -1959.582)" fill="#d8dee8"/>
      <path id="Path_500" data-name="Path 500" d="M2542.111,1976.52c-.514.109-.383,1.2-1.4,3.6-.474,1.12-.73,1.424-.583,1.8.325.819,2.285,1.134,3.258.108.908-.957.494-2.595.349-3.17C2543.463,1977.761,2542.713,1976.391,2542.111,1976.52Z" transform="translate(-2375.568 -1906.757)" fill="#d8dee8"/>
      <path id="Path_501" data-name="Path 501" d="M2642.154,2032.723a5.457,5.457,0,0,0,2.645,2.011c.559.243,4.689,2.037,5.727.481a2.384,2.384,0,0,0-.114-2.248c-.51-.933-1.443-1.121-2.975-1.491-4.567-1.106-5.6-1.694-5.975-1.111C2641.044,2031.022,2641.943,2032.4,2642.154,2032.723Z" transform="translate(-2465.193 -1954.221)" fill="#d8dee8"/>
      <path id="Path_502" data-name="Path 502" d="M2578.194,1937.1c-.548.2-.513,2.913.464,5.026.508,1.1,1.432,2.387,1.854,2.19.456-.213.224-2.116-.116-3.4C2579.89,1939.017,2578.724,1936.9,2578.194,1937.1Z" transform="translate(-2408.977 -1871.864)" fill="#d8dee8"/>
      <path id="Path_503" data-name="Path 503" d="M2619.215,1760.2c.009-.633,1.456-.529,3.345-1.871a12.789,12.789,0,0,0,4.252-5.4c.207-.519.419-1.174.573-1.146.233.043.261,1.626,0,3.009a9,9,0,0,1-4.02,6.028,3.556,3.556,0,0,1-1.843.565C2620.443,1761.377,2619.207,1760.787,2619.215,1760.2Z" transform="translate(-2445.599 -1707.849)" fill="#d8dee8"/>
      <path id="Path_504" data-name="Path 504" d="M2551.334,2098.022c-2.537,2.505-3.923,2.141-4.3,3.505-.426,1.546,1.316,2.147,1.629,5.217.195,1.908-.341,3.018.116,3.276.694.392,1.839-2.206,4.524-3.281.208-.083,3.018-1.162,5.311.208,1.331.8,1.163,1.625,3.334,3.578,1.389,1.249,2.11,1.878,2.98,1.708,1.435-.28,2.246-2.531,2.744-3.913a12.067,12.067,0,0,0,.685-6.792c-.291-1.311-.505-.988-4.459-6.907-1.094-1.637-1.533-2.344-2.524-2.76-2.022-.85-4.242.4-4.6.6a14.036,14.036,0,0,0-2.888,2.659C2552.232,2096.866,2552.335,2097.034,2551.334,2098.022Z" transform="translate(-2381.655 -2008.592)" fill="#d8dee8"/>
    </g>
  </g>
  <g id="Group_241" data-name="Group 241" transform="translate(30.048 29.473)">
    <path id="Path_505" data-name="Path 505" d="M828.885,778.843c0,34.486-26.966,61.615-61.432,60.556-35.868-1.1-66.035-32.079-66.035-69.149s30.167-63.98,66.035-60.246C801.919,713.592,828.885,744.357,828.885,778.843Z" transform="translate(-701.418 -706.684)" fill="url(#linear-gradient-9)"/>
    <path id="Path_506" data-name="Path 506" d="M909.929,752.967c0,34.486-26.966,61.614-61.431,60.556-35.869-1.1-66.035-32.079-66.035-69.149s30.167-63.981,66.035-60.246C882.963,687.716,909.929,718.481,909.929,752.967Z" transform="translate(-773.149 -683.781)" fill="url(#linear-gradient-10)"/>
    <path id="Path_507" data-name="Path 507" d="M931.22,775.687c0,32.967-25.8,58.857-58.726,57.791-34.2-1.107-62.919-30.671-62.919-65.992s28.717-61.013,62.919-57.508C905.418,713.351,931.22,742.72,931.22,775.687Z" transform="translate(-797.145 -706.684)" fill="url(#linear-gradient-11)"/>
    <path id="Path_508" data-name="Path 508" d="M946.373,791.909c0,31.88-24.966,56.885-56.789,55.817-33.015-1.109-60.7-29.662-60.7-63.738s27.686-58.9,60.7-55.553C921.406,731.658,946.373,760.029,946.373,791.909Z" transform="translate(-814.235 -723.037)" fill="url(#linear-gradient-12)"/>
    <g id="Group_240" data-name="Group 240" transform="translate(45.892 16.23)">
      <path id="Path_509" data-name="Path 509" d="M1129.9,825.031h0a3.471,3.471,0,0,1,3.064,3.405v5.87a86.314,86.314,0,0,1,10.173,1.765q3.755.883,7.461,2.1a3.431,3.431,0,0,1,2.338,3.522l-.721,7.36a2.759,2.759,0,0,1-3.939,2.289,42.5,42.5,0,0,0-5.005-1.865,45.391,45.391,0,0,0-9.441-1.764l-.866-.071v16.81c8.834,2.471,15.322,5.8,19.514,9.979a21.1,21.1,0,0,1,6.251,15.576q0,10.1-6.913,16.193-6.959,6.133-19.556,6.886v6.478a2.947,2.947,0,0,1-3.067,2.993l-.054,0a3.256,3.256,0,0,1-3.077-3.248v-6.391l-1.365-.062a89.711,89.711,0,0,1-11.33-1.208,73.675,73.675,0,0,1-7.829-1.8,3.374,3.374,0,0,1-2.456-3.488l.848-9.461a2.992,2.992,0,0,1,4.183-2.468,61.493,61.493,0,0,0,6.885,2.26,60.344,60.344,0,0,0,11.009,1.839l.055-18.7q-12.719-3.147-19-9.322-6.286-6.2-6.293-15.864,0-9.99,6.823-15.408c4.519-3.59,10.944-5.375,19.233-5.371v-6A2.771,2.771,0,0,1,1129.9,825.031Zm-3.075,22.438a10.354,10.354,0,0,0-6.127,2.16,6.3,6.3,0,0,0-2.2,5.046,6.773,6.773,0,0,0,2.034,5.015,14.407,14.407,0,0,0,6.292,3.21Zm5.435,33.859v17.147q4.273.009,6.558-2.039a7.342,7.342,0,0,0,2.283-5.772,7.886,7.886,0,0,0-2.121-5.644A15.573,15.573,0,0,0,1132.263,881.329Z" transform="translate(-1100.773 -825.018)" fill="url(#linear-gradient-13)"/>
    </g>
    <path id="Path_510" data-name="Path 510" d="M879.307,802.113c1.919-18.95,19.335-26.972,17.062-44.4-1.4-10.744-9.544-19.8-18.628-26.867-27.553,2.89-48.858,25.7-48.858,55.543,0,34.076,27.686,62.629,60.7,63.738a57.311,57.311,0,0,0,9.38-.458C885.853,836.618,877.659,818.394,879.307,802.113Z" transform="translate(-814.235 -725.434)" opacity="0.3" fill="url(#linear-gradient-14)" style="mix-blend-mode: multiply;isolation: isolate"/>
  </g>
  <g id="Group_244" data-name="Group 244" transform="translate(183.308 169.542)">
    <path id="Path_511" data-name="Path 511" d="M2162.561,1997.735c0,34.486-26.966,61.614-61.431,60.556-35.868-1.1-66.035-32.079-66.035-69.149s30.167-63.981,66.035-60.246C2135.6,1932.484,2162.561,1963.249,2162.561,1997.735Z" transform="translate(-2035.095 -1925.576)" fill="url(#linear-gradient-9)"/>
    <path id="Path_512" data-name="Path 512" d="M2243.606,1971.859c0,34.486-26.966,61.615-61.431,60.556-35.868-1.1-66.035-32.079-66.035-69.149s30.167-63.98,66.035-60.246C2216.641,1906.608,2243.606,1937.373,2243.606,1971.859Z" transform="translate(-2106.827 -1902.673)" fill="url(#linear-gradient-10)"/>
    <path id="Path_513" data-name="Path 513" d="M2264.9,1994.579c0,32.967-25.8,58.858-58.726,57.791-34.2-1.108-62.919-30.671-62.919-65.993s28.717-61.013,62.919-57.508C2239.1,1932.243,2264.9,1961.612,2264.9,1994.579Z" transform="translate(-2130.823 -1925.576)" fill="url(#linear-gradient-11)"/>
    <path id="Path_514" data-name="Path 514" d="M2280.05,2010.8c0,31.88-24.966,56.885-56.789,55.817-33.015-1.108-60.7-29.662-60.7-63.738s27.686-58.9,60.7-55.553C2255.083,1950.55,2280.05,1978.921,2280.05,2010.8Z" transform="translate(-2147.912 -1941.929)" fill="url(#linear-gradient-12)"/>
    <path id="Path_515" data-name="Path 515" d="M2212.984,2021.006c1.919-18.95,19.335-26.972,17.062-44.4-1.4-10.744-9.544-19.8-18.628-26.867-27.552,2.89-48.858,25.7-48.858,55.543,0,34.076,27.686,62.629,60.7,63.737a57.25,57.25,0,0,0,9.38-.458C2219.53,2055.51,2211.336,2037.286,2212.984,2021.006Z" transform="translate(-2147.912 -1944.327)" opacity="0.3" fill="url(#linear-gradient-14)" style="mix-blend-mode: multiply;isolation: isolate"/>
    <g id="Group_243" data-name="Group 243" transform="translate(31.658 26.007)">
      <path id="Path_516" data-name="Path 516" d="M2443.546,2144.2a24.483,24.483,0,0,1,7.087,1.626,4.7,4.7,0,0,0,5.882-1.834l2.327-4a4.721,4.721,0,0,0,.283-4,5.633,5.633,0,0,0-2.9-3.146,41.3,41.3,0,0,0-12.681-3.581c-22.589-2.606-43.027,13.539-43.027,36.281s20.439,39.65,43.027,37.887a40.341,40.341,0,0,0,11.658-2.687,5.375,5.375,0,0,0,3-2.972,4.782,4.782,0,0,0-.168-4.028l-2.2-4.156a4.834,4.834,0,0,0-5.835-2.226,23.793,23.793,0,0,1-6.449,1.136c-13.18.515-24.59-9.613-24.59-22.61S2430.366,2143.189,2443.546,2144.2Z" transform="translate(-2390.184 -2128.986)" fill="url(#linear-gradient-20)"/>
      <g id="Group_242" data-name="Group 242" transform="translate(0 24.322)">
        <path id="Path_517" data-name="Path 517" d="M2360.509,2346.06a3.271,3.271,0,0,1-3.492,3.184L2314.951,2348c-2.4-.071-4.367-1.791-4.367-3.841h0c0-2.051,1.966-3.62,4.367-3.508l42.066,1.964a3.588,3.588,0,0,1,3.492,3.451Z" transform="translate(-2310.584 -2340.64)" fill="url(#linear-gradient-21)"/>
        <path id="Path_518" data-name="Path 518" d="M2360.509,2490.023a3.427,3.427,0,0,1-3.492,3.32l-42.066.379c-2.4.021-4.367-1.623-4.367-3.673h0c0-2.05,1.966-3.7,4.367-3.677l42.066.336a3.423,3.423,0,0,1,3.492,3.316Z" transform="translate(-2310.584 -2469.625)" fill="url(#linear-gradient-22)"/>
      </g>
    </g>
  </g>
  <path id="Path_519" data-name="Path 519" d="M890.145,2026.773q5.118,2.438,10.261,4.446a165.5,165.5,0,0,1-10.584-31.762,233.966,233.966,0,0,0-22.732,32.177q5.413-2.71,10.794-5.477c.547,20.368,10.544,38.4,23.619,50.817a88.047,88.047,0,0,0,43.91,22.406c30.105,5.667,50.695-5,50.535-4.734a103.054,103.054,0,0,1-60.062-8.522A88.4,88.4,0,0,1,902.5,2059.27C889.041,2040.258,890.272,2026.613,890.145,2026.773Z" transform="translate(-818.003 -1818.793)" fill="url(#linear-gradient-23)"/>
  <path id="Path_520" data-name="Path 520" d="M1985.7,1020.3q-5.119-2.438-10.261-4.446a165.473,165.473,0,0,1,10.584,31.763,233.936,233.936,0,0,0,22.732-32.177q-5.413,2.71-10.794,5.477c-.547-20.368-10.544-38.4-23.619-50.817a88.046,88.046,0,0,0-43.91-22.406c-30.1-5.667-50.694,5-50.534,4.735a103.054,103.054,0,0,1,60.062,8.522,88.408,88.408,0,0,1,33.385,26.854C1986.807,1006.812,1985.576,1020.457,1985.7,1020.3Z" transform="translate(-1714.426 -886.418)" fill="url(#linear-gradient-24)"/>
</svg>
