<svg xmlns="http://www.w3.org/2000/svg" xmlns:xlink="http://www.w3.org/1999/xlink" width="48" height="48" viewBox="0 0 48 48">
  <defs>
    <clipPath id="clip-path">
      <rect id="Rectangle_448" data-name="Rectangle 448" width="48" height="48" fill="none"/>
    </clipPath>
  </defs>
  <g id="Group_671" data-name="Group 671" style="isolation: isolate">
    <path id="Path_786" data-name="Path 786" d="M48,24A24,24,0,1,1,24,0,24,24,0,0,1,48,24" fill="#ebf0f1"/>
    <path id="Path_787" data-name="Path 787" d="M18,18A8.485,8.485,0,0,0,30,30Z" fill="#facc20"/>
    <path id="Path_788" data-name="Path 788" d="M18,18,30,30A8.485,8.485,0,0,0,18,18Z" fill="#f7a90b"/>
    <path id="Path_789" data-name="Path 789" d="M30.227,24A6.227,6.227,0,1,1,24,17.773,6.228,6.228,0,0,1,30.227,24" fill="#fdef34"/>
    <path id="Path_790" data-name="Path 790" d="M24.449,27.375V24.75c1.274.375,1.274.9,1.274,1.273C25.723,26.324,25.648,27.074,24.449,27.375Zm-.75-4.426c-.6-.3-1.051-.375-1.051-1.125,0-.3.075-.9,1.051-1.125ZM27,24.824c-.148-.3-.523-1.273-2.551-1.648V20.7a1.422,1.422,0,0,1,.977.977c.148.449.375.6.75.6.226,0,1.5-.375.148-1.949-.226-.3-.6-.676-1.875-.824v-.977H23.7V19.5c-2.324.227-2.551,1.8-2.551,2.477,0,2.023,2.024,2.4,2.551,2.55V27.3a1.828,1.828,0,0,1-1.273-1.574.67.67,0,0,0-.75-.45.779.779,0,0,0-.75.75A2.6,2.6,0,0,0,22.5,28.2a2.844,2.844,0,0,0,1.2.3v.976h.75V28.5a4.426,4.426,0,0,0,1.5-.449A2.6,2.6,0,0,0,27,24.824Z" fill="#dba92c"/>
    <g id="Group_670" data-name="Group 670" opacity="0.3" style="isolation: isolate">
      <g id="Group_669" data-name="Group 669">
        <g id="Group_668" data-name="Group 668" clip-path="url(#clip-path)">
          <path id="Path_791" data-name="Path 791" d="M30.3,18.3l-12,12L18,30a8.739,8.739,0,0,1-1.051-1.273L28.723,16.953A8.739,8.739,0,0,1,30,18l.3.3Zm-2.324-1.8L16.5,27.977a2.809,2.809,0,0,1-.375-.825L27.148,16.129a8.227,8.227,0,0,1,.825.375Z" fill="#fff"/>
        </g>
      </g>
    </g>
    <path id="Path_792" data-name="Path 792" d="M28.875,16.051l-.9-.3.9-.3.3-.824.226.824.9.3-.9.3-.226.824Zm1.2,2.324-1.426-.449,1.426-.449.524-1.5.449,1.5,1.426.449-1.426.449L30.6,19.8Z" fill="#fff"/>
    <path id="Path_793" data-name="Path 793" d="M16.352,36.824a14.894,14.894,0,0,0,7.125,3.3,15.733,15.733,0,0,0,8.1-.6,16.575,16.575,0,0,0,5.852-3.449l3,3V29.926H31.273L34.348,33A13.2,13.2,0,0,1,23.7,37.875a13.383,13.383,0,0,1-6.676-2.023,15.574,15.574,0,0,1-5.1-5.25,14.627,14.627,0,0,0,4.426,6.226Z" fill="#474e5e"/>
    <path id="Path_794" data-name="Path 794" d="M25.949,38.926A16.352,16.352,0,0,0,40.426,30H31.273l3.075,3.074A13.2,13.2,0,0,1,23.7,37.949a13.383,13.383,0,0,1-6.676-2.023,15.565,15.565,0,0,1-5.1-5.25,1.267,1.267,0,0,1,.148.375,16.13,16.13,0,0,0,13.875,7.875Z" fill="#231f20" opacity="0.1"/>
    <path id="Path_795" data-name="Path 795" d="M31.648,11.176a14.894,14.894,0,0,0-7.125-3.3,15.733,15.733,0,0,0-8.1.6,16.575,16.575,0,0,0-5.852,3.449l-3-3v9.148h9.149L13.648,15A13.2,13.2,0,0,1,24.3,10.125a13.383,13.383,0,0,1,6.676,2.023,15.574,15.574,0,0,1,5.1,5.25,14.627,14.627,0,0,0-4.426-6.226Z" fill="#40eeff"/>
    <path id="Path_796" data-name="Path 796" d="M22.051,9.074A16.352,16.352,0,0,0,7.574,18h9.149l-3.075-3.074A13.2,13.2,0,0,1,24.3,10.051a13.383,13.383,0,0,1,6.676,2.023,15.565,15.565,0,0,1,5.1,5.25,1.267,1.267,0,0,1-.148-.375A16.128,16.128,0,0,0,22.051,9.074Z" fill="#231f20" opacity="0.1"/>
  </g>
</svg>
