<svg xmlns="http://www.w3.org/2000/svg" width="31" height="31" viewBox="0 0 31 31">
  <g id="Group_687" data-name="Group 687" transform="translate(-1183 -424)">
    <circle id="Ellipse_41" data-name="Ellipse 41" cx="15.5" cy="15.5" r="15.5" transform="translate(1183 424)" fill="#64c689"/>
    <g id="Group_6127" data-name="Group 6127" transform="translate(829.425 54.237)">
      <path id="Path_906" data-name="Path 906" d="M360.53,389.8c.039-.138.068-.279.117-.413a2.627,2.627,0,0,1,1.548-1.517,3.914,3.914,0,0,1,1.545-.294c.89,0,1.78,0,2.669,0,.038,0,.076.006.124.01v1.678h-2.81a2.17,2.17,0,0,0-1.073.259.777.777,0,0,0-.445.751q.019,3.529,0,7.058a.765.765,0,0,0,.426.728,2.363,2.363,0,0,0,1.221.275q4.8,0,9.592,0c.422,0,.846,0,1.267-.024a1.732,1.732,0,0,0,.929-.334.663.663,0,0,0,.3-.58q-.008-3.587,0-7.174a.7.7,0,0,0-.347-.638,1.968,1.968,0,0,0-1.089-.315c-.9,0-1.8,0-2.7,0h-.19V387.6a.337.337,0,0,1,.078-.018c1.045.006,2.091-.012,3.135.028a3.157,3.157,0,0,1,2,.806,2.209,2.209,0,0,1,.79,1.731c0,2.408-.011,4.816,0,7.225a2.33,2.33,0,0,1-1.154,2.084,3.692,3.692,0,0,1-2.061.562c-3.553,0-7.106.005-10.66-.008a5.206,5.206,0,0,1-1.2-.167,2.87,2.87,0,0,1-1.381-.8,2.408,2.408,0,0,1-.636-1.259Z" transform="translate(0 -7.651)" fill="#fff" stroke="#fff" stroke-width="1"/>
      <path id="Path_907" data-name="Path 907" d="M376.975,384.8v-.243q0-4.113,0-8.225a1.44,1.44,0,0,1,.038-.379.835.835,0,0,1,.891-.6.848.848,0,0,1,.753.788c0,.066,0,.133,0,.2q0,4.087,0,8.175v.226c.065-.06.1-.095.142-.132.307-.306.608-.618.923-.917a.837.837,0,0,1,1.191,1.177q-1.262,1.285-2.547,2.548a.825.825,0,0,1-1.174-.011q-1.27-1.255-2.524-2.525a.825.825,0,0,1,.008-1.184.836.836,0,0,1,1.185,0c.324.313.638.636.957.953C376.86,384.69,376.9,384.726,376.975,384.8Z" transform="translate(-8.689 0)" fill="#fff" stroke="#fff" stroke-width="1"/>
    </g>
  </g>
</svg>
