<svg xmlns="http://www.w3.org/2000/svg" width="56" height="56" viewBox="0 0 56 56">
  <g id="Group_6193" data-name="Group 6193" transform="translate(-1695.535 -1173.582)">
    <rect id="Rectangle_488" data-name="Rectangle 488" width="56" height="56" rx="10" transform="translate(1695.535 1173.582)" fill="#64c689"/>
    <path id="Path_870" data-name="Path 870" d="M24.7,4.683,22.573,2.561a2.235,2.235,0,0,0-3.123,0L17.367,4.683,22.573,9.89,24.7,7.806A2.235,2.235,0,0,0,24.7,4.683ZM15.313,6.767,8.059,14.1a.6.6,0,0,0-.19.336L6.4,20.03a.707.707,0,0,0,.19.7.69.69,0,0,0,.512.145.4.4,0,0,0,.192,0l5.6-1.466a.581.581,0,0,0,.336-.192l7.253-7.282Z" transform="translate(1707.68 1190.176)" fill="#fafafa"/>
  </g>
</svg>
