<svg id="Layer_1" data-name="Layer 1" xmlns="http://www.w3.org/2000/svg" viewBox="0 0 37.29 23.8"><defs><style>.cls-1{fill:#fff;}.cls-2{fill:#243f9c;}.cls-3{fill:#fcec00;}</style></defs><rect class="cls-1" width="37.57" height="23.8"/><rect class="cls-2" x="-3.92" width="45.28" height="23.89"/><polygon class="cls-3" points="18.71 18.74 19.02 19.67 19.98 19.67 19.3 20.19 19.49 21.18 18.71 20.62 17.93 21.17 18.12 20.19 17.44 19.67 18.4 19.67 18.71 18.74"/><polygon class="cls-3" points="18.71 2.58 19.02 3.51 19.98 3.51 19.3 4.03 19.49 5.03 18.71 4.46 17.93 5.01 18.12 4.03 17.44 3.51 18.4 3.51 18.71 2.58"/><polygon class="cls-3" points="22.6 3.62 22.91 4.55 23.87 4.55 23.19 5.07 23.38 6.07 22.6 5.5 21.82 6.05 22.01 5.07 21.34 4.55 22.29 4.55 22.6 3.62"/><polygon class="cls-3" points="14.63 3.62 14.94 4.55 15.9 4.55 15.22 5.07 15.41 6.07 14.63 5.5 13.85 6.05 14.04 5.07 13.36 4.55 14.32 4.55 14.63 3.62"/><polygon class="cls-3" points="22.6 17.65 22.91 18.58 23.87 18.58 23.19 19.09 23.38 20.09 22.6 19.53 21.82 20.08 22.01 19.09 21.34 18.58 22.29 18.58 22.6 17.65"/><polygon class="cls-3" points="14.63 17.65 14.94 18.58 15.9 18.58 15.22 19.09 15.41 20.09 14.63 19.53 13.85 20.08 14.04 19.09 13.36 18.58 14.32 18.58 14.63 17.65"/><polygon class="cls-3" points="11.65 6.67 11.96 7.6 12.92 7.6 12.24 8.12 12.43 9.12 11.65 8.55 10.87 9.1 11.05 8.12 10.38 7.6 11.34 7.6 11.65 6.67"/><polygon class="cls-3" points="25.68 6.67 25.99 7.6 26.95 7.6 26.27 8.12 26.46 9.12 25.68 8.55 24.9 9.1 25.09 8.12 24.41 7.6 25.37 7.6 25.68 6.67"/><polygon class="cls-3" points="11.65 14.74 11.96 15.67 12.92 15.67 12.24 16.18 12.43 17.18 11.65 16.61 10.87 17.16 11.05 16.18 10.38 15.66 11.34 15.66 11.65 14.74"/><polygon class="cls-3" points="25.68 14.74 25.99 15.67 26.95 15.67 26.27 16.18 26.46 17.18 25.68 16.61 24.9 17.16 25.09 16.18 24.41 15.66 25.37 15.66 25.68 14.74"/><polygon class="cls-3" points="10.72 10.68 11.04 11.61 11.99 11.6 11.31 12.12 11.5 13.12 10.72 12.55 9.94 13.1 10.13 12.12 9.46 11.6 10.41 11.6 10.72 10.68"/><polygon class="cls-3" points="26.71 10.68 27.02 11.61 27.98 11.6 27.3 12.12 27.48 13.12 26.71 12.55 25.92 13.1 26.11 12.12 25.44 11.6 26.4 11.6 26.71 10.68"/></svg>