<svg xmlns="http://www.w3.org/2000/svg" width="72" height="72" viewBox="0 0 72 72">
  <g id="Group_6193" data-name="Group 6193" transform="translate(-445 -1064.901)">
    <circle id="Ellipse_36" data-name="Ellipse 36" cx="36" cy="36" r="36" transform="translate(445 1064.901)" fill="#f5f5f5"/>
    <g id="Group_500" data-name="Group 500" transform="translate(465.469 1082.283)">
      <path id="Path_723" data-name="Path 723" d="M24.674,808.384a2.66,2.66,0,0,1-2.743,2.73q-11.376.005-22.754,0a2.659,2.659,0,0,1-2.759-2.746q-.007-6.846,0-13.692a2.657,2.657,0,0,1,2.751-2.754q11.376-.005,22.754,0a2.66,2.66,0,0,1,2.752,2.753c0,1.02,0,2.042,0,3.11H19.644a2.484,2.484,0,0,0-2.862,2.369,7.239,7.239,0,0,0,.09,3.139A2.365,2.365,0,0,0,19.4,805.25c1.621,0,3.243,0,4.864,0h.385c.009.1.024.184.024.269C24.676,806.474,24.68,807.43,24.674,808.384Z" transform="translate(3.585 -779.655)" fill="#d8a0a0"/>
      <path id="Path_724" data-name="Path 724" d="M60.251,687.792a.36.36,0,0,1-.229.385q-4.394,2.18-8.782,4.373a.594.594,0,0,1-.248.084c-.851.006-1.7,0-2.652,0,1.226-1.076,2.376-2.086,3.529-3.095,1.87-1.638,3.744-3.271,5.608-4.917a1.553,1.553,0,0,1,1.8-.372,1.64,1.64,0,0,1,.973,1.641C60.242,686.527,60.24,687.16,60.251,687.792Z" transform="translate(-43.717 -681.439)" fill="#d8a0a0"/>
      <path id="Path_725" data-name="Path 725" d="M245.354,871.437a1.6,1.6,0,0,0-1.678-1.67c-1.054,0-2.108,0-3.163,0s-2.086,0-3.13,0a1.288,1.288,0,0,0-1.447,1.1,6.31,6.31,0,0,0,0,3.129,1.288,1.288,0,0,0,1.442,1.1q3.163.005,6.325,0a1.6,1.6,0,0,0,1.654-1.661Q245.362,872.437,245.354,871.437Zm-6.413,3.126a2.132,2.132,0,1,1,2.148-2.124A2.138,2.138,0,0,1,238.94,874.563Z" transform="translate(-214.429 -850.568)" fill="#d8a0a0"/>
      <path id="Path_726" data-name="Path 726" d="M278.878,658.2a.664.664,0,0,1-.461.222c-.339.032-.684.01-1.052.01a7.088,7.088,0,0,1-3.207,5.869l-2.128-1.6a3.952,3.952,0,0,0,2.122-4.272c-.384,0-.739.024-1.089-.011a.647.647,0,0,1-.453-.236.571.571,0,0,1,.108-.468c.763-1.052,1.54-2.092,2.318-3.132a.8.8,0,0,1,1.406-.009c.785,1.048,1.569,2.1,2.338,3.158A.556.556,0,0,1,278.878,658.2Z" transform="translate(-247.49 -654.166)" fill="#d8a0a0"/>
      <path id="Path_727" data-name="Path 727" d="M118.163,730.947H106.65c.13-.078.206-.13.288-.171q4.389-2.19,8.779-4.376a1.6,1.6,0,0,1,2.447,1.516C118.164,728.914,118.163,729.912,118.163,730.947Z" transform="translate(-96.835 -719.761)" fill="#d8a0a0"/>
      <path id="Path_728" data-name="Path 728" d="M262.058,888.817A1.065,1.065,0,1,1,261,887.75,1.071,1.071,0,0,1,262.058,888.817Z" transform="translate(-236.466 -866.952)" fill="#d8a0a0"/>
    </g>
  </g>
</svg>
