<svg xmlns="http://www.w3.org/2000/svg" width="37.986" height="21.706" viewBox="0 0 37.986 21.706">
  <g id="Group_19" data-name="Group 19" transform="translate(-24 -96)">
    <path id="Path_6" data-name="Path 6" d="M42.993,114.595a7.743,7.743,0,1,1,7.6-7.742A7.682,7.682,0,0,1,42.993,114.595Zm0-18.595C36.049,96,30.639,100.138,24,106.853c5.715,5.74,10.514,10.853,18.993,10.853s14.7-6.478,18.993-10.734C57.594,101.986,51.371,96,42.993,96Z" transform="translate(0 0)" fill="#79e8a3"/>
    <path id="Path_7" data-name="Path 7" d="M157.208,153.833a2.723,2.723,0,0,1,.644-1.755,4.031,4.031,0,0,0-.644-.051,4.52,4.52,0,1,0,4.435,4.52c0-.2-.017-.39-.034-.585a2.716,2.716,0,0,1-4.4-2.128Z" transform="translate(-114.215 -49.693)" fill="#79e8a3"/>
  </g>
</svg>
