<svg id="Layer_1" data-name="Layer 1" xmlns="http://www.w3.org/2000/svg" viewBox="0 0 37.29 23.8"><defs><style>.cls-1{fill:#d70027;}.cls-2{fill:#efefef;}.cls-3{fill:#0052b3;}</style></defs><path class="cls-1" d="M37.28,9.57v4.66H21v9.68c0,.14,0,.28,0,.43H16.34c0-.15,0-.29,0-.43q0-4.65,0-9.28a.7.7,0,0,0,0-.4H0V9.58h15.9a.67.67,0,0,0,.41-.05V-.1c0-.15,0-.3,0-.44H21c0,.14,0,.29,0,.44V9.17a.62.62,0,0,0,.05.4Z"/><path class="cls-2" d="M28.82,16.21a.19.19,0,0,0,0,.08L37.28,21v1L37,21.88l-9.94-5.52a1.19,1.19,0,0,0-.58-.15H23.05a.38.38,0,0,0-.27,0l.23.15,14,7.78c.08,0,.15.13.26.1v.07l-4,0a.51.51,0,0,0-.26-.19L23,18.52c-.07,0-.13-.12-.24-.06v5.59a.7.7,0,0,0,0,.29H21c0-.15,0-.29,0-.43V14.23h16.3v2l-.4,0Z"/><path class="cls-2" d="M22.84,7.53c0,.07.07,0,.1,0h3.64a.92.92,0,0,0,.51-.15L30.9,5.31l6.38-3.53V4a.25.25,0,0,0-.16.06L31,7.42s-.15,0-.13.17h5l1.38,0v2H21a.62.62,0,0,1-.05-.4V-.1c0-.15,0-.3,0-.44h1.79a.85.85,0,0,0,0,.32V6.25c0,.08,0,.17,0,.24a.44.44,0,0,0,.2-.08L35.1-.34a.83.83,0,0,0,.26-.19l1.92,0v.07c-.12,0-.2.07-.29.12L23.12,7.35C23,7.4,22.9,7.43,22.84,7.53Z"/><path class="cls-1" d="M37.28,24.28c-.11,0-.18-.06-.26-.1L23,16.4l-.24-.15a.38.38,0,0,1,.27,0h3.46a1.07,1.07,0,0,1,.58.15L37,21.88l.25.14Z"/><path class="cls-1" d="M37.28,1.78,30.9,5.32,27.09,7.43a1,1,0,0,1-.51.16H22.94s-.07,0-.1,0,.18-.13.28-.18L37-.36c.09,0,.17-.14.29-.12Z"/><path class="cls-3" d="M37.28,21,28.8,16.28l0-.07h8.46Z"/><path class="cls-3" d="M37.28,7.6H30.86c0-.13.08-.13.13-.16Q34.05,5.72,37.12,4A.25.25,0,0,1,37.28,4Z"/><path class="cls-2" d="M16.34-.54c0,.14,0,.29,0,.44V9.52a.67.67,0,0,1-.41.05H0c0-.67,0-1.33,0-2H8.5a.55.55,0,0,0-.32-.24Q6.13,6.19,4.05,5.05T0,2.82v-1L10.2,7.43a.86.86,0,0,0,.41.16h3.88c0-.13-.12-.14-.18-.18L.27-.39C.19-.43.12-.51,0-.48c0-.08.12-.07.19-.07H4a.78.78,0,0,0,.29.21q5,2.81,10.09,5.6c.06,0,.12.13.23.07s0-.09,0-.14V-.25a.7.7,0,0,0,0-.29Z"/><path class="cls-2" d="M14.59,17.55c0-.08,0-.17-.06-.25l-.25.13L2.22,24.13a1.15,1.15,0,0,0-.29.2l-1.73,0c-.07,0-.15,0-.19-.07.13,0,.22-.08.32-.14l13.88-7.71c.09-.05.21-.06.26-.22H10.86a1.38,1.38,0,0,0-.69.17Q5.1,19.22,0,22v-2.2c.09,0,.16,0,.23-.08L6.3,16.38c.06,0,.15,0,.14-.16H0c0-.67,0-1.33,0-2H16.27a.7.7,0,0,1,0,.4q0,4.63,0,9.28c0,.14,0,.28,0,.43H14.55a.85.85,0,0,0,0-.32Z"/><path class="cls-3" d="M35.36-.53a.83.83,0,0,1-.26.19L23,6.41a.44.44,0,0,1-.2.08c-.08-.07,0-.16,0-.24V-.22a.85.85,0,0,1,0-.32H35.36Z"/><path class="cls-3" d="M14.59,17.55V24a.85.85,0,0,1,0,.32H1.93a1.15,1.15,0,0,1,.29-.2l12.06-6.7.25-.13C14.62,17.38,14.59,17.47,14.59,17.55Z"/><path class="cls-3" d="M33.33,24.33H22.74a.7.7,0,0,1,0-.29V18.46c.11-.06.17,0,.24.06l10.12,5.62A.51.51,0,0,1,33.33,24.33Z"/><path class="cls-3" d="M14.59-.25V5.2s0,.09,0,.14-.17,0-.23-.07Q9.3,2.48,4.26-.33A.78.78,0,0,1,4-.54H14.55A.7.7,0,0,1,14.59-.25Z"/><path class="cls-1" d="M14.49,7.59H10.61a.86.86,0,0,1-.41-.16L0,1.77V-.48c.11,0,.18,0,.26.09l14,7.8C14.37,7.45,14.48,7.46,14.49,7.59Z"/><path class="cls-1" d="M14.47,16.21c-.05.16-.17.17-.26.22L.33,24.14c-.1.06-.19.15-.32.14V22q5.09-2.82,10.16-5.65a1.38,1.38,0,0,1,.69-.17h3.61Z"/><path class="cls-3" d="M8.5,7.58H0C0,6,0,4.4,0,2.82q2,1.11,4,2.23T8.18,7.34A.55.55,0,0,1,8.5,7.58Z"/><path class="cls-3" d="M6.44,16.22c0,.12-.08.13-.14.16L.24,19.75c-.07,0-.14.1-.23.08,0-1.2,0-2.41,0-3.61Z"/></svg>