<svg xmlns="http://www.w3.org/2000/svg" xmlns:xlink="http://www.w3.org/1999/xlink" width="48" height="48" viewBox="0 0 48 48">
  <defs>
    <clipPath id="clip-path">
      <rect id="Rectangle_150" data-name="Rectangle 150" width="48" height="48" fill="none"/>
    </clipPath>
  </defs>
  <g id="Group_154" data-name="Group 154" style="isolation: isolate">
    <path id="Path_329" data-name="Path 329" d="M48,24A24,24,0,1,1,24,0,24,24,0,0,1,48,24" fill="#ebf0f1"/>
    <path id="Path_330" data-name="Path 330" d="M38.926,31.2,26.551,18.824,18.977,26.4,9,16.5,6.977,18.6l12,12,7.574-7.575L36.9,33.3l-2.476,2.476h6.6V29.1Z" fill="#f9c2af"/>
    <path id="Path_331" data-name="Path 331" d="M38.926,31.2,26.551,18.824,18.977,26.4,9,16.5,6.977,18.6l12,12,7.574-7.575L36.9,33.3l-2.476,2.476h6.6V29.1Z" fill="#fff"/>
    <path id="Path_332" data-name="Path 332" d="M8.477,20.1V40.125H12.9v-15.6Z" fill="#dba92c"/>
    <path id="Path_333" data-name="Path 333" d="M18.977,30.6l-3.825-3.825V40.129H19.5V30.074Z" fill="#fdef34"/>
    <path id="Path_334" data-name="Path 334" d="M21.75,27.824v12.3H26.1V23.477Z" fill="#c64444"/>
    <path id="Path_335" data-name="Path 335" d="M28.352,24.75V40.125h4.425V29.176Z" fill="#baca5b"/>
    <path id="Path_336" data-name="Path 336" d="M41.023,12.9a6.9,6.9,0,1,1-6.9-6.9,6.9,6.9,0,0,1,6.9,6.9" fill="#facc20"/>
    <path id="Path_337" data-name="Path 337" d="M38.773,12.9c0,6.2-9.3,6.2-9.3,0s9.3-6.2,9.3,0" fill="#fdef34"/>
    <path id="Path_338" data-name="Path 338" d="M27.75,13.5A6.906,6.906,0,0,1,39.223,8.328,6.956,6.956,0,0,0,34.051,6a6.906,6.906,0,0,0-4.574,12.074A7.037,7.037,0,0,1,27.75,13.5Z" fill="#fff" opacity="0.2"/>
    <path id="Path_339" data-name="Path 339" d="M38.7,7.727A7.037,7.037,0,0,1,40.426,12.3a6.906,6.906,0,0,1-11.473,5.172A6.972,6.972,0,0,0,34.129,19.8a6.88,6.88,0,0,0,6.9-6.9A6.729,6.729,0,0,0,38.7,7.723Z" fill="#231f20" opacity="0.1"/>
    <g id="Group_141" data-name="Group 141" opacity="0.3" style="isolation: isolate">
      <g id="Group_140" data-name="Group 140">
        <g id="Group_139" data-name="Group 139" clip-path="url(#clip-path)">
          <path id="Path_340" data-name="Path 340" d="M40.051,9.3l-9.528,9.523a8.286,8.286,0,0,1-1.273-.976L39,8.023A8.747,8.747,0,0,1,40.051,9.3ZM38.1,7.2l-9.676,9.676c-.074-.148-.227-.3-.3-.449l9.523-9.449.45.226Z" fill="#fff"/>
        </g>
      </g>
    </g>
    <path id="Path_341" data-name="Path 341" d="M34.348,15.152v-1.8c.824.3.824.6.824.9.074.227,0,.75-.824.9Zm-.524-3c-.375-.226-.676-.226-.75-.75,0-.226.074-.6.75-.75Zm2.25,1.274c-.074-.227-.3-.824-1.726-1.125V10.574c.375.074.523.3.675.676a.5.5,0,0,0,.524.449c.148,0,.976-.226.148-1.351a1.884,1.884,0,0,0-1.273-.6V9.07H33.9v.676c-1.574.149-1.726,1.2-1.726,1.649,0,1.425,1.351,1.648,1.726,1.726V15c-.675-.148-.824-.824-.9-1.051a.42.42,0,0,0-.449-.3.554.554,0,0,0-.524.524,1.813,1.813,0,0,0,1.051,1.5,1.531,1.531,0,0,0,.824.226v.676h.524V15.9a1.864,1.864,0,0,0,.976-.3,1.7,1.7,0,0,0,.676-2.176Z" fill="#f7a90b"/>
    <g id="Group_144" data-name="Group 144" opacity="0.1" style="isolation: isolate">
      <g id="Group_143" data-name="Group 143">
        <g id="Group_142" data-name="Group 142" clip-path="url(#clip-path)">
          <path id="Path_342" data-name="Path 342" d="M18.824,37.648a2.217,2.217,0,0,1-1.426,1.8l-.9.3c-.75.227-1.352.375-1.352.375H19.5V30.6l-.676,7.05Z" fill="#231f20"/>
        </g>
      </g>
    </g>
    <g id="Group_147" data-name="Group 147" opacity="0.1" style="isolation: isolate">
      <g id="Group_146" data-name="Group 146">
        <g id="Group_145" data-name="Group 145" clip-path="url(#clip-path)">
          <path id="Path_343" data-name="Path 343" d="M25.426,37.648A2.217,2.217,0,0,1,24,39.449l-.9.3c-.75.227-1.352.375-1.352.375H26.1V30.6l-.676,7.05Z" fill="#231f20"/>
        </g>
      </g>
    </g>
    <g id="Group_150" data-name="Group 150" opacity="0.1" style="isolation: isolate">
      <g id="Group_149" data-name="Group 149">
        <g id="Group_148" data-name="Group 148" clip-path="url(#clip-path)">
          <path id="Path_344" data-name="Path 344" d="M32.1,37.648a2.219,2.219,0,0,1-1.426,1.8l-.977.3c-.75.227-1.351.375-1.351.375H32.7V30.6l-.6,7.05Z" fill="#231f20"/>
        </g>
      </g>
    </g>
    <g id="Group_153" data-name="Group 153" opacity="0.1" style="isolation: isolate">
      <g id="Group_152" data-name="Group 152">
        <g id="Group_151" data-name="Group 151" clip-path="url(#clip-path)">
          <path id="Path_345" data-name="Path 345" d="M12.227,37.648a2.219,2.219,0,0,1-1.426,1.8l-.9.3c-.75.227-1.351.375-1.351.375H12.9V30.6l-.675,7.05Z" fill="#231f20"/>
        </g>
      </g>
    </g>
  </g>
</svg>
