<svg xmlns="http://www.w3.org/2000/svg" width="32.083" height="32.083" viewBox="0 0 32.083 32.083">
  <path id="Path_767" data-name="Path 767" d="M66.334,64.877a2.776,2.776,0,0,0-1.54,2.506,1.17,1.17,0,1,1-2.339,0,5.141,5.141,0,0,1,2.575-4.45c1.611-1.081,2.522-1.766,2.522-3.273a2.608,2.608,0,0,0-1.8-2.378,4.389,4.389,0,0,0-1.7-.258,3.646,3.646,0,0,0-2.325.718,2.99,2.99,0,0,0-1.2,1.871,1.171,1.171,0,0,1-2.339-.113,5.188,5.188,0,0,1,2.07-3.576,5.958,5.958,0,0,1,3.76-1.235,6.55,6.55,0,0,1,2.734.486,4.908,4.908,0,0,1,3.134,4.485C69.89,62.487,68,63.756,66.334,64.877ZM63.54,73.4a1.672,1.672,0,1,1,1.181-.49A1.672,1.672,0,0,1,63.54,73.4Zm.5-25.4A16.041,16.041,0,1,0,80.083,64.041,16.045,16.045,0,0,0,64.041,48Z" transform="translate(-48 -48)" fill="#61688d"/>
</svg>
