<svg xmlns="http://www.w3.org/2000/svg" width="48" height="48" viewBox="0 0 48 48">
  <g id="Group_155" data-name="Group 155" style="isolation: isolate">
    <path id="Path_346" data-name="Path 346" d="M48,24A24,24,0,1,1,24,0,24,24,0,0,1,48,24" fill="#ebf0f1"/>
    <path id="Rectangle_155" data-name="Rectangle 155" d="M1.426,0H31.875A1.425,1.425,0,0,1,33.3,1.425V19.5a1.426,1.426,0,0,1-1.426,1.426H1.425A1.425,1.425,0,0,1,0,19.5V1.426A1.426,1.426,0,0,1,1.426,0Z" transform="translate(7.348 12)" fill="#fff"/>
    <rect id="Rectangle_156" data-name="Rectangle 156" width="29.699" height="14.477" transform="translate(9.148 16.648)" fill="#00a8ea"/>
    <path id="Path_347" data-name="Path 347" d="M9.148,31.125l29.7-14.477V31.125Z" fill="#231f20" opacity="0.1"/>
    <path id="Path_348" data-name="Path 348" d="M41.4,33.523H30c-.375,0-.676.075-.676.149-.074.074-.226.3-.449.523a4.424,4.424,0,0,1-1.426.3h-6.9a5.176,5.176,0,0,1-1.125-.148,1.685,1.685,0,0,1-.75-.676A1.278,1.278,0,0,0,18,33.523H6.6a.594.594,0,0,0-.6.6v1.2a.594.594,0,0,0,.6.6H41.328a.594.594,0,0,0,.6-.6v-1.2a.5.5,0,0,0-.524-.6Z" fill="#695652"/>
    <path id="Path_349" data-name="Path 349" d="M24.523,14.324a.523.523,0,1,1-1.046,0,.523.523,0,1,1,1.046,0" fill="#474e5e"/>
    <path id="Path_350" data-name="Path 350" d="M29.625,19.125H18.375a.449.449,0,0,1,0-.9H29.7a.482.482,0,0,1,.449.449A.559.559,0,0,1,29.625,19.125Z" fill="#474e5e"/>
    <rect id="Rectangle_157" data-name="Rectangle 157" width="8.699" height="10.5" transform="translate(19.648 18.676)" fill="#cade49"/>
    <rect id="Rectangle_158" data-name="Rectangle 158" width="6" height="9.148" transform="translate(21 18.676)" fill="#aad643"/>
    <path id="Path_351" data-name="Path 351" d="M26.324,21.824c0,2.3-4.648,2.3-4.648,0s4.648-2.3,4.648,0" fill="#82c736"/>
    <path id="Path_352" data-name="Path 352" d="M22.875,27.75H21V25.875A1.856,1.856,0,0,1,22.875,27.75Zm4.125,0H25.125A1.856,1.856,0,0,1,27,25.875Z" fill="#82c736"/>
    <path id="Path_353" data-name="Path 353" d="M22.945,21.9h.825c-.149.375-.3.375-.375.375S23.094,22.273,22.945,21.9Zm1.352-.226c.074-.149.148-.3.375-.3a.351.351,0,0,1,.375.3Zm-.524.976c.075,0,.375-.148.524-.75h.75a.579.579,0,0,1-.3.3.2.2,0,0,0-.226.227c0,.074.074.449.6.074.074-.074.227-.148.227-.6h.3v-.226h-.3c-.075-.676-.524-.75-.75-.75a.779.779,0,0,0-.75.75h-.825a.513.513,0,0,1,.45-.375c.148-.074.148-.149.148-.227a.241.241,0,0,0-.226-.226.92.92,0,0,0-.676.449.57.57,0,0,0-.074.375h-.3V21.9h.3a1.076,1.076,0,0,0,.148.449.72.72,0,0,0,.977.3Z" fill="#fff"/>
    <path id="Path_354" data-name="Path 354" d="M24.449,24.6a.449.449,0,0,1-.9,0,.449.449,0,1,1,.9,0" fill="#82c736"/>
  </g>
</svg>
