<svg xmlns="http://www.w3.org/2000/svg" width="508.234" height="267.146" viewBox="0 0 508.234 267.146">
  <g id="Group_111" data-name="Group 111" transform="translate(0 0)">
    <path id="Path_174" data-name="Path 174" d="M313.25,408.716s-59.139-63.5-10-132.24c43.6-60.994,94.429-56.825,131.723-32.073,15.884,10.542,61.679,1.3,100.657-60.765,53.155-84.638,237.408-33.3,203.813,96.913-16.258,63.017,49.479,65.307,15.984,128.3Z" transform="translate(-281.78 -142.209)" fill="#ebf3fa"/>
    <g id="Group_88" data-name="Group 88" transform="translate(298.509 198.757)">
      <path id="Path_175" data-name="Path 175" d="M1807.161,1154.832l4.536.746a1.933,1.933,0,0,1,.933.423,1.615,1.615,0,0,1,.536.826,1.378,1.378,0,0,1,.027.569l-10.436,63.253a1.666,1.666,0,0,1-1.911,1.256l-.09-.013-4.536-.746-.09-.016a1.663,1.663,0,0,1-1.406-1.8l10.437-63.253a1.385,1.385,0,0,1,.208-.531,1.623,1.623,0,0,1,.773-.611A1.937,1.937,0,0,1,1807.161,1154.832Z" transform="translate(-1794.682 -1154.806)" fill="#ffb93e"/>
      <path id="Path_176" data-name="Path 176" d="M1808.225,1318.449l-5.591,33.887a1.6,1.6,0,0,1-1.883,1.092l-.09-.013-4.536-.746-.09-.016a1.6,1.6,0,0,1-1.433-1.637l4.9-29.725A15.172,15.172,0,0,0,1808.225,1318.449Z" transform="translate(-1794.587 -1286.328)" fill="#ffa412"/>
      <g id="Group_87" data-name="Group 87" transform="translate(3.624 0.128)">
        <rect id="Rectangle_31" data-name="Rectangle 31" width="0.729" height="8.14" transform="translate(5.719 8.023) rotate(-80.616)" fill="#ffa412"/>
        <rect id="Rectangle_32" data-name="Rectangle 32" width="0.729" height="8.14" transform="translate(5.317 10.459) rotate(-80.643)" fill="#ffa412"/>
        <rect id="Rectangle_33" data-name="Rectangle 33" width="0.729" height="8.141" transform="translate(4.836 13.376) rotate(-80.627)" fill="#ffa412"/>
        <rect id="Rectangle_34" data-name="Rectangle 34" width="0.729" height="8.141" transform="translate(4.098 17.849) rotate(-80.631)" fill="#ffa412"/>
        <rect id="Rectangle_35" data-name="Rectangle 35" width="0.729" height="8.14" transform="translate(3.317 22.579) rotate(-80.629)" fill="#ffa412"/>
        <rect id="Rectangle_36" data-name="Rectangle 36" width="0.729" height="8.141" transform="translate(2.121 29.831) rotate(-80.642)" fill="#ffa412"/>
        <rect id="Rectangle_37" data-name="Rectangle 37" width="0.729" height="8.141" transform="translate(1 36.618) rotate(-80.615)" fill="#ffa412"/>
        <rect id="Rectangle_38" data-name="Rectangle 38" width="0.729" height="8.141" transform="translate(0 42.682) rotate(-80.631)" fill="#ffa412"/>
        <rect id="Rectangle_39" data-name="Rectangle 39" width="0.729" height="8.141" transform="translate(6.101 5.709) rotate(-80.642)" fill="#ffa412"/>
        <rect id="Rectangle_40" data-name="Rectangle 40" width="0.729" height="8.141" transform="translate(6.353 4.178) rotate(-80.629)" fill="#ffa412"/>
        <rect id="Rectangle_41" data-name="Rectangle 41" width="0.729" height="8.141" transform="translate(6.597 2.701) rotate(-80.642)" fill="#ffa412"/>
        <path id="Path_177" data-name="Path 177" d="M1847.592,1160.638l8.033,1.321.074-.449a1.348,1.348,0,0,0,.017-.275l-7.977-1.312a1.324,1.324,0,0,0-.072.265Z" transform="translate(-1840.812 -1159.047)" fill="#ffa412"/>
        <path id="Path_178" data-name="Path 178" d="M1849.031,1156.071l7.8,1.282a1.615,1.615,0,0,0-.536-.826l-6.488-1.067A1.623,1.623,0,0,0,1849.031,1156.071Z" transform="translate(-1841.969 -1155.46)" fill="#ffa412"/>
      </g>
    </g>
    <g id="Group_90" data-name="Group 90" transform="translate(306.738 198.757)">
      <path id="Path_179" data-name="Path 179" d="M1849.087,1154.832l4.536.746a1.935,1.935,0,0,1,.933.423,1.616,1.616,0,0,1,.536.826,1.33,1.33,0,0,1,.043.295,1.311,1.311,0,0,1-.016.275l-10.437,63.253a1.666,1.666,0,0,1-1.911,1.256l-.09-.013-4.536-.746-.089-.016a1.664,1.664,0,0,1-1.406-1.8l10.437-63.253a1.379,1.379,0,0,1,.208-.531,1.622,1.622,0,0,1,.773-.611A1.938,1.938,0,0,1,1849.087,1154.832Z" transform="translate(-1836.608 -1154.806)" fill="#ffb93e"/>
      <path id="Path_180" data-name="Path 180" d="M1850.151,1318.449l-5.591,33.887a1.6,1.6,0,0,1-1.884,1.092l-.09-.013-4.536-.746-.089-.016a1.6,1.6,0,0,1-1.433-1.637l4.9-29.725A15.171,15.171,0,0,0,1850.151,1318.449Z" transform="translate(-1836.512 -1286.328)" fill="#ffa412"/>
      <g id="Group_89" data-name="Group 89" transform="translate(3.624 0.128)">
        <rect id="Rectangle_42" data-name="Rectangle 42" width="0.729" height="8.141" transform="translate(5.718 8.023) rotate(-80.616)" fill="#ffa412"/>
        <rect id="Rectangle_43" data-name="Rectangle 43" width="0.729" height="8.14" transform="matrix(0.163, -0.987, 0.987, 0.163, 5.317, 10.459)" fill="#ffa412"/>
        <rect id="Rectangle_44" data-name="Rectangle 44" width="0.729" height="8.141" transform="translate(4.835 13.376) rotate(-80.627)" fill="#ffa412"/>
        <rect id="Rectangle_45" data-name="Rectangle 45" width="0.729" height="8.141" transform="translate(4.097 17.849) rotate(-80.629)" fill="#ffa412"/>
        <rect id="Rectangle_46" data-name="Rectangle 46" width="0.729" height="8.14" transform="translate(3.317 22.579) rotate(-80.629)" fill="#ffa412"/>
        <rect id="Rectangle_47" data-name="Rectangle 47" width="0.729" height="8.141" transform="translate(2.12 29.83) rotate(-80.627)" fill="#ffa412"/>
        <rect id="Rectangle_48" data-name="Rectangle 48" width="0.729" height="8.141" transform="translate(1 36.619) rotate(-80.629)" fill="#ffa412"/>
        <rect id="Rectangle_49" data-name="Rectangle 49" width="0.729" height="8.141" transform="translate(0 42.682) rotate(-80.629)" fill="#ffa412"/>
        <rect id="Rectangle_50" data-name="Rectangle 50" width="0.729" height="8.14" transform="translate(6.101 5.708) rotate(-80.627)" fill="#ffa412"/>
        <rect id="Rectangle_51" data-name="Rectangle 51" width="0.729" height="8.141" transform="matrix(0.163, -0.987, 0.987, 0.163, 6.353, 4.179)" fill="#ffa412"/>
        <rect id="Rectangle_52" data-name="Rectangle 52" width="0.729" height="8.141" transform="translate(6.597 2.701) rotate(-80.642)" fill="#ffa412"/>
        <path id="Path_181" data-name="Path 181" d="M1889.518,1160.638l8.033,1.321.074-.449a1.313,1.313,0,0,0,.016-.275l-7.977-1.312a1.332,1.332,0,0,0-.072.265Z" transform="translate(-1882.738 -1159.047)" fill="#ffa412"/>
        <path id="Path_182" data-name="Path 182" d="M1890.957,1156.071l7.8,1.282a1.617,1.617,0,0,0-.536-.826l-6.488-1.067A1.623,1.623,0,0,0,1890.957,1156.071Z" transform="translate(-1883.895 -1155.46)" fill="#ffa412"/>
      </g>
    </g>
    <g id="Group_96" data-name="Group 96" transform="translate(215.064 176.843)">
      <g id="Group_92" data-name="Group 92" transform="translate(6.84 80.736)">
        <path id="Path_183" data-name="Path 183" d="M1471.527,1456.418l-.008,4.6a1.936,1.936,0,0,1-.268.989,1.618,1.618,0,0,1-.729.661,1.308,1.308,0,0,1-.284.09,1.325,1.325,0,0,1-.273.028l-64.108-.152a1.666,1.666,0,0,1-1.546-1.684c0-.03,0-.061,0-.091l.008-4.6c0-.03,0-.061,0-.091a1.664,1.664,0,0,1,1.553-1.677l64.108.152a1.346,1.346,0,0,1,.273.029,1.327,1.327,0,0,1,.284.092,1.616,1.616,0,0,1,.727.665A1.934,1.934,0,0,1,1471.527,1456.418Z" transform="translate(-1404.308 -1454.49)" fill="#ffb93e"/>
        <path id="Path_184" data-name="Path 184" d="M1440.035,1462.71l-34.345-.081a1.6,1.6,0,0,1-1.38-1.684c0-.03,0-.061,0-.091l.008-4.6c0-.03,0-.06,0-.091a1.6,1.6,0,0,1,1.386-1.677l30.127.072A15.174,15.174,0,0,0,1440.035,1462.71Z" transform="translate(-1404.308 -1454.488)" fill="#ffa412"/>
        <g id="Group_91" data-name="Group 91" transform="translate(23.548 0.053)">
          <rect id="Rectangle_53" data-name="Rectangle 53" width="8.14" height="0.729" transform="translate(35.127 8.224) rotate(-89.864)" fill="#ffa412"/>
          <rect id="Rectangle_54" data-name="Rectangle 54" width="8.141" height="0.729" transform="translate(32.661 8.218) rotate(-89.864)" fill="#ffa412"/>
          <rect id="Rectangle_55" data-name="Rectangle 55" width="8.141" height="0.729" transform="translate(29.702 8.211) rotate(-89.849)" fill="#ffa412"/>
          <rect id="Rectangle_56" data-name="Rectangle 56" width="8.141" height="0.729" transform="matrix(0.002, -1, 1, 0.002, 25.17, 8.2)" fill="#ffa412"/>
          <rect id="Rectangle_57" data-name="Rectangle 57" width="8.141" height="0.728" transform="translate(20.376 8.189) rotate(-89.864)" fill="#ffa412"/>
          <rect id="Rectangle_58" data-name="Rectangle 58" width="8.141" height="0.729" transform="translate(13.027 8.172) rotate(-89.864)" fill="#ffa412"/>
          <rect id="Rectangle_59" data-name="Rectangle 59" width="8.141" height="0.729" transform="translate(6.145 8.155) rotate(-89.864)" fill="#ffa412"/>
          <rect id="Rectangle_60" data-name="Rectangle 60" width="8.141" height="0.729" transform="matrix(0.003, -1, 1, 0.003, 0, 8.141)" fill="#ffa412"/>
          <rect id="Rectangle_61" data-name="Rectangle 61" width="8.141" height="0.729" transform="translate(37.475 8.23) rotate(-89.864)" fill="#ffa412"/>
          <rect id="Rectangle_62" data-name="Rectangle 62" width="8.14" height="0.729" transform="translate(39.027 8.233) rotate(-89.88)" fill="#ffa412"/>
          <rect id="Rectangle_63" data-name="Rectangle 63" width="8.14" height="0.729" transform="translate(40.524 8.237) rotate(-89.864)" fill="#ffa412"/>
          <path id="Path_185" data-name="Path 185" d="M1736.5,1455.26l-.015,8.14h.455a1.337,1.337,0,0,0,.273-.028l.015-8.084a1.332,1.332,0,0,0-.273-.029Z" transform="translate(-1694.828 -1455.161)" fill="#ffa412"/>
          <path id="Path_186" data-name="Path 186" d="M1741.656,1455.881l-.014,7.9a1.617,1.617,0,0,0,.729-.661l.012-6.576A1.618,1.618,0,0,0,1741.656,1455.881Z" transform="translate(-1698.976 -1455.66)" fill="#ffa412"/>
        </g>
      </g>
      <g id="Group_94" data-name="Group 94" transform="translate(0 72.58)">
        <path id="Path_187" data-name="Path 187" d="M1436.682,1414.862l-.008,4.6a1.938,1.938,0,0,1-.268.989,1.618,1.618,0,0,1-.729.661,1.387,1.387,0,0,1-.557.118l-64.108-.152a1.666,1.666,0,0,1-1.546-1.684c0-.03,0-.061,0-.091l.008-4.6c0-.03,0-.06,0-.091a1.663,1.663,0,0,1,1.552-1.677l64.108.152c.041,0,.082,0,.122.006a.447.447,0,0,1,.052.006.55.55,0,0,1,.057.009l.041.008a1.339,1.339,0,0,1,.283.092l.04.019.039.02.078.043.044.029c.014.009.026.017.039.027s.049.034.073.053.054.044.079.068.04.036.06.056l0,0,.039.04a1.562,1.562,0,0,1,.112.132l.031.041c.01.014.02.028.03.043s.039.06.057.09A1.932,1.932,0,0,1,1436.682,1414.862Z" transform="translate(-1369.463 -1412.934)" fill="#ffb93e"/>
        <path id="Path_188" data-name="Path 188" d="M1405.19,1421.154l-34.345-.082a1.6,1.6,0,0,1-1.38-1.684c0-.03,0-.061,0-.091l.008-4.6c0-.03,0-.06,0-.091a1.6,1.6,0,0,1,1.386-1.677l30.126.072c.014.066.027.133.042.2A15.06,15.06,0,0,0,1405.19,1421.154Z" transform="translate(-1369.463 -1412.932)" fill="#ffa412"/>
        <g id="Group_93" data-name="Group 93" transform="translate(23.55 0.053)">
          <rect id="Rectangle_64" data-name="Rectangle 64" width="8.14" height="0.729" transform="translate(35.125 8.224) rotate(-89.866)" fill="#ffa412"/>
          <rect id="Rectangle_65" data-name="Rectangle 65" width="8.141" height="0.728" transform="matrix(0.002, -1, 1, 0.002, 32.659, 8.218)" fill="#ffa412"/>
          <rect id="Rectangle_66" data-name="Rectangle 66" width="8.141" height="0.729" transform="translate(29.701 8.211) rotate(-89.864)" fill="#ffa412"/>
          <rect id="Rectangle_67" data-name="Rectangle 67" width="8.14" height="0.728" transform="translate(25.168 8.2) rotate(-89.864)" fill="#ffa412"/>
          <rect id="Rectangle_68" data-name="Rectangle 68" width="8.14" height="0.729" transform="matrix(0.002, -1, 1, 0.002, 20.375, 8.189)" fill="#ffa412"/>
          <rect id="Rectangle_69" data-name="Rectangle 69" width="8.141" height="0.728" transform="translate(13.024 8.171) rotate(-89.85)" fill="#ffa412"/>
          <rect id="Rectangle_70" data-name="Rectangle 70" width="8.14" height="0.729" transform="translate(6.144 8.155) rotate(-89.864)" fill="#ffa412"/>
          <rect id="Rectangle_71" data-name="Rectangle 71" width="8.141" height="0.729" transform="matrix(0.002, -1, 1, 0.002, 0, 8.141)" fill="#ffa412"/>
          <rect id="Rectangle_72" data-name="Rectangle 72" width="8.141" height="0.729" transform="matrix(0.002, -1, 1, 0.002, 37.473, 8.229)" fill="#ffa412"/>
          <rect id="Rectangle_73" data-name="Rectangle 73" width="8.141" height="0.728" transform="translate(39.024 8.233) rotate(-89.864)" fill="#ffa412"/>
          <rect id="Rectangle_74" data-name="Rectangle 74" width="8.141" height="0.729" transform="translate(40.522 8.237) rotate(-89.864)" fill="#ffa412"/>
          <path id="Path_189" data-name="Path 189" d="M1701.651,1413.7l-.015,8.141h.455a1.339,1.339,0,0,0,.274-.028l.015-8.084a1.318,1.318,0,0,0-.274-.029Z" transform="translate(-1659.985 -1413.604)" fill="#ffa412"/>
          <path id="Path_190" data-name="Path 190" d="M1706.812,1414.324l-.014,7.9a1.62,1.62,0,0,0,.729-.661l.012-6.576A1.617,1.617,0,0,0,1706.812,1414.324Z" transform="translate(-1664.133 -1414.104)" fill="#ffa412"/>
        </g>
      </g>
      <path id="Path_191" data-name="Path 191" d="M1453.63,1374.451l-.008,4.6a1.935,1.935,0,0,1-.268.989,1.618,1.618,0,0,1-.729.661,1.319,1.319,0,0,1-.284.09,1.341,1.341,0,0,1-.274.028l-64.108-.152a1.385,1.385,0,0,1-.715-.2,1.8,1.8,0,0,1-.826-1.4c0-.026,0-.053,0-.079s0-.061,0-.091l.008-4.6c0-.03,0-.061,0-.091a1.664,1.664,0,0,1,1.552-1.677l64.107.152a1.382,1.382,0,0,1,.274.029,1.318,1.318,0,0,1,.284.092,1.62,1.62,0,0,1,.727.665A1.934,1.934,0,0,1,1453.63,1374.451Z" transform="translate(-1383.085 -1307.875)" fill="#ffb93e"/>
      <path id="Path_192" data-name="Path 192" d="M1422.138,1380.744l-34.345-.082a1.138,1.138,0,0,1-.638-.2,1.843,1.843,0,0,1-.737-1.4c0-.026,0-.052,0-.079s0-.061,0-.091l.008-4.6c0-.03,0-.061,0-.091a1.6,1.6,0,0,1,1.386-1.677l30.127.072a15.327,15.327,0,0,0,3.992,7.949Q1422.032,1380.644,1422.138,1380.744Z" transform="translate(-1383.085 -1307.874)" fill="#ffa412"/>
      <path id="Path_193" data-name="Path 193" d="M1461.529,1333l-.008,4.6a1.936,1.936,0,0,1-.268.989,1.616,1.616,0,0,1-.729.661,1.308,1.308,0,0,1-.284.091,1.333,1.333,0,0,1-.273.028l-64.108-.152a1.666,1.666,0,0,1-1.547-1.684c0-.031,0-.061,0-.091l.009-4.6c0-.03,0-.06,0-.091a1.7,1.7,0,0,1,1.369-1.665,1.247,1.247,0,0,1,.184-.012l64.108.152a1.384,1.384,0,0,1,.557.12,1.621,1.621,0,0,1,.727.665A1.937,1.937,0,0,1,1461.529,1333Z" transform="translate(-1389.433 -1274.557)" fill="#ffb93e"/>
      <path id="Path_194" data-name="Path 194" d="M1430.037,1339.287l-34.345-.082a1.6,1.6,0,0,1-1.38-1.684c0-.031,0-.061,0-.091l.009-4.6c0-.03,0-.06,0-.091a1.657,1.657,0,0,1,1.222-1.665,1.021,1.021,0,0,1,.164-.013l30.127.072s0,.009,0,.013A15.17,15.17,0,0,0,1430.037,1339.287Z" transform="translate(-1389.433 -1274.555)" fill="#ffa412"/>
      <path id="Path_195" data-name="Path 195" d="M1437.592,1291.531l-.009,4.6a1.932,1.932,0,0,1-.268.988,1.614,1.614,0,0,1-.729.661,1.314,1.314,0,0,1-.284.091c-.03.006-.06.011-.09.015l-.051.006-.05,0c-.027,0-.055,0-.083,0l-64.108-.152a1.666,1.666,0,0,1-1.546-1.684c0-.03,0-.061,0-.091l.008-4.6c0-.03,0-.061,0-.091s0-.05,0-.074a1.728,1.728,0,0,1,1.166-1.548l.047-.013a1.367,1.367,0,0,1,.335-.041l64.108.152c.047,0,.094,0,.139.007l.062.008h0l.072.014a1.313,1.313,0,0,1,.284.092,1.619,1.619,0,0,1,.727.665A1.938,1.938,0,0,1,1437.592,1291.531Z" transform="translate(-1370.195 -1241.231)" fill="#ffb93e"/>
      <path id="Path_196" data-name="Path 196" d="M1406.1,1297.823l-34.345-.081a1.6,1.6,0,0,1-1.38-1.684c0-.03,0-.061,0-.091l.008-4.6c0-.031,0-.061,0-.091s0-.05,0-.074a1.7,1.7,0,0,1,1.077-1.56.5.5,0,0,1,.06-.016,1.082,1.082,0,0,1,.245-.028l30.127.071c0,.02.008.038.012.058a15.149,15.149,0,0,0,4.177,8.08Z" transform="translate(-1370.195 -1241.229)" fill="#ffa412"/>
      <path id="Path_197" data-name="Path 197" d="M1436.981,1250.35l-.008,4.6a1.931,1.931,0,0,1-.268.988,1.617,1.617,0,0,1-.729.661,1.286,1.286,0,0,1-.221.076h0c-.021.006-.04.011-.061.015a1.318,1.318,0,0,1-.273.028l-64.108-.152a1.226,1.226,0,0,1-.2-.016.625.625,0,0,1-.076-.014,1.717,1.717,0,0,1-1.269-1.654c0-.031,0-.061,0-.091l.008-4.6c0-.031,0-.061,0-.091a1.664,1.664,0,0,1,1.553-1.677l64.108.152c.041,0,.082,0,.123.006l.052.006a.568.568,0,0,1,.058.009l.041.008a1.3,1.3,0,0,1,.284.092l.04.019.039.02.078.043c.028.018.057.035.084.055s.049.035.073.053.054.044.079.068.04.036.06.056l0,0,.039.04a1.639,1.639,0,0,1,.112.132c.011.014.021.027.031.041l.03.043c.02.029.039.06.057.09A1.934,1.934,0,0,1,1436.981,1250.35Z" transform="translate(-1369.704 -1208.133)" fill="#ffb93e"/>
      <path id="Path_198" data-name="Path 198" d="M1405.489,1256.642l-34.345-.081-.081,0c-.03,0-.059-.006-.089-.011a1.66,1.66,0,0,1-1.21-1.67c0-.031,0-.061,0-.091l.008-4.6c0-.031,0-.061,0-.091a1.6,1.6,0,0,1,1.386-1.677l30.127.071c.013.067.027.133.042.2a15.108,15.108,0,0,0,4.1,7.892Z" transform="translate(-1369.704 -1208.132)" fill="#ffa412"/>
      <path id="Path_199" data-name="Path 199" d="M1453.93,1209.939l-.008,4.6a1.937,1.937,0,0,1-.268.988,1.616,1.616,0,0,1-.729.661,1.382,1.382,0,0,1-.557.118l-64.108-.152a1.389,1.389,0,0,1-.715-.2,1.8,1.8,0,0,1-.827-1.4c0-.026,0-.053,0-.079s0-.061,0-.091l.008-4.6c0-.03,0-.061,0-.091a1.663,1.663,0,0,1,1.553-1.677l64.108.152a1.337,1.337,0,0,1,.274.029,1.311,1.311,0,0,1,.284.092,1.618,1.618,0,0,1,.727.665A1.936,1.936,0,0,1,1453.93,1209.939Z" transform="translate(-1383.325 -1175.655)" fill="#ffb93e"/>
      <path id="Path_200" data-name="Path 200" d="M1422.438,1216.231l-34.345-.081a1.139,1.139,0,0,1-.638-.2,1.842,1.842,0,0,1-.737-1.4c0-.026,0-.053,0-.079s0-.06,0-.091l.008-4.6c0-.03,0-.061,0-.091a1.6,1.6,0,0,1,1.386-1.677l30.127.071a15.328,15.328,0,0,0,3.992,7.95Q1422.331,1216.132,1422.438,1216.231Z" transform="translate(-1383.325 -1175.653)" fill="#ffa412"/>
      <path id="Path_201" data-name="Path 201" d="M1480.7,1168.529l-.008,4.6a1.936,1.936,0,0,1-.268.989,1.615,1.615,0,0,1-.729.661,1.38,1.38,0,0,1-.558.118l-64.108-.152a1.666,1.666,0,0,1-1.546-1.684c0-.03,0-.06,0-.091l.008-4.6c0-.03,0-.061,0-.091a1.7,1.7,0,0,1,1.369-1.665,1.285,1.285,0,0,1,.183-.012l64.108.152a1.383,1.383,0,0,1,.557.12,1.621,1.621,0,0,1,.727.665A1.937,1.937,0,0,1,1480.7,1168.529Z" transform="translate(-1404.838 -1142.372)" fill="#ffb93e"/>
      <path id="Path_202" data-name="Path 202" d="M1449.2,1174.821l-34.345-.082a1.6,1.6,0,0,1-1.38-1.684c0-.03,0-.06,0-.091l.008-4.6c0-.03,0-.061,0-.091a1.658,1.658,0,0,1,1.223-1.665,1.006,1.006,0,0,1,.164-.012l30.127.072,0,.013A15.164,15.164,0,0,0,1449.2,1174.821Z" transform="translate(-1404.838 -1142.371)" fill="#ffa412"/>
      <path id="Path_203" data-name="Path 203" d="M1437.891,1127.019l-.008,4.6a1.935,1.935,0,0,1-.268.989,1.617,1.617,0,0,1-.729.661,1.3,1.3,0,0,1-.284.09c-.03.006-.06.012-.09.015a.693.693,0,0,1-.072.008l-.036,0-.076,0-64.108-.152a1.666,1.666,0,0,1-1.546-1.684c0-.03,0-.061,0-.091l.008-4.6c0-.03,0-.061,0-.091a1.664,1.664,0,0,1,1.553-1.677l64.107.152c.028,0,.055,0,.082,0a1.335,1.335,0,0,1,.191.026,1.3,1.3,0,0,1,.284.092,1.411,1.411,0,0,1,.135.069c.027.016.054.031.08.049l.009.006c.026.018.052.037.078.056l.013.01a.89.89,0,0,1,.069.058,1.353,1.353,0,0,1,.154.154c.015.017.03.034.044.052l.008.01a.355.355,0,0,1,.027.033l0,.007q.024.031.046.065c.021.031.042.063.061.1A1.934,1.934,0,0,1,1437.891,1127.019Z" transform="translate(-1370.436 -1109.01)" fill="#ffb93e"/>
      <path id="Path_204" data-name="Path 204" d="M1406.4,1133.311l-34.345-.081a1.6,1.6,0,0,1-1.38-1.684c0-.03,0-.061,0-.091l.008-4.6c0-.03,0-.061,0-.091a1.6,1.6,0,0,1,1.386-1.677l30.127.072c.012.062.025.125.04.188a15.072,15.072,0,0,0,4.15,7.95Z" transform="translate(-1370.436 -1109.008)" fill="#ffa412"/>
      <path id="Path_205" data-name="Path 205" d="M1461.977,1086.56l-.008,4.6a1.937,1.937,0,0,1-.268.988,1.618,1.618,0,0,1-.729.661,1.388,1.388,0,0,1-.557.118l-64.108-.152a1.377,1.377,0,0,1-.693-.189,1.8,1.8,0,0,1-.85-1.422c0-.024,0-.048,0-.073s0-.061,0-.091l.009-4.6c0-.031,0-.061,0-.091a1.7,1.7,0,0,1,1.369-1.665,1.244,1.244,0,0,1,.184-.012l64.108.152a1.382,1.382,0,0,1,.557.12,1.623,1.623,0,0,1,.727.665A1.933,1.933,0,0,1,1461.977,1086.56Z" transform="translate(-1389.794 -1076.493)" fill="#ffb93e"/>
      <path id="Path_206" data-name="Path 206" d="M1430.486,1092.853l-34.345-.082a1.13,1.13,0,0,1-.618-.19,1.836,1.836,0,0,1-.758-1.422c0-.024,0-.048,0-.073s0-.06,0-.091l.009-4.6c0-.031,0-.061,0-.091a1.658,1.658,0,0,1,1.222-1.665.994.994,0,0,1,.164-.012l30.127.071,0,.013a15.306,15.306,0,0,0,4,7.949C1430.353,1092.728,1430.419,1092.79,1430.486,1092.853Z" transform="translate(-1389.794 -1076.491)" fill="#ffa412"/>
      <path id="Path_207" data-name="Path 207" d="M1438.04,1045.094l-.008,4.6a1.936,1.936,0,0,1-.268.988,1.616,1.616,0,0,1-.729.662,1.319,1.319,0,0,1-.284.09c-.03.006-.06.011-.09.016l-.051.006-.051,0c-.027,0-.055,0-.082,0l-64.108-.152a1.665,1.665,0,0,1-1.546-1.684c0-.031,0-.061,0-.091l.008-4.6c0-.03,0-.061,0-.091a1.664,1.664,0,0,1,1.552-1.677l64.108.152a1.35,1.35,0,0,1,.273.029,1.3,1.3,0,0,1,.284.092,1.621,1.621,0,0,1,.727.665A1.936,1.936,0,0,1,1438.04,1045.094Z" transform="translate(-1370.555 -1043.166)" fill="#ffb93e"/>
      <path id="Path_208" data-name="Path 208" d="M1406.549,1051.386l-34.345-.081a1.6,1.6,0,0,1-1.38-1.684c0-.031,0-.061,0-.091l.008-4.6c0-.03,0-.061,0-.091a1.6,1.6,0,0,1,1.386-1.677l30.128.071a15.18,15.18,0,0,0,4.189,8.138Z" transform="translate(-1370.555 -1043.164)" fill="#ffa412"/>
      <g id="Group_95" data-name="Group 95" transform="translate(23.61 0.053)">
        <rect id="Rectangle_75" data-name="Rectangle 75" width="8.141" height="0.729" transform="translate(38.392 72.872) rotate(-89.864)" fill="#ffa412"/>
        <rect id="Rectangle_76" data-name="Rectangle 76" width="8.141" height="0.729" transform="translate(35.927 72.866) rotate(-89.88)" fill="#ffa412"/>
        <rect id="Rectangle_77" data-name="Rectangle 77" width="8.141" height="0.729" transform="matrix(0.002, -1, 1, 0.002, 32.969, 72.859)" fill="#ffa412"/>
        <rect id="Rectangle_78" data-name="Rectangle 78" width="8.141" height="0.729" transform="translate(28.435 72.848) rotate(-89.864)" fill="#ffa412"/>
        <rect id="Rectangle_79" data-name="Rectangle 79" width="8.141" height="0.729" transform="translate(23.641 72.836) rotate(-89.864)" fill="#ffa412"/>
        <rect id="Rectangle_80" data-name="Rectangle 80" width="8.141" height="0.729" transform="translate(16.292 72.819) rotate(-89.864)" fill="#ffa412"/>
        <rect id="Rectangle_81" data-name="Rectangle 81" width="8.141" height="0.729" transform="translate(9.411 72.803) rotate(-89.88)" fill="#ffa412"/>
        <rect id="Rectangle_82" data-name="Rectangle 82" width="8.14" height="0.728" transform="translate(3.266 72.788) rotate(-89.864)" fill="#ffa412"/>
        <rect id="Rectangle_83" data-name="Rectangle 83" width="8.14" height="0.729" transform="translate(40.74 72.877) rotate(-89.864)" fill="#ffa412"/>
        <rect id="Rectangle_84" data-name="Rectangle 84" width="8.14" height="0.729" transform="translate(42.292 72.881) rotate(-89.88)" fill="#ffa412"/>
        <rect id="Rectangle_85" data-name="Rectangle 85" width="8.141" height="0.729" transform="translate(43.789 72.884) rotate(-89.864)" fill="#ffa412"/>
        <path id="Path_209" data-name="Path 209" d="M1718.6,1373.292l-.015,8.141h.455a1.346,1.346,0,0,0,.274-.028l.015-8.084a1.364,1.364,0,0,0-.274-.029Z" transform="translate(-1673.668 -1308.546)" fill="#ffa412"/>
        <path id="Path_210" data-name="Path 210" d="M1723.76,1373.913l-.014,7.9a1.618,1.618,0,0,0,.729-.661l.012-6.576A1.619,1.619,0,0,0,1723.76,1373.913Z" transform="translate(-1677.816 -1309.045)" fill="#ffa412"/>
        <rect id="Rectangle_86" data-name="Rectangle 86" width="8.14" height="0.729" transform="translate(17.842 64.682) rotate(-89.864)" fill="#ffa412"/>
        <rect id="Rectangle_87" data-name="Rectangle 87" width="8.141" height="0.729" transform="matrix(0.002, -1, 1, 0.002, 10.961, 64.665)" fill="#ffa412"/>
        <rect id="Rectangle_88" data-name="Rectangle 88" width="8.141" height="0.729" transform="translate(4.816 64.651) rotate(-89.864)" fill="#ffa412"/>
        <path id="Path_211" data-name="Path 211" d="M1703.307,1241.044l.015-8.141h-.639c.034,0,.068-.009.1-.016l.015-8.084a1.314,1.314,0,0,0-.135-.021l.014-7.889h.284l-.014,7.82a1.615,1.615,0,0,0,.729-.661l.012-6.576a1.653,1.653,0,0,0-.577-.583h.254l.015-8.14-.728,0-.015,7.962a1.339,1.339,0,0,0-.233-.023h-.455l-.015,8.141h.135l-.015,8.083h.455c.028,0,.055,0,.083,0l-.015,8.132Z" transform="translate(-1660.286 -1176.302)" fill="#ffa412"/>
        <rect id="Rectangle_89" data-name="Rectangle 89" width="8.141" height="0.729" transform="translate(43.841 64.744) rotate(-89.864)" fill="#ffa412"/>
        <rect id="Rectangle_90" data-name="Rectangle 90" width="8.141" height="0.729" transform="translate(45.338 64.747) rotate(-89.85)" fill="#ffa412"/>
        <path id="Path_212" data-name="Path 212" d="M1726.5,1331.836l-.015,8.141h.455a1.341,1.341,0,0,0,.274-.028l.015-8.084a1.321,1.321,0,0,0-.273-.029Z" transform="translate(-1680.016 -1275.227)" fill="#ffa412"/>
        <path id="Path_213" data-name="Path 213" d="M1731.658,1332.457l-.014,7.9a1.616,1.616,0,0,0,.729-.661l.012-6.576A1.621,1.621,0,0,0,1731.658,1332.457Z" transform="translate(-1684.163 -1275.726)" fill="#ffa412"/>
        <path id="Path_214" data-name="Path 214" d="M1667.073,1265.339l.015-8.141h-.135l.015-8.082-.729,0-.015,8.141h.135l-.015,8.07-.711,0-.015,8.141.729,0,.015-8.128Z" transform="translate(-1631.097 -1208.742)" fill="#ffa412"/>
        <path id="Path_215" data-name="Path 215" d="M1641.934,1257.133h-.135l.015-8.082-.729,0-.015,8.141h.135l-.015,8.083h.18l-.015,8.128.728,0,.015-8.141h-.179Z" transform="translate(-1611.368 -1208.69)" fill="#ffa412"/>
        <path id="Path_216" data-name="Path 216" d="M1707.721,1290.991l-.014,7.9a1.615,1.615,0,0,0,.729-.661l.012-6.575A1.619,1.619,0,0,0,1707.721,1290.991Z" transform="translate(-1664.925 -1242.399)" fill="#ffa412"/>
        <path id="Path_217" data-name="Path 217" d="M1618.717,1249l-.729,0-.015,8.141h.135l-.015,8.07h-.081l-.015,8.14.728,0,.015-8.128h.08l.015-8.141h-.135Z" transform="translate(-1592.805 -1208.646)" fill="#ffa412"/>
        <path id="Path_218" data-name="Path 218" d="M1594.293,1248.938l-.729,0-.015,8.141h.135l-.015,8.082.728,0,.015-8.141h-.135Z" transform="translate(-1573.175 -1208.599)" fill="#ffa412"/>
        <path id="Path_219" data-name="Path 219" d="M1556.851,1248.849h-.729l-.015,8.14h.135l-.015,8.082.729,0,.015-8.141h-.135Z" transform="translate(-1543.082 -1208.528)" fill="#ffa412"/>
        <path id="Path_220" data-name="Path 220" d="M1521.794,1248.766l-.729,0-.015,8.141h.135l-.015,8.083.729,0,.015-8.141h-.135Z" transform="translate(-1514.906 -1208.461)" fill="#ffa412"/>
        <path id="Path_221" data-name="Path 221" d="M1490.49,1248.691l-.729,0-.015,8.141h.135l-.015,8.083.729,0,.015-8.14h-.135Z" transform="translate(-1489.746 -1208.401)" fill="#ffa412"/>
        <path id="Path_222" data-name="Path 222" d="M1681.407,1249.145l-.729,0-.015,8.141h.135l-.015,8.07h-.1l-.015,8.141.729,0,.015-8.128h.1l.015-8.141h-.135Z" transform="translate(-1643.19 -1208.766)" fill="#ffa412"/>
        <path id="Path_223" data-name="Path 223" d="M1686.968,1216.647h-.586l.015-7.94-.729,0-.015,8.141h.586l-.015,7.94h.135l-.015,8.082.729,0,.015-8.14h-.135Z" transform="translate(-1647.199 -1176.264)" fill="#ffa412"/>
        <rect id="Rectangle_91" data-name="Rectangle 91" width="8.14" height="0.728" transform="translate(35.985 40.575) rotate(-89.864)" fill="#ffa412"/>
        <path id="Path_224" data-name="Path 224" d="M1656.508,1216.578h-.355l-.015,8.141h.135l-.015,8.082.729,0,.015-8.141h-.135l.014-7.882h.355l.015-8.14-.729,0Z" transform="translate(-1623.478 -1176.212)" fill="#ffa412"/>
        <rect id="Rectangle_92" data-name="Rectangle 92" width="8.141" height="0.729" transform="translate(28.493 40.557) rotate(-89.849)" fill="#ffa412"/>
        <rect id="Rectangle_93" data-name="Rectangle 93" width="8.14" height="0.729" transform="translate(23.7 40.546) rotate(-89.864)" fill="#ffa412"/>
        <rect id="Rectangle_94" data-name="Rectangle 94" width="8.141" height="0.729" transform="translate(16.35 40.528) rotate(-89.866)" fill="#ffa412"/>
        <rect id="Rectangle_95" data-name="Rectangle 95" width="8.14" height="0.729" transform="matrix(0.002, -1, 1, 0.002, 9.47, 40.512)" fill="#ffa412"/>
        <rect id="Rectangle_96" data-name="Rectangle 96" width="8.141" height="0.729" transform="translate(3.325 40.497) rotate(-89.864)" fill="#ffa412"/>
        <path id="Path_225" data-name="Path 225" d="M1694.108,1216.672h-.264l-.015,8.14h.135l-.015,8.07-.683,0-.015,8.141.729,0,.015-8.128.683,0,.015-8.141h-.135l.014-7.882h.264l.015-8.14-.729,0Z" transform="translate(-1653.307 -1176.287)" fill="#ffa412"/>
        <rect id="Rectangle_97" data-name="Rectangle 97" width="8.141" height="0.729" transform="translate(43.847 40.594) rotate(-89.864)" fill="#ffa412"/>
        <path id="Path_226" data-name="Path 226" d="M1719.614,1216.9l.015-8.084a1.339,1.339,0,0,0-.274-.029h-.455l-.015,8.141h.455A1.325,1.325,0,0,0,1719.614,1216.9Z" transform="translate(-1673.909 -1176.326)" fill="#ffa412"/>
        <path id="Path_227" data-name="Path 227" d="M1724.774,1216.642l.012-6.575a1.619,1.619,0,0,0-.727-.665l-.014,7.9A1.619,1.619,0,0,0,1724.774,1216.642Z" transform="translate(-1678.056 -1176.825)" fill="#ffa412"/>
        <rect id="Rectangle_98" data-name="Rectangle 98" width="8.141" height="0.729" transform="translate(43.705 32.452) rotate(-89.864)" fill="#ffa412"/>
        <rect id="Rectangle_99" data-name="Rectangle 99" width="8.141" height="0.729" transform="translate(33.748 32.429) rotate(-89.864)" fill="#ffa412"/>
        <rect id="Rectangle_100" data-name="Rectangle 100" width="8.141" height="0.729" transform="translate(28.954 32.417) rotate(-89.864)" fill="#ffa412"/>
        <rect id="Rectangle_101" data-name="Rectangle 101" width="8.141" height="0.729" transform="translate(21.604 32.4) rotate(-89.864)" fill="#ffa412"/>
        <rect id="Rectangle_102" data-name="Rectangle 102" width="8.141" height="0.729" transform="translate(14.723 32.384) rotate(-89.864)" fill="#ffa412"/>
        <rect id="Rectangle_103" data-name="Rectangle 103" width="8.141" height="0.729" transform="translate(8.58 32.369) rotate(-89.88)" fill="#ffa412"/>
        <rect id="Rectangle_104" data-name="Rectangle 104" width="8.141" height="0.729" transform="translate(46.053 32.458) rotate(-89.864)" fill="#ffa412"/>
        <rect id="Rectangle_105" data-name="Rectangle 105" width="8.141" height="0.729" transform="translate(47.604 32.462) rotate(-89.864)" fill="#ffa412"/>
        <rect id="Rectangle_106" data-name="Rectangle 106" width="8.14" height="0.728" transform="matrix(0.002, -1, 1, 0.002, 49.101, 32.465)" fill="#ffa412"/>
        <path id="Path_228" data-name="Path 228" d="M1745.667,1167.371l-.015,8.141h.455a1.35,1.35,0,0,0,.274-.028l.015-8.084a1.357,1.357,0,0,0-.273-.029Z" transform="translate(-1695.422 -1143.044)" fill="#ffa412"/>
        <path id="Path_229" data-name="Path 229" d="M1750.827,1167.991l-.014,7.9a1.62,1.62,0,0,0,.729-.661l.012-6.576A1.62,1.62,0,0,0,1750.827,1167.991Z" transform="translate(-1699.57 -1143.542)" fill="#ffa412"/>
        <path id="Path_230" data-name="Path 230" d="M1666.764,1068.079l.729,0,.015-8.141-.711,0,.014-7.94.711,0,.015-8.141-.729,0-.015,8.128-.711,0-.015,8.141.711,0Z" transform="translate(-1631.458 -1043.775)" fill="#ffa412"/>
        <rect id="Rectangle_107" data-name="Rectangle 107" width="8.14" height="0.729" transform="translate(32.836 24.298) rotate(-89.849)" fill="#ffa412"/>
        <rect id="Rectangle_108" data-name="Rectangle 108" width="8.141" height="0.729" transform="translate(20.552 24.27) rotate(-89.864)" fill="#ffa412"/>
        <rect id="Rectangle_109" data-name="Rectangle 109" width="8.141" height="0.729" transform="matrix(0.002, -1, 1, 0.002, 13.202, 24.252)" fill="#ffa412"/>
        <rect id="Rectangle_110" data-name="Rectangle 110" width="8.14" height="0.729" transform="translate(6.321 24.236) rotate(-89.864)" fill="#ffa412"/>
        <rect id="Rectangle_111" data-name="Rectangle 111" width="8.141" height="0.729" transform="translate(0.177 24.221) rotate(-89.866)" fill="#ffa412"/>
        <path id="Path_231" data-name="Path 231" d="M1681.221,1068.108h.645l-.015,8.128.729,0,.015-8.141h-.645l.015-8.128h-.1l.014-7.94h.1l.015-8.14-.729,0-.015,8.128h-.1l-.015,8.141h.1Z" transform="translate(-1643.568 -1043.798)" fill="#ffa412"/>
        <rect id="Rectangle_112" data-name="Rectangle 112" width="8.141" height="0.729" transform="translate(39.204 24.314) rotate(-89.895)" fill="#ffa412"/>
        <path id="Path_232" data-name="Path 232" d="M1696.648,1060.2h.128l.015-8.141h-.639c.034,0,.068-.009.1-.016l.015-8.084a1.321,1.321,0,0,0-.273-.029h-.455l-.015,8.141h.455c.028,0,.055,0,.083,0l-.015,7.948c-.028,0-.055,0-.082,0h-.455l-.015,8.128h-.4l.015-8.128h-.683l.014-7.94.683,0,.015-8.141-.729,0-.015,8.128-.683,0-.015,8.141.683,0-.014,7.953h.554l-.015,8.128.729,0,.015-8.128h.3a1.331,1.331,0,0,0,.274-.028l.015-7.924h.284l-.014,7.833a1.616,1.616,0,0,0,.729-.661l.012-6.576A1.647,1.647,0,0,0,1696.648,1060.2Z" transform="translate(-1653.667 -1043.827)" fill="#ffa412"/>
        <rect id="Rectangle_113" data-name="Rectangle 113" width="8.14" height="0.728" transform="translate(17.931 16.31) rotate(-89.88)" fill="#ffa412"/>
        <rect id="Rectangle_114" data-name="Rectangle 114" width="8.141" height="0.729" transform="translate(11.049 16.294) rotate(-89.864)" fill="#ffa412"/>
        <rect id="Rectangle_115" data-name="Rectangle 115" width="8.141" height="0.729" transform="translate(4.904 16.28) rotate(-89.864)" fill="#ffa412"/>
        <rect id="Rectangle_116" data-name="Rectangle 116" width="8.141" height="0.728" transform="matrix(0.002, -1, 1, 0.002, 43.93, 16.372)" fill="#ffa412"/>
        <rect id="Rectangle_117" data-name="Rectangle 117" width="8.141" height="0.728" transform="translate(45.427 16.376) rotate(-89.864)" fill="#ffa412"/>
        <path id="Path_233" data-name="Path 233" d="M1726.948,1085.4l-.015,8.141h.455a1.331,1.331,0,0,0,.274-.028l.015-8.084a1.329,1.329,0,0,0-.273-.029Z" transform="translate(-1680.377 -1077.163)" fill="#ffa412"/>
        <path id="Path_234" data-name="Path 234" d="M1732.822,1093.262l.012-6.576a1.621,1.621,0,0,0-.727-.665l-.014,7.9A1.617,1.617,0,0,0,1732.822,1093.262Z" transform="translate(-1684.524 -1077.662)" fill="#ffa412"/>
        <rect id="Rectangle_118" data-name="Rectangle 118" width="8.141" height="0.729" transform="translate(32.866 8.218) rotate(-89.864)" fill="#ffa412"/>
        <path id="Path_235" data-name="Path 235" d="M1642.754,1043.795l-.729,0-.015,8.141h.18l-.014,7.94H1642l-.015,8.141.729,0,.015-7.953h.18l.015-8.141h-.18Z" transform="translate(-1612.1 -1043.722)" fill="#ffa412"/>
        <path id="Path_236" data-name="Path 236" d="M1618.643,1051.865h-.081l-.015,8.141h.081l-.015,7.953.729,0,.015-8.141h-.081l.015-7.94h.081l.015-8.141-.728,0Z" transform="translate(-1593.265 -1043.678)" fill="#ffa412"/>
        <rect id="Rectangle_119" data-name="Rectangle 119" width="8.141" height="0.729" transform="translate(20.581 8.189) rotate(-89.864)" fill="#ffa412"/>
        <rect id="Rectangle_120" data-name="Rectangle 120" width="8.14" height="0.729" transform="translate(13.232 8.171) rotate(-89.864)" fill="#ffa412"/>
        <rect id="Rectangle_121" data-name="Rectangle 121" width="8.141" height="0.729" transform="translate(6.349 8.155) rotate(-89.85)" fill="#ffa412"/>
        <rect id="Rectangle_122" data-name="Rectangle 122" width="8.141" height="0.729" transform="matrix(0.002, -1, 1, 0.002, 0.207, 8.141)" fill="#ffa412"/>
        <rect id="Rectangle_123" data-name="Rectangle 123" width="8.141" height="0.729" transform="translate(39.23 8.233) rotate(-89.849)" fill="#ffa412"/>
        <path id="Path_237" data-name="Path 237" d="M1708.17,1044.557l-.014,7.9a1.618,1.618,0,0,0,.729-.661l.012-6.576A1.617,1.617,0,0,0,1708.17,1044.557Z" transform="translate(-1665.286 -1044.337)" fill="#ffa412"/>
      </g>
    </g>
    <g id="Group_98" data-name="Group 98" transform="translate(289.61 198.789)">
      <path id="Path_238" data-name="Path 238" d="M1762.663,1155l4.526.8a1.933,1.933,0,0,1,.927.435,1.618,1.618,0,0,1,.526.832,1.312,1.312,0,0,1,.04.3,1.345,1.345,0,0,1-.02.274l-11.245,63.114a1.666,1.666,0,0,1-1.926,1.231l-.09-.014-4.526-.8-.089-.017a1.664,1.664,0,0,1-1.383-1.819l11.245-63.114c.007-.041.016-.081.027-.12a.489.489,0,0,1,.015-.051c.005-.018.012-.037.019-.055s.01-.026.015-.039a1.32,1.32,0,0,1,.14-.263l.025-.036c.008-.012.017-.024.026-.035s.037-.047.056-.069l.036-.039c.011-.012.021-.023.033-.034s.042-.042.065-.063.053-.045.08-.066.043-.033.066-.049l0,0,.046-.032a1.577,1.577,0,0,1,.15-.088l.046-.023.048-.022.1-.041A1.934,1.934,0,0,1,1762.663,1155Z" transform="translate(-1749.355 -1154.968)" fill="#ffb93e"/>
      <path id="Path_239" data-name="Path 239" d="M1763.31,1318.7l-6.024,33.813a1.6,1.6,0,0,1-1.9,1.068l-.09-.014-4.526-.8-.089-.017a1.6,1.6,0,0,1-1.412-1.656l5.284-29.659.2-.006A15.056,15.056,0,0,0,1763.31,1318.7Z" transform="translate(-1749.254 -1286.559)" fill="#ffa412"/>
      <g id="Group_97" data-name="Group 97" transform="translate(3.906 0.12)">
        <rect id="Rectangle_124" data-name="Rectangle 124" width="0.729" height="8.141" transform="translate(6.162 7.995) rotate(-79.879)" fill="#ffa412"/>
        <rect id="Rectangle_125" data-name="Rectangle 125" width="0.729" height="8.14" transform="matrix(0.175, -0.985, 0.985, 0.175, 5.729, 10.425)" fill="#ffa412"/>
        <rect id="Rectangle_126" data-name="Rectangle 126" width="0.729" height="8.141" transform="translate(5.21 13.336) rotate(-79.896)" fill="#ffa412"/>
        <rect id="Rectangle_127" data-name="Rectangle 127" width="0.729" height="8.141" transform="translate(4.415 17.799) rotate(-79.896)" fill="#ffa412"/>
        <rect id="Rectangle_128" data-name="Rectangle 128" width="0.729" height="8.14" transform="matrix(0.175, -0.985, 0.985, 0.175, 3.574, 22.52)" fill="#ffa412"/>
        <rect id="Rectangle_129" data-name="Rectangle 129" width="0.729" height="8.141" transform="translate(2.285 29.754) rotate(-79.894)" fill="#ffa412"/>
        <rect id="Rectangle_130" data-name="Rectangle 130" width="0.729" height="8.141" transform="matrix(0.175, -0.985, 0.985, 0.175, 1.078, 36.53)" fill="#ffa412"/>
        <rect id="Rectangle_131" data-name="Rectangle 131" width="0.729" height="8.141" transform="translate(0 42.577) rotate(-79.882)" fill="#ffa412"/>
        <rect id="Rectangle_132" data-name="Rectangle 132" width="0.729" height="8.141" transform="translate(6.573 5.685) rotate(-79.896)" fill="#ffa412"/>
        <rect id="Rectangle_133" data-name="Rectangle 133" width="0.729" height="8.14" transform="translate(6.845 4.158) rotate(-79.894)" fill="#ffa412"/>
        <rect id="Rectangle_134" data-name="Rectangle 134" width="0.729" height="8.141" transform="translate(7.108 2.684) rotate(-79.896)" fill="#ffa412"/>
        <path id="Path_240" data-name="Path 240" d="M1806.369,1160.695l8.015,1.423.08-.448a1.32,1.32,0,0,0,.02-.274l-7.959-1.414a1.343,1.343,0,0,0-.076.264Z" transform="translate(-1799.064 -1159.118)" fill="#ffa412"/>
        <path id="Path_241" data-name="Path 241" d="M1807.873,1156.181l7.78,1.382a1.616,1.616,0,0,0-.525-.833l-6.474-1.15A1.622,1.622,0,0,0,1807.873,1156.181Z" transform="translate(-1800.273 -1155.58)" fill="#ffa412"/>
      </g>
    </g>
    <path id="Path_242" data-name="Path 242" d="M2480.859,1371.151H2453.31c-1.477-1.252,1.021-4.1,3.632-4.287a16.087,16.087,0,0,1,4.2.5c.379-5.035,2.544-27.671,10.7-26.761,9.174,1.018,0,9.968-2.594,15.267a126.162,126.162,0,0,0-4.874,12.209c.745.162,1.516.32,2.3.465,1.216-3.734,5.74-16.292,11.494-15.561,6.756.857,4.04,5.892-.748,8.881-3.513,2.2-7.826,5.322-9.876,6.831a29.3,29.3,0,0,0,5.388.431C2477.663,1369.012,2479.966,1370.4,2480.859,1371.151Z" transform="translate(-2025.151 -1105.353)" fill="#82b378"/>
    <path id="Path_243" data-name="Path 243" d="M721.029,1408.9c-1.094-1.719-4.387-6.18-8.773-5.589-4.779.643,5.277,3.794,8.356,5.6a5.1,5.1,0,0,1-1.7-.2c-2.058-.734-5.583.674-6.71,1.167h19.6a3.1,3.1,0,0,0-1.4-1.792,3.5,3.5,0,0,0-1.8-.161c1.165-1.373,1.974-5.761-1.269-4.632-2.37.825-2.363,3.506-2.13,5.092-.5.079-1.016.159-1.52.232-.976-4.972-4.426-19.544-11.42-19.932-7.09-.394,6.012,15.112,10.375,20.072C722.065,1408.828,721.527,1408.878,721.029,1408.9Z" transform="translate(-624.527 -1144.019)" fill="#82b378"/>
    <g id="Group_101" data-name="Group 101" transform="translate(230.941 81.26)">
      <circle id="Ellipse_13" data-name="Ellipse 13" cx="28.218" cy="28.218" r="28.218" transform="translate(0 39.906) rotate(-45)" fill="#e2810e"/>
      <circle id="Ellipse_14" data-name="Ellipse 14" cx="28.218" cy="28.218" r="28.218" transform="translate(3.29 61.219) rotate(-75.284)" fill="#ffb93e"/>
      <g id="Group_99" data-name="Group 99" transform="translate(12.19 15.665)">
        <path id="Path_244" data-name="Path 244" d="M1538.224,687.437a25.7,25.7,0,1,1,12.368-3.19A25.73,25.73,0,0,1,1538.224,687.437Zm-.078-49.893a24.249,24.249,0,1,0,6.753.964A24.287,24.287,0,0,0,1538.146,637.544Z" transform="translate(-1512.459 -636.01)" fill="#ffa412"/>
      </g>
      <g id="Group_100" data-name="Group 100" transform="translate(26.063 22.831)">
        <path id="Path_245" data-name="Path 245" d="M1601.687,695.9a4.237,4.237,0,0,0-.774-1.278,3.1,3.1,0,0,0-1.151-.781,5.864,5.864,0,0,0-1.643-.366,15.448,15.448,0,0,0-2.242-.015,40.581,40.581,0,0,1-4.122.005,12.8,12.8,0,0,1-3.426-.621,7.531,7.531,0,0,1-2.69-1.576,8.492,8.492,0,0,1-2.5-5.958,7.142,7.142,0,0,1,.676-2.9,8.914,8.914,0,0,1,1.843-2.567,11.9,11.9,0,0,1,2.92-2.079l-1.6-3.954,3.182-1.292,1.628,4.009a10.672,10.672,0,0,1,3.47-.354,8.062,8.062,0,0,1,5.635,2.78,10.73,10.73,0,0,1,1.881,3.121l-5.748,2.334a5.226,5.226,0,0,0-2.331-2.917,3.632,3.632,0,0,0-3.082-.029,4.622,4.622,0,0,0-1.44.876,3.131,3.131,0,0,0-.787,1.115,2.92,2.92,0,0,0-.2,1.276,4.281,4.281,0,0,0,.319,1.356,3.923,3.923,0,0,0,.7,1.157,2.9,2.9,0,0,0,1.1.747,5.861,5.861,0,0,0,1.653.362,19.758,19.758,0,0,0,2.348.047q2.221-.062,4.11.053a12.943,12.943,0,0,1,3.424.644,7.27,7.27,0,0,1,4.581,4.435,7.771,7.771,0,0,1,.618,3.149,7.058,7.058,0,0,1-.693,2.886,8.618,8.618,0,0,1-1.881,2.529,12.859,12.859,0,0,1-2.952,2.059l1.493,3.676-3.163,1.284-1.485-3.658a14.4,14.4,0,0,1-3.484.576,9.133,9.133,0,0,1-3.384-.487,8.172,8.172,0,0,1-2.979-1.858,9.944,9.944,0,0,1-2.261-3.515l5.748-2.334a6.126,6.126,0,0,0,1.257,2.04,3.964,3.964,0,0,0,1.555,1,3.845,3.845,0,0,0,1.7.17,6.589,6.589,0,0,0,1.688-.438,5.511,5.511,0,0,0,1.543-.906,3.665,3.665,0,0,0,.913-1.146,2.922,2.922,0,0,0,.307-1.3A3.559,3.559,0,0,0,1601.687,695.9Z" transform="translate(-1583.137 -672.517)" fill="#ffa412"/>
      </g>
    </g>
    <g id="Group_104" data-name="Group 104" transform="translate(283.772 29.759)">
      <path id="Path_246" data-name="Path 246" d="M1732.507,672.652c-1.181-.833-3.857-2.667-4-2.259a1.8,1.8,0,0,0,.364,1.313c-1.619-.6-3.263-1-7.151-.255a2.913,2.913,0,0,0-1.913,1.259,1.285,1.285,0,0,0,.448,2.006c1.984,1.234,1.409.495,4.166,2.291s6.133,2.255,8.15.994l2.707-.451.336-4.452S1734.074,672.914,1732.507,672.652Z" transform="translate(-1719.507 -596.431)" fill="#ffb27d"/>
      <path id="Path_247" data-name="Path 247" d="M2079.729,433.55s-6.382,7.571-14.508,4.4a24.622,24.622,0,0,1-1.773-7.345c0-.384-.008-.755-.013-1.109-.043-3.51-.162-5.479-.162-5.479l.008,0c.37-.154,12.423-5.1,12.413-4.692C2075.488,428.82,2079.729,433.55,2079.729,433.55Z" transform="translate(-1995.797 -394.673)" fill="#ffb27d"/>
      <path id="Path_248" data-name="Path 248" d="M2074.484,430.594c-1.163,2.155-5.151,6.369-11.05,7.909-.043-3.51-.162-5.479-.162-5.479l.008,0C2063.615,432.933,2074.83,429.959,2074.484,430.594Z" transform="translate(-1995.797 -403.676)" fill="#ed975d"/>
      <path id="Path_249" data-name="Path 249" d="M2041.779,350s13.555,3.187,15.41-5.285,4.853-13.766-3.723-16.159-10.971.47-12.278,3.148S2038.3,348.955,2041.779,350Z" transform="translate(-1976.827 -321.02)" fill="#ffb27d"/>
      <path id="Path_250" data-name="Path 250" d="M2038.155,319.827c.185.118,3.1,1.014,8.625-9.989a9.584,9.584,0,0,0-.563-8.766c-2.021-3.3-9.188-5.9-15.143-7.028s-7.384,2.221-8.786,5.588c-1.472,3.535-5.723,6.445-5.723,6.445,5.135,2.868,11.319-1.234,13.461-.56s2.9,4.051,3.06,5.134.408,1.982,3.1,1.015,1.218,3.818.787,4.733C2036.975,316.4,2036.609,318.837,2038.155,319.827Z" transform="translate(-1958.257 -293.821)" fill="#a9453d"/>
      <g id="Group_102" data-name="Group 102" transform="translate(57.677 104.069)">
        <path id="Path_251" data-name="Path 251" d="M2303.393,1419.663h8.208c1.72,0,3.632-1.723,4.111-4.877s4.015-4.877,4.781-7.459-3.156-6.217-3.156-6.217l-.656-.842-.682-.878-6.5,1.529s-.16,1.548-.261,3.52a44.928,44.928,0,0,0-.026,4.513c.191,3.444-.965,7.15-4.023,7.82S2303.393,1419.663,2303.393,1419.663Z" transform="translate(-2246.253 -1286.453)" fill="#2c3a64"/>
        <path id="Path_252" data-name="Path 252" d="M2013.35,1454.172h21.757a1.96,1.96,0,0,0,.462-.134c1.452-.727,1-6.289.823-8.007-.033-.318-.057-.5-.057-.5s-7.65-6.119-8.7-1.434c-.034.146-.072.29-.112.431v0c-1.328,4.384-7.265,6.375-10.694,6.93C2014.2,1451.882,2013.525,1453.408,2013.35,1454.172Z" transform="translate(-2013.35 -1320.962)" fill="#2c3a64"/>
        <path id="Path_253" data-name="Path 253" d="M2035.691,855.255s1.162,14.5,2.528,31.921c1.856,23.671,4.088,52.747,4.309,58.255.382,9.565,1.914,24.864,1.914,24.864s3.632,3.635,10.9,2.1a250.3,250.3,0,0,0,8.328-44.949c.029-.379.057-.76.086-1.142,1.721-23.524,4.4-73.06,4.4-73.06Z" transform="translate(-2031.306 -847.509)" fill="#2b478b"/>
        <path id="Path_254" data-name="Path 254" d="M2035.691,855.255s1.162,14.5,2.528,31.921l25.453,40.273c.029-.379.057-.76.086-1.142,1.721-23.524,4.4-73.06,4.4-73.06Z" transform="translate(-2031.306 -847.509)" fill="#233862"/>
        <path id="Path_255" data-name="Path 255" d="M2062.723,833.483s20.942,52.5,34.713,77.172,18.073,31.557,18.073,31.557,7.89-3.156,8.607-5.307c0,0-5.266-47.631-14.488-59.241-5.211-6.561-11.332-26.25-11.619-33.135s-1.865-20.512-1.865-20.512Z" transform="translate(-2053.032 -824.016)" fill="#2b478b"/>
      </g>
      <g id="Group_103" data-name="Group 103" transform="translate(78.496 39.716)">
        <path id="Path_256" data-name="Path 256" d="M2305.367,818.593l.221,3.376a7.276,7.276,0,0,0,4.012,9.075s2.671,1.077,2.779-1-.233-1.3-.016-4.225-.934-5.695-2.871-6.627l-1.589-1.833Z" transform="translate(-2268.735 -754.311)" fill="#ffb27d"/>
        <path id="Path_257" data-name="Path 257" d="M2158.484,562.9c-2.318.744-2.689.576-2.689.576s-11.282-20.541-12.425-22.421-23.955-23.034-23.955-23.034l5.862-21.86s25.946,33.6,28.747,38.419c4.63,7.967,7.343,26.469,7.343,26.469A6.786,6.786,0,0,1,2158.484,562.9Z" transform="translate(-2119.415 -496.16)" fill="#1e3d70"/>
      </g>
      <path id="Path_258" data-name="Path 258" d="M2013.057,506.588c.081,4.489.342,9.536.694,14.662q.033.456.064.912c.225,3.175.469,6.358.75,9.462.112,1.244.232,2.474.356,3.683l.019.163c.01.452.065.943.115,1.39,1.144,11.625,2.343,20.809,2.565,20.951a1.306,1.306,0,0,0,.893.227c3.049-.383,12.145.309,19.591-1.311a56.462,56.462,0,0,0,17.428-7.227c.761-.45,2.5-1.642,2.355-2.532-.139-.979-.4-2.393-.72-4.171a225.746,225.746,0,0,1-3.745-29.268q-.193-3.478-.562-6.861a104.125,104.125,0,0,0-3.036-16.385c-2.554-9.194-6.306-16.234-11.013-18.988-.615-.345-3.924,1.761-6.963,3.711a13.418,13.418,0,0,1-8.636,2.046l-2.53,2.8a28.249,28.249,0,0,0-7.215,15.04q-.1.747-.172,1.589A98.839,98.839,0,0,0,2013.057,506.588Z" transform="translate(-1955.416 -436.429)" fill="#2a4e96"/>
      <path id="Path_259" data-name="Path 259" d="M2013.057,588.724c.081,4.489.342,9.536.694,14.662q.033.456.064.912c17.414-10.9,20.1-30.846,20.1-30.846-8.567.376-15.373,2.345-20.618,5.161A98.839,98.839,0,0,0,2013.057,588.724Z" transform="translate(-1955.416 -518.565)" fill="#1e3d70"/>
      <path id="Path_260" data-name="Path 260" d="M1788.943,548.741c-.179-2.583,1.158-3.013,1.158-3.013s26.255-4.758,28.487-5.46,21.317-20.556,21.317-20.556,7.315-8.25,13.305-6.428c5.205,1.583,7.24,5.643,7.932,9.511a11.393,11.393,0,0,1-5.291,11.7c-8.96,5.5-26.9,16.324-31.122,17.562-9.4,2.757-34.665.221-34.665.221A8.149,8.149,0,0,1,1788.943,548.741Z" transform="translate(-1775.301 -469.996)" fill="#2a4e96"/>
    </g>
    <path id="Path_261" data-name="Path 261" d="M1449.939,834.375v97.593a10.381,10.381,0,0,1-10.349,10.351H1339.274a10.534,10.534,0,0,1-7.123-2.774,10.662,10.662,0,0,1-2.267-2.944c-.031-.059-.061-.119-.091-.18a10.432,10.432,0,0,1-1.073-3.953c-.018-.24-.026-.483-.026-.729V835a16.015,16.015,0,0,1,7.443-13.483l.012-.007a13.869,13.869,0,0,0,5.752-15.843h94.833a13.866,13.866,0,0,0,5.282,15.528l0,0c.239.167.483.327.732.477l0,0A14.884,14.884,0,0,1,1449.939,834.375Z" transform="translate(-1121.632 -675.442)" fill="#ed9f4a" opacity="0.2"/>
    <path id="Path_262" data-name="Path 262" d="M1679.833,834.375v97.593a10.385,10.385,0,0,1-9.619,10.325c-.241.018-.485.026-.73.026h-44.172a10.611,10.611,0,0,1-10.58-10.58V835a16.016,16.016,0,0,1,7.443-13.483,13.865,13.865,0,0,0,5.765-15.849h38.687a13.869,13.869,0,0,0,6.019,16.008A14.883,14.883,0,0,1,1679.833,834.375Z" transform="translate(-1351.526 -675.442)" fill="#ed9f4a" opacity="0.2"/>
    <path id="Path_263" data-name="Path 263" d="M1472.54,821.2c-3.1-1.855-16.517-8.429-50.642-8.151-39.087.32-54.745,8.22-55.225,8.466a13.869,13.869,0,0,0,5.752-15.843h94.833a13.866,13.866,0,0,0,5.282,15.528Z" transform="translate(-1152.157 -675.442)" fill="#ed9f4a" opacity="0.6"/>
    <path id="Path_264" data-name="Path 264" d="M1484.161,798.944v4.426a.794.794,0,0,1-.791.793h-97.545a.794.794,0,0,1-.793-.793v-4.426a.8.8,0,0,1,.793-.793h97.545A.8.8,0,0,1,1484.161,798.944Z" transform="translate(-1166.913 -669.4)" fill="#2b478b"/>
    <path id="Path_265" data-name="Path 265" d="M1732.389,798.944v4.426a.794.794,0,0,1-.791.793h-36.923a.8.8,0,0,1-.793-.793v-4.426a.8.8,0,0,1,.793-.793H1731.6A.8.8,0,0,1,1732.389,798.944Z" transform="translate(-1415.14 -669.4)" fill="#233862"/>
    <g id="Group_105" data-name="Group 105" transform="translate(219.391 146.669)">
      <path id="Path_266" data-name="Path 266" d="M1510.138,894.228s-2.514,3.54-4.819,3.589-5.812-1.641-5.812-1.641-2.116-4.717-.681-6.562a3.081,3.081,0,0,1,2.945.484,4.508,4.508,0,0,1,.779.746,2.473,2.473,0,0,0,1.21.82c1.645.5,3.6-.677,4.327.459a7.724,7.724,0,0,0,1.271,1.505A5.81,5.81,0,0,0,1510.138,894.228Z" transform="translate(-1477.361 -889.436)" fill="#f9ddbf"/>
      <path id="Path_267" data-name="Path 267" d="M1391.512,954.077s8.886-21.532,24.882-21.942c0,0,14.765,1.64,15.585,21.942Z" transform="translate(-1391.512 -923.754)" fill="#f9ddbf"/>
      <path id="Path_268" data-name="Path 268" d="M1495.823,924.073s6.411,1.426,8.39.588a1.98,1.98,0,0,0-2.4-2.3,5.665,5.665,0,0,1-3.76-.991C1497.05,920.855,1495.557,922.952,1495.823,924.073Z" transform="translate(-1475.323 -915.035)" fill="#f1a34f"/>
      <path id="Path_269" data-name="Path 269" d="M1517.542,897.145c-.41.308-1.669-4.335-1.669-4.335a4.51,4.51,0,0,1,.779.746,2.471,2.471,0,0,0,1.21.82C1517.866,894.512,1517.94,896.846,1517.542,897.145Z" transform="translate(-1491.463 -892.148)" fill="#e5c1a1"/>
      <path id="Path_270" data-name="Path 270" d="M1540.192,904.637a26.437,26.437,0,0,1-3.457,1.829c-.41,0,2.186-3.334,2.186-3.334A7.718,7.718,0,0,0,1540.192,904.637Z" transform="translate(-1508.195 -900.444)" fill="#e5c1a1"/>
      <path id="Path_271" data-name="Path 271" d="M1435.727,974.085c-.164-.14,6.289-9.5,8.066-9.57s5.77,2.051,8.661,2.324,5.694-.547,6.24,1.162,2.051,7.768,1.128,8.737S1439.276,977.117,1435.727,974.085Z" transform="translate(-1427.046 -949.777)" fill="#e5c1a1"/>
    </g>
    <g id="Group_110" data-name="Group 110" transform="translate(54.983 77.453)">
      <path id="Path_272" data-name="Path 272" d="M1342.52,1172.069c-.514.27-1.032.526-1.553.773-.5.287-1,.569-1.515.837a41.349,41.349,0,0,1-7.3,2.989,10.663,10.663,0,0,1-2.267-2.944c-.4.211-.791.414-1.19.612V1100.7a41.909,41.909,0,0,1,5.409,1.088,39.74,39.74,0,0,1,24.194,18.327C1369,1138.613,1361.935,1161.873,1342.52,1172.069Z" transform="translate(-1176.615 -990.019)" fill="#e2810e" opacity="0.5"/>
      <g id="Group_108" data-name="Group 108" transform="translate(94.257 106.427)">
        <path id="Path_273" data-name="Path 273" d="M1125.048,1099.787a40.143,40.143,0,1,0-15.776,54.536A40.143,40.143,0,0,0,1125.048,1099.787Z" transform="translate(-1046.674 -1079.015)" fill="#e2810e"/>
        <path id="Path_274" data-name="Path 274" d="M1095.154,1162.06q-.742.452-1.509.875c-.173.1-.346.189-.519.28-.4.211-.791.414-1.19.612a40.144,40.144,0,0,1-37.05-71.2q.771-.425,1.554-.812c.506-.252,1.017-.493,1.53-.721a40.084,40.084,0,0,1,12.049-3.239,40.15,40.15,0,0,1,25.134,74.21Z" transform="translate(-1034.114 -1085.937)" fill="#ffb93e"/>
        <g id="Group_106" data-name="Group 106" transform="translate(3.788 5.665)">
          <path id="Path_275" data-name="Path 275" d="M1090.059,1181.062a36.724,36.724,0,0,1-10.216-1.458,36.352,36.352,0,1,1,10.216,1.458Zm-30.172-19.989a34.393,34.393,0,1,0-2.918-26.161A34.168,34.168,0,0,0,1059.887,1161.073Z" transform="translate(-1053.415 -1107.877)" fill="#ffa412"/>
        </g>
        <g id="Group_107" data-name="Group 107" transform="translate(23.524 15.86)">
          <path id="Path_276" data-name="Path 276" d="M1188.508,1189.706c-.079-.2-.163-.389-.249-.577a10.536,10.536,0,0,0-2.435-3.478,10.876,10.876,0,0,0-3.833-2.255,18.345,18.345,0,0,0-4.87-.915q-2.688-.166-5.849-.076a28.188,28.188,0,0,1-3.34-.068,8.378,8.378,0,0,1-2.351-.514,4.124,4.124,0,0,1-1.57-1.063,5.592,5.592,0,0,1-1-1.645,6.1,6.1,0,0,1-.454-1.929,4.137,4.137,0,0,1,.286-1.815,4.437,4.437,0,0,1,1.119-1.586,6.538,6.538,0,0,1,2.047-1.246,5.166,5.166,0,0,1,4.385.041,7.441,7.441,0,0,1,3.315,4.149l8.178-3.32a15.289,15.289,0,0,0-2.677-4.439,11.474,11.474,0,0,0-8.017-3.955,15.153,15.153,0,0,0-4.936.5l-2.316-5.7-4.527,1.838,2.283,5.625a16.98,16.98,0,0,0-4.156,2.957,12.7,12.7,0,0,0-2.62,3.652,10.176,10.176,0,0,0-.963,4.126,12.086,12.086,0,0,0,3.557,8.476,10.707,10.707,0,0,0,3.828,2.242,18.114,18.114,0,0,0,4.873.884,57.642,57.642,0,0,0,5.864-.006,21.623,21.623,0,0,1,3.19.021,8.327,8.327,0,0,1,2.338.519,4.422,4.422,0,0,1,1.637,1.111,6.022,6.022,0,0,1,1.1,1.818,5.044,5.044,0,0,1,.391,1.939,4.136,4.136,0,0,1-.437,1.847,5.212,5.212,0,0,1-1.3,1.63,7.844,7.844,0,0,1-2.2,1.289,9.451,9.451,0,0,1-2.4.623,5.482,5.482,0,0,1-2.422-.242,5.637,5.637,0,0,1-2.211-1.429,8.687,8.687,0,0,1-1.789-2.9l-8.177,3.32a14.119,14.119,0,0,0,3.216,5,11.607,11.607,0,0,0,4.237,2.643,12.961,12.961,0,0,0,4.814.694,20.424,20.424,0,0,0,4.959-.82l2.112,5.2,4.5-1.827-2.123-5.229a18.273,18.273,0,0,0,4.2-2.931,12.392,12.392,0,0,0,2.534-3.309c.049-.1.1-.191.144-.289a10.06,10.06,0,0,0,.986-4.1A11.05,11.05,0,0,0,1188.508,1189.706Z" transform="translate(-1153.962 -1159.814)" fill="#ffa412"/>
        </g>
      </g>
      <g id="Group_109" data-name="Group 109">
        <path id="Path_277" data-name="Path 277" d="M1026.933,571.635c.122-.492-10.693,4.888-11.241,5.5-5.072,5.626-3.625,12.968-.724,13.039,1.861.045,1.5,3.14,1.5,3.14l20.736-8.772S1034.709,569.979,1026.933,571.635Z" transform="translate(-922.352 -564.693)" fill="#2c3a64"/>
        <path id="Path_278" data-name="Path 278" d="M981.276,544.884s.741-8.078-8.284-8.078a10.6,10.6,0,0,1,4.15,2.226s-5.757-3.38-12.021,1.813-2.372,18.217-4.277,20.689-9.324,2.968-8.417,10.963,23.545,18.01,22.091,24.625c0,0,8.871-13.041,2.528-18.992,0,0,3.092,2.912,3.407,6.374,0,0,.839-6.759-3.462-8.921-3.806-1.913-6.924-8.91-6.594-10.16S981.276,544.884,981.276,544.884Z" transform="translate(-874.142 -536.806)" fill="#2c3a64"/>
        <path id="Path_279" data-name="Path 279" d="M993.788,745.209A8.014,8.014,0,0,0,979.6,741.9a7.26,7.26,0,0,0-1.429,3.521c-.939,7.607,11.225,38.593,12.966,41.4,3.171,5.108,21.845,22.617,21.845,22.617l3.442-2.086s-13.245-22.424-15.3-24.522C998.751,780.4,996.43,757.934,993.788,745.209Z" transform="translate(-894.849 -699.128)" fill="#ed985f"/>
        <path id="Path_280" data-name="Path 280" d="M1149.061,1075.547s5.023-3.3,6.924-3.086,7.405,1.8,7.472,2.605-6.132,1.314-6.548,1.756-4.625,3.252-6.151,2.371S1149.061,1075.547,1149.061,1075.547Z" transform="translate(-1032.242 -967.313)" fill="#ed985f"/>
        <path id="Path_281" data-name="Path 281" d="M761.293,1004.126l-4.488-.659A53.049,53.049,0,0,1,739.471,969.1a40.009,40.009,0,0,1-.107-6.917,1.211,1.211,0,0,0-.157-.763s0,0,0-.007c-.483-.74-1.685-2.595-3.312-5.233-1.6-2.6-4.349-7.511-7.369-13.024-5.44-9.927-11.774-21.8-13.947-25.582-6.922-12.053-3.586-20.157-3.586-20.157s19.311-1.909,24.6-6.538l1.906,2.938s4.184,18.523,3.986,18.609l.628,1.924a322.111,322.111,0,0,1,9.171,33.3c1.164,5.837,1.78,10.923,1.449,14.388a25.234,25.234,0,0,0,.341,5.27C754.942,980.611,761.293,1004.126,761.293,1004.126Z" transform="translate(-679.51 -821.383)" fill="#2b478b"/>
        <path id="Path_282" data-name="Path 282" d="M941.439,1454.085H922.718a10.278,10.278,0,0,1,.529-5.018c.937-2.077,2.273-2.143.171-5.4,1.19,1.225,5.014,1.731,7.72,1.367.332.538,2.138,4.145,3.246,4.94C935.607,1450.855,941.062,1450.542,941.439,1454.085Z" transform="translate(-850.243 -1265.665)" fill="#233862"/>
        <path id="Path_283" data-name="Path 283" d="M742.112,914.353c-1.635,9.019-5.5,24.029-13.591,28.807-5.44-9.927-11.774-21.8-13.947-25.582-6.922-12.053-3.586-20.157-3.586-20.157s19.311-1.909,24.6-6.538l1.906,2.938s4.184,18.523,3.986,18.609Z" transform="translate(-679.51 -821.383)" fill="#233862"/>
        <path id="Path_284" data-name="Path 284" d="M1005.855,750.391a20.039,20.039,0,0,1,3.856,6.05s-4.223,12.125-14.091,13.646C995.62,770.087,1003.428,750.386,1005.855,750.391Z" transform="translate(-908.919 -708.468)" fill="#ed7d2b"/>
        <path id="Path_285" data-name="Path 285" d="M613.541,882.817l.064-3.5c-6.976.88-24.054-8.336-24.054-8.336s-7.3,4.854-8.3,18.717c-.488,6.766-3.573,35.382-3.914,43.926-.124,3.1-.166,5.307-.18,6.19a.023.023,0,0,1,0,.009,1.217,1.217,0,0,1-.3.721,39.964,39.964,0,0,0-3.78,5.794c-10.645,19.806-5.078,46.718-5.078,46.718l2.472-.628s9-27.9,14.883-39.966a25.285,25.285,0,0,1,2.664-4.561c2.212-2.686,4.544-7.249,6.843-12.739,4.346-10.381,8.565-24.078,11.573-34.684C606.654,900.513,613.541,882.817,613.541,882.817Z" transform="translate(-564.069 -805.386)" fill="#2b478b"/>
        <path id="Path_286" data-name="Path 286" d="M987.905,702.185c-11.4-2.617-4.119-18.643-3.458-18.361,1.58-.322,5.051-3.1,8.155-8.515l.42.364,7,6.141s-1.619,2.388-2.981,4.728c-1.064,1.832-1.969,3.636-1.825,4.256C995.784,691.241,990.947,702.884,987.905,702.185Z" transform="translate(-897.609 -648.123)" fill="#ffb27d"/>
        <path id="Path_287" data-name="Path 287" d="M1046.473,683.311s-1.62,2.385-2.981,4.728c-4.355-2.685-4.36-8.076-4.024-10.869Z" transform="translate(-944.056 -649.619)" fill="#ed985f"/>
        <path id="Path_288" data-name="Path 288" d="M1045.478,635.121s-10.574-5.884-6.809-12.412,4.937-11.685,11.847-8.2,6.774,6.722,6.047,9.206S1048.326,636.483,1045.478,635.121Z" transform="translate(-942.867 -598.353)" fill="#ffb27d"/>
        <path id="Path_289" data-name="Path 289" d="M1053.8,616.282c-.484-2.9-1.957-3.175-2.984-2.982a8.457,8.457,0,0,0-10.285-3.937,14.4,14.4,0,0,1-8.334,5.006s1.227,2.283,6.283,3.7a8.639,8.639,0,0,0,4.987-.4,28.23,28.23,0,0,1-7.176,2.705c6.662.61,13-5.481,13.659-6.133a9.484,9.484,0,0,1,.524,4.365c-.439,1.963-2.182,5.52-1.117,5.98C1049.356,624.583,1054.525,620.629,1053.8,616.282Z" transform="translate(-938.315 -594.732)" fill="#2c3a64"/>
        <path id="Path_290" data-name="Path 290" d="M572.731,1453.531H554.01a10.277,10.277,0,0,1,.529-5.018c.937-2.077,2.4-3.021,2.053-5.535a6.741,6.741,0,0,0,5.835,2.233c.332.537,2.141,3.415,3.249,4.211C566.9,1450.3,572.354,1449.988,572.731,1453.531Z" transform="translate(-553.907 -1265.112)" fill="#233862"/>
        <path id="Path_291" data-name="Path 291" d="M749.883,737.09a45.543,45.543,0,0,1-9.249,1.676c-4.922.538-10,.905-12.667,1.967a2.859,2.859,0,0,0-1.823,1.477c-1.154,3.47-6.24,8.825-6.24,8.825-32.6-1.484-36.177-15.119-36.177-15.119,21.932-25.5,59.068-32.885,59.068-32.885s2.653-1.125,9.332,4.184c4.458,3.544,3.871,4.9,3.871,4.9S756.971,734.617,749.883,737.09Z" transform="translate(-658.245 -670.324)" fill="#f99746"/>
        <path id="Path_292" data-name="Path 292" d="M921.35,776.908c-4.923.538-10,.905-12.668,1.967a51.912,51.912,0,0,1,6.584-28.487S920.272,770.756,921.35,776.908Z" transform="translate(-838.961 -708.465)" fill="#ed7d2b"/>
        <path id="Path_293" data-name="Path 293" d="M944.674,734.362s-12.338,1.219-13.327,9.236,11.828,40.669,13.664,43.625c3.342,5.383,23.02,23.833,23.02,23.833l3.627-2.2s-13.958-23.629-16.119-25.841C952.147,779.546,948.852,737.139,944.674,734.362Z" transform="translate(-857.218 -695.585)" fill="#ffb27d"/>
        <path id="Path_294" data-name="Path 294" d="M922.789,740.554c.032.182,11.386,3.709,18.693,0,0,0,1.564-16.859-7.159-15.944s-13.889,3.662-14.109,7.839S922.789,740.554,922.789,740.554Z" transform="translate(-848.304 -687.719)" fill="#f99746"/>
        <path id="Path_295" data-name="Path 295" d="M1112.749,1096.077s4.426-4.064,6.336-4.161,7.6.579,7.794,1.367-5.84,2.285-6.18,2.788-4.041,3.955-5.689,3.332S1112.749,1096.077,1112.749,1096.077Z" transform="translate(-1003.057 -982.949)" fill="#ffb27d"/>
      </g>
    </g>
    <path id="Rectangle_135" data-name="Rectangle 135" d="M.674,0H507.56a.674.674,0,0,1,.674.674v0a.674.674,0,0,1-.674.674H.674A.674.674,0,0,1,0,.674v0A.674.674,0,0,1,.674,0Z" transform="translate(0 265.798)" fill="#2e3552"/>
  </g>
</svg>
