<svg xmlns="http://www.w3.org/2000/svg" width="28.274" height="28.274" viewBox="0 0 28.274 28.274">
  <g id="Group_522" data-name="Group 522" transform="translate(0 0)">
    <path id="Path_303" data-name="Path 303" d="M10.327,12.81a2.838,2.838,0,0,0,2.827-2.827V4.327a2.827,2.827,0,1,0-5.655,0V9.982A2.838,2.838,0,0,0,10.327,12.81Z" transform="translate(3.81 -1.5)" fill="#61688d"/>
    <path id="Path_304" data-name="Path 304" d="M25.673,3.942a1.918,1.918,0,0,0-1.553-.567A2.169,2.169,0,0,0,22,5.5a2.89,2.89,0,0,0,.567,1.553,9.607,9.607,0,0,1,2.827,6.929,9.9,9.9,0,1,1-19.792,0A9.517,9.517,0,0,1,8.569,7.049,2.25,2.25,0,0,0,9.275,5.5,2.169,2.169,0,0,0,7.155,3.375,2.89,2.89,0,0,0,5.6,3.942,14.16,14.16,0,1,0,29.774,13.978,14.058,14.058,0,0,0,25.673,3.942Z" transform="translate(-1.5 0.159)" fill="#61688d"/>
  </g>
</svg>
