<svg xmlns="http://www.w3.org/2000/svg" width="199.055" height="25.477" viewBox="0 0 199.055 25.477">
  <g id="Group_6093" data-name="Group 6093" transform="translate(-446 -487)" opacity="0.86">
    <path id="Path_769" data-name="Path 769" d="M459.3,502.715l5.974-14.851h5.705L461.1,512.452h-3.565l-5.705-14.163v14.163H446V487.864h7.328Zm0,0" transform="translate(0 -0.42)" fill="#f0f1f7"/>
    <rect id="Rectangle_439" data-name="Rectangle 439" width="5.878" height="9.811" transform="translate(466.801 502.222)" fill="#f0f1f7"/>
    <path id="Path_770" data-name="Path 770" d="M533.5,499.739A12.725,12.725,0,1,1,520.784,487,12.721,12.721,0,0,1,533.5,499.739Zm-5.854-.026a6.861,6.861,0,1,0-6.861,6.863,6.864,6.864,0,0,0,6.861-6.863Zm0,0" transform="translate(-30.183 0)" fill="#f0f1f7"/>
    <path id="Path_771" data-name="Path 771" d="M581.013,502.715l5.974-14.851h5.707l-9.886,24.588h-3.565l-5.705-14.163v14.163h-5.828V487.864h7.328Zm0,0" transform="translate(-59.206 -0.42)" fill="#f0f1f7"/>
    <rect id="Rectangle_440" data-name="Rectangle 440" width="5.878" height="9.811" transform="translate(529.306 502.222)" fill="#f0f1f7"/>
    <path id="Path_772" data-name="Path 772" d="M655.2,499.739A12.725,12.725,0,1,1,642.493,487,12.719,12.719,0,0,1,655.2,499.739Zm-5.852-.026a6.861,6.861,0,1,0-6.86,6.863,6.864,6.864,0,0,0,6.86-6.863Zm0,0" transform="translate(-89.386 0)" fill="#f0f1f7"/>
    <path id="Path_773" data-name="Path 773" d="M711.453,487.864v24.59h-5.781l-10.425-14.239v14.239h-5.828v-24.59H694.8l10.821,14.656V487.864Zm0,0" transform="translate(-118.41 -0.42)" fill="#f0f1f7"/>
    <path id="Path_774" data-name="Path 774" d="M742.488,512.457H759.9V507.27H742.488Zm0-9.589H759.9v-5.189H742.488Zm0-15v5.19H759.9v-5.19Zm0,0" transform="translate(-144.225 -0.422)" fill="#f0f1f7"/>
    <path id="Path_775" data-name="Path 775" d="M801.606,512.452h-5.828V501.93l-9.2-14.066h6.688l8.335,13.473Zm0,0" transform="translate(-165.675 -0.42)" fill="#f0f1f7"/>
    <path id="Path_776" data-name="Path 776" d="M816.9,487.864h6.691l-4.129,6.369h-6.443Zm0,0" transform="translate(-178.533 -0.42)" fill="#f0f1f7"/>
  </g>
</svg>
