<svg xmlns="http://www.w3.org/2000/svg" width="34.046" height="23.216" viewBox="0 0 34.046 23.216">
  <g id="Group_521" data-name="Group 521" transform="translate(0 0)">
    <path id="Path_305" data-name="Path 305" d="M19.1,14.7a1.97,1.97,0,0,1-2.311,0L2.152,3.507A3.921,3.921,0,0,1,4.1,3H31.723a3.921,3.921,0,0,1,1.952.507Z" transform="translate(-0.891 -3)" fill="#61688d"/>
    <path id="Path_306" data-name="Path 306" d="M35.546,4.695V20.279c0,2.4-2.288,4.353-5.107,4.353H6.607c-2.819,0-5.107-1.95-5.107-4.353V4.695l14.78,11.5a3.777,3.777,0,0,0,2.242.71,3.733,3.733,0,0,0,2.261-.741Z" transform="translate(-1.5 -1.416)" fill="#61688d"/>
  </g>
</svg>
