<svg xmlns="http://www.w3.org/2000/svg" width="27.07" height="29.731" viewBox="0 0 27.07 29.731">
  <path id="Path_301" data-name="Path 301" d="M28.35,21.983l-.544-.677a15.947,15.947,0,0,1-3.253-9.75v-.945a9.68,9.68,0,0,0-8.4-9.752A9.438,9.438,0,0,0,5.589,10.2v1.355a15.947,15.947,0,0,1-3.253,9.75l-.544.677a1.122,1.122,0,0,0-.267,1.087A2.886,2.886,0,0,0,4.234,25.1H25.908a2.613,2.613,0,0,0,2.576-2.032A1.467,1.467,0,0,0,28.35,21.983Zm-10.98,4.474H12.629a1.392,1.392,0,0,0-1.219,2.032,4.435,4.435,0,0,0,3.654,2.032,4.038,4.038,0,0,0,3.52-2.032,1.347,1.347,0,0,0-1.219-2.032Z" transform="translate(-1.469 -0.79)" fill="#61688d"/>
</svg>
