<svg xmlns="http://www.w3.org/2000/svg" width="372.569" height="267.704" viewBox="0 0 372.569 267.704">
  <g id="Group_50" data-name="Group 50" transform="translate(-20.518 -50.042)">
    <g id="Shadows" transform="translate(79.991 255.848)">
      <path id="Shadow" d="M375.191,337.89c3.921,2.263,11.627,1.484,17.212-1.74l32.192-18.7c5.585-3.224,6.927-7.677,3-9.945s-11.641-1.491-17.224,1.735l-32.166,18.7C372.618,331.176,371.27,335.626,375.191,337.89Z" transform="translate(-148.649 -305.523)" fill="#ebebeb"/>
      <path id="Shadow-2" data-name="Shadow" d="M127.434,357.805,94.691,338.9,127.434,320Z" transform="translate(-94.691 -308.196)" fill="#ebebeb"/>
      <path id="Shadow-3" data-name="Shadow" d="M237.423,366.277l-52.775-30.489,52.787-30.429Z" transform="translate(-112.135 -305.358)" fill="#ebebeb"/>
    </g>
    <g id="Plants" transform="translate(20.518 191.717)">
      <g id="Plants-2" data-name="Plants" transform="translate(0 20.733)">
        <g id="Group_23" data-name="Group 23">
          <g id="Group_21" data-name="Group 21">
            <path id="Path_8" data-name="Path 8" d="M68.833,300.325c.092-7.659-5.256-23.588-13.084-33.628S35.512,249.235,26.6,252.165c-8.3,2.729-7.536,13.585,2.408,20.892s24.912,16.517,29.173,28.992L67.253,317.4Z" transform="translate(-20.911 -251.519)" fill="#27debf"/>
            <path id="Path_9" data-name="Path 9" d="M68.833,300.325c.092-7.659-5.256-23.588-13.084-33.628S35.512,249.235,26.6,252.165c-8.3,2.729-7.536,13.585,2.408,20.892s24.912,16.517,29.173,28.992L67.253,317.4Z" transform="translate(-20.911 -251.519)" opacity="0.1"/>
          </g>
          <g id="Group_22" data-name="Group 22" transform="translate(9.194 5.196)">
            <path id="Path_10" data-name="Path 10" d="M71.484,312.062a.562.562,0,0,1-.5-.456c-4.814-26.2-25.708-47.71-38.31-52.557a.561.561,0,0,1-.322-.723.554.554,0,0,1,.724-.322c12.842,4.939,34.122,26.8,39.009,53.4a.56.56,0,0,1-.449.651A.544.544,0,0,1,71.484,312.062Z" transform="translate(-32.316 -257.965)" fill="#fff"/>
          </g>
        </g>
        <g id="Group_26" data-name="Group 26" transform="translate(4.633 33.044)">
          <g id="Group_24" data-name="Group 24">
            <path id="Path_11" data-name="Path 11" d="M66.287,335.449c-1.179-4.32-6.352-11.487-14.786-17.458-9.33-6.605-21.2-9.733-23.885-14.819-3.224-6.109,1.96-11.783,11.611-10.469s26.484,14.705,28.961,34.591Z" transform="translate(-26.659 -292.512)" fill="#27debf"/>
          </g>
          <g id="Group_25" data-name="Group 25" transform="translate(7.949 5.269)">
            <path id="Path_12" data-name="Path 12" d="M70.123,332.222a.562.562,0,0,1-.478-.376C61.9,309.352,44.9,301.286,37,300.163a.561.561,0,0,1-.476-.633.552.552,0,0,1,.633-.476C45.9,300.3,62.8,308.522,70.7,331.482a.562.562,0,0,1-.581.74Z" transform="translate(-36.52 -299.049)" fill="#fff"/>
          </g>
        </g>
      </g>
      <g id="Plants-3" data-name="Plants" transform="translate(327.549 0)">
        <g id="Group_28" data-name="Group 28" transform="translate(0.246)">
          <path id="Path_13" data-name="Path 13" d="M433.5,273.538s1.075-16.147,10.59-28.133,8.931-16.922,2.369-19.342-21.8,12.026-18.409,31.371S433.5,273.538,433.5,273.538Z" transform="translate(-427.561 -225.798)" fill="#27debf"/>
          <path id="Path_14" data-name="Path 14" d="M433.5,273.538s1.075-16.147,10.59-28.133,8.931-16.922,2.369-19.342-21.8,12.026-18.409,31.371S433.5,273.538,433.5,273.538Z" transform="translate(-427.561 -225.798)" opacity="0.1"/>
          <g id="Group_27" data-name="Group 27" transform="translate(2.586 2.425)">
            <path id="Path_15" data-name="Path 15" d="M431.212,264.9a.374.374,0,0,1-.374-.351c-1.112-17.781,11.446-32.371,16.147-35.672a.375.375,0,0,1,.43.613c-4.608,3.238-16.921,17.55-15.829,35.012a.376.376,0,0,1-.351.4Z" transform="translate(-430.769 -228.807)" fill="#fff"/>
          </g>
        </g>
        <g id="Group_31" data-name="Group 31" transform="translate(0 25.982)">
          <g id="Group_30" data-name="Group 30">
            <path id="Path_16" data-name="Path 16" d="M430.851,293.123a85.185,85.185,0,0,0,13.1,3.153c7.368,1.167,10.62-2.357,10.62-2.357s-2.9-6.911-7.085-8.85a41.117,41.117,0,0,1,12.789,5.246s4.5.068,6.291-6.8c0,0-2.667-4.133-11.611-6.365,0,0,5.442-1.37,13.283.63.588.234,3.095-8.645,3.853-12.742s-.888-4.053-4.081-4.906-13.771-3.228-15.77-1.472-3.015,7.763-3.015,7.763a14.16,14.16,0,0,1-.3-7.612,12.222,12.222,0,0,0-7.334.174c-3.648,1.061-3.826,3.544-3.66,6.349a27.422,27.422,0,0,0,1.579,7.123s-2.844-3.645-2.932-11.547c0,0-7.465,3.709-8.74,11.118C427.152,276.034,426.175,287.8,430.851,293.123Z" transform="translate(-427.256 -258.031)" fill="#27debf"/>
            <g id="Group_29" data-name="Group 29" transform="translate(4.589 4.348)">
              <path id="Path_17" data-name="Path 17" d="M433.362,292.728a.413.413,0,0,0,.373-.235c5.946-12.353,28.053-26.708,35.972-28.248a.415.415,0,1,0-.159-.814c-8.049,1.565-30.519,16.151-36.559,28.7a.412.412,0,0,0,.193.552A.407.407,0,0,0,433.362,292.728Z" transform="translate(-432.949 -263.424)" fill="#fff"/>
            </g>
          </g>
        </g>
      </g>
    </g>
    <g id="Computer_Screen" data-name="Computer Screen" transform="translate(63.623 50.042)">
      <g id="Group_36" data-name="Group 36">
        <g id="Group_34" data-name="Group 34">
          <g id="Path_18" data-name="Path 18" transform="translate(-74.385 -52.4)" fill="#fafafa" stroke-miterlimit="10">
            <path d="M 76.31621551513672 296.3868103027344 C 76.31616973876953 296.3868103027344 76.31613922119141 296.3868103027344 76.31609344482422 296.3868103027344 C 75.47315216064453 296.3867492675781 74.96991729736328 295.6737976074219 74.96991729736328 294.4796142578125 L 74.96991729736328 158.9550170898438 L 240.7909545898438 63.21706008911133 L 240.7925415039062 198.0662841796875 C 240.7925415039062 199.0416412353516 240.4572448730469 200.1594390869141 239.8484191894531 201.2137603759766 C 239.2395629882812 202.2681732177734 238.4388580322266 203.1175231933594 237.5938568115234 203.6053771972656 L 77.58291625976562 295.98828125 C 77.13132476806641 296.2489929199219 76.69329833984375 296.3868103027344 76.31621551513672 296.3868103027344 Z" stroke="none"/>
            <path d="M 76.31620788574219 296.9717102050781 L 76.31620788574219 295.8019104003906 C 76.50764465332031 295.8019104003906 76.83208465576172 295.7463684082031 77.29042816162109 295.4817199707031 L 237.3013916015625 203.0988311767578 C 238.8767395019531 202.1893005371094 240.2076416015625 199.8847045898438 240.2076416015625 198.0662994384766 L 240.2060699462891 64.23020172119141 L 75.55480194091797 159.292724609375 L 75.55480194091797 294.4796142578125 C 75.55480194091797 294.9676513671875 75.65448760986328 295.361328125 75.83552551269531 295.5881652832031 C 75.91489410400391 295.6876831054688 76.04130554199219 295.8019104003906 76.31611633300781 295.8019104003906 L 76.31620788574219 296.9717102050781 M 76.3160400390625 296.9717102050781 C 75.17104339599609 296.9716491699219 74.38499450683594 296.0587463378906 74.38499450683594 294.4796142578125 L 74.38499450683594 158.6173400878906 L 241.3758697509766 62.20402145385742 L 241.3774566650391 198.0662994384766 C 241.3774566650391 200.2919006347656 239.814453125 202.9987030029297 237.8863067626953 204.1119232177734 L 77.87533569335938 296.4948120117188 C 77.31479644775391 296.8184204101562 76.78532409667969 296.9717407226562 76.3160400390625 296.9717102050781 Z" stroke="none" fill="#e0e0e0"/>
          </g>
          <path id="Path_19" data-name="Path 19" d="M74.385,158.617V181.3l166.99-96.412V62.2Z" transform="translate(-74.385 -52.4)" fill="#27debf"/>
          <path id="Path_20" data-name="Path 20" d="M90.632,175.746V179c0,.665.472.937,1.048.6l51.341-29.642V144.29L91.679,173.932A2.321,2.321,0,0,0,90.632,175.746Z" transform="translate(-77.535 -68.318)" fill="#fafafa"/>
          <path id="Path_21" data-name="Path 21" d="M161.126,140.315c.578-.334,1.047-.063,1.047.6v3.253a2.316,2.316,0,0,1-1.047,1.814l-5.5,3.177v-5.672Z" transform="translate(-90.138 -67.52)" fill="#455a64"/>
          <path id="Path_22" data-name="Path 22" d="M74.385,148.946a7.715,7.715,0,0,1,3.49-6.046l160.01-92.382c1.928-1.112,3.49-.21,3.49,2.015v7.312L74.385,156.259Z" transform="translate(-74.385 -50.042)" fill="#455a64"/>
          <g id="Group_32" data-name="Group 32" transform="translate(146.795 6.752)">
            <path id="Path_23" data-name="Path 23" d="M258.13,66.082a3.619,3.619,0,0,0-1.636,2.836c0,1.044.733,1.468,1.636.946a3.62,3.62,0,0,0,1.638-2.836C259.768,65.983,259.035,65.56,258.13,66.082Z" transform="translate(-256.494 -59.861)" fill="#27debf"/>
            <path id="Path_24" data-name="Path 24" d="M264.565,62.362a3.618,3.618,0,0,0-1.637,2.836c0,1.044.733,1.467,1.637.946a3.619,3.619,0,0,0,1.637-2.836C266.2,62.263,265.47,61.84,264.565,62.362Z" transform="translate(-257.742 -59.14)" fill="#27debf"/>
            <path id="Path_25" data-name="Path 25" d="M271,58.642a3.617,3.617,0,0,0-1.637,2.836c0,1.044.733,1.467,1.637.946a3.619,3.619,0,0,0,1.637-2.836C272.636,58.543,271.9,58.12,271,58.642Z" transform="translate(-258.989 -58.418)" fill="#27debf"/>
          </g>
          <g id="Group_33" data-name="Group 33" transform="translate(94.651 27.851)" opacity="0.1">
            <path id="Path_26" data-name="Path 26" d="M215.694,108.557a7.909,7.909,0,0,0-3.579,6.2c0,2.283,1.6,3.208,3.579,2.067a7.91,7.91,0,0,0,3.578-6.2C219.272,108.341,217.671,107.416,215.694,108.557Z" transform="translate(-195.744 -89.145)"/>
            <path id="Path_27" data-name="Path 27" d="M195.384,120.283a7.91,7.91,0,0,0-3.578,6.2c0,2.283,1.6,3.208,3.578,2.067a7.909,7.909,0,0,0,3.579-6.2C198.963,120.067,197.361,119.142,195.384,120.283Z" transform="translate(-191.806 -91.419)"/>
            <path id="Path_28" data-name="Path 28" d="M236,96.831a7.912,7.912,0,0,0-3.579,6.2c0,2.283,1.6,3.208,3.579,2.067a7.912,7.912,0,0,0,3.579-6.2C239.583,96.615,237.981,95.69,236,96.831Z" transform="translate(-199.683 -86.871)"/>
            <path id="Path_29" data-name="Path 29" d="M256.315,85.082a7.912,7.912,0,0,0-3.579,6.2c0,2.283,1.6,3.208,3.579,2.067a7.91,7.91,0,0,0,3.578-6.2C259.893,84.866,258.292,83.941,256.315,85.082Z" transform="translate(-203.621 -84.593)"/>
          </g>
        </g>
        <path id="Path_30" data-name="Path 30" d="M94.122,206.634l38.86-22.436c1.928-1.112,3.491-.21,3.491,2.015v37.31a7.716,7.716,0,0,1-3.491,6.046L94.123,252.005c-1.927,1.113-3.49.211-3.49-2.015V212.68A7.717,7.717,0,0,1,94.122,206.634Z" transform="translate(-77.535 -75.965)" fill="#e0e0e0"/>
        <path id="Path_31" data-name="Path 31" d="M163.181,160.853,244.6,113.84c1.927-1.112,3.49-.21,3.49,2.015v37.31a7.717,7.717,0,0,1-3.49,6.046l-81.423,47.012c-1.927,1.113-3.49.211-3.49-2.015V166.9A7.715,7.715,0,0,1,163.181,160.853Z" transform="translate(-90.927 -62.321)" fill="#e0e0e0"/>
        <g id="Group_35" data-name="Group 35" transform="translate(13.098 151.21)">
          <path id="Path_32" data-name="Path 32" d="M94.123,273.8l61.78-35.669c1.927-1.112,3.49-.322,3.49,1.766a7.483,7.483,0,0,1-3.49,5.8L94.123,281.363c-1.928,1.112-3.49.322-3.49-1.766A7.484,7.484,0,0,1,94.123,273.8Z" transform="translate(-90.633 -237.628)" fill="#e0e0e0"/>
          <path id="Path_33" data-name="Path 33" d="M94.123,290.215l61.78-35.668c1.927-1.113,3.49-.322,3.49,1.765a7.483,7.483,0,0,1-3.49,5.8L94.123,297.777c-1.928,1.113-3.49.322-3.49-1.765A7.484,7.484,0,0,1,94.123,290.215Z" transform="translate(-90.633 -240.811)" fill="#e0e0e0"/>
          <path id="Path_34" data-name="Path 34" d="M94.123,306.63l61.78-35.669c1.927-1.113,3.49-.322,3.49,1.765a7.48,7.48,0,0,1-3.49,5.8L94.123,314.191c-1.928,1.113-3.49.322-3.49-1.765A7.481,7.481,0,0,1,94.123,306.63Z" transform="translate(-90.633 -243.994)" fill="#e0e0e0"/>
        </g>
      </g>
    </g>
    <g id="Envelope" transform="translate(109.46 153.037)">
      <g id="Group_39" data-name="Group 39" transform="translate(0 0)">
        <g id="Letter">
          <g id="Group_38" data-name="Group 38" transform="translate(0.003 0.001)">
            <g id="Group_37" data-name="Group 37">
              <path id="Path_35" data-name="Path 35" d="M131.253,243.8a4.628,4.628,0,0,1,2.094-3.627l107.137-61.856a4.628,4.628,0,0,1,4.188,0l2.36,1.363a4.628,4.628,0,0,1,2.094,3.627v82.123a4.647,4.647,0,0,1-2.094,3.627L139.9,330.912a4.651,4.651,0,0,1-4.188,0l-2.36-1.363a4.648,4.648,0,0,1-2.094-3.627Z" transform="translate(-131.253 -177.815)" fill="#27debf"/>
            </g>
          </g>
          <path id="Path_36" data-name="Path 36" d="M132.011,241.737l5.944,3.427,110.7-63.922a4.331,4.331,0,0,0-1.476-1.565l-2.368-1.357a4.575,4.575,0,0,0-4.18,0L133.5,240.171A4.263,4.263,0,0,0,132.011,241.737Z" transform="translate(-131.397 -177.814)" fill="#fff" opacity="0.4"/>
          <path id="Path_37" data-name="Path 37" d="M131.249,259.174V341.3a4.618,4.618,0,0,0,2.1,3.627l2.358,1.367a3.358,3.358,0,0,0,.575.257,4.521,4.521,0,0,0,.862.2,5.129,5.129,0,0,0,1.654-.06c.139-.029.278-.069.406-.109a1.9,1.9,0,0,0,.248-.1,1.242,1.242,0,0,1-1-.019,1.45,1.45,0,0,1-.644-1.378V262.959a1.836,1.836,0,0,1,1.09-1.783l-1.09-.634-5.944-3.427A4.3,4.3,0,0,0,131.249,259.174Z" transform="translate(-131.249 -193.192)" opacity="0.1"/>
          <path id="Path_38" data-name="Path 38" d="M139.385,245.934,189,264.471a8.061,8.061,0,0,0,9.571-3.151l7.967-12.207,43.947-67.329-42.358,67.788L250.7,266.234a4.357,4.357,0,0,1-.654,2.09l-42.041-18.563-9.259,14.817a8.062,8.062,0,0,1-10.1,3.1l-6.593-2.91-42.032,67.08a1.45,1.45,0,0,1-.644-1.378v-1.367l42.471-64.425Z" transform="translate(-132.827 -178.584)" opacity="0.2"/>
        </g>
      </g>
    </g>
    <g id="Mobile_Screen" data-name="Mobile Screen" transform="translate(204.419 70.683)">
      <g id="Group_46" data-name="Group 46">
        <path id="Path_39" data-name="Path 39" d="M249.052,131.072V319.618c0,2.226,1.563,3.128,3.49,2.015l84.7-48.9a7.717,7.717,0,0,0,3.49-6.046V78.14c0-2.226-1.563-3.128-3.49-2.015l-84.7,48.9A7.717,7.717,0,0,0,249.052,131.072Z" transform="translate(-249.052 -75.648)" fill="#fafafa" stroke="#e0e0e0" stroke-miterlimit="10" stroke-width="1.17"/>
        <path id="Path_40" data-name="Path 40" d="M255.142,147.038a1.914,1.914,0,0,1,.907-1.47L265.7,140c.5-.289.908-.1.908.421a1.913,1.913,0,0,1-.908,1.469l-9.649,5.568C255.548,147.748,255.142,147.56,255.142,147.038Z" transform="translate(-250.233 -88.101)" fill="#455a64"/>
        <path id="Path_41" data-name="Path 41" d="M255.142,151.7a1.914,1.914,0,0,1,.907-1.469l9.649-5.568c.5-.289.908-.1.908.421a1.913,1.913,0,0,1-.908,1.469l-9.649,5.568C255.548,152.406,255.142,152.218,255.142,151.7Z" transform="translate(-250.233 -89.004)" fill="#455a64"/>
        <path id="Path_42" data-name="Path 42" d="M255.142,156.354a1.914,1.914,0,0,1,.907-1.469l9.649-5.568c.5-.289.908-.1.908.421a1.913,1.913,0,0,1-.908,1.469l-9.649,5.568C255.548,157.064,255.142,156.876,255.142,156.354Z" transform="translate(-250.233 -89.907)" fill="#455a64"/>
        <path id="Path_43" data-name="Path 43" d="M352.212,97.062V95.556a.1.1,0,0,0-.148-.1l-1.161.523a.138.138,0,0,1-.193-.089,2.54,2.54,0,0,0-.259-.576.32.32,0,0,1-.017-.281l.773-1.56a.174.174,0,0,0-.069-.227l-.839-.485a.177.177,0,0,0-.231.054l-.964,1.45a.318.318,0,0,1-.252.125,2.61,2.61,0,0,0-.628.064.138.138,0,0,1-.174-.123l-.127-1.266a.1.1,0,0,0-.157-.081l-1.3.753a.351.351,0,0,0-.156.243l-.131,1.451a.486.486,0,0,1-.135.271,7.8,7.8,0,0,0-.725.767.249.249,0,0,1-.256.073l-.837-.292a.2.2,0,0,0-.235.087L343.028,98a.2.2,0,0,0,.042.247l.671.579a.248.248,0,0,1,.065.258,7.885,7.885,0,0,0-.3,1.011.488.488,0,0,1-.167.253l-1.191.838a.352.352,0,0,0-.133.256v1.506a.1.1,0,0,0,.148.1l1.161-.523a.138.138,0,0,1,.193.089,2.54,2.54,0,0,0,.259.576.32.32,0,0,1,.017.281l-.773,1.56a.175.175,0,0,0,.069.227l.839.484a.177.177,0,0,0,.231-.054l.964-1.45a.32.32,0,0,1,.252-.125,2.61,2.61,0,0,0,.628-.064.138.138,0,0,1,.174.123l.127,1.266a.1.1,0,0,0,.157.081l1.3-.753a.351.351,0,0,0,.156-.243l.131-1.451a.487.487,0,0,1,.136-.271,7.9,7.9,0,0,0,.724-.767.249.249,0,0,1,.256-.073l.837.292a.2.2,0,0,0,.235-.087l.958-1.66a.2.2,0,0,0-.042-.247l-.671-.579a.248.248,0,0,1-.065-.258,7.875,7.875,0,0,0,.3-1.011.488.488,0,0,1,.167-.253l1.191-.838A.352.352,0,0,0,352.212,97.062Zm-5.1,4.735c-1.217.7-2.2.133-2.2-1.272a4.869,4.869,0,0,1,2.2-3.816c1.216-.7,2.2-.133,2.2,1.272A4.87,4.87,0,0,1,347.113,101.8Z" transform="translate(-267.079 -78.963)" fill="#37474f"/>
        <g id="Group_40" data-name="Group 40" transform="translate(27.922 52.811)">
          <path id="Path_44" data-name="Path 44" d="M301.61,143.611c9.9-5.714,17.92-1.082,17.92,10.346S311.507,179.281,301.61,185s-17.919,1.082-17.919-10.346S291.714,149.326,301.61,143.611Z" transform="translate(-283.691 -141.164)" fill="#455a64"/>
          <path id="Path_45" data-name="Path 45" d="M304.366,155.167c3.211-1.854,5.814-.351,5.814,3.356a12.852,12.852,0,0,1-5.814,10.07c-3.211,1.853-5.813.351-5.813-3.357A12.849,12.849,0,0,1,304.366,155.167Z" transform="translate(-286.573 -143.725)" fill="#27debf"/>
          <path id="Path_46" data-name="Path 46" d="M314.59,178.243c0-6.092-4.277-8.561-9.551-5.514l-3.3,1.9c-5.274,3.045-9.551,10.452-9.551,16.543v1.661a9.8,9.8,0,0,0,3.079.476,16.16,16.16,0,0,0,7.989-2.448,35.3,35.3,0,0,0,11.332-11.209Z" transform="translate(-285.339 -147.032)" fill="#27debf"/>
        </g>
        <path id="Path_47" data-name="Path 47" d="M285.436,212.08,317.785,193.4c.964-.556,1.745-.161,1.745.883a3.741,3.741,0,0,1-1.745,2.9l-32.349,18.677c-.964.556-1.745.161-1.745-.883A3.743,3.743,0,0,1,285.436,212.08Z" transform="translate(-255.769 -98.434)" fill="#27debf"/>
        <path id="Path_48" data-name="Path 48" d="M281.129,227.683l39.293-22.71c.963-.557,1.745-.161,1.745.883a3.743,3.743,0,0,1-1.745,2.9l-39.293,22.71c-.964.556-1.745.161-1.745-.883A3.741,3.741,0,0,1,281.129,227.683Z" transform="translate(-254.934 -100.677)" fill="#455a64"/>
        <path id="Path_49" data-name="Path 49" d="M331.341,226.173l11-6.353c.578-.334,1.046-.181,1.046.341a2.1,2.1,0,0,1-1.046,1.55l-11,6.353c-.578.334-1.047.181-1.047-.341A2.1,2.1,0,0,1,331.341,226.173Z" transform="translate(-264.806 -103.571)" fill="#37474f"/>
        <g id="Group_41" data-name="Group 41" transform="translate(9.824 140.996)">
          <path id="Path_50" data-name="Path 50" d="M262.984,260.129,279.14,250.8c.964-.556,1.745-.106,1.745,1.008V262.9a3.856,3.856,0,0,1-1.745,3.023l-16.156,9.327c-.963.557-1.745.106-1.745-1.008V263.151A3.858,3.858,0,0,1,262.984,260.129Z" transform="translate(-261.239 -250.562)" fill="#27debf"/>
          <path id="Path_51" data-name="Path 51" d="M266.349,262.782l11-6.353c.578-.334,1.047-.181,1.047.341a2.1,2.1,0,0,1-1.047,1.55l-11,6.353c-.579.334-1.047.181-1.047-.341A2.1,2.1,0,0,1,266.349,262.782Z" transform="translate(-262.027 -251.666)" fill="#fafafa"/>
          <path id="Path_52" data-name="Path 52" d="M265.3,269.295v3.253c0,.667.468.938,1.047.6l11-6.353a2.316,2.316,0,0,0,1.047-1.814v-3.253c0-.667-.469-.938-1.047-.6l-11,6.354A2.312,2.312,0,0,0,265.3,269.295Z" transform="translate(-262.027 -252.583)" fill="#fafafa"/>
        </g>
        <g id="Group_42" data-name="Group 42" transform="translate(36.018 125.873)">
          <path id="Path_53" data-name="Path 53" d="M295.48,241.367l16.156-9.327c.964-.556,1.745-.106,1.745,1.008v11.093a3.858,3.858,0,0,1-1.745,3.023l-16.156,9.327c-.964.556-1.745.106-1.745-1.008V244.39A3.859,3.859,0,0,1,295.48,241.367Z" transform="translate(-293.735 -231.801)" fill="#27debf"/>
          <path id="Path_54" data-name="Path 54" d="M298.845,244.021l11-6.353c.578-.335,1.047-.181,1.047.34a2.1,2.1,0,0,1-1.047,1.55l-11,6.353c-.579.334-1.047.181-1.047-.34A2.1,2.1,0,0,1,298.845,244.021Z" transform="translate(-294.523 -232.905)" fill="#fafafa"/>
          <path id="Path_55" data-name="Path 55" d="M297.8,250.534v3.253c0,.667.468.938,1.047.6l11-6.353a2.316,2.316,0,0,0,1.047-1.814v-3.253c0-.667-.468-.938-1.047-.6l-11,6.353A2.315,2.315,0,0,0,297.8,250.534Z" transform="translate(-294.523 -233.822)" fill="#fafafa"/>
        </g>
        <g id="Group_43" data-name="Group 43" transform="translate(62.213 110.748)">
          <path id="Path_56" data-name="Path 56" d="M327.976,222.6l16.156-9.328c.963-.556,1.745-.1,1.745,1.008v11.093a3.858,3.858,0,0,1-1.745,3.023l-16.156,9.327c-.964.557-1.746.106-1.746-1.008V225.628A3.858,3.858,0,0,1,327.976,222.6Z" transform="translate(-326.231 -213.039)" fill="#27debf"/>
          <path id="Path_57" data-name="Path 57" d="M331.341,225.258l11-6.353c.579-.334,1.047-.181,1.047.341a2.1,2.1,0,0,1-1.047,1.55l-11,6.353c-.578.334-1.047.181-1.047-.341A2.1,2.1,0,0,1,331.341,225.258Z" transform="translate(-327.019 -214.142)" fill="#fafafa"/>
          <path id="Path_58" data-name="Path 58" d="M330.294,231.771v3.253c0,.668.469.939,1.047.6l11-6.353a2.312,2.312,0,0,0,1.047-1.814v-3.253c0-.668-.469-.938-1.047-.6l-11,6.353A2.316,2.316,0,0,0,330.294,231.771Z" transform="translate(-327.019 -215.06)" fill="#fafafa"/>
        </g>
        <path id="Path_59" data-name="Path 59" d="M264.729,284.856,329.784,247.3c1.927-1.113,3.49-.322,3.49,1.765a7.486,7.486,0,0,1-3.49,5.8l-65.055,37.559c-1.927,1.113-3.49.322-3.49-1.765A7.485,7.485,0,0,1,264.729,284.856Z" transform="translate(-251.415 -108.836)" fill="#e0e0e0"/>
        <path id="Path_60" data-name="Path 60" d="M264.729,303.617l65.055-37.559c1.927-1.113,3.49-.322,3.49,1.765a7.485,7.485,0,0,1-3.49,5.8l-65.055,37.56c-1.927,1.113-3.49.322-3.49-1.765A7.486,7.486,0,0,1,264.729,303.617Z" transform="translate(-251.415 -112.474)" fill="#e0e0e0"/>
        <path id="Path_61" data-name="Path 61" d="M291.419,317.849l22.7-13.109c.964-.556,1.745-.1,1.745,1.008v7.313a3.859,3.859,0,0,1-1.746,3.023l-22.7,13.108c-.964.557-1.745.106-1.745-1.008v-7.312A3.856,3.856,0,0,1,291.419,317.849Z" transform="translate(-256.929 -120.026)" fill="#27debf"/>
        <g id="Group_44" data-name="Group 44" transform="translate(13.098 158.915)">
          <path id="Path_62" data-name="Path 62" d="M266.938,295.337a3.619,3.619,0,0,0-1.637,2.836c0,1.044.734,1.467,1.637.946a3.619,3.619,0,0,0,1.637-2.836C268.575,295.238,267.843,294.815,266.938,295.337Z" transform="translate(-265.301 -277.121)" fill="#fafafa"/>
          <path id="Path_63" data-name="Path 63" d="M273.372,291.616a3.62,3.62,0,0,0-1.636,2.837c0,1.044.733,1.467,1.636.946a3.619,3.619,0,0,0,1.637-2.837C275.01,291.518,274.277,291.095,273.372,291.616Z" transform="translate(-266.549 -276.399)" fill="#fafafa"/>
          <path id="Path_64" data-name="Path 64" d="M279.807,287.9a3.619,3.619,0,0,0-1.637,2.836c0,1.045.733,1.468,1.637.946a3.619,3.619,0,0,0,1.637-2.836C281.444,287.8,280.711,287.375,279.807,287.9Z" transform="translate(-267.797 -275.678)" fill="#fafafa"/>
          <path id="Path_65" data-name="Path 65" d="M286.241,284.176a3.619,3.619,0,0,0-1.637,2.836c0,1.045.733,1.468,1.637.946a3.617,3.617,0,0,0,1.637-2.836C287.878,284.078,287.146,283.655,286.241,284.176Z" transform="translate(-269.044 -274.957)" fill="#fafafa"/>
          <path id="Path_66" data-name="Path 66" d="M292.675,280.456a3.621,3.621,0,0,0-1.637,2.836c0,1.045.734,1.468,1.637.945a3.618,3.618,0,0,0,1.637-2.836C294.312,280.357,293.58,279.934,292.675,280.456Z" transform="translate(-270.292 -274.235)" fill="#fafafa"/>
          <path id="Path_67" data-name="Path 67" d="M299.11,276.736a3.618,3.618,0,0,0-1.637,2.836c0,1.044.733,1.468,1.637.946a3.62,3.62,0,0,0,1.636-2.836C300.747,276.637,300.014,276.214,299.11,276.736Z" transform="translate(-271.54 -273.514)" fill="#fafafa"/>
          <path id="Path_68" data-name="Path 68" d="M305.544,273.016a3.617,3.617,0,0,0-1.637,2.836c0,1.044.733,1.467,1.637.945a3.621,3.621,0,0,0,1.637-2.836C307.181,272.917,306.448,272.494,305.544,273.016Z" transform="translate(-272.787 -272.792)" fill="#fafafa"/>
        </g>
        <g id="Group_45" data-name="Group 45" transform="translate(13.098 174.055)">
          <path id="Path_69" data-name="Path 69" d="M266.938,314.119a3.62,3.62,0,0,0-1.637,2.836c0,1.044.734,1.468,1.637.946a3.619,3.619,0,0,0,1.637-2.836C268.575,314.02,267.843,313.6,266.938,314.119Z" transform="translate(-265.301 -295.903)" fill="#fafafa"/>
          <path id="Path_70" data-name="Path 70" d="M273.372,310.4a3.618,3.618,0,0,0-1.636,2.836c0,1.044.733,1.467,1.636.946a3.619,3.619,0,0,0,1.637-2.836C275.01,310.3,274.277,309.877,273.372,310.4Z" transform="translate(-266.549 -295.181)" fill="#fafafa"/>
          <path id="Path_71" data-name="Path 71" d="M279.807,306.679a3.617,3.617,0,0,0-1.637,2.836c0,1.044.733,1.467,1.637.946a3.621,3.621,0,0,0,1.637-2.837C281.444,306.58,280.711,306.157,279.807,306.679Z" transform="translate(-267.797 -294.46)" fill="#fafafa"/>
          <path id="Path_72" data-name="Path 72" d="M286.241,302.958a3.619,3.619,0,0,0-1.637,2.836c0,1.045.733,1.468,1.637.946a3.617,3.617,0,0,0,1.637-2.836C287.878,302.86,287.146,302.437,286.241,302.958Z" transform="translate(-269.044 -293.739)" fill="#fafafa"/>
          <path id="Path_73" data-name="Path 73" d="M292.675,299.238a3.621,3.621,0,0,0-1.637,2.836c0,1.045.734,1.468,1.637.946a3.617,3.617,0,0,0,1.637-2.836C294.312,299.14,293.58,298.717,292.675,299.238Z" transform="translate(-270.292 -293.017)" fill="#fafafa"/>
          <path id="Path_74" data-name="Path 74" d="M299.11,295.518a3.619,3.619,0,0,0-1.637,2.836c0,1.045.733,1.468,1.637.946a3.618,3.618,0,0,0,1.636-2.836C300.747,295.42,300.014,295,299.11,295.518Z" transform="translate(-271.54 -292.296)" fill="#fafafa"/>
          <path id="Path_75" data-name="Path 75" d="M305.544,291.8a3.618,3.618,0,0,0-1.637,2.836c0,1.045.733,1.468,1.637.946a3.62,3.62,0,0,0,1.637-2.836C307.181,291.7,306.448,291.276,305.544,291.8Z" transform="translate(-272.787 -291.574)" fill="#fafafa"/>
        </g>
      </g>
    </g>
    <g id="Key" transform="translate(305.943 121.815)">
      <g id="Group_49" data-name="Group 49">
        <g id="Group_48" data-name="Group 48" transform="translate(0 91.653)">
          <g id="Group_47" data-name="Group 47">
            <path id="Path_76" data-name="Path 76" d="M392.078,318.355a15.7,15.7,0,0,1-7.938-2.1C378.331,312.9,375,305.883,375,297c0-15.624,9.93-33.6,22.607-40.915,6.826-3.94,13.6-4.368,19.09-1.2,5.809,3.354,9.14,10.374,9.14,19.258,0,15.624-9.93,33.6-22.607,40.915A22.463,22.463,0,0,1,392.078,318.355Zm16.654-54.317a11.936,11.936,0,0,0-5.5,1.784c-9.207,5.315-16.984,19.592-16.984,31.176,0,4.688,1.315,8.247,3.517,9.518,2.508,1.448,5.991-.132,7.844-1.2,9.206-5.315,16.984-19.592,16.984-31.176,0-4.688-1.316-8.247-3.518-9.519A4.619,4.619,0,0,0,408.731,264.038Z" transform="translate(-374.999 -252.782)" fill="#455a64"/>
          </g>
          <path id="Path_77" data-name="Path 77" d="M420.153,279.489c0-8.776-5.529-12.021-5.529-12.021h0c2.2,1.272,3.518,4.831,3.518,9.519,0,11.584-7.778,25.861-16.984,31.176-1.853,1.069-5.336,2.649-7.844,1.2,0,0,4.666,2.9,11.112-.621C413.758,303.653,420.153,291.073,420.153,279.489Z" transform="translate(-378.551 -255.63)" fill="#37474f"/>
        </g>
        <path id="Path_78" data-name="Path 78" d="M412.81,144.9a5.815,5.815,0,0,0-11.629,0v.016h0v92.464h0a2.889,2.889,0,0,0,1.7,2.374,9.084,9.084,0,0,0,8.223,0,2.89,2.89,0,0,0,1.7-2.374h0V144.911h0Z" transform="translate(-380.076 -139.081)" fill="#37474f"/>
        <path id="Path_79" data-name="Path 79" d="M404.388,170.418a7.42,7.42,0,0,0-3.358-5.816,2.33,2.33,0,0,0-2.4-.212l0,0-14.347,8.266-.347.206a.774.774,0,0,0-.14.083,4.548,4.548,0,0,0-.687.562,4.752,4.752,0,0,0,5.6,7.555c.091-.05.182-.108.272-.157l14.438-8.316,0,0A2.366,2.366,0,0,0,404.388,170.418Z" transform="translate(-376.298 -143.942)" fill="#455a64"/>
        <path id="Path_80" data-name="Path 80" d="M403.794,199.143a7.422,7.422,0,0,0-3.358-5.816,2.332,2.332,0,0,0-2.4-.212l0,0-16.815,9.657-.347.206a.774.774,0,0,0-.14.083,4.5,4.5,0,0,0-.686.562,4.752,4.752,0,0,0,5.6,7.555c.091-.05.182-.108.272-.157l16.906-9.706,0,0A2.365,2.365,0,0,0,403.794,199.143Z" transform="translate(-375.705 -149.512)" fill="#455a64"/>
      </g>
    </g>
  </g>
</svg>
