<svg xmlns="http://www.w3.org/2000/svg" width="31" height="31" viewBox="0 0 31 31">
  <g id="Group_6194" data-name="Group 6194" transform="translate(-733.541 -1048.458)">
    <circle id="Ellipse_29" data-name="Ellipse 29" cx="15.5" cy="15.5" r="15.5" transform="translate(733.541 1048.458)" fill="#64c689"/>
    <path id="Path_700" data-name="Path 700" d="M19.981,3.973,18.405,2.4a1.66,1.66,0,0,0-2.319,0L14.538,3.973,18.405,7.84l1.576-1.547A1.66,1.66,0,0,0,19.981,3.973ZM13.013,5.52,7.627,10.963a.447.447,0,0,0-.141.25L6.4,15.37a.525.525,0,0,0,.141.521.512.512,0,0,0,.38.107.3.3,0,0,0,.142,0l4.156-1.089a.431.431,0,0,0,.25-.142L16.852,9.36Z" transform="translate(735.625 1054.992)" fill="#fafafa"/>
  </g>
</svg>
