<svg xmlns="http://www.w3.org/2000/svg" xmlns:xlink="http://www.w3.org/1999/xlink" width="48" height="48" viewBox="0 0 48 48">
  <defs>
    <clipPath id="clip-path">
      <rect id="Rectangle_177" data-name="Rectangle 177" width="48" height="48" fill="none"/>
    </clipPath>
  </defs>
  <g id="Group_188" data-name="Group 188" style="isolation: isolate">
    <path id="Path_391" data-name="Path 391" d="M48,24A24,24,0,1,1,24,0,24,24,0,0,1,48,24" fill="#ebf0f1"/>
    <path id="Path_392" data-name="Path 392" d="M34.949,7.574a.353.353,0,0,0-.375.375V11.7a.375.375,0,1,0,.75,0V7.949A.353.353,0,0,0,34.949,7.574Zm-6.523-.449a.352.352,0,0,0-.375.375v2.773a.375.375,0,1,0,.75,0V7.5A.4.4,0,0,0,28.426,7.125ZM31.727,6a.352.352,0,0,0-.375.375v4.8a.375.375,0,0,0,.75,0v-4.8C32.027,6.148,31.875,6,31.727,6Zm-6.6.6a.352.352,0,0,0-.375.375v5.7a.375.375,0,0,0,.75,0V6.9a.343.343,0,0,0-.375-.3Z" fill="#677177"/>
    <path id="Path_393" data-name="Path 393" d="M35.023,18.75A6.146,6.146,0,0,1,30,21.375,6.04,6.04,0,0,1,25.125,18.9a15.8,15.8,0,0,0-4.8,3L18.074,24s-2.324-2.477-4.2-2.477c0,0,.523,5.477-6.824,6.524v2.324s4.5,7.051,9.75,6A9.564,9.564,0,0,1,16.875,42h3.75l1.352-3.676H32.25a12.2,12.2,0,0,1-.3,3.676h3.824a12.811,12.811,0,0,0,1.95-6.523,10.2,10.2,0,0,0,3.148-7.352,10.065,10.065,0,0,0-5.851-9.375Z" fill="#ff6a52"/>
    <path id="Path_394" data-name="Path 394" d="M13.273,28.648a.9.9,0,1,1-1.8,0,.9.9,0,1,1,1.8,0" fill="#fff"/>
    <path id="Path_395" data-name="Path 395" d="M12.523,28.875a.449.449,0,1,1-.9,0,.449.449,0,1,1,.9,0" fill="#474e5e"/>
    <path id="Path_396" data-name="Path 396" d="M30.074,22.273a15.245,15.245,0,0,0-4.125.6,11.572,11.572,0,0,0-3.75,1.8c1.352-.375,2.625-.676,3.9-.9a22.959,22.959,0,0,1,3.976-.3,23.57,23.57,0,0,1,3.977.3,37.014,37.014,0,0,1,3.9.9,11.563,11.563,0,0,0-3.75-1.8A15.673,15.673,0,0,0,30.074,22.273Z" fill="#eb5151"/>
    <path id="Path_397" data-name="Path 397" d="M36.523,15.375a6.449,6.449,0,1,1-6.449-6.449,6.447,6.447,0,0,1,6.449,6.449" fill="#facc20"/>
    <path id="Path_398" data-name="Path 398" d="M34.8,15.375c0,6.3-9.449,6.3-9.449,0s9.449-6.3,9.449,0" fill="#fdef34"/>
    <path id="Path_399" data-name="Path 399" d="M30.379,17.773V15.9c.9.3.9.676.9.9S31.2,17.547,30.379,17.773Zm-.6-3.148c-.449-.227-.75-.3-.75-.824,0-.227.075-.6.75-.824Zm2.4,1.352c-.074-.227-.375-.9-1.8-1.2v-1.8a1,1,0,0,1,.676.675.546.546,0,0,0,.523.45c.149,0,1.051-.227.149-1.426-.149-.227-.45-.524-1.352-.6V11.4h-.523v.676c-1.649.149-1.8,1.274-1.8,1.727,0,1.426,1.426,1.726,1.8,1.8v1.949c-.676-.149-.825-.9-.9-1.125a.59.59,0,0,0-.523-.375.5.5,0,0,0-.524.523,1.864,1.864,0,0,0,1.125,1.574,1.608,1.608,0,0,0,.9.227v.676h.523v-.676a2.41,2.41,0,0,0,1.051-.3,1.687,1.687,0,0,0,.676-2.1Z" fill="#eb5151"/>
    <g id="Group_184" data-name="Group 184" opacity="0.4" style="isolation: isolate">
      <g id="Group_183" data-name="Group 183">
        <g id="Group_182" data-name="Group 182" clip-path="url(#clip-path)">
          <path id="Path_400" data-name="Path 400" d="M36.074,12.9,27.6,21.375a6.747,6.747,0,0,1-2.4-1.727L34.352,10.5a6.785,6.785,0,0,1,1.726,2.4ZM33.75,10.051l-9,9a4.211,4.211,0,0,1-.676-1.274L32.551,9.3A10.493,10.493,0,0,1,33.75,10.051Z" fill="#fff"/>
        </g>
      </g>
    </g>
    <g id="Group_187" data-name="Group 187" opacity="0.1" style="isolation: isolate">
      <g id="Group_186" data-name="Group 186">
        <g id="Group_185" data-name="Group 185" clip-path="url(#clip-path)">
          <path id="Path_401" data-name="Path 401" d="M31.352,37.875H21.074l-1.351,3.676h-2.7c-.074.148-.074.3-.148.449h3.75l1.352-3.676h9.375ZM35.023,18.75a10.436,10.436,0,0,1,4.95,8.852,9.955,9.955,0,0,1-3.149,7.351,12.586,12.586,0,0,1-1.949,6.524H32.023c0,.148-.074.3-.074.449h3.824a12.812,12.812,0,0,0,1.95-6.524,10.2,10.2,0,0,0,3.148-7.351,10.038,10.038,0,0,0-5.851-9.3Z" fill="#231f20"/>
        </g>
      </g>
    </g>
  </g>
</svg>
