<svg id="Group_731" data-name="Group 731" xmlns="http://www.w3.org/2000/svg" xmlns:xlink="http://www.w3.org/1999/xlink" width="30.854" height="30.854" viewBox="0 0 30.854 30.854">
  <defs>
    <clipPath id="clip-path">
      <rect id="Rectangle_134" data-name="Rectangle 134" width="30.854" height="30.854" fill="#64c689"/>
    </clipPath>
  </defs>
  <g id="Group_418" data-name="Group 418" transform="translate(0 0)" clip-path="url(#clip-path)">
    <path id="Path_56" data-name="Path 56" d="M21.278,16.926H16.926v4.352a1.445,1.445,0,0,1-1.4,1.451,1.468,1.468,0,0,1-1.505-1.451V16.926H9.672a1.451,1.451,0,1,1,0-2.9h4.352V9.672a1.451,1.451,0,1,1,2.9,0v4.352h4.352a1.451,1.451,0,0,1,0,2.9M15.475,0A15.475,15.475,0,1,0,30.95,15.475,15.474,15.474,0,0,0,15.475,0" transform="translate(0 -0.098)" fill="#64c689"/>
  </g>
</svg>
