<svg xmlns="http://www.w3.org/2000/svg" width="48" height="48" viewBox="0 0 48 48">
  <g id="Group_191" data-name="Group 191" transform="translate(-1144 -889)">
    <circle id="Ellipse_16" data-name="Ellipse 16" cx="24" cy="24" r="24" transform="translate(1144 889)" fill="#ebf0f1"/>
    <g id="Group_189" data-name="Group 189" transform="translate(1678.214 1033.292)">
      <path id="Path_403" data-name="Path 403" d="M-502.009-46.343h0c.089.138.261.175.358.311a.934.934,0,0,1-.093,1.246c-.436.459-.892.9-1.339,1.348a.612.612,0,0,1-.283.14c-.889.253-1.776.511-2.664.763a1.063,1.063,0,0,1-.29.029c-1.052,0-2.1.018-3.155-.005a12.663,12.663,0,0,1-1.839-.289c-1.5-.255-3.007-.518-4.51-.78q-1.809-.315-3.618-.635c0,.141-.01.283-.016.423,0,.374,0,.748.011,1.122,0,.13-.046.166-.17.165q-2.4,0-4.8,0c-.124,0-.173-.035-.17-.165.009-.374.008-.748.011-1.122q0-2.48-.012-4.959c0-.157.054-.194.2-.193q2.367.006,4.736,0c.167,0,.217.051.208.214-.011.213,0,.429,0,.642l1.61-.322a8.48,8.48,0,0,1-.755-3.1,7.287,7.287,0,0,1,.881-3.651,21.912,21.912,0,0,1,3.167-4.623c.29-.338.59-.669.885-1a.85.85,0,0,1,.4-1.411,2.845,2.845,0,0,1,.661-.044h6.841a2.8,2.8,0,0,1,.661.044.85.85,0,0,1,.4,1.411c.733.826,1.468,1.652,2.128,2.54A23.015,23.015,0,0,1-501-55.857a9.092,9.092,0,0,1,1.193,3.233,7.589,7.589,0,0,1-.556,3.87A7.219,7.219,0,0,1-502.009-46.343Z" transform="translate(0 -66.848)" fill="#fefefe"/>
      <path id="Path_404" data-name="Path 404" d="M-423.188-36.966a12.636,12.636,0,0,1-2.3,4.008,5.783,5.783,0,0,1-1.161,1.188l-.035.021c-.014.01-.029.019-.044.028l-.036.011a.233.233,0,0,1-.044.009h-.008c-.1,0-.21.016-.288-.069l-.013-.016-.007-.009a.651.651,0,0,1-.046-.288q0-.979,0-1.957a.567.567,0,0,1,.049-.281l0-.006.013-.011c.144-.127.326-.074.492-.083.275-.015.3-.031.3-.313,0-.32,0-.639,0-.958,0-.2-.07-.294-.279-.287a1.069,1.069,0,0,1-.472-.041.191.191,0,0,1-.045-.041.161.161,0,0,1-.02-.031.485.485,0,0,1-.033-.218c-.006-.222-.012-.446,0-.669a.353.353,0,0,0-.3-.4c-.77-.22-1.537-.458-2.3-.689-.461-.138-.924-.271-1.381-.418a.712.712,0,0,0-.444,0q-1.815.556-3.634,1.094c-.337.1-.355.126-.357.489,0,.2,0,.393,0,.589a.5.5,0,0,1-.034.229.166.166,0,0,1-.021.031.2.2,0,0,1-.035.036,1.11,1.11,0,0,1-.5.046c-.176,0-.263.062-.26.248,0,.356,0,.71,0,1.066,0,.168.075.235.24.243.187.01.389-.052.558.084l.006,0a.113.113,0,0,1,.007.014.594.594,0,0,1,.049.3q0,.97,0,1.939a.586.586,0,0,1-.051.3.06.06,0,0,1-.006.011l-.007.006c-.158.132-.35.082-.528.084s-.271.077-.268.27c.006.338,0,.675,0,1.013a.747.747,0,0,1-.04.315.176.176,0,0,1-.011.024l-.006.006a.268.268,0,0,1-.235.082,8.969,8.969,0,0,0-2.072.3c-.322.058-.642.131-.964.19-.094.017-.193.05-.276-.032a8.478,8.478,0,0,1-.755-3.1,7.286,7.286,0,0,1,.881-3.651,21.914,21.914,0,0,1,3.167-4.623c.29-.338.59-.669.885-1a5.365,5.365,0,0,0,2.131.173c1.692.015,3.384.007,5.075,0a4.213,4.213,0,0,0,1.757-.175c.733.826,1.468,1.652,2.127,2.54A23.015,23.015,0,0,1-423.188-36.966Z" transform="translate(-77.807 -85.738)" fill="#39b44a"/>
      <path id="Path_405" data-name="Path 405" d="M-360.124,34.108a7.218,7.218,0,0,1-1.65,2.411h0c-.116.108-.255.036-.383.046h-.009l-.1.005a.633.633,0,0,0-.2.034,2.215,2.215,0,0,0-1.237.749,2.191,2.191,0,0,1-1.21.655,14.572,14.572,0,0,1-3.85.273,3.741,3.741,0,0,1-1.195-.368q-1.659-.6-3.315-1.207a.48.48,0,0,1-.272-.157l0-.005a.025.025,0,0,1,0-.006c.075-.171.247-.14.381-.157.645-.074,1.289-.176,1.936-.21a1.34,1.34,0,0,0,1.4-1,.275.275,0,0,1,.044-.046l.019-.014a.752.752,0,0,1,.241-.089,13.147,13.147,0,0,0,2.595-1.029l.106-.057.1-.057a.415.415,0,0,1,.135-.025h.062l.091,0c.73-.016,1.461,0,2.191-.007.341,0,.36-.022.363-.365,0-.275-.007-.552,0-.827.008-.213-.031-.372-.286-.381a.134.134,0,0,1-.089-.044.169.169,0,0,1-.021-.024,12.927,12.927,0,0,0,2.874-3.841c.185-.374.328-.769.489-1.155.034-.079.037-.18.15-.2a9.092,9.092,0,0,1,1.193,3.233A7.589,7.589,0,0,1-360.124,34.108Z" transform="translate(-140.235 -149.709)" fill="#39b44a"/>
      <path id="Path_406" data-name="Path 406" d="M-436.87,126.23a17.329,17.329,0,0,1-1.418,1.454.922.922,0,0,1-.412.184q-1.26.359-2.519.72a1.613,1.613,0,0,1-.448.059c-1.007,0-2.014.013-3.02-.005a12.083,12.083,0,0,1-1.846-.286q-3.49-.6-6.978-1.216a.753.753,0,0,1-.3-.083.249.249,0,0,1-.027-.021.267.267,0,0,1-.049-.056.759.759,0,0,1-.044-.314q0-1.438,0-2.876c0-.13-.021-.27.092-.374l1.61-.322c.836-.165,1.673-.327,2.508-.5.336-.069.675-.005,1.01-.042a.311.311,0,0,1,.045-.03.421.421,0,0,1,.205-.045c.922,0,1.844-.009,2.767,0a.532.532,0,0,1,.13.021.751.751,0,0,1,.078.064.429.429,0,0,1,.031.031,1.1,1.1,0,0,1,.008,1.368,1.264,1.264,0,0,1-.831.491c-.642.1-1.291.162-1.934.265-.077.012-.183-.022-.222.056s.065.132.112.19a1.157,1.157,0,0,1,.142.21l.006.011c1.306.471,2.617.929,3.916,1.418a3.173,3.173,0,0,0,1.429.247,1.087,1.087,0,0,1,.187,0,12.153,12.153,0,0,0,3.6-.389.611.611,0,0,0,.32-.175c.216-.226.435-.449.667-.658a1.628,1.628,0,0,1,.95-.449.579.579,0,0,1,.306.024c.1.049.137.156.151.352A.944.944,0,0,1-436.87,126.23Z" transform="translate(-65.599 -238.35)" fill="#fbcba6"/>
      <path id="Path_407" data-name="Path 407" d="M-519.442,128.375c0,.141-.01.283-.016.423a.457.457,0,0,1-.353.084q-2.207,0-4.413,0a.459.459,0,0,1-.354-.084q0-2.48-.012-4.959c0-.157.054-.194.2-.193q2.367.006,4.736,0c.167,0,.217.051.208.214-.011.213,0,.429,0,.642q0,1.8,0,3.6a.246.246,0,0,1,.027.044A.213.213,0,0,1-519.442,128.375Z" transform="translate(0 -239.436)" fill="#fec741"/>
      <path id="Path_408" data-name="Path 408" d="M-373.43-130.761c-.147-.449-.3-.9-.44-1.346a1.12,1.12,0,0,1,.339-1.258,1.091,1.091,0,0,1,1.318-.091,1.126,1.126,0,0,0,1.442-.179,2.111,2.111,0,0,1,2.967.013,1.122,1.122,0,0,0,1.4.184,1.114,1.114,0,0,1,1.34.092,1.138,1.138,0,0,1,.312,1.316q-.21.634-.421,1.268a.568.568,0,0,1-.338.045c-2.554,0-5.109,0-7.664,0A.348.348,0,0,1-373.43-130.761Z" transform="translate(-139.877 0)" fill="#39b44a"/>
      <path id="Path_409" data-name="Path 409" d="M-374.272-86.182a1.222,1.222,0,0,1,.4-.043h7.491a1,1,0,0,1,.369.041.834.834,0,0,1,.585.8.822.822,0,0,1-.539.808c-.052.023-.1.034-.085.106-.063.068-.146.054-.225.053q-3.856-.024-7.713,0c-.079,0-.162.015-.225-.053a.081.081,0,0,0-.061-.1.822.822,0,0,1-.564-.823A.847.847,0,0,1-374.272-86.182Z" transform="translate(-139.035 -44.579)" fill="#8b6239"/>
      <path id="Path_410" data-name="Path 410" d="M-365.628-60.785a1.056,1.056,0,0,1-.757.264q-3.725-.009-7.449,0a1.047,1.047,0,0,1-.757-.265.85.85,0,0,1,.4-1.411,2.845,2.845,0,0,1,.661-.044h6.841a2.8,2.8,0,0,1,.661.044A.85.85,0,0,1-365.628-60.785Z" transform="translate(-139.062 -66.848)" fill="#603813"/>
      <path id="Path_411" data-name="Path 411" d="M-434.931,161.193c-.436.459-.892.9-1.339,1.348a.613.613,0,0,1-.283.14c-.889.253-1.776.512-2.664.763a1.063,1.063,0,0,1-.29.029c-1.052,0-2.1.018-3.155-.005a12.661,12.661,0,0,1-1.838-.289c-1.5-.255-3.007-.518-4.51-.78q-1.809-.315-3.618-.635c0-.085,0-.17,0-.254v-.022c.777.132,1.554.262,2.33.4,1.081.187,2.162.38,3.243.568s2.163.375,3.245.561a1.712,1.712,0,0,0,.29.029c1.044,0,2.087.008,3.13,0a6.082,6.082,0,0,0,1.366-.337c.517-.125,1.024-.294,1.537-.436a1.1,1.1,0,0,0,.539-.323c.409-.448.881-.833,1.256-1.314a.85.85,0,0,0,.186-.571c-.007-.238-.041-.333-.185-.374a.949.949,0,0,0-.2-.029,1.678,1.678,0,0,1,.7-.024h0c.089.138.261.175.358.311A.934.934,0,0,1-434.931,161.193Z" transform="translate(-66.812 -272.826)" fill="#fbcba6"/>
      <path id="Path_412" data-name="Path 412" d="M-519.43,196.807c0,.13-.046.166-.17.165q-2.4,0-4.8,0c-.124,0-.173-.035-.169-.165.009-.374.008-.748.011-1.122h5.121C-519.438,196.059-519.439,196.433-519.43,196.807Z" transform="translate(-0.016 -306.323)" fill="#fec741"/>
      <path id="Path_413" data-name="Path 413" d="M-371.486,38.588c.213,0,.426.01.639,0,.158-.007.221.041.217.209q-.015.653,0,1.307c0,.173-.069.211-.222.2-.213-.008-.426,0-.639,0-.276.15-.573.056-.86.076-.566.01-1.133.011-1.7,0-.29.008-.58.009-.87,0-.566.01-1.133.011-1.7,0-.29.008-.58.009-.87,0-.567.01-1.134.011-1.7,0-.288-.02-.587.075-.863-.076-.222,0-.444-.007-.666,0-.129,0-.2-.03-.194-.177q.01-.68,0-1.36c0-.143.056-.185.19-.182.222.006.444,0,.666,0a.51.51,0,0,1,.356-.084q3.929,0,7.859,0A.51.51,0,0,1-371.486,38.588Z" transform="translate(-133.4 -160.384)" fill="gray"/>
      <path id="Path_414" data-name="Path 414" d="M-360.425,6.477H-369c0-.33.016-.661,0-.99a.313.313,0,0,1,.267-.377c1.3-.383,2.6-.779,3.9-1.173a.377.377,0,0,1,.233,0c1.309.4,2.617.8,3.929,1.183a.286.286,0,0,1,.241.341C-360.438,5.8-360.426,6.138-360.425,6.477Z" transform="translate(-144.461 -128.274)" fill="#666"/>
      <path id="Path_415" data-name="Path 415" d="M-377.748,100.255l-3.211-.017c0-.482.013-.965,0-1.447-.007-.221.07-.28.275-.264s.392,0,.588,0c.276-.15.573-.056.86-.076.566-.01,1.133-.011,1.7,0,.29-.008.58-.009.87,0,.566-.01,1.133-.011,1.7,0,.29-.008.58-.009.87,0,.567-.01,1.134-.011,1.7,0,.288.02.587-.075.863.076l.321.009c.019.152-.1.218-.192.295a13.211,13.211,0,0,1-1.7,1.229,1.472,1.472,0,0,1-.41.18l-.1.015a1.222,1.222,0,0,1-.5.078q-1.653,0-3.306,0A.431.431,0,0,1-377.748,100.255Z" transform="translate(-133.353 -216.033)" fill="#7f7f7f"/>
      <path id="Path_416" data-name="Path 416" d="M-276.858,101.319a16.2,16.2,0,0,0,2-1.4,1.512,1.512,0,0,0,.3-.3l.06-.013c.476.022.476.022.476.512,0,.338-.006.677,0,1.015,0,.151-.049.2-.2.2C-275.1,101.321-275.978,101.321-276.858,101.319Z" transform="translate(-230.01 -217.113)" fill="#7f7f7f"/>
      <path id="Path_417" data-name="Path 417" d="M-368.042,66.338h-.855V63.77h.855a.438.438,0,0,1,.086.326q0,.958,0,1.916A.438.438,0,0,1-368.042,66.338Z" transform="translate(-144.555 -183.844)" fill="#cbcbcb"/>
      <path id="Path_418" data-name="Path 418" d="M-261.44,66.338h-.855a.438.438,0,0,1-.086-.326q0-.958,0-1.916a.438.438,0,0,1,.086-.326h.855Z" transform="translate(-243.45 -183.844)" fill="#cbcbcb"/>
      <path id="Path_419" data-name="Path 419" d="M-377.322,123.709a.437.437,0,0,1,.269.036.97.97,0,0,1,.812,1.19,1.232,1.232,0,0,1-1.29,1.072c-.778.069-1.553.172-2.33.26-.05.006-.11-.007-.135.059-.2-.1-.283-.3-.508-.454a10.083,10.083,0,0,1,1.2-.187c.437-.066.882-.092,1.313-.184a1.11,1.11,0,0,0,.71-1.694A.567.567,0,0,1-377.322,123.709Z" transform="translate(-133.779 -239.488)" fill="#fbcba6"/>
      <path id="Path_420" data-name="Path 420" d="M-331.454,124.938a1.131,1.131,0,0,0-.812-1.19.171.171,0,0,1,.147-.045l3.712.008a7.632,7.632,0,0,1-1.553.747A11.452,11.452,0,0,1-331.454,124.938Z" transform="translate(-178.566 -239.49)" fill="#39b44a"/>
      <path id="Path_421" data-name="Path 421" d="M-356.951,66.338V63.77h1.715a.442.442,0,0,1,.084.326q0,.958,0,1.915a.442.442,0,0,1-.084.326Z" transform="translate(-155.647 -183.844)" fill="#39b44a"/>
      <path id="Path_422" data-name="Path 422" d="M-320.441,66.338h-1.715a.442.442,0,0,1-.084-.326q0-.958,0-1.915a.442.442,0,0,1,.084-.326h1.715a.442.442,0,0,1,.084.326q0,.958,0,1.915A.442.442,0,0,1-320.441,66.338Z" transform="translate(-187.873 -183.844)" fill="#39b44a"/>
      <path id="Path_423" data-name="Path 423" d="M-284.525,63.77v2.568h-1.715a.442.442,0,0,1-.084-.326q0-.958,0-1.915a.442.442,0,0,1,.084-.326Z" transform="translate(-221.22 -183.844)" fill="#39b44a"/>
      <path id="Path_424" data-name="Path 424" d="M-332.127,63.77v2.568h-.855V63.77Z" transform="translate(-177.901 -183.844)" fill="#cbcbcb"/>
      <path id="Path_425" data-name="Path 425" d="M-296.211,63.77v2.568h-.855V63.77Z" transform="translate(-211.248 -183.844)" fill="#cbcbcb"/>
    </g>
  </g>
</svg>
