<svg xmlns="http://www.w3.org/2000/svg" width="48" height="48" viewBox="0 0 48 48">
  <g id="Group_190" data-name="Group 190" transform="translate(-1108 -865)">
    <circle id="Ellipse_15" data-name="Ellipse 15" cx="24" cy="24" r="24" transform="translate(1108 865)" fill="#79e8a3"/>
    <path id="Path_426" data-name="Path 426" d="M23.452,37.42a2.811,2.811,0,1,0,0-5.592,2.805,2.805,0,1,0,0,5.592ZM16.484,18.092h2.468a.837.837,0,0,0,.8-.748,3.752,3.752,0,0,1,4.028-3.408c2.064,0,3.94,1.032,3.94,3.5,0,1.908-1.128,2.784-2.892,4.112-2.016,1.468-3.624,3.188-3.5,5.968l.016.656a.747.747,0,0,0,.748.736h2.44a.74.74,0,0,0,.748-.752v-.312c0-2.156.812-2.78,3.032-4.452,1.828-1.392,3.736-2.94,3.736-6.172,0-4.532-3.828-6.72-8.016-6.72-3.8,0-7.968,1.764-8.252,6.86a.7.7,0,0,0,.72.732ZM48,24A24,24,0,1,1,24,0,24.009,24.009,0,0,1,48,24Z" transform="translate(1108 865)" fill="#ebf0f1"/>
  </g>
</svg>
