<svg xmlns="http://www.w3.org/2000/svg" width="72" height="72" viewBox="0 0 72 72">
  <g id="Group_6194" data-name="Group 6194" transform="translate(-445 -1469.277)">
    <g id="Group_508" data-name="Group 508" transform="translate(-5 8.277)">
      <circle id="Ellipse_39" data-name="Ellipse 39" cx="36" cy="36" r="36" transform="translate(450 1461)" fill="#f5f5f5"/>
    </g>
    <g id="Group_510" data-name="Group 510" transform="translate(-79.695 625.801)">
      <path id="Path_729" data-name="Path 729" d="M575.715,873.576c-4.612,2.745-9.224,5.518-13.863,8.235a4.76,4.76,0,0,1-3.816.494c-3.294-.851-6.588-1.757-9.883-2.608a3.342,3.342,0,0,0-.933-.027c-1.455-2.553-2.937-5.188-4.42-7.8a.337.337,0,0,1,.055-.082c1.812-1.043,3.624-2.114,5.463-3.1a5.115,5.115,0,0,1,4.475-.3c2.086.769,4.255,1.373,6.4,2.059a3.634,3.634,0,0,0,.714.137,2.224,2.224,0,0,1,1.537,3.184c-1.1-.3-2.224-.6-3.349-.906-1.153-.3-2.306-.631-3.487-.933a.845.845,0,1,0-.439,1.62c1.922.494,3.816,1.016,5.738,1.455a4.9,4.9,0,0,0,3.459-.494c2.635-1.455,5.3-2.882,7.934-4.31a6,6,0,0,1,3.349-.933,2.141,2.141,0,0,1,2,1.675A2.325,2.325,0,0,1,575.715,873.576Z" transform="translate(4.33 13.724)" fill="#a0d8b4"/>
      <path id="Path_730" data-name="Path 730" d="M554.746,860.15a9.553,9.553,0,1,0,9.581,9.553A9.578,9.578,0,0,0,554.746,860.15Zm1.592,15.016a.672.672,0,0,0-.549.741,1.031,1.031,0,0,1-1.043.988,1.008,1.008,0,0,1-.988-1.016.6.6,0,0,0-.522-.686,3.479,3.479,0,0,1-2.059-1.729,1.02,1.02,0,0,1,.357-1.455,1,1,0,0,1,1.427.439,2.273,2.273,0,0,0,3.349.384.971.971,0,0,0-.028-1.51,2.278,2.278,0,0,0-1.482-.576,7.65,7.65,0,0,1-1.784-.384,3.26,3.26,0,0,1-2.2-3.047,3.411,3.411,0,0,1,2.306-3.047c.192-.083.384-.137.6-.22a4.258,4.258,0,0,1,.027-.6,1.028,1.028,0,0,1,.988-.906.953.953,0,0,1,1.016.851c-.028.6.274.769.741.933a3.377,3.377,0,0,1,2,1.922,1.022,1.022,0,0,1-.522,1.455c-.549.247-1.071,0-1.373-.659a1.74,1.74,0,0,0-1.592-.988,1.982,1.982,0,0,0-1.949.741.96.96,0,0,0,.082,1.235,2.136,2.136,0,0,0,1.373.631,9.918,9.918,0,0,1,1.839.329,3.2,3.2,0,0,1-.027,6.177Z" transform="translate(8.553 0)" fill="#a0d8b4"/>
      <path id="Path_731" data-name="Path 731" d="M549.957,881.868c-.6.357-1.208.714-1.839,1.043a1.182,1.182,0,0,1-1.784-.494c-1.922-3.4-3.871-6.808-5.792-10.24a1.132,1.132,0,0,1,.467-1.729c.659-.384,1.318-.769,2-1.125a2.438,2.438,0,0,1,.494-.192,1.281,1.281,0,0,1,1.235.741c1.153,2.059,2.306,4.118,3.487,6.177L550.451,880A1.194,1.194,0,0,1,549.957,881.868Z" transform="translate(0 15.672)" fill="#a0d8b4"/>
    </g>
  </g>
</svg>
