<svg xmlns="http://www.w3.org/2000/svg" width="31" height="31" viewBox="0 0 31 31">
  <g id="Group_687" data-name="Group 687" transform="translate(-1183 -424)">
    <circle id="Ellipse_41" data-name="Ellipse 41" cx="15.5" cy="15.5" r="15.5" transform="translate(1183 424)" fill="#64c689"/>
    <path id="Path_801" data-name="Path 801" d="M18.023,10.4a1.275,1.275,0,0,0-1.271,1.122A6.589,6.589,0,0,1,10.4,16.752a6.355,6.355,0,1,1,0-12.71,6.293,6.293,0,0,1,3.787,1.271H12.939a1.271,1.271,0,1,0,0,2.542h3.813a1.271,1.271,0,0,0,1.271-1.271V2.771a1.271,1.271,0,1,0-2.542,0V3.1a8.9,8.9,0,1,0-5.084,16.2c6.342,0,8.9-6.037,8.9-7.547A1.266,1.266,0,0,0,18.023,10.4Z" transform="translate(1188.102 429.103)" fill="#fff"/>
  </g>
</svg>
