<svg xmlns="http://www.w3.org/2000/svg" width="431.168" height="238.789" viewBox="0 0 431.168 238.789">
  <g id="Group_85" data-name="Group 85" transform="translate(0 0)">
    <path id="Path_81" data-name="Path 81" d="M235.467,146.432c60.919-3.523,124.789,14.828,115.4,41.429s50.193-9.449,73.97.142c16.928,6.828,10.161,27.614,18.351,35.99,18.777,19.2,37.981-4.979,61.879,9.531s13.961,150.2,4.23,150.179l-368.536-.673-4.41.142s-27.028-38.977-2.561-61.737,7.668-33.167,4.694-41.964c-3.414-10.1-11.38-27.739,23.329-40.684s25.747-41.111,24.894-46.943-12.161-41.889,48.757-45.412Z" transform="translate(-123.545 -145.999)" fill="#eafcfc"/>
    <rect id="Rectangle_13" data-name="Rectangle 13" width="27.918" height="216.09" transform="translate(299.701 20.977)" fill="#9bc1f9" opacity="0.6"/>
    <rect id="Rectangle_14" data-name="Rectangle 14" width="27.917" height="150.177" transform="translate(260.713 86.89)" fill="#9bc1f9" opacity="0.6"/>
    <rect id="Rectangle_15" data-name="Rectangle 15" width="27.917" height="169.272" transform="translate(339.251 67.795)" fill="#9bc1f9" opacity="0.6"/>
    <rect id="Rectangle_16" data-name="Rectangle 16" width="27.918" height="175.929" transform="translate(221.725 61.138)" fill="#9bc1f9" opacity="0.6"/>
    <rect id="Rectangle_17" data-name="Rectangle 17" width="27.918" height="123.767" transform="translate(182.736 113.3)" fill="#9bc1f9" opacity="0.6"/>
    <g id="Group_52" data-name="Group 52" transform="translate(182.736 70.78)">
      <rect id="Rectangle_18" data-name="Rectangle 18" width="27.918" height="166.287" transform="translate(116.965)" fill="#9bc1f9" opacity="0.3" style="mix-blend-mode: multiply;isolation: isolate"/>
      <rect id="Rectangle_19" data-name="Rectangle 19" width="27.917" height="115.566" transform="translate(77.977 50.721)" fill="#9bc1f9" opacity="0.3" style="mix-blend-mode: multiply;isolation: isolate"/>
      <rect id="Rectangle_20" data-name="Rectangle 20" width="27.917" height="130.259" transform="translate(156.514 36.028)" fill="#9bc1f9" opacity="0.3" style="mix-blend-mode: multiply;isolation: isolate"/>
      <rect id="Rectangle_21" data-name="Rectangle 21" width="27.918" height="135.382" transform="translate(38.988 30.905)" fill="#9bc1f9" opacity="0.3" style="mix-blend-mode: multiply;isolation: isolate"/>
      <rect id="Rectangle_22" data-name="Rectangle 22" width="27.918" height="95.242" transform="translate(0 71.045)" fill="#9bc1f9" opacity="0.3" style="mix-blend-mode: multiply;isolation: isolate"/>
    </g>
    <path id="Path_82" data-name="Path 82" d="M1633.516,308.447l-22.246,16.824,8.486.541-53.1,93.461-29.4-44.082-41.594,97.019-26.754-38-33.345,47.136,2.1,8.436,31.233-43.936,28.28,40.168,41.441-96.663,28.528,42.771L1625.93,328.65l5.458,5.87Z" transform="translate(-1252.778 -285.816)" fill="#5183bf"/>
    <g id="Group_54" data-name="Group 54" transform="translate(34.382 77.675)">
      <path id="Path_83" data-name="Path 83" d="M493.307,800.473c-31.923-25.421-58.746-58.3-79.055-96.909l-43.908,35.271c23.482,44.639,54.495,82.656,91.405,112.048Z" transform="translate(-370.344 -703.564)" fill="#3c8f7c"/>
      <path id="Path_84" data-name="Path 84" d="M456.26,769.735l-27.275,22.26c2.165,4.036,1.379,9.482-1.846,12.244,20.643,36.5,46.513,68.213,76.638,93.946a6.986,6.986,0,0,1,10.442-1.707l19.9-31.3c-3.07-2.492-3.509-7.583-1.047-11.277-26.455-22.6-49.173-50.446-67.3-82.5C462.548,774.161,458.252,773.449,456.26,769.735Z" transform="translate(-419.227 -760.517)" fill="#96d9c9"/>
      <g id="Group_53" data-name="Group 53" transform="translate(42.879 57.139)">
        <path id="Path_85" data-name="Path 85" d="M709.029,1149.236c6.816-8.8,6.751-21.773.321-29.536-6.447-7.743-17.462-8.108-25.082-.28-7.608,7.812-8.335,21.7-1.087,30.415S702.227,1158.018,709.029,1149.236Z" transform="translate(-678.134 -1113.719)" fill="#50bfa5"/>
        <path id="Path_86" data-name="Path 86" d="M755.887,1169.933l-2.57,2.853c2.049,3.756,1.615,7.637-.594,10.173-2.23,2.553-4.728,2.79-8.534.534-2.765-1.562-4.094-2.023-4.936-1.11-.713.771-.949,2.169.562,4.079a10.418,10.418,0,0,0,2.367,2.216,2.56,2.56,0,0,1,.677,3.25h0a1.837,1.837,0,0,1-2.727.791,14.551,14.551,0,0,1-2.493-2.313l-2.223,2.453q-1.164-1.46-2.314-2.935l2.42-2.623c-1.957-3.78-1.568-7.537.7-9.921,2.507-2.634,5.407-1.824,8.73.26,2.3,1.438,3.641,1.665,4.6.6,1.006-1.122.679-2.831-.589-4.447a11.3,11.3,0,0,0-2.875-2.583,2.452,2.452,0,0,1-.586-3.249l.072-.123a1.845,1.845,0,0,1,2.606-.8,15.327,15.327,0,0,1,3.154,2.806l2.413-2.631Q754.809,1168.58,755.887,1169.933Z" transform="translate(-725.443 -1159.377)" fill="#3c8f7c"/>
        <path id="Path_87" data-name="Path 87" d="M929.235,1408.921q-10.912-9.344-21.014-19.784l-3.459,4.5Q915,1404.212,926.069,1413.7Z" transform="translate(-873.189 -1350.768)" fill="#50bfa5"/>
      </g>
    </g>
    <g id="Group_56" data-name="Group 56" transform="translate(14.129 124.794)">
      <path id="Path_88" data-name="Path 88" d="M361.673,1081.328c-40.1-5.085-79.422-18.5-115.9-39.54l-20.805,48.746c42.179,24.327,87.647,39.838,134.008,45.718Z" transform="translate(-224.966 -1041.788)" fill="#3c8f7c"/>
      <path id="Path_89" data-name="Path 89" d="M285.11,1098.022l-12.753,30.558c3.85,2.18,5.832,6.873,4.387,10.589A356.155,356.155,0,0,0,389.1,1177.5a7.015,7.015,0,0,1,8.215-6.291q.97-17.123,1.94-34.246a7.853,7.853,0,0,1-6.422-8.455,312.754,312.754,0,0,1-98.668-33.661A6.182,6.182,0,0,1,285.11,1098.022Z" transform="translate(-265.755 -1087.456)" fill="#96d9c9"/>
      <g id="Group_55" data-name="Group 55" transform="translate(55.296 34.903)">
        <path id="Path_90" data-name="Path 90" d="M658.589,1316.839c1.606-10.2-4.8-20.471-14.165-23.592a16.831,16.831,0,0,0-21.874,11.634c-2.773,9.8,3.387,21.159,13.931,24.651S656.988,1327.024,658.589,1316.839Z" transform="translate(-621.886 -1292.325)" fill="#50bfa5"/>
        <path id="Path_91" data-name="Path 91" d="M710.824,1320.551q-.416,1.739-.832,3.478c3.613,2.012,5.134,5.3,4.46,8.354-.684,3.08-2.733,4.448-7.135,4.458-3.16.067-4.537.329-4.821,1.452-.241.948.238,2.17,2.481,2.972a10.892,10.892,0,0,0,3.135.64,2.368,2.368,0,0,1,2.176,2.26h0a1.81,1.81,0,0,1-1.977,1.917,15.209,15.209,0,0,1-3.292-.658q-.363,1.5-.727,3-1.723-.608-3.441-1.235.408-1.612.815-3.225c-3.544-2.075-5.045-5.24-4.242-8.206.885-3.275,3.794-4,7.693-3.92,2.7.052,3.969-.4,4.277-1.694.323-1.366-.8-2.567-2.685-3.251a11.847,11.847,0,0,0-3.755-.691,2.26,2.26,0,0,1-2.1-2.3c0-.044,0-.088,0-.132a1.815,1.815,0,0,1,1.867-1.868,16.092,16.092,0,0,1,4.106.736q.4-1.614.8-3.229Q709.228,1319.987,710.824,1320.551Z" transform="translate(-686.719 -1315.633)" fill="#3c8f7c"/>
      </g>
    </g>
    <path id="Path_92" data-name="Path 92" d="M963.144,729.54a24.789,24.789,0,0,1-2.854-1.139,14.352,14.352,0,0,0-3.255-1.222c-1.8-.277-4.894-.092-6.6,1.754-2.128,2.3-5.91.416-5.148,12.466.862,13.64,8.472,12.143,8.657,11.912s6.787-8.726,6.787-8.726,2.309,5.033,2.309,4.848S974.825,733.46,963.144,729.54Z" transform="translate(-830.72 -646.125)" fill="#0e2e35"/>
    <g id="Group_58" data-name="Group 58" transform="translate(37.854 173.338)">
      <path id="Path_93" data-name="Path 93" d="M497.859,1390.24c-31.548,12.464-66.356,18.162-102.59,16.793l7.215,46.255c41.9,1.583,82.141-5,118.617-19.417Z" transform="translate(-395.269 -1390.24)" fill="#3c8f7c"/>
      <path id="Path_94" data-name="Path 94" d="M422.492,1447.37l4.734,28.878c3.806.113,7.4,2.936,8.057,6.4,34.854.255,68.427-5.24,99.454-16.28a5.808,5.808,0,0,1,3.1-8.231l-14.3-27.311c-3.068,1.179-6.918-.615-8.559-3.92a254.577,254.577,0,0,1-87.336,14.3A4.948,4.948,0,0,1,422.492,1447.37Z" transform="translate(-418.7 -1421.802)" fill="#96d9c9"/>
      <g id="Group_57" data-name="Group 57" transform="translate(46.742 20.978)">
        <path id="Path_95" data-name="Path 95" d="M763.184,1553.526c-3.513-8.557-12.89-13.888-21.148-12.473-8.251,1.436-13.079,9.221-10.6,17.956,2.475,8.719,12.179,15,21.464,13.39S766.693,1562.067,763.184,1553.526Z" transform="translate(-730.787 -1540.826)" fill="#50bfa5"/>
        <path id="Path_96" data-name="Path 96" d="M795.565,1560.059q.5,1.516.99,3.034c3.555.08,6.172,2,7.084,4.644.915,2.665.05,4.563-3.152,6.371-2.271,1.345-3.154,2.111-2.846,3.1.26.833,1.17,1.583,3.172,1.286a8.66,8.66,0,0,0,2.578-.787,2.128,2.128,0,0,1,2.623.859h0a1.527,1.527,0,0,1-.561,2.293,12.089,12.089,0,0,1-2.7.837l.846,2.619q-1.535.234-3.074.451l-.887-2.831c-3.535-.157-6.081-1.994-6.857-4.619-.858-2.9.926-4.652,3.806-6.182,1.991-1.064,2.709-1.933,2.339-3.061-.391-1.19-1.759-1.662-3.448-1.419a9.389,9.389,0,0,0-3.053,1,2.038,2.038,0,0,1-2.584-.924l-.059-.1a1.534,1.534,0,0,1,.5-2.21,12.745,12.745,0,0,1,3.329-1.109q-.448-1.414-.9-2.829Q794.143,1560.275,795.565,1560.059Z" transform="translate(-781.34 -1557.38)" fill="#3c8f7c"/>
        <path id="Path_97" data-name="Path 97" d="M1013.358,1569.26q-11.255,3.99-22.964,6.941l1.808,4.357q11.863-2.991,23.286-7.038Z" transform="translate(-954.228 -1565.299)" fill="#50bfa5"/>
      </g>
    </g>
    <g id="Group_60" data-name="Group 60" transform="translate(88.395 220.761)">
      <path id="Path_98" data-name="Path 98" d="M758.053,1755.244v11.295c0,1.826,20.37,3.307,45.5,3.307s45.5-1.48,45.5-3.307v-11.295Z" transform="translate(-758.053 -1751.818)" fill="#e59f39"/>
      <g id="Group_59" data-name="Group 59" transform="translate(0 3.426)">
        <path id="Path_99" data-name="Path 99" d="M790.979,1769.717v-14.473H758.053v11.295C758.053,1768.048,771.966,1769.321,790.979,1769.717Z" transform="translate(-758.053 -1755.244)" fill="#eab054"/>
        <path id="Path_100" data-name="Path 100" d="M1005.4,1769.747c3.534.064,7.232.1,11.039.1,5.673,0,11.1-.076,16.112-.214v-14.388H1005.4Z" transform="translate(-970.944 -1755.244)" fill="#eab054"/>
        <path id="Path_101" data-name="Path 101" d="M1213.385,1769.579c16.21-.506,27.563-1.677,27.563-3.04v-11.295h-27.563Z" transform="translate(-1149.952 -1755.244)" fill="#eab054"/>
      </g>
      <ellipse id="Ellipse_2" data-name="Ellipse 2" cx="45.498" cy="3.306" rx="45.498" ry="3.306" transform="translate(0)" fill="#e59f39"/>
      <path id="Path_102" data-name="Path 102" d="M890.638,1740.221c0,1.266-16.775,2.292-37.467,2.292s-37.467-1.026-37.467-2.292,16.775-2.292,37.467-2.292S890.638,1738.955,890.638,1740.221Z" transform="translate(-807.672 -1736.915)" fill="#f7cc7f"/>
    </g>
    <g id="Group_62" data-name="Group 62" transform="translate(80.61 208.809)">
      <path id="Path_103" data-name="Path 103" d="M702.176,1669.449v11.295c0,1.826,20.37,3.306,45.5,3.306s45.5-1.48,45.5-3.306v-11.295Z" transform="translate(-702.176 -1666.023)" fill="#e59f39"/>
      <g id="Group_61" data-name="Group 61" transform="translate(0 3.426)">
        <path id="Path_104" data-name="Path 104" d="M735.1,1683.922v-14.473H702.176v11.295C702.176,1682.253,716.089,1683.526,735.1,1683.922Z" transform="translate(-702.176 -1669.449)" fill="#eab054"/>
        <path id="Path_105" data-name="Path 105" d="M949.526,1683.952c3.534.064,7.232.1,11.04.1,5.673,0,11.1-.075,16.112-.213v-14.388H949.526Z" transform="translate(-915.067 -1669.449)" fill="#eab054"/>
        <path id="Path_106" data-name="Path 106" d="M1157.508,1683.783c16.21-.506,27.563-1.676,27.563-3.039v-11.295h-27.563Z" transform="translate(-1094.075 -1669.449)" fill="#eab054"/>
      </g>
      <ellipse id="Ellipse_3" data-name="Ellipse 3" cx="45.498" cy="3.306" rx="45.498" ry="3.306" transform="translate(0)" fill="#e59f39"/>
      <path id="Path_107" data-name="Path 107" d="M834.761,1654.427c0,1.266-16.775,2.292-37.467,2.292s-37.467-1.026-37.467-2.292,16.774-2.292,37.467-2.292S834.761,1653.16,834.761,1654.427Z" transform="translate(-751.796 -1651.12)" fill="#f7cc7f"/>
    </g>
    <g id="Group_64" data-name="Group 64" transform="translate(85.797 196.539)">
      <path id="Path_108" data-name="Path 108" d="M739.405,1581.375v11.295c0,1.826,20.37,3.306,45.5,3.306s45.5-1.48,45.5-3.306v-11.295Z" transform="translate(-739.405 -1577.949)" fill="#e59f39"/>
      <g id="Group_63" data-name="Group 63" transform="translate(0 3.426)">
        <path id="Path_109" data-name="Path 109" d="M772.331,1595.848v-14.473H739.405v11.295C739.405,1594.179,753.318,1595.452,772.331,1595.848Z" transform="translate(-739.405 -1581.375)" fill="#eab054"/>
        <path id="Path_110" data-name="Path 110" d="M986.755,1595.878c3.534.064,7.232.1,11.039.1,5.673,0,11.1-.075,16.112-.213v-14.388H986.755Z" transform="translate(-952.296 -1581.375)" fill="#eab054"/>
        <path id="Path_111" data-name="Path 111" d="M1194.737,1595.709c16.21-.506,27.563-1.676,27.563-3.04v-11.295h-27.563Z" transform="translate(-1131.304 -1581.375)" fill="#eab054"/>
      </g>
      <ellipse id="Ellipse_4" data-name="Ellipse 4" cx="45.498" cy="3.306" rx="45.498" ry="3.306" transform="translate(0)" fill="#e59f39"/>
      <path id="Path_112" data-name="Path 112" d="M871.99,1566.351c0,1.266-16.775,2.292-37.467,2.292s-37.467-1.026-37.467-2.292,16.774-2.292,37.467-2.292S871.99,1565.085,871.99,1566.351Z" transform="translate(-789.025 -1563.045)" fill="#f7cc7f"/>
    </g>
    <g id="Group_66" data-name="Group 66" transform="translate(80.61 184.437)">
      <path id="Path_113" data-name="Path 113" d="M702.176,1494.507V1505.8c0,1.826,20.37,3.306,45.5,3.306s45.5-1.48,45.5-3.306v-11.295Z" transform="translate(-702.176 -1491.081)" fill="#e59f39"/>
      <g id="Group_65" data-name="Group 65" transform="translate(0 3.426)">
        <path id="Path_114" data-name="Path 114" d="M735.1,1508.98v-14.473H702.176V1505.8C702.176,1507.311,716.089,1508.584,735.1,1508.98Z" transform="translate(-702.176 -1494.507)" fill="#eab054"/>
        <path id="Path_115" data-name="Path 115" d="M949.526,1509.01c3.534.064,7.232.1,11.04.1,5.673,0,11.1-.076,16.112-.214v-14.388H949.526Z" transform="translate(-915.067 -1494.507)" fill="#eab054"/>
        <path id="Path_116" data-name="Path 116" d="M1157.508,1508.841c16.21-.506,27.563-1.676,27.563-3.039v-11.295h-27.563Z" transform="translate(-1094.075 -1494.507)" fill="#eab054"/>
      </g>
      <ellipse id="Ellipse_5" data-name="Ellipse 5" cx="45.498" cy="3.306" rx="45.498" ry="3.306" transform="translate(0)" fill="#e59f39"/>
      <path id="Path_117" data-name="Path 117" d="M834.761,1479.483c0,1.266-16.775,2.293-37.467,2.293s-37.467-1.027-37.467-2.293,16.774-2.292,37.467-2.292S834.761,1478.218,834.761,1479.483Z" transform="translate(-751.796 -1476.177)" fill="#f7cc7f"/>
    </g>
    <g id="Group_68" data-name="Group 68" transform="translate(311.659 219.927)">
      <path id="Path_118" data-name="Path 118" d="M2448.182,1748.316v10.862c0,1.756-19.589,3.179-43.754,3.179s-43.754-1.423-43.754-3.179v-10.862Z" transform="translate(-2360.675 -1745.021)" fill="#e59f39"/>
      <g id="Group_67" data-name="Group 67" transform="translate(0 3.295)">
        <path id="Path_119" data-name="Path 119" d="M2761.529,1762.235v-13.918h31.664v10.862C2793.193,1760.629,2779.813,1761.853,2761.529,1762.235Z" transform="translate(-2705.685 -1748.316)" fill="#eab054"/>
        <path id="Path_120" data-name="Path 120" d="M2589.637,1762.263c-3.4.062-6.955.094-10.616.094-5.455,0-10.678-.073-15.494-.205v-13.836h26.11Z" transform="translate(-2535.268 -1748.316)" fill="#eab054"/>
        <path id="Path_121" data-name="Path 121" d="M2387.182,1762.1c-15.589-.487-26.507-1.612-26.507-2.923v-10.862h26.507Z" transform="translate(-2360.675 -1748.316)" fill="#eab054"/>
      </g>
      <ellipse id="Ellipse_6" data-name="Ellipse 6" cx="43.754" cy="3.179" rx="43.754" ry="3.179" transform="translate(0)" fill="#e59f39"/>
      <path id="Path_122" data-name="Path 122" d="M2416.115,1733.869c0,1.218,16.131,2.2,36.03,2.2s36.03-.987,36.03-2.2-16.131-2.2-36.03-2.2S2416.115,1732.652,2416.115,1733.869Z" transform="translate(-2408.392 -1730.69)" fill="#f7cc7f"/>
    </g>
    <g id="Group_70" data-name="Group 70" transform="translate(319.145 208.433)">
      <path id="Path_123" data-name="Path 123" d="M2501.917,1665.811v10.862c0,1.756-19.589,3.18-43.754,3.18s-43.754-1.424-43.754-3.18v-10.862Z" transform="translate(-2414.409 -1662.516)" fill="#e59f39"/>
      <g id="Group_69" data-name="Group 69" transform="translate(0 3.295)">
        <path id="Path_124" data-name="Path 124" d="M2815.264,1679.729v-13.918h31.664v10.862C2846.928,1678.124,2833.548,1679.348,2815.264,1679.729Z" transform="translate(-2759.42 -1665.811)" fill="#eab054"/>
        <path id="Path_125" data-name="Path 125" d="M2643.372,1679.758c-3.4.061-6.955.094-10.616.094-5.456,0-10.678-.073-15.494-.205v-13.836h26.11Z" transform="translate(-2589.002 -1665.811)" fill="#eab054"/>
        <path id="Path_126" data-name="Path 126" d="M2440.916,1679.6c-15.589-.486-26.507-1.612-26.507-2.923v-10.862h26.507Z" transform="translate(-2414.409 -1665.811)" fill="#eab054"/>
      </g>
      <ellipse id="Ellipse_7" data-name="Ellipse 7" cx="43.754" cy="3.179" rx="43.754" ry="3.179" transform="translate(0)" fill="#e59f39"/>
      <ellipse id="Ellipse_8" data-name="Ellipse 8" cx="36.03" cy="2.204" rx="36.03" ry="2.204" transform="translate(7.724 0.975)" fill="#f7cc7f"/>
    </g>
    <g id="Group_72" data-name="Group 72" transform="translate(314.157 196.634)">
      <path id="Path_127" data-name="Path 127" d="M2466.115,1581.113v10.862c0,1.756-19.589,3.179-43.754,3.179s-43.754-1.423-43.754-3.179v-10.862Z" transform="translate(-2378.607 -1577.818)" fill="#e59f39"/>
      <g id="Group_71" data-name="Group 71" transform="translate(0 3.295)">
        <path id="Path_128" data-name="Path 128" d="M2779.463,1595.031v-13.918h31.664v10.862C2811.127,1593.426,2797.747,1594.65,2779.463,1595.031Z" transform="translate(-2723.619 -1581.113)" fill="#eab054"/>
        <path id="Path_129" data-name="Path 129" d="M2607.57,1595.06c-3.4.062-6.955.094-10.616.094-5.456,0-10.678-.072-15.494-.2v-13.836h26.11Z" transform="translate(-2553.2 -1581.113)" fill="#eab054"/>
        <path id="Path_130" data-name="Path 130" d="M2405.114,1594.9c-15.588-.486-26.507-1.612-26.507-2.923v-10.862h26.507Z" transform="translate(-2378.607 -1581.113)" fill="#eab054"/>
      </g>
      <ellipse id="Ellipse_9" data-name="Ellipse 9" cx="43.754" cy="3.179" rx="43.754" ry="3.179" transform="translate(0)" fill="#e59f39"/>
      <ellipse id="Ellipse_10" data-name="Ellipse 10" cx="36.03" cy="2.204" rx="36.03" ry="2.204" transform="translate(7.724 0.975)" fill="#f7cc7f"/>
    </g>
    <g id="Group_74" data-name="Group 74" transform="translate(319.145 184.996)">
      <path id="Path_131" data-name="Path 131" d="M2501.917,1497.576v10.862c0,1.756-19.589,3.18-43.754,3.18s-43.754-1.424-43.754-3.18v-10.862Z" transform="translate(-2414.409 -1494.281)" fill="#e59f39"/>
      <g id="Group_73" data-name="Group 73" transform="translate(0 3.295)">
        <path id="Path_132" data-name="Path 132" d="M2815.264,1511.494v-13.918h31.664v10.862C2846.928,1509.889,2833.548,1511.113,2815.264,1511.494Z" transform="translate(-2759.42 -1497.576)" fill="#eab054"/>
        <path id="Path_133" data-name="Path 133" d="M2643.372,1511.523c-3.4.062-6.955.094-10.616.094-5.456,0-10.678-.073-15.494-.205v-13.836h26.11Z" transform="translate(-2589.002 -1497.576)" fill="#eab054"/>
        <path id="Path_134" data-name="Path 134" d="M2440.916,1511.361c-15.589-.486-26.507-1.612-26.507-2.923v-10.862h26.507Z" transform="translate(-2414.409 -1497.576)" fill="#eab054"/>
      </g>
      <ellipse id="Ellipse_11" data-name="Ellipse 11" cx="43.754" cy="3.179" rx="43.754" ry="3.179" transform="translate(0)" fill="#e59f39"/>
      <ellipse id="Ellipse_12" data-name="Ellipse 12" cx="36.03" cy="2.204" rx="36.03" ry="2.204" transform="translate(7.724 0.975)" fill="#f7cc7f"/>
    </g>
    <g id="Group_76" data-name="Group 76" transform="translate(350.449 153.481)">
      <path id="Path_135" data-name="Path 135" d="M2715.674,1272.011l-2.628,9.176c-.425,1.484-17.318-2.054-37.732-7.9s-36.618-11.79-36.194-13.273l2.629-9.176Z" transform="translate(-2639.111 -1250.401)" fill="#e59f39"/>
      <g id="Group_75" data-name="Group 75" transform="translate(0 0.436)">
        <path id="Path_136" data-name="Path 136" d="M2972.5,1359.591l3.368-11.758,26.749,7.662-2.628,9.176C2999.637,1365.9,2988.038,1363.694,2972.5,1359.591Z" transform="translate(-2926.054 -1334.32)" fill="#eab054"/>
        <path id="Path_137" data-name="Path 137" d="M2827.4,1318.021c-2.886-.77-5.9-1.6-8.991-2.489-4.609-1.32-9-2.645-13.04-3.922l3.348-11.689,22.058,6.318Z" transform="translate(-2782.209 -1293.083)" fill="#eab054"/>
        <path id="Path_138" data-name="Path 138" d="M2660.8,1268.9c-13.051-4.183-22-7.776-21.685-8.883l2.629-9.176,22.392,6.414Z" transform="translate(-2639.111 -1250.836)" fill="#eab054"/>
      </g>
      <path id="Path_139" data-name="Path 139" d="M2658.186,1248.048c-.425,1.483,15.779,7.426,36.193,13.273s37.307,9.385,37.732,7.9-15.779-7.426-36.193-13.273S2658.611,1246.564,2658.186,1248.048Z" transform="translate(-2655.522 -1247.71)" fill="#e59f39"/>
      <path id="Path_140" data-name="Path 140" d="M2705.042,1262.325c-.295,1.029,13.094,5.766,29.9,10.581s30.677,7.885,30.971,6.856-13.094-5.766-29.9-10.581S2705.337,1261.3,2705.042,1262.325Z" transform="translate(-2695.853 -1260.118)" fill="#f7cc7f"/>
    </g>
    <g id="Group_78" data-name="Group 78" transform="translate(329.546 111.526)">
      <path id="Path_141" data-name="Path 141" d="M2562.871,949.5l2.8,9.125c.453,1.475-15.639,7.718-35.94,13.944s-37.126,10.077-37.579,8.6l-2.8-9.125Z" transform="translate(-2489.313 -949.092)" fill="#e59f39"/>
      <g id="Group_77" data-name="Group 77" transform="translate(0.039 0.412)">
        <path id="Path_142" data-name="Path 142" d="M2829.712,969.356l-3.586-11.693,26.6-8.158,2.8,9.125C2855.9,959.849,2844.975,964.324,2829.712,969.356Z" transform="translate(-2779.209 -949.504)" fill="#eab054"/>
        <path id="Path_143" data-name="Path 143" d="M2685.306,1022.508c-2.84.927-5.819,1.871-8.895,2.815-4.583,1.406-8.99,2.69-13.07,3.82l-3.565-11.624,21.936-6.727Z" transform="translate(-2636.034 -1002.252)" fill="#eab054"/>
        <path id="Path_144" data-name="Path 144" d="M2515.173,1073.9c-13.222,3.608-22.685,5.475-23.023,4.374l-2.8-9.125,22.269-6.83Z" transform="translate(-2489.352 -1046.605)" fill="#eab054"/>
      </g>
      <path id="Path_145" data-name="Path 145" d="M2489.082,969.41c.452,1.475,17.277-2.376,37.579-8.6s36.392-12.469,35.94-13.944-17.277,2.376-37.578,8.6S2488.629,967.935,2489.082,969.41Z" transform="translate(-2489.072 -946.549)" fill="#e59f39"/>
      <path id="Path_146" data-name="Path 146" d="M2535.683,980.517c.313,1.023,14.12-2.3,30.838-7.431s30.016-10.112,29.7-11.135-14.121,2.3-30.838,7.431S2535.369,979.494,2535.683,980.517Z" transform="translate(-2529.185 -959.646)" fill="#f7cc7f"/>
    </g>
    <path id="Path_147" data-name="Path 147" d="M1295.066,1756.193s1.081,5.739,1.082,5.751c.061.748.038,2.638.2,3.291.607,2.454,10.929-3.51,8.221-3.99a11.236,11.236,0,0,1-2.428-2.6,22.8,22.8,0,0,1-1.358-3.791Z" transform="translate(-1131.859 -1530.72)" fill="#f7a491"/>
    <path id="Path_148" data-name="Path 148" d="M1299.412,1793.058a40.344,40.344,0,0,1-4.021.8c-1.356.135-3.1-1.971-4.069-1.573-1.07.438-1.653,7.122-1.653,7.122s17.026.775,21.049-.336C1312.312,1798.626,1304.709,1795.088,1299.412,1793.058Z" transform="translate(-1127.214 -1562.891)" fill="#f47458"/>
    <path id="Path_149" data-name="Path 149" d="M1465.474,1754.314s1.082,5.739,1.083,5.751c.06.748.038,2.638.2,3.291.607,2.454,10.739-3.118,8.031-3.6a15.317,15.317,0,0,1-2.238-2.994,22.784,22.784,0,0,1-1.358-3.791Z" transform="translate(-1278.527 -1529.102)" fill="#f7a491"/>
    <path id="Path_150" data-name="Path 150" d="M1467.941,1793.058a40.349,40.349,0,0,1-4.021.8c-1.356.135-3.1-1.971-4.069-1.573-1.07.438-1.653,7.122-1.653,7.122s17.026.775,21.049-.336C1480.841,1798.626,1473.238,1795.088,1467.941,1793.058Z" transform="translate(-1272.265 -1562.891)" fill="#f47458"/>
    <path id="Path_151" data-name="Path 151" d="M1038.347,1296.833l30.973-7.185s13.89-3.672,17.243.639,17.59,63.8,17.59,63.8-7.344.638-7.823.319l-17.191-30.513a26.615,26.615,0,0,1-3.171-9.385l-1.219-8.737-12.613,3.672s-14.529,3.193-20.436-.479S1038.347,1296.833,1038.347,1296.833Z" transform="translate(-910.431 -1129.069)" fill="#0e2e35"/>
    <path id="Path_152" data-name="Path 152" d="M1098.187,966.929c.489.02,1.83.467,3.79,4.16,2.5,4.715,6.162,18.959,6.162,18.959l-10.922,4.054-1.4-2.973L1093.5,968.24S1098.052,966.923,1098.187,966.929Z" transform="translate(-958.377 -852.564)" fill="#eab054"/>
    <path id="Path_153" data-name="Path 153" d="M903.816,952.191a66.94,66.94,0,0,1,14.437,2.054s2.635,22.569-2.372,39.719c-1.121,3.839.927,15.914.927,15.914l-32.362-.426s3.834-29.192,2.39-33.907-1.479-21.148-1.479-21.148.222-.034,7.271-1.249A73.487,73.487,0,0,1,903.816,952.191Z" transform="translate(-778.443 -839.879)" fill="#f7cc7f"/>
    <path id="Path_154" data-name="Path 154" d="M857.278,985.822c3.026-1.131,4.506,26.039,4.914,37.223a132.275,132.275,0,0,0,17.023-.17c1.094-.082,3.615-1,4.7-1.144a10.914,10.914,0,0,1,2.673-.126,50.51,50.51,0,0,1,6.264,2.81c.593.619,2.194,2.181,1.924,2.856s-3.081-1.881-3.081-1.881l-1.373-.768c1.71,1.665,4.971,3.857,4.5,4.656-.458.778-3.4-1.447-5.5-2.963,1.8,1.619,4.033,4.516,3.518,4.968-.463.406-3-2.948-5.72-3.914-1.006-.358-2.01.633-2.8.753a5.719,5.719,0,0,1-2.051.114l-2.728-.263a14.231,14.231,0,0,0-2.251.328c-1.174.249-3.1.511-4.6.876-8.613,2.1-11.485,3.071-14.122,3.069C850.59,1032.239,850.127,988.5,857.278,985.822Z" transform="translate(-750.717 -868.795)" fill="#f7a491"/>
    <path id="Path_155" data-name="Path 155" d="M845.884,995.646c-.567-11.456-.484-25.575,5.96-27.984,2.542-.951,7.024,4.765,6.218,28.217C854.622,996.161,849.572,996.389,845.884,995.646Z" transform="translate(-745.065 -853.11)" fill="#eab054"/>
    <path id="Path_156" data-name="Path 156" d="M1005.627,1118.86l-30.49,1.992a1.992,1.992,0,0,0-1.759,1.354l-7.892,23.51-16.809,1.1a.853.853,0,0,0-.8.906h0a.852.852,0,0,0,.907.795l47.841-3.125a3.346,3.346,0,0,0,2.918-2.171l8.078-21.675A1.992,1.992,0,0,0,1005.627,1118.86Z" transform="translate(-833.04 -983.325)" fill="#f47458"/>
    <path id="Path_157" data-name="Path 157" d="M1232.766,1210.824a1.681,1.681,0,1,1-1.554-2A1.8,1.8,0,0,1,1232.766,1210.824Z" transform="translate(-1075.371 -1060.762)" fill="#fff"/>
    <path id="Path_158" data-name="Path 158" d="M882.853,1318.382l33.752-5.828s14.593-2.223,17.946,2.087,13.092,60.19,13.092,60.19-7.344.639-7.823.319c-.371-.247-9.262-18.876-13.256-27.27a31.909,31.909,0,0,1-2.65-8.4l-1.283-7.605-4.247,1.462a51.841,51.841,0,0,1-23.25,2.488c-3.28-.407-6.34-1.108-8.239-2.288C880.986,1329.868,882.853,1318.382,882.853,1318.382Z" transform="translate(-776.831 -1149.547)" fill="#184655"/>
    <path id="Path_159" data-name="Path 159" d="M984.339,875.208l.657,4.874s1.472,7.022-.422,8.375-8.052-8.576-8.052-8.576l.65-12.35Z" transform="translate(-857.693 -767.014)" fill="#f7a491"/>
    <path id="Path_160" data-name="Path 160" d="M979.684,871.535a14.009,14.009,0,0,0,7.933,7.806l-.557-4.132-7.166-7.676Z" transform="translate(-860.413 -767.014)" fill="#f47458"/>
    <path id="Path_161" data-name="Path 161" d="M978.753,770.55a6.513,6.513,0,0,1,7.51,6.573,49.252,49.252,0,0,1-.549,6.251c-.872,5.626-4.724,10.581-7.271,10.138s-8.955-5.3-7.827-13.3C971.313,775.267,974.543,771.227,978.753,770.55Z" transform="translate(-852.495 -683.471)" fill="#f7a491"/>
    <path id="Path_162" data-name="Path 162" d="M961.226,831.314a1.9,1.9,0,1,1-1.443-2.558A2.1,2.1,0,0,1,961.226,831.314Z" transform="translate(-841.338 -733.62)" fill="#f7a491"/>
    <path id="Path_163" data-name="Path 163" d="M967.753,767.072s3.079.763,4.222-1.211,5.229-6.233,10.423-4.467-4.571-4.294-4.987-4.294-5.4-.035-5.4-.035-3.844,3.151-3.982,3.5-1.247,4.121-1.247,4.121Z" transform="translate(-849.308 -671.936)" fill="#0e2e35"/>
    <g id="Group_80" data-name="Group 80" transform="translate(269.334 208.871)">
      <rect id="Rectangle_23" data-name="Rectangle 23" width="76.651" height="27.898" transform="translate(76.651 27.898) rotate(180)" fill="#50bfa5"/>
      <g id="Group_79" data-name="Group 79" transform="translate(0 0)">
        <rect id="Rectangle_24" data-name="Rectangle 24" width="76.651" height="3.589" transform="translate(76.651 7.654) rotate(180)" fill="#96d9c9"/>
        <rect id="Rectangle_25" data-name="Rectangle 25" width="76.651" height="3.589" transform="translate(76.651 14.665) rotate(180)" fill="#96d9c9"/>
        <rect id="Rectangle_26" data-name="Rectangle 26" width="76.651" height="3.589" transform="translate(76.651 21.675) rotate(180)" fill="#96d9c9"/>
        <rect id="Rectangle_27" data-name="Rectangle 27" width="76.651" height="3.589" transform="translate(76.651 27.898) rotate(180)" fill="#96d9c9"/>
        <rect id="Rectangle_28" data-name="Rectangle 28" width="15.942" height="27.898" transform="translate(44.476 27.898) rotate(180)" fill="#f7cc7f"/>
      </g>
      <rect id="Rectangle_29" data-name="Rectangle 29" width="11.576" height="27.898" transform="translate(87.296 27.898) rotate(180)" fill="#3c8f7c"/>
    </g>
    <path id="Path_173" data-name="Path 173" d="M0,0H423.563V2.417H0Z" transform="translate(7.605 236.371)" fill="#c5e9f2"/>
    <path id="Path_164" data-name="Path 164" d="M1088.422,226.179a7.615,7.615,0,0,0-9.336-5.655,11.209,11.209,0,0,0-13.479-5.954,13.808,13.808,0,0,0-24.8,2.412,9.472,9.472,0,0,0-14.078,8.278c0,.31.016.617.045.919Z" transform="translate(-900.903 -199.269)" fill="#fff" opacity="0.8"/>
    <path id="Path_165" data-name="Path 165" d="M1380.552,523.529a5.763,5.763,0,0,0-7.065-4.28,8.484,8.484,0,0,0-10.2-4.506,10.45,10.45,0,0,0-18.77,1.826,7.168,7.168,0,0,0-10.653,6.264c0,.235.012.467.034.7Z" transform="translate(-1165.251 -459.023)" fill="#fff" opacity="0.8"/>
    <path id="Path_166" data-name="Path 166" d="M736.453,496.539a5.025,5.025,0,0,1,6.161-3.732,7.4,7.4,0,0,1,8.895-3.929,9.112,9.112,0,0,1,16.368,1.592,6.251,6.251,0,0,1,9.29,5.462c0,.2-.011.407-.03.607Z" transform="translate(-651.068 -437.318)" fill="#fff" opacity="0.8"/>
    <g id="Group_81" data-name="Group 81" transform="translate(165.885 83.161)">
      <path id="Path_167" data-name="Path 167" d="M1354.678,750.824l.543,6.61,3.84-4.324,12.418-10.17-10.589,3.336s-5.214,2.533-5.453,2.867A13.687,13.687,0,0,0,1354.678,750.824Z" transform="translate(-1349.051 -742.94)" fill="#50bfa5"/>
      <path id="Path_168" data-name="Path 168" d="M1314.287,747.984l22.427-5.044-16.8,7.884Z" transform="translate(-1314.287 -742.94)" fill="#96d9c9"/>
      <path id="Path_169" data-name="Path 169" d="M1373.882,755.719l-6.913-3.449,15.088-9.33Z" transform="translate(-1359.63 -742.94)" fill="#96d9c9"/>
    </g>
    <g id="Group_84" data-name="Group 84" transform="translate(157.825 93.76)">
      <g id="Group_82" data-name="Group 82" transform="translate(10.898)">
        <path id="Path_170" data-name="Path 170" d="M1334.834,819.978a8.187,8.187,0,0,1,1.806-.474l-.051-.481a8.557,8.557,0,0,0-1.925.5Z" transform="translate(-1334.664 -819.023)" fill="#3c8f7c"/>
      </g>
      <g id="Group_83" data-name="Group 83" transform="translate(0 2.459)">
        <path id="Path_171" data-name="Path 171" d="M1256.435,874.241a19.649,19.649,0,0,0,2.432-2.659l.386.291a20.1,20.1,0,0,1-2.492,2.725Zm4.3-5.734c.237-.5.455-1.016.648-1.541.219-.594.412-1.216.575-1.846l.468.121c-.167.646-.365,1.283-.589,1.893-.2.539-.422,1.071-.665,1.582Zm1.952-10.568.483-.011a31.189,31.189,0,0,1-.119,3.678l-.481-.046A30.707,30.707,0,0,0,1262.686,857.939ZM1262,850.7l.478-.068c.2,1.414.347,2.569.455,3.636l-.481.049C1262.344,853.252,1262.2,852.1,1262,850.7Zm-.541-3.639a17.79,17.79,0,0,1-.183-3.668l.482.03a17.315,17.315,0,0,0,.178,3.566l0,.028-.479.066Zm.607-7.3a8.776,8.776,0,0,1,2.1-3.082l.332.351a8.294,8.294,0,0,0-1.982,2.914Z" transform="translate(-1256.435 -836.676)" fill="#3c8f7c"/>
      </g>
    </g>
  </g>
</svg>
