<?xml version="1.0" encoding="UTF-8" standalone="no"?>
<svg
   width="26.349"
   height="20.858"
   viewBox="0 0 26.349 20.858"
   version="1.1"
   id="svg7"
   sodipodi:docname="report_green.svg"
   inkscape:version="1.1.2 (b8e25be833, 2022-02-05)"
   xmlns:inkscape="http://www.inkscape.org/namespaces/inkscape"
   xmlns:sodipodi="http://sodipodi.sourceforge.net/DTD/sodipodi-0.dtd"
   xmlns="http://www.w3.org/2000/svg"
   xmlns:svg="http://www.w3.org/2000/svg">
  <defs
     id="defs11" />
  <sodipodi:namedview
     id="namedview9"
     pagecolor="#ffffff"
     bordercolor="#666666"
     borderopacity="1.0"
     inkscape:pageshadow="2"
     inkscape:pageopacity="0.0"
     inkscape:pagecheckerboard="0"
     showgrid="false"
     inkscape:zoom="34.471186"
     inkscape:cx="13.17042"
     inkscape:cy="10.443505"
     inkscape:window-width="3440"
     inkscape:window-height="1377"
     inkscape:window-x="-8"
     inkscape:window-y="-8"
     inkscape:window-maximized="1"
     inkscape:current-layer="svg7" />
  <g
     id="Group_6112"
     data-name="Group 6112"
     transform="translate(-697.64 -197.46)"
     style="fill:#64c689;fill-opacity:1">
    <path
       id="Path_901"
       data-name="Path 901"
       d="M697.64,197.663h2.192V216.3H723.99v2.2H698.515a1.293,1.293,0,0,1-.875-.875Z"
       transform="translate(0 -0.189)"
       fill="#b6bdcd"
       style="fill:#64c689;fill-opacity:1" />
    <path
       id="Path_902"
       data-name="Path 902"
       d="M990.562,215.014h-5.484v-.282q0-8.014,0-16.027a1.107,1.107,0,0,1,1.231-1.243q1.531,0,3.061,0a1.1,1.1,0,0,1,1.2,1.2q0,8.065,0,16.13C990.572,214.858,990.566,214.925,990.562,215.014Z"
       transform="translate(-267.676 0)"
       fill="#b6bdcd"
       style="fill:#64c689;fill-opacity:1" />
    <path
       id="Path_903"
       data-name="Path 903"
       d="M873.223,274.31v-.292c0-3.859.013-7.718-.01-11.577a1.2,1.2,0,0,1,1.3-1.3c1,.037,2.006.008,3.01.01a1.087,1.087,0,0,1,1.183,1.161q0,5.9,0,11.809c0,.059-.007.117-.011.19Z"
       transform="translate(-163.501 -59.301)"
       fill="#b6bdcd"
       style="fill:#64c689;fill-opacity:1" />
    <path
       id="Path_904"
       data-name="Path 904"
       d="M766.944,333.879h-5.494V333.6q0-3.615,0-7.23a1.13,1.13,0,0,1,1.275-1.263q1.479,0,2.959,0a1.122,1.122,0,0,1,1.26,1.248q0,3.628,0,7.256Z"
       transform="translate(-59.423 -118.865)"
       fill="#b6bdcd"
       style="fill:#64c689;fill-opacity:1" />
  </g>
</svg>
