<svg xmlns="http://www.w3.org/2000/svg" width="148.608" height="148.612" viewBox="0 0 148.608 148.612">
  <g id="Group_775" data-name="Group 775" transform="translate(-208.915 -47.232)">
    <g id="Group_771" data-name="Group 771" transform="translate(208.915 47.232)">
      <g id="Group_770" data-name="Group 770" transform="translate(0 0.003)">
        <path id="Path_874" data-name="Path 874" d="M283.219,195.842a74.3,74.3,0,1,1,74.3-74.3A74.389,74.389,0,0,1,283.219,195.842Zm0-124.273a49.968,49.968,0,1,0,49.968,49.968A50.025,50.025,0,0,0,283.219,71.57Z" transform="translate(-208.915 -47.234)" fill="#e4e4e4"/>
      </g>
      <path id="Path_875" data-name="Path 875" d="M298.3,62.01l-14.544,19.5a49.716,49.716,0,0,0-29.87-9.936V47.232a73.782,73.782,0,0,1,30.183,6.42A75.031,75.031,0,0,1,298.3,62.01Z" transform="translate(-179.586 -47.232)" fill="#8491cf"/>
    </g>
  </g>
</svg>
