<svg xmlns="http://www.w3.org/2000/svg" width="148.607" height="148.614" viewBox="0 0 148.607 148.614">
  <g id="Group_6193" data-name="Group 6193" transform="translate(-441.877 -528.52)">
    <g id="Group_559" data-name="Group 559" transform="translate(441.877 528.526)">
      <path id="Path_733" data-name="Path 733" d="M283.219,301.505a74.3,74.3,0,1,1,74.3-74.305A74.389,74.389,0,0,1,283.219,301.505Zm0-124.273A49.969,49.969,0,1,0,333.187,227.2,50.025,50.025,0,0,0,283.219,177.232Z" transform="translate(-208.915 -152.898)" fill="#e4e4e4"/>
    </g>
    <g id="Group_560" data-name="Group 560" transform="translate(441.883 528.52)">
      <path id="Path_734" data-name="Path 734" d="M333.182,227.09v.116a49.964,49.964,0,1,1-49.965-49.976V152.894a74.305,74.305,0,1,0,74.3,74.312v-.116Z" transform="translate(-208.918 -152.894)" fill="#8491cf"/>
    </g>
  </g>
</svg>
