<svg xmlns="http://www.w3.org/2000/svg" width="148.596" height="148.605" viewBox="0 0 148.596 148.605">
  <g id="Group_785" data-name="Group 785" transform="translate(-410.506 -49.786)">
    <g id="Group_781" data-name="Group 781" transform="translate(410.506 49.786)">
      <g id="Group_779" data-name="Group 779">
        <path id="Path_877" data-name="Path 877" d="M484.8,49.786a74.3,74.3,0,1,1-74.3,74.3A74.383,74.383,0,0,1,484.8,49.786Zm0,124.264a49.965,49.965,0,1,0-49.964-49.964A50.02,50.02,0,0,0,484.8,174.05Z" transform="translate(-410.506 -49.786)" fill="#e4e4e4"/>
      </g>
      <g id="Group_780" data-name="Group 780" transform="translate(74.298 0.003)">
        <path id="Path_878" data-name="Path 878" d="M505.447,124.081a50.03,50.03,0,0,0-49.966-49.966V49.788a74.3,74.3,0,0,1,0,148.6V174.046A50.02,50.02,0,0,0,505.447,124.081Z" transform="translate(-455.481 -49.788)" fill="#8491cf"/>
      </g>
    </g>
  </g>
</svg>
