<svg xmlns="http://www.w3.org/2000/svg" width="29.794" height="31.905" viewBox="0 0 29.794 31.905">
  <path id="Path_302" data-name="Path 302" d="M15.492,21.27a5.318,5.318,0,1,1,5.317-5.318A5.338,5.338,0,0,1,15.492,21.27Zm13.556-2.125-1.592-.929a2.733,2.733,0,0,1,0-4.653l1.592-.927a2.52,2.52,0,0,0,.929-3.588L28.648,6.792a2.518,2.518,0,0,0-3.588-.927l-1.592.927a2.649,2.649,0,0,1-3.988-2.256V2.659A2.669,2.669,0,0,0,16.822,0H14.163A2.669,2.669,0,0,0,11.5,2.659V4.39A2.649,2.649,0,0,1,7.516,6.647l-1.592-.8a2.58,2.58,0,0,0-3.588.927L1.008,9.036a2.908,2.908,0,0,0,.929,3.724l1.592.929a2.616,2.616,0,0,1,0,4.52l-1.592.929a2.518,2.518,0,0,0-.929,3.586l1.329,2.258a2.52,2.52,0,0,0,3.588.927l1.592-.8A2.649,2.649,0,0,1,11.5,27.369v1.877a2.669,2.669,0,0,0,2.659,2.659h2.659a2.669,2.669,0,0,0,2.659-2.659V27.515a2.649,2.649,0,0,1,3.988-2.256l1.592.927a2.579,2.579,0,0,0,3.588-.927L29.977,23A3.041,3.041,0,0,0,29.048,19.145Z" transform="translate(-0.595)" fill="#61688d"/>
</svg>
