<svg xmlns="http://www.w3.org/2000/svg" width="26" height="26" viewBox="0 0 26 26">
  <g id="Path_946" data-name="Path 946" fill="#43475d">
    <path d="M 23 25.5 L 3 25.5 C 1.621500015258789 25.5 0.5 24.37849998474121 0.5 23 L 0.5 3 C 0.5 1.621500015258789 1.621500015258789 0.5 3 0.5 L 23 0.5 C 24.37849998474121 0.5 25.5 1.621500015258789 25.5 3 L 25.5 23 C 25.5 24.37849998474121 24.37849998474121 25.5 23 25.5 Z" stroke="none"/>
    <path d="M 3 1 C 1.897199630737305 1 1 1.897199630737305 1 3 L 1 23 C 1 24.1028003692627 1.897199630737305 25 3 25 L 23 25 C 24.1028003692627 25 25 24.1028003692627 25 23 L 25 3 C 25 1.897199630737305 24.1028003692627 1 23 1 L 3 1 M 3 0 L 23 0 C 24.65685081481934 0 26 1.3431396484375 26 3 L 26 23 C 26 24.65685081481934 24.65685081481934 26 23 26 L 3 26 C 1.3431396484375 26 0 24.65685081481934 0 23 L 0 3 C 0 1.3431396484375 1.3431396484375 0 3 0 Z" stroke="none" fill="#e6e6e6"/>
  </g>
</svg>
