<svg xmlns="http://www.w3.org/2000/svg" width="27.072" height="27.028" viewBox="0 0 27.072 27.028">
  <g id="Group_320" data-name="Group 320" transform="translate(366.9 1010.92)">
    <path id="Path_677" data-name="Path 677" d="M-339.847-996.592c-.043.406-.07.792-.128,1.174a12.943,12.943,0,0,1-2.851,6.488,13.239,13.239,0,0,1-12.373,4.92,12.864,12.864,0,0,1-7.577-3.681,13.214,13.214,0,0,1-3.918-7.4c-.087-.5-.139-1.008-.206-1.512v-1.638c.016-.067.035-.133.046-.2a19.4,19.4,0,0,1,.363-2.234,13.337,13.337,0,0,1,10.371-9.978c.535-.128,1.089-.179,1.634-.266h.317v4.818a8.783,8.783,0,0,0-7.877,9.479,8.744,8.744,0,0,0,7.712,7.87,8.3,8.3,0,0,0,5.576-1.268,8.659,8.659,0,0,0,4.078-6.571Z" transform="translate(0 0)" fill="#b6bdcd"/>
    <path id="Path_678" data-name="Path 678" d="M-83.674-998.213c-.122.007-.2.016-.275.016-1.443,0-2.887,0-4.33,0-.2,0-.265-.056-.289-.259a8.7,8.7,0,0,0-6.345-7.358,10.139,10.139,0,0,0-1.267-.242c-.191-.027-.247-.086-.246-.277.007-1.434,0-2.869,0-4.3,0-.1-.005-.193-.008-.29h.37c.527.085,1.059.148,1.58.259a13.506,13.506,0,0,1,10.548,10.631C-83.812-999.439-83.76-998.834-83.674-998.213Z" transform="translate(-256.154 0)" fill="#b6bdcd"/>
    <path id="Path_679" data-name="Path 679" d="M-238.78-890.251a7.15,7.15,0,0,0-7.15,7.127,7.165,7.165,0,0,0,7.127,7.13,7.148,7.148,0,0,0,7.13-7.121A7.132,7.132,0,0,0-238.78-890.251Zm2.554,8.653a1.8,1.8,0,0,1-1.234,1.615c-.174.06-.351.11-.552.172v1.186H-239.6c0-.357-.006-.7,0-1.039,0-.15-.043-.21-.2-.246a4.986,4.986,0,0,1-1.671-.678l.657-1.306a4.037,4.037,0,0,0,1.676.7,3.125,3.125,0,0,0,.961-.033.449.449,0,0,0,.293-.311.549.549,0,0,0-.18-.446,5.007,5.007,0,0,0-.889-.383c-.411-.152-.843-.257-1.24-.439a1.73,1.73,0,0,1-.754-2.514,1.936,1.936,0,0,1,1.059-.9.364.364,0,0,0,.285-.44c-.021-.287-.005-.576-.005-.879h1.586c0,.31.015.624,0,.935-.013.2.072.261.247.32.454.153.9.336,1.378.518l-.681,1.283a3.461,3.461,0,0,0-1.634-.6,1.308,1.308,0,0,0-.589.084.693.693,0,0,0-.311.373.376.376,0,0,0,.208.467,5.706,5.706,0,0,0,.706.285c.48.167.979.288,1.443.492A1.646,1.646,0,0,1-236.225-881.6Z" transform="translate(-114.567 -114.282)" fill="#b6bdcd"/>
  </g>
</svg>
