<svg xmlns="http://www.w3.org/2000/svg" width="23.649" height="23.611" viewBox="0 0 23.649 23.611">
  <g id="Group_605" data-name="Group 605" transform="translate(0.001 0)">
    <path id="Path_677" data-name="Path 677" d="M-343.268-998.4c-.038.355-.061.692-.112,1.026a11.307,11.307,0,0,1-2.49,5.668,11.565,11.565,0,0,1-10.808,4.3,11.237,11.237,0,0,1-6.619-3.215,11.543,11.543,0,0,1-3.423-6.467c-.076-.437-.121-.88-.18-1.32v-1.43c.014-.058.031-.117.04-.175a16.949,16.949,0,0,1,.317-1.951,11.65,11.65,0,0,1,9.06-8.716c.467-.112.951-.156,1.427-.232h.277v4.209a7.672,7.672,0,0,0-6.881,8.28,7.638,7.638,0,0,0,6.737,6.875,7.253,7.253,0,0,0,4.871-1.108,7.564,7.564,0,0,0,3.562-5.74Z" transform="translate(366.899 1010.92)" fill="#43475d"/>
    <path id="Path_678" data-name="Path 678" d="M-85.287-999.82c-.106.006-.173.014-.24.014-1.261,0-2.522,0-3.782,0-.176,0-.232-.049-.252-.226a7.6,7.6,0,0,0-5.543-6.427,8.856,8.856,0,0,0-1.106-.211c-.167-.024-.216-.075-.215-.242.006-1.253,0-2.506,0-3.759,0-.084,0-.169-.007-.253h.323c.461.074.925.13,1.381.226a11.8,11.8,0,0,1,9.214,9.286C-85.408-1000.891-85.362-1000.363-85.287-999.82Z" transform="translate(108.935 1010.92)" fill="#43475d"/>
    <path id="Path_679" data-name="Path 679" d="M-239.684-890.251a6.246,6.246,0,0,0-6.246,6.226A6.259,6.259,0,0,0-239.7-877.8a6.244,6.244,0,0,0,6.228-6.221A6.23,6.23,0,0,0-239.684-890.251Zm2.231,7.559a1.568,1.568,0,0,1-1.078,1.411c-.152.053-.307.1-.482.15v1.036H-240.4c0-.312-.006-.609,0-.907,0-.131-.038-.183-.171-.215a4.355,4.355,0,0,1-1.46-.593l.574-1.141a3.524,3.524,0,0,0,1.464.609,2.727,2.727,0,0,0,.84-.029.392.392,0,0,0,.256-.272.479.479,0,0,0-.158-.389,4.373,4.373,0,0,0-.776-.335c-.359-.133-.737-.224-1.083-.383a1.511,1.511,0,0,1-.659-2.2,1.691,1.691,0,0,1,.925-.789.318.318,0,0,0,.249-.384c-.018-.25,0-.5,0-.768h1.385c0,.271.013.545,0,.817-.011.176.063.228.216.28.4.134.785.293,1.2.453l-.595,1.121a3.023,3.023,0,0,0-1.428-.522,1.144,1.144,0,0,0-.515.073.606.606,0,0,0-.272.325.329.329,0,0,0,.182.408,4.986,4.986,0,0,0,.616.249c.419.146.855.252,1.261.43A1.438,1.438,0,0,1-237.453-882.693Z" transform="translate(251.523 895.831)" fill="#43475d"/>
  </g>
</svg>
