<svg xmlns="http://www.w3.org/2000/svg" xmlns:xlink="http://www.w3.org/1999/xlink" width="302.866" height="307.978" viewBox="0 0 302.866 307.978">
  <defs>
    <linearGradient id="linear-gradient" x1="1.671" y1="-0.084" x2="-2.854" y2="2.172" gradientUnits="objectBoundingBox">
      <stop offset="0" stop-color="#4f52ff"/>
      <stop offset="1" stop-color="#4042e2"/>
    </linearGradient>
    <linearGradient id="linear-gradient-2" x1="3.187" y1="-1.358" x2="-3.193" y2="3.054" xlink:href="#linear-gradient"/>
    <linearGradient id="linear-gradient-3" x1="3.441" y1="-6.155" x2="1.858" y2="-2.573" xlink:href="#linear-gradient"/>
    <linearGradient id="linear-gradient-4" x1="-120.435" y1="5.077" x2="-128.435" y2="5.935" gradientUnits="objectBoundingBox">
      <stop offset="0" stop-color="#09005d"/>
      <stop offset="1" stop-color="#1a0f91"/>
    </linearGradient>
    <linearGradient id="linear-gradient-5" x1="-14.31" y1="22.195" x2="-14.631" y2="25.642" xlink:href="#linear-gradient-4"/>
    <linearGradient id="linear-gradient-6" x1="1.279" y1="-0.226" x2="-1.294" y2="2.192" gradientUnits="objectBoundingBox">
      <stop offset="0" stop-color="#ff928e"/>
      <stop offset="1" stop-color="#fe7062"/>
    </linearGradient>
    <linearGradient id="linear-gradient-7" x1="2.347" y1="-2.157" x2="-1.192" y2="2.973" xlink:href="#linear-gradient-6"/>
    <linearGradient id="linear-gradient-8" x1="0.634" y1="-2.27" x2="0.558" y2="-0.967" gradientUnits="objectBoundingBox">
      <stop offset="0" stop-color="#e1473d"/>
      <stop offset="1" stop-color="#e9605a"/>
    </linearGradient>
    <linearGradient id="linear-gradient-9" x1="0.288" y1="1.688" x2="0.458" y2="0.425" xlink:href="#linear-gradient-6"/>
    <linearGradient id="linear-gradient-10" x1="0.624" y1="-15.904" x2="0.56" y2="-7.44" xlink:href="#linear-gradient-8"/>
    <linearGradient id="linear-gradient-11" x1="1.845" y1="-11.526" x2="1.117" y2="-4.746" xlink:href="#linear-gradient-6"/>
    <linearGradient id="linear-gradient-12" x1="0.399" y1="1.998" x2="0.617" y2="-1.196" xlink:href="#linear-gradient-6"/>
    <linearGradient id="linear-gradient-13" x1="1.782" y1="-0.392" x2="-1.003" y2="1.512" xlink:href="#linear-gradient-6"/>
    <linearGradient id="linear-gradient-14" x1="-21.603" y1="33.315" x2="-24.388" y2="35.219" xlink:href="#linear-gradient-6"/>
    <linearGradient id="linear-gradient-15" x1="0.927" y1="0.632" x2="-1.894" y2="-0.425" xlink:href="#linear-gradient"/>
    <linearGradient id="linear-gradient-16" x1="1.121" y1="-0.158" x2="-1.164" y2="1.904" gradientUnits="objectBoundingBox">
      <stop offset="0" stop-color="#febbba"/>
      <stop offset="1" stop-color="#ff928e"/>
    </linearGradient>
    <linearGradient id="linear-gradient-17" x1="0.642" y1="0.453" x2="-5.223" y2="3.274" xlink:href="#linear-gradient-16"/>
    <linearGradient id="linear-gradient-18" x1="0" y1="0.5" x2="1" y2="0.5" xlink:href="#linear-gradient-4"/>
    <linearGradient id="linear-gradient-20" x1="0" y1="0.5" x2="1" y2="0.5" xlink:href="#linear-gradient-16"/>
    <linearGradient id="linear-gradient-26" x1="0.528" y1="0.175" x2="-0.362" y2="1.576" xlink:href="#linear-gradient"/>
    <linearGradient id="linear-gradient-27" x1="0.891" y1="0.756" x2="-1.329" y2="-0.937" xlink:href="#linear-gradient-16"/>
    <linearGradient id="linear-gradient-28" x1="0.276" y1="1.206" x2="0.6" y2="0.434" xlink:href="#linear-gradient-16"/>
    <linearGradient id="linear-gradient-29" x1="0.821" y1="0.35" x2="-0.291" y2="1.106" xlink:href="#linear-gradient-16"/>
    <linearGradient id="linear-gradient-30" x1="0.28" y1="0.152" x2="1.03" y2="1.129" xlink:href="#linear-gradient-4"/>
    <linearGradient id="linear-gradient-31" x1="2.74" y1="-0.685" x2="-1.811" y2="1.784" xlink:href="#linear-gradient-16"/>
  </defs>
  <g id="Group_212" data-name="Group 212" transform="translate(0 0)">
    <path id="Path_427" data-name="Path 427" d="M732.087,720.635c-5.4,6.921-19.547,21.5-24.216,24.521-41.525,26.9-102.319,18.344-115.681,15.631-19.731-4.007-65.355-.636-92.929-33.062-41.717-49.059-37.819-131.572-5.46-182.593,5.919-9.333,42.175-64.922,105.722-73.228,38.458-5.027,96.082.909,128.546,28.107C796.214,557.1,767.068,675.81,732.087,720.635Z" transform="translate(-467.795 -464.587)" fill="#cbe2f6"/>
    <g id="Group_202" data-name="Group 202" transform="translate(88.672 12.013)">
      <g id="Group_200" data-name="Group 200" transform="translate(0 39.826)">
        <path id="Path_428" data-name="Path 428" d="M1276.854,896.616a1.26,1.26,0,0,1,2.379-.563c5.78,11.271,21.861,40.352,40.248,53.784,29.939,21.87,55.085,62.147,43.981,87.906C1363.462,1037.743,1275.141,1039.362,1276.854,896.616Z" transform="translate(-1276.83 -895.37)" fill="#bdd0fb"/>
        <path id="Path_429" data-name="Path 429" d="M1330.61,1057.256c.109.385.231.693.346,1.031l.362.988.746,1.965c.506,1.307,1.032,2.6,1.558,3.9q1.592,3.889,3.271,7.741c2.243,5.134,4.625,10.207,7.083,15.242s5.043,10.011,7.739,14.925,5.471,9.787,8.4,14.568a269.088,269.088,0,0,0,19.2,27.614c3.543,4.351,7.2,8.611,11.1,12.651a145.633,145.633,0,0,0,12.383,11.383.221.221,0,0,0,.285-.338l0,0a162.806,162.806,0,0,1-12-11.672c-3.811-4.079-7.381-8.376-10.834-12.759s-6.726-8.911-9.9-13.507-6.146-9.325-9.1-14.067c-5.86-9.512-11.21-19.333-16.285-29.292q-3.791-7.477-7.291-15.1-1.759-3.806-3.439-7.648l-1.646-3.856-.8-1.935-.39-.971c-.123-.32-.26-.662-.356-.947l-.016-.047a.219.219,0,0,0-.418.13Z" transform="translate(-1324.765 -1039.435)" fill="#fff" opacity="0.43"/>
      </g>
      <g id="Group_201" data-name="Group 201" transform="translate(32.542)">
        <path id="Path_430" data-name="Path 430" d="M1587.919,529.331a1.206,1.206,0,0,1,2.335.132c2.225,11.913,9.039,42.969,22.237,60.3,21.49,28.223,33.562,72.019,16.352,92.612C1628.843,682.378,1547.406,659.768,1587.919,529.331Z" transform="translate(-1576.618 -528.484)" fill="#91b3fa"/>
        <path id="Path_431" data-name="Path 431" d="M1688.2,689.212c0,.383.022.7.036,1.04l.062,1,.147,2.006c.107,1.336.235,2.67.363,4q.4,4,.887,7.991c.656,5.32,1.456,10.622,2.335,15.911s1.892,10.556,3.024,15.8,2.347,10.468,3.729,15.652a257.182,257.182,0,0,0,10.076,30.562c2.063,4.956,4.256,9.861,6.73,14.629a139.2,139.2,0,0,0,8.255,13.816.215.215,0,0,0,.36-.236l0,0a155.958,155.958,0,0,1-7.818-13.98c-2.381-4.781-4.482-9.695-6.452-14.656s-3.736-10.007-5.389-15.086-3.091-10.227-4.5-15.38c-2.78-10.321-5.006-20.787-6.945-31.3q-1.438-7.891-2.569-15.836-.575-3.97-1.069-7.952L1689,693.21l-.209-1.994-.094-1c-.025-.327-.058-.679-.068-.965l0-.048a.213.213,0,0,0-.427.005Z" transform="translate(-1676.091 -671.576)" fill="#fff" opacity="0.43"/>
      </g>
    </g>
    <g id="Group_208" data-name="Group 208" transform="translate(114.303)">
      <g id="Group_206" data-name="Group 206" transform="translate(0)">
        <circle id="Ellipse_17" data-name="Ellipse 17" cx="65.031" cy="65.031" r="65.031" transform="translate(0 91.968) rotate(-45)" fill="#fff"/>
        <g id="Group_203" data-name="Group 203" transform="translate(33.687 33.686)">
          <circle id="Ellipse_18" data-name="Ellipse 18" cx="55.502" cy="55.502" r="55.502" transform="translate(2.78 2.78)" fill="url(#linear-gradient)"/>
          <path id="Path_432" data-name="Path 432" d="M1881.557,844.712a58.282,58.282,0,1,1,58.282-58.282A58.348,58.348,0,0,1,1881.557,844.712Zm0-113.784a55.5,55.5,0,1,0,55.5,55.5A55.564,55.564,0,0,0,1881.557,730.928Z" transform="translate(-1823.275 -728.148)" fill="#fff"/>
        </g>
        <g id="Group_204" data-name="Group 204" transform="translate(44.116 44.116)">
          <circle id="Ellipse_19" data-name="Ellipse 19" cx="33.837" cy="33.837" r="33.837" transform="translate(0 47.852) rotate(-45)" fill="url(#linear-gradient-2)"/>
          <path id="Path_433" data-name="Path 433" d="M2059.478,1000.971a36.616,36.616,0,1,1,36.616-36.617A36.658,36.658,0,0,1,2059.478,1000.971Zm0-67.673a31.057,31.057,0,1,0,31.057,31.056A31.092,31.092,0,0,0,2059.478,933.3Z" transform="translate(-2011.625 -916.502)" fill="#fff"/>
        </g>
        <g id="Group_205" data-name="Group 205" transform="translate(75.835 75.835)">
          <circle id="Ellipse_20" data-name="Ellipse 20" cx="13.109" cy="13.109" r="13.109" transform="translate(0 25.267) rotate(-74.518)" fill="url(#linear-gradient-3)"/>
          <path id="Path_434" data-name="Path 434" d="M2229.7,1150.459a15.889,15.889,0,1,1,15.889-15.889A15.907,15.907,0,0,1,2229.7,1150.459Zm0-26.219a10.33,10.33,0,1,0,10.33,10.33A10.341,10.341,0,0,0,2229.7,1124.24Z" transform="translate(-2213.563 -1118.437)" fill="#fff"/>
        </g>
      </g>
      <g id="Group_207" data-name="Group 207" transform="translate(91.698 4.036)">
        <rect id="Rectangle_180" data-name="Rectangle 180" width="2.479" height="93.86" transform="matrix(-0.707, -0.707, 0.707, -0.707, 14.491, 77.013)" fill="url(#linear-gradient-4)"/>
        <path id="Path_435" data-name="Path 435" d="M2371.675,1108.216c1.006-1.005,5.746,3.735,4.74,4.74l-17.581,13.822a.7.7,0,0,1-.98-.981Z" transform="translate(-2357.696 -1037.185)" fill="url(#linear-gradient-5)"/>
        <path id="Path_436" data-name="Path 436" d="M2949.483,553.4l8.929.887-12.257,12.257A18.949,18.949,0,0,1,2930.881,572h0Z" transform="translate(-2868.662 -542.719)" fill="#91b3fa"/>
        <path id="Path_437" data-name="Path 437" d="M2932.573,463.929l-.888-8.929-12.257,12.258a18.951,18.951,0,0,0-5.457,15.273h0Z" transform="translate(-2853.504 -455)" fill="#91b3fa"/>
      </g>
    </g>
    <path id="Rectangle_181" data-name="Rectangle 181" d="M48.659,0H79.887a48.659,48.659,0,0,1,48.659,48.659V164.307A17.688,17.688,0,0,1,110.858,182H0a0,0,0,0,1,0,0V48.659A48.659,48.659,0,0,1,48.659,0Z" transform="translate(174.32 125.472)" fill="url(#linear-gradient-6)"/>
    <path id="Rectangle_182" data-name="Rectangle 182" d="M48.659,0H63.374a48.659,48.659,0,0,1,48.659,48.659v97.019a0,0,0,0,1,0,0H0a0,0,0,0,1,0,0V48.659A48.659,48.659,0,0,1,48.659,0Z" transform="translate(118.258 162.3)" fill="#91b3fa"/>
    <path id="Rectangle_183" data-name="Rectangle 183" d="M48.268,0h0A48.268,48.268,0,0,1,96.537,48.268V88.66a0,0,0,0,1,0,0H17.546A17.546,17.546,0,0,1,0,71.113V48.268A48.268,48.268,0,0,1,48.268,0Z" transform="translate(55.591 218.807)" fill="url(#linear-gradient-7)"/>
    <path id="Rectangle_184" data-name="Rectangle 184" d="M39.648,0h17.24A39.648,39.648,0,0,1,96.537,39.648V54.061a0,0,0,0,1,0,0H14.413A14.413,14.413,0,0,1,0,39.648v0A39.648,39.648,0,0,1,39.648,0Z" transform="translate(0 253.406)" fill="#91b3fa"/>
    <g id="Group_209" data-name="Group 209" transform="translate(236.435 65.587)">
      <path id="Path_438" data-name="Path 438" d="M2804.249,1378.639h-3.656l-5.747-16.9,15.974-.97Z" transform="translate(-2777.827 -1323.994)" fill="url(#linear-gradient-8)"/>
      <path id="Path_439" data-name="Path 439" d="M2705.261,1063.667c-.018,1.427-.018,29.362,14.163,33.9s20.586-19.1,20.078-35.933Z" transform="translate(-2697.966 -1057.333)" fill="url(#linear-gradient-9)"/>
      <rect id="Rectangle_185" data-name="Rectangle 185" width="22.672" height="2.753" transform="translate(13.258 57.209)" fill="url(#linear-gradient-10)"/>
      <path id="Path_440" data-name="Path 440" d="M2782.869,1523.774H2760.2l5.738-3.078h11.2Z" transform="translate(-2746.939 -1466.565)" fill="url(#linear-gradient-11)"/>
      <path id="Path_441" data-name="Path 441" d="M2671.547,1024.4a2.279,2.279,0,0,0-2.264,2.048v2.149a1.986,1.986,0,0,0,2.264,1.789l38.865-2.091a2.26,2.26,0,0,0,2.265-2.032v-2.454a1.969,1.969,0,0,0-2.263-1.772Z" transform="translate(-2665.894 -1022.029)" fill="url(#linear-gradient-12)"/>
      <path id="Path_442" data-name="Path 442" d="M2913.44,1262.407a1.725,1.725,0,0,1-1.792-1.348,1.6,1.6,0,0,1,1.588-1.683c.189-.019,13.231-1.4,14.468-8.534.209-1.2.186-2.776-1.109-3.432a4.554,4.554,0,0,0-4.068.4,2.079,2.079,0,0,0-1.158,2.372,1.529,1.529,0,0,1-1.338,1.832,1.845,1.845,0,0,1-2.177-1.126c-.6-2.116.349-4.184,2.54-5.533a8.687,8.687,0,0,1,8.064-.551c1.353.686,3.519,2.44,2.82,6.476-.691,3.991-4.024,7.188-9.637,9.246a35.8,35.8,0,0,1-7.993,1.871C2913.578,1262.4,2913.509,1262.407,2913.44,1262.407Z" transform="translate(-2881.94 -1219.955)" fill="url(#linear-gradient-13)"/>
      <path id="Path_443" data-name="Path 443" d="M2656.037,1262.407a1.726,1.726,0,0,0,1.793-1.348,1.6,1.6,0,0,0-1.589-1.683c-.188-.019-13.23-1.4-14.467-8.534-.208-1.2-.186-2.776,1.109-3.432a4.555,4.555,0,0,1,4.068.4,2.08,2.08,0,0,1,1.158,2.372,1.529,1.529,0,0,0,1.337,1.832,1.844,1.844,0,0,0,2.176-1.126c.6-2.116-.349-4.184-2.539-5.533a8.688,8.688,0,0,0-8.065-.551c-1.354.686-3.52,2.44-2.82,6.476.691,3.991,4.024,7.188,9.638,9.246a35.8,35.8,0,0,0,7.993,1.871C2655.9,1262.4,2655.969,1262.407,2656.037,1262.407Z" transform="translate(-2638.063 -1219.955)" fill="url(#linear-gradient-14)"/>
      <path id="Path_444" data-name="Path 444" d="M2947.42,1053.779a.3.3,0,0,1-.015-.59l3.47-.187a.3.3,0,1,1,.032.59l-3.471.187Z" transform="translate(-2913.576 -1049.64)" fill="#fff" opacity="0.63"/>
      <path id="Path_445" data-name="Path 445" d="M2702.834,1059.308a.3.3,0,0,1-.016-.59l20.735-1.116a.3.3,0,0,1,.032.59l-20.736,1.116Z" transform="translate(-2695.54 -1053.74)" fill="#fff" opacity="0.63"/>
      <path id="Path_446" data-name="Path 446" d="M2754.767,1173.181l-.034,0c-3.755-.432-6.756-3.49-8.922-9.088a56.559,56.559,0,0,1-3.024-13.757.3.3,0,1,1,.587-.062c.675,6.394,3.138,21.367,11.427,22.32a.3.3,0,0,1-.033.589Z" transform="translate(-2731.417 -1136.116)" fill="#fff" opacity="0.63"/>
      <path id="Path_447" data-name="Path 447" d="M2740.194,1112.573a.3.3,0,0,1-.294-.276c-.055-.853-.07-1.343-.071-1.363a.3.3,0,0,1,.287-.3.285.285,0,0,1,.3.286c0,.005.015.5.07,1.343a.3.3,0,0,1-.276.314Z" transform="translate(-2728.782 -1101.011)" fill="#fff" opacity="0.63"/>
    </g>
    <g id="Group_211" data-name="Group 211" transform="translate(5.548 117.03)">
      <path id="Path_448" data-name="Path 448" d="M1223.325,1772.124l-7.52,11.569c3.5,6.815,7.384,10.578,11.271,12.366a20.793,20.793,0,0,1,4.995-9.864C1225.136,1782.251,1223.325,1772.124,1223.325,1772.124Z" transform="translate(-1139.305 -1742.143)" fill="url(#linear-gradient-15)"/>
      <path id="Path_449" data-name="Path 449" d="M1341.724,1882.618c-7.7,4.557-13.2,4.29-17.091,2.077a20.8,20.8,0,0,0-4.995,9.864c12.358,5.686,24.732-8.625,24.732-8.625Z" transform="translate(-1231.867 -1840.642)" fill="url(#linear-gradient-16)"/>
      <path id="Path_450" data-name="Path 450" d="M1521.183,1835.9s-2.078-3.624.91-6.406c0,0,.964-1.1,2.022.516,0,0,3.215-2.919,4.095-1.743s3.21,4.087.934,7.408C1526.842,1839.029,1522.2,1837.532,1521.183,1835.9Z" transform="translate(-1410.907 -1791.938)" fill="url(#linear-gradient-17)"/>
      <path id="Path_451" data-name="Path 451" d="M1542.42,1852.655a1.806,1.806,0,0,1-.927-.229,1.576,1.576,0,0,1-.733-1.236.376.376,0,0,1,.747-.1.856.856,0,0,0,.368.683,1.51,1.51,0,0,0,1.024.068l-.729-2.31a.376.376,0,0,1,.718-.226l.844,2.676a.376.376,0,0,1-.221.463A3.238,3.238,0,0,1,1542.42,1852.655Z" transform="translate(-1428.983 -1810.714)" fill="#f79e6d"/>
      <path id="Path_452" data-name="Path 452" d="M511.953,2598.364a1.988,1.988,0,0,0-.852,2.082c.628,3.271,2.691,11.912,7.7,17.027a.753.753,0,0,0,1.1,0,28.715,28.715,0,0,1-4.682-7.42C512.4,2604.157,511.875,2600.519,511.953,2598.364Z" transform="translate(-511.063 -2478.694)" fill="url(#linear-gradient-18)"/>
      <path id="Path_453" data-name="Path 453" d="M525.677,2591.074a7.013,7.013,0,0,0-6.449.107c-.008,0-.015.011-.022.016-.078,2.155.445,5.793,3.272,11.692a28.71,28.71,0,0,0,4.682,7.42.878.878,0,0,0,.209-.367C528.311,2606.67,530.3,2597.583,525.677,2591.074Z" transform="translate(-518.316 -2471.526)" fill="url(#linear-gradient-18)"/>
      <path id="Path_454" data-name="Path 454" d="M568.933,2564.624l-2.928,2.81a1.535,1.535,0,0,1-1.91.18,4.026,4.026,0,0,1-1.489-1.834,1.544,1.544,0,0,1,.282-1.634l2.923-3.216a1.541,1.541,0,0,1,2.467.252l.914,1.546A1.541,1.541,0,0,1,568.933,2564.624Z" transform="translate(-556.904 -2444.873)" fill="url(#linear-gradient-20)"/>
      <path id="Path_455" data-name="Path 455" d="M1493.8,2334.921a1.99,1.99,0,0,0,2.231-.289c2.534-2.162,9.025-8.226,11-15.112a.752.752,0,0,0-.543-.961,28.726,28.726,0,0,1-4.136,7.737C1498.613,2331.669,1495.709,2333.923,1493.8,2334.921Z" transform="translate(-1387.12 -2229.262)" fill="url(#linear-gradient-18)"/>
      <path id="Path_456" data-name="Path 456" d="M1463.352,2329.143a7.011,7.011,0,0,0,3.28,5.553c.008.005.017.007.025.012,1.912-1,4.816-3.25,8.547-8.623a28.712,28.712,0,0,0,4.136-7.738.88.88,0,0,0-.423,0C1475.609,2319.145,1466.727,2321.908,1463.352,2329.143Z" transform="translate(-1359.98 -2229.05)" fill="url(#linear-gradient-18)"/>
      <path id="Path_457" data-name="Path 457" d="M1428.318,2358.794l3.06,2.665a1.536,1.536,0,0,1,.35,1.887,4.025,4.025,0,0,1-1.694,1.646,1.545,1.545,0,0,1-1.653-.135l-3.464-2.625a1.541,1.541,0,0,1,.031-2.48l1.458-1.048A1.541,1.541,0,0,1,1428.318,2358.794Z" transform="translate(-1325.173 -2264.791)" fill="url(#linear-gradient-20)"/>
      <path id="Path_458" data-name="Path 458" d="M617.068,2113.364s-5.971,20.341-9.831,29.281c0,0-6.748,1.029-10.925,3.47s-13.173,15.966-13.173,15.966,2.349,4.46,5.184,5.144l25.61-17.745,20.439-23.769-.97-11.024Z" transform="translate(-575.316 -2046.341)" fill="url(#linear-gradient-18)"/>
      <path id="Path_459" data-name="Path 459" d="M884.737,2098.078l-1.747,5.57s1.6,14.6,20.008,12.141,20.724-5.468,20.724-5.468-1.6,9.327,18.533,20.541c0,0,3.06-2.31,3.733-4.933l-14.107-23.252c-1.962-3.05-3.782-3.853-7.365-3.293-7.923,1.239-22.758,2.854-25,2.471Z" transform="translate(-842.617 -2032.714)" fill="url(#linear-gradient-18)"/>
      <path id="Path_460" data-name="Path 460" d="M872.851,1716.2c-5.365.273-13.846,2.823-19.324,7.867a66.167,66.167,0,0,1,6.206,7.866,16.911,16.911,0,0,1,7.693-3.834,227.857,227.857,0,0,1-10.925,31.993,1.166,1.166,0,0,0,.681,1.572c3.362,1.172,13.274,3.961,21.225-.532l17.627-25.24a21.6,21.6,0,0,0,3.642-9.1l.7-4.553S884.542,1715.6,872.851,1716.2Z" transform="translate(-816.352 -1692.252)" fill="url(#linear-gradient-26)"/>
      <path id="Path_461" data-name="Path 461" d="M819.7,1819.3c-.766-1.692-3.389-3.272-4.641-3.951-1.089-2.245-5.436-12.341,1.136-18.51a66.136,66.136,0,0,0-6.206-7.866c-6.321,5.819-8.634,14.96,2.449,27.759-.6,3.152,1.369,6.823,2.436,7.338C815.363,1824.307,820.714,1821.55,819.7,1819.3Z" transform="translate(-772.81 -1757.164)" fill="url(#linear-gradient-27)"/>
      <path id="Path_462" data-name="Path 462" d="M1102.062,1654.746l-4.6,9.014a1.489,1.489,0,0,0,.215,1.674c1.115,1.242,3.749,3.259,8.33,1.814a1.388,1.388,0,0,0,.945-1.127l1.2-8.186Z" transform="translate(-1033.657 -1637.506)" fill="url(#linear-gradient-28)"/>
      <g id="Group_210" data-name="Group 210" transform="translate(60.403)">
        <path id="Path_463" data-name="Path 463" d="M1122.992,1558.324s2.7,6.2,2.882,9.462.883,5.37-2.882,6.026a8.005,8.005,0,0,1-8.656-4.464s-2.693-5-2.089-7.046S1122.992,1558.324,1122.992,1558.324Z" transform="translate(-1107.313 -1551.551)" fill="url(#linear-gradient-29)"/>
        <path id="Path_464" data-name="Path 464" d="M1075.826,1511.393l.214-.094a.517.517,0,0,0,.253-.71c-.531-1.026-1.566-3.377-.229-3.925,1.723-.707,8.55-2.1,10.023-4.521a4.507,4.507,0,0,0-1.724-6.188.26.26,0,0,0-.34.11l-.157.3a.256.256,0,0,1-.472-.048h0a.255.255,0,0,0-.461-.066c-.453.725-1.675,1.9-4.944,2.5-4.645.857-7.717,2.737-7.793,5.948a.256.256,0,0,1-.4.211c-.343-.209-.892-.307-1.626.31-1.276,1.073-.754,3.855,2.043,6.145a.254.254,0,0,1-.012.41c-.507.33-1.263,1.115.7,2.162a6.6,6.6,0,0,0,4.121.9.255.255,0,0,0,.207-.308l-.622-2.821a.256.256,0,0,1,.25-.311Z" transform="translate(-1067.516 -1495.929)" fill="url(#linear-gradient-30)"/>
        <path id="Path_465" data-name="Path 465" d="M1117.278,1618.832s-1.03-3.964-2.807-2.852.922,4.441,2.351,4.589Z" transform="translate(-1108.852 -1602.773)" fill="url(#linear-gradient-31)"/>
      </g>
    </g>
  </g>
</svg>
