<svg xmlns="http://www.w3.org/2000/svg" width="30.059" height="30.081" viewBox="0 0 30.059 30.081">
  <g id="Group_673" data-name="Group 673" transform="translate(-2.25 -1.488)">
    <path id="Path_797" data-name="Path 797" d="M27.744,4.2a1.115,1.115,0,0,0-1.4-.347l-1.461.724L25.6,3.118a1.114,1.114,0,0,0-1.78-1.293L19.371,6.279a1.125,1.125,0,0,0-.325.794V8.841L11.577,16.3a1.119,1.119,0,1,0,1.583,1.583l7.458-7.469h1.768a1.111,1.111,0,0,0,.788-.325l4.454-4.454a1.117,1.117,0,0,0,.11-1.439Z" transform="translate(4.359 0)" fill="#b6bdcd"/>
    <path id="Path_798" data-name="Path 798" d="M10.579,13.029a2.437,2.437,0,0,1,.169-.5.1.1,0,0,1,0-.058,3.152,3.152,0,0,1,.69-1.015l3.131-3.131a6.388,6.388,0,0,0-.748-.076,5.567,5.567,0,1,0,5.567,5.567,6.56,6.56,0,0,0-.076-.766l-3.131,3.132a3.248,3.248,0,0,1-1,.69h-.07a3.178,3.178,0,0,1-.5.168h-.122a3.253,3.253,0,0,1-1.333,0h-.122a2.434,2.434,0,0,1-.5-.168h-.058a3.354,3.354,0,0,1-1.706-1.706.1.1,0,0,1,0-.058,3.079,3.079,0,0,1-.168-.5V14.49a3.253,3.253,0,0,1,0-1.333Z" transform="translate(2.903 3.277)" fill="#b6bdcd"/>
    <path id="Path_799" data-name="Path 799" d="M19.579,6.242A9.821,9.821,0,0,0,15.27,5.25,10.018,10.018,0,1,0,25.291,15.271a9.821,9.821,0,0,0-.992-4.308l-1.694,1.7c2.784,7.83-6.982,14-12.856,8.125s.3-15.64,8.125-12.856Z" transform="translate(1.454 1.823)" fill="#b6bdcd"/>
    <path id="Path_800" data-name="Path 800" d="M29.106,11.291a3.387,3.387,0,0,1-1.113.724,12.074,12.074,0,0,1,.98,4.709A12.246,12.246,0,1,1,16.724,4.477a12.04,12.04,0,0,1,4.709.946,3.281,3.281,0,0,1,.724-1.113l.7-.714A14.3,14.3,0,0,0,16.724,2.25,14.474,14.474,0,1,0,31.2,16.724a14.292,14.292,0,0,0-1.381-6.136Z" transform="translate(0 0.369)" fill="#b6bdcd"/>
  </g>
</svg>
