<svg xmlns="http://www.w3.org/2000/svg" width="39.005" height="28.601" viewBox="0 0 39.005 28.601">
  <g id="Group_488" data-name="Group 488" transform="translate(-386.53 627.145)">
    <path id="Path_688" data-name="Path 688" d="M553.222-616.964q-3.745,3.748-7.49,7.5a1.341,1.341,0,0,1-1.572.416,1.346,1.346,0,0,1-.8-1.417c.016-1.2,0-2.409,0-3.678h-.52q-5.461,0-10.922,0c-1.073,0-1.555-.485-1.555-1.564q0-2.376,0-4.751a1.318,1.318,0,0,1,1.47-1.483q5.5,0,11,0h.522v-2.539c0-.434,0-.867,0-1.3a1.26,1.26,0,0,1,.8-1.25,1.244,1.244,0,0,1,1.451.315q1.914,1.9,3.82,3.817,1.9,1.894,3.789,3.791A1.333,1.333,0,0,1,553.222-616.964Z" transform="translate(-128.233 0)" fill="#535873"/>
    <path id="Path_689" data-name="Path 689" d="M409.932-524.525q0,2.4,0,4.791a1.321,1.321,0,0,1-1.481,1.475q-5.481,0-10.962,0h-.552c0,1.229,0,2.417,0,3.6a2.683,2.683,0,0,1-.018.486,1.275,1.275,0,0,1-.87,1.033,1.24,1.24,0,0,1-1.285-.26c-.082-.069-.155-.151-.232-.227q-3.719-3.719-7.435-7.438a1.348,1.348,0,0,1,.01-2.2q3.759-3.762,7.521-7.525a1.291,1.291,0,0,1,1.358-.406,1.255,1.255,0,0,1,.92.985,2.175,2.175,0,0,1,.03.484c0,1.2,0,2.406,0,3.669h.487q5.481,0,10.963,0A1.345,1.345,0,0,1,409.932-524.525Z" transform="translate(0 -85.489)" fill="#535873"/>
  </g>
</svg>
