<svg id="Layer_1" data-name="Layer 1" xmlns="http://www.w3.org/2000/svg" viewBox="0 0 37.29 23.8"><defs><style>.cls-1{fill:#fff;}.cls-2{fill:#cf1c31;}.cls-3{fill:#3a3870;}</style></defs><rect class="cls-1" y="0.09" width="45.38" height="23.77"/><rect class="cls-2" width="45.35" height="1.88"/><rect class="cls-2" y="3.68" width="45.35" height="1.88"/><rect class="cls-2" y="7.36" width="45.35" height="1.88"/><rect class="cls-2" y="11.03" width="45.35" height="1.88"/><rect class="cls-2" y="14.71" width="45.35" height="1.88"/><rect class="cls-2" y="18.39" width="45.35" height="1.88"/><rect class="cls-2" y="22.07" width="45.35" height="1.88"/><rect class="cls-3" width="18.11" height="12.91"/><polygon class="cls-1" points="1.54 0.49 1.71 1.02 2.26 1.02 1.81 1.35 1.98 1.88 1.54 1.55 1.1 1.88 1.27 1.35 0.82 1.02 1.37 1.02 1.54 0.49"/><polygon class="cls-1" points="3.03 1.82 3.2 2.35 3.75 2.35 3.31 2.67 3.48 3.2 3.03 2.87 2.59 3.2 2.76 2.67 2.31 2.35 2.86 2.35 3.03 1.82"/><polygon class="cls-1" points="3.03 4.41 3.2 4.94 3.75 4.94 3.31 5.26 3.48 5.79 3.03 5.46 2.59 5.79 2.76 5.26 2.31 4.94 2.86 4.94 3.03 4.41"/><polygon class="cls-1" points="3.03 7 3.2 7.53 3.75 7.53 3.31 7.85 3.48 8.38 3.03 8.05 2.59 8.38 2.76 7.85 2.31 7.53 2.86 7.53 3.03 7"/><polygon class="cls-1" points="3.03 9.59 3.2 10.11 3.75 10.11 3.31 10.44 3.48 10.97 3.03 10.64 2.59 10.97 2.76 10.44 2.31 10.11 2.86 10.11 3.03 9.59"/><polygon class="cls-1" points="6.06 1.82 6.23 2.35 6.78 2.35 6.33 2.67 6.5 3.2 6.06 2.87 5.62 3.2 5.79 2.67 5.34 2.35 5.89 2.35 6.06 1.82"/><polygon class="cls-1" points="6.06 4.41 6.23 4.94 6.78 4.94 6.33 5.26 6.5 5.79 6.06 5.46 5.62 5.79 5.79 5.26 5.34 4.94 5.89 4.94 6.06 4.41"/><polygon class="cls-1" points="6.06 7 6.23 7.53 6.78 7.53 6.33 7.85 6.5 8.38 6.06 8.05 5.62 8.38 5.79 7.85 5.34 7.53 5.89 7.53 6.06 7"/><polygon class="cls-1" points="6.06 9.59 6.23 10.11 6.78 10.11 6.33 10.44 6.5 10.97 6.06 10.64 5.62 10.97 5.79 10.44 5.34 10.11 5.89 10.11 6.06 9.59"/><polygon class="cls-1" points="9.09 1.82 9.25 2.35 9.8 2.35 9.36 2.67 9.53 3.2 9.09 2.87 8.64 3.2 8.81 2.67 8.37 2.35 8.91 2.35 9.09 1.82"/><polygon class="cls-1" points="9.09 4.41 9.25 4.94 9.8 4.94 9.36 5.26 9.53 5.79 9.09 5.46 8.64 5.79 8.81 5.26 8.37 4.94 8.91 4.94 9.09 4.41"/><polygon class="cls-1" points="9.09 7 9.25 7.53 9.8 7.53 9.36 7.85 9.53 8.38 9.09 8.05 8.64 8.38 8.81 7.85 8.37 7.53 8.91 7.53 9.09 7"/><polygon class="cls-1" points="9.09 9.59 9.25 10.11 9.8 10.11 9.36 10.44 9.53 10.97 9.09 10.64 8.64 10.97 8.81 10.44 8.37 10.11 8.91 10.11 9.09 9.59"/><polygon class="cls-1" points="12.11 1.82 12.28 2.35 12.83 2.35 12.38 2.67 12.55 3.2 12.11 2.87 11.67 3.2 11.84 2.67 11.39 2.35 11.94 2.35 12.11 1.82"/><polygon class="cls-1" points="12.11 4.41 12.28 4.94 12.83 4.94 12.38 5.26 12.55 5.79 12.11 5.46 11.67 5.79 11.84 5.26 11.39 4.94 11.94 4.94 12.11 4.41"/><polygon class="cls-1" points="12.11 7 12.28 7.53 12.83 7.53 12.38 7.85 12.55 8.38 12.11 8.05 11.67 8.38 11.84 7.85 11.39 7.53 11.94 7.53 12.11 7"/><polygon class="cls-1" points="12.11 9.59 12.28 10.11 12.83 10.11 12.38 10.44 12.55 10.97 12.11 10.64 11.67 10.97 11.84 10.44 11.39 10.11 11.94 10.11 12.11 9.59"/><polygon class="cls-1" points="15.14 1.82 15.31 2.35 15.85 2.35 15.41 2.67 15.58 3.2 15.14 2.87 14.69 3.2 14.86 2.67 14.42 2.35 14.97 2.35 15.14 1.82"/><polygon class="cls-1" points="15.14 4.41 15.31 4.94 15.85 4.94 15.41 5.26 15.58 5.79 15.14 5.46 14.69 5.79 14.86 5.26 14.42 4.94 14.97 4.94 15.14 4.41"/><polygon class="cls-1" points="15.14 7 15.31 7.53 15.85 7.53 15.41 7.85 15.58 8.38 15.14 8.05 14.69 8.38 14.86 7.85 14.42 7.53 14.97 7.53 15.14 7"/><polygon class="cls-1" points="15.14 9.59 15.31 10.11 15.85 10.11 15.41 10.44 15.58 10.97 15.14 10.64 14.69 10.97 14.86 10.44 14.42 10.11 14.97 10.11 15.14 9.59"/><polygon class="cls-1" points="1.54 3.08 1.71 3.61 2.26 3.61 1.81 3.94 1.98 4.46 1.54 4.14 1.1 4.46 1.27 3.94 0.82 3.61 1.37 3.61 1.54 3.08"/><polygon class="cls-1" points="1.54 5.67 1.71 6.2 2.26 6.2 1.81 6.53 1.98 7.05 1.54 6.73 1.1 7.05 1.27 6.53 0.82 6.2 1.37 6.2 1.54 5.67"/><polygon class="cls-1" points="1.54 8.26 1.71 8.79 2.26 8.79 1.81 9.12 1.98 9.64 1.54 9.32 1.1 9.64 1.27 9.12 0.82 8.79 1.37 8.79 1.54 8.26"/><polygon class="cls-1" points="1.54 10.85 1.71 11.38 2.26 11.38 1.81 11.7 1.98 12.23 1.54 11.9 1.1 12.23 1.27 11.7 0.82 11.38 1.37 11.38 1.54 10.85"/><polygon class="cls-1" points="4.53 0.49 4.7 1.02 5.24 1.02 4.8 1.35 4.97 1.88 4.53 1.55 4.08 1.88 4.25 1.35 3.81 1.02 4.36 1.02 4.53 0.49"/><polygon class="cls-1" points="4.53 3.08 4.7 3.61 5.24 3.61 4.8 3.94 4.97 4.46 4.53 4.14 4.08 4.46 4.25 3.94 3.81 3.61 4.36 3.61 4.53 3.08"/><polygon class="cls-1" points="4.53 5.67 4.7 6.2 5.24 6.2 4.8 6.53 4.97 7.05 4.53 6.73 4.08 7.05 4.25 6.53 3.81 6.2 4.36 6.2 4.53 5.67"/><polygon class="cls-1" points="4.53 8.26 4.7 8.79 5.24 8.79 4.8 9.12 4.97 9.64 4.53 9.32 4.08 9.64 4.25 9.12 3.81 8.79 4.36 8.79 4.53 8.26"/><polygon class="cls-1" points="4.53 10.85 4.7 11.38 5.24 11.38 4.8 11.7 4.97 12.23 4.53 11.9 4.08 12.23 4.25 11.7 3.81 11.38 4.36 11.38 4.53 10.85"/><polygon class="cls-1" points="7.59 0.49 7.76 1.02 8.31 1.02 7.87 1.35 8.04 1.88 7.59 1.55 7.15 1.88 7.32 1.35 6.87 1.02 7.42 1.02 7.59 0.49"/><polygon class="cls-1" points="7.59 3.08 7.76 3.61 8.31 3.61 7.87 3.94 8.04 4.46 7.59 4.14 7.15 4.46 7.32 3.94 6.87 3.61 7.42 3.61 7.59 3.08"/><polygon class="cls-1" points="7.59 5.67 7.76 6.2 8.31 6.2 7.87 6.53 8.04 7.05 7.59 6.73 7.15 7.05 7.32 6.53 6.87 6.2 7.42 6.2 7.59 5.67"/><polygon class="cls-1" points="7.59 8.26 7.76 8.79 8.31 8.79 7.87 9.12 8.04 9.64 7.59 9.32 7.15 9.64 7.32 9.12 6.87 8.79 7.42 8.79 7.59 8.26"/><polygon class="cls-1" points="7.59 10.85 7.76 11.38 8.31 11.38 7.87 11.7 8.04 12.23 7.59 11.9 7.15 12.23 7.32 11.7 6.87 11.38 7.42 11.38 7.59 10.85"/><polygon class="cls-1" points="10.6 0.49 10.77 1.02 11.32 1.02 10.87 1.35 11.04 1.88 10.6 1.55 10.15 1.88 10.32 1.35 9.88 1.02 10.43 1.02 10.6 0.49"/><polygon class="cls-1" points="10.6 3.08 10.77 3.61 11.32 3.61 10.87 3.94 11.04 4.46 10.6 4.14 10.15 4.46 10.32 3.94 9.88 3.61 10.43 3.61 10.6 3.08"/><polygon class="cls-1" points="10.6 5.67 10.77 6.2 11.32 6.2 10.87 6.53 11.04 7.05 10.6 6.73 10.15 7.05 10.32 6.53 9.88 6.2 10.43 6.2 10.6 5.67"/><polygon class="cls-1" points="10.6 8.26 10.77 8.79 11.32 8.79 10.87 9.12 11.04 9.64 10.6 9.32 10.15 9.64 10.32 9.12 9.88 8.79 10.43 8.79 10.6 8.26"/><polygon class="cls-1" points="10.6 10.85 10.77 11.38 11.32 11.38 10.87 11.7 11.04 12.23 10.6 11.9 10.15 12.23 10.32 11.7 9.88 11.38 10.43 11.38 10.6 10.85"/><polygon class="cls-1" points="13.6 0.49 13.77 1.02 14.32 1.02 13.88 1.35 14.05 1.88 13.6 1.55 13.16 1.88 13.33 1.35 12.88 1.02 13.43 1.02 13.6 0.49"/><polygon class="cls-1" points="13.6 3.08 13.77 3.61 14.32 3.61 13.88 3.94 14.05 4.46 13.6 4.14 13.16 4.46 13.33 3.94 12.88 3.61 13.43 3.61 13.6 3.08"/><polygon class="cls-1" points="13.6 5.67 13.77 6.2 14.32 6.2 13.88 6.53 14.05 7.05 13.6 6.73 13.16 7.05 13.33 6.53 12.88 6.2 13.43 6.2 13.6 5.67"/><polygon class="cls-1" points="13.6 8.26 13.77 8.79 14.32 8.79 13.88 9.12 14.05 9.64 13.6 9.32 13.16 9.64 13.33 9.12 12.88 8.79 13.43 8.79 13.6 8.26"/><polygon class="cls-1" points="13.6 10.85 13.77 11.38 14.32 11.38 13.88 11.7 14.05 12.23 13.6 11.9 13.16 12.23 13.33 11.7 12.88 11.38 13.43 11.38 13.6 10.85"/><polygon class="cls-1" points="16.67 0.49 16.84 1.02 17.39 1.02 16.94 1.35 17.11 1.88 16.67 1.55 16.23 1.88 16.39 1.35 15.95 1.02 16.5 1.02 16.67 0.49"/><polygon class="cls-1" points="16.67 3.08 16.84 3.61 17.39 3.61 16.94 3.94 17.11 4.46 16.67 4.14 16.23 4.46 16.39 3.94 15.95 3.61 16.5 3.61 16.67 3.08"/><polygon class="cls-1" points="16.67 5.67 16.84 6.2 17.39 6.2 16.94 6.53 17.11 7.05 16.67 6.73 16.23 7.05 16.39 6.53 15.95 6.2 16.5 6.2 16.67 5.67"/><polygon class="cls-1" points="16.67 8.26 16.84 8.79 17.39 8.79 16.94 9.12 17.11 9.64 16.67 9.32 16.23 9.64 16.39 9.12 15.95 8.79 16.5 8.79 16.67 8.26"/><polygon class="cls-1" points="16.67 10.85 16.84 11.38 17.39 11.38 16.94 11.7 17.11 12.23 16.67 11.9 16.23 12.23 16.39 11.7 15.95 11.38 16.5 11.38 16.67 10.85"/></svg>