<svg xmlns="http://www.w3.org/2000/svg" width="27.848" height="27.8" viewBox="0 0 27.848 27.8">
  <g id="Group_520" data-name="Group 520" transform="translate(0 0)">
    <path id="Path_299" data-name="Path 299" d="M19.15,9.84c0,11.12-13.9,11.12-13.9,0s13.9-11.12,13.9,0" transform="translate(1.724 -1.5)" fill="#61688d"/>
    <path id="Path_300" data-name="Path 300" d="M29.037,17.1a12.633,12.633,0,0,0-6.676-5.834,3.144,3.144,0,0,0-2.506.137,8.509,8.509,0,0,1-8.889,0,3.136,3.136,0,0,0-2.506,0,12.722,12.722,0,0,0-6.676,5.834,2.748,2.748,0,0,0,2.643,3.9H26.394A2.819,2.819,0,0,0,29.037,17.1Z" transform="translate(-1.487 6.669)" fill="#61688d"/>
  </g>
</svg>
