<svg xmlns="http://www.w3.org/2000/svg" xmlns:xlink="http://www.w3.org/1999/xlink" width="48" height="48" viewBox="0 0 48 48">
  <defs>
    <clipPath id="clip-path">
      <rect id="Rectangle_146" data-name="Rectangle 146" width="21.817" height="31.167" transform="translate(0 0)" fill="none"/>
    </clipPath>
    <clipPath id="clip-path-2">
      <path id="Path_315" data-name="Path 315" d="M24.442,17.375,33.5,41.75a1.5,1.5,0,0,0,1.928.883l10.66-3.961a1.5,1.5,0,0,0,.883-1.927L37.913,12.371a1.5,1.5,0,0,0-1.928-.883L25.327,15.447A1.5,1.5,0,0,0,24.442,17.375Z" transform="translate(-24.35 -11.395)" fill="none"/>
    </clipPath>
    <clipPath id="clip-path-3">
      <rect id="Rectangle_148" data-name="Rectangle 148" height="7.272" fill="none"/>
    </clipPath>
    <clipPath id="clip-path-4">
      <path id="Path_323" data-name="Path 323" d="M72.907,52.1h-1.9v6.316h1.9a.789.789,0,0,0,.789-.789V52.887A.789.789,0,0,0,72.907,52.1Z" transform="translate(-71.008 -52.098)" fill="none"/>
    </clipPath>
    <clipPath id="clip-path-5">
      <rect id="Rectangle_149" data-name="Rectangle 149" width="6.233" height="4.156" transform="translate(0 0)" fill="none"/>
    </clipPath>
    <clipPath id="clip-path-6">
      <path id="Path_325" data-name="Path 325" d="M64.58,58.411h-7.3a3,3,0,0,1-3-3v-.317a3,3,0,0,1,3-3h7.3a.75.75,0,0,1,.75.75V57.66A.75.75,0,0,1,64.58,58.411Z" transform="translate(-54.277 -52.094)" fill="none"/>
    </clipPath>
  </defs>
  <g id="Group_138" data-name="Group 138" style="isolation: isolate">
    <path id="Path_307" data-name="Path 307" d="M48,24A24,24,0,1,1,24,0,24,24,0,0,1,48,24" fill="#ebf0f1"/>
    <path id="Path_310" data-name="Path 310" d="M33.172,13.885,22.381,37.541a1.5,1.5,0,0,0,.742,1.988l10.348,4.72a1.5,1.5,0,0,0,1.986-.742L46.25,19.85a1.5,1.5,0,0,0-.742-1.986L35.16,13.143A1.5,1.5,0,0,0,33.172,13.885Z" transform="translate(-11.123 -6.504)" fill="#016938"/>
    <path id="Path_311" data-name="Path 311" d="M31.916,15.135,30.529,41.1a1.506,1.506,0,0,0,1.418,1.578l11.357.605a1.505,1.505,0,0,0,1.578-1.418L46.27,15.9a1.505,1.505,0,0,0-1.418-1.578l-11.357-.605A1.505,1.505,0,0,0,31.916,15.135Z" transform="translate(-15.264 -6.858)" fill="#027b38"/>
    <path id="Path_312" data-name="Path 312" d="M24.442,17.375,33.5,41.75a1.5,1.5,0,0,0,1.928.883l10.66-3.961a1.5,1.5,0,0,0,.883-1.927L37.913,12.371a1.5,1.5,0,0,0-1.928-.883L25.327,15.447A1.5,1.5,0,0,0,24.442,17.375Z" transform="translate(-12.175 -5.697)" fill="#89bc49"/>
    <path id="Path_313" data-name="Path 313" d="M24.442,17.375,33.5,41.75a1.5,1.5,0,0,0,1.928.883l10.66-3.961a1.5,1.5,0,0,0,.883-1.927L37.913,12.371a1.5,1.5,0,0,0-1.928-.883L25.327,15.447A1.5,1.5,0,0,0,24.442,17.375Z" transform="translate(-12.175 -5.697)" fill="#92c142"/>
    <g id="Group_129" data-name="Group 129" transform="translate(12.467 6.233)">
      <g id="Group_128" data-name="Group 128" transform="translate(0 0)" clip-path="url(#clip-path)">
        <g id="Group_127" data-name="Group 127" transform="translate(-0.292 -0.536)">
          <g id="Group_126" data-name="Group 126" clip-path="url(#clip-path-2)">
            <path id="Path_314" data-name="Path 314" d="M25.7,18.314l7.385,19.877a4.105,4.105,0,0,1,3.361,1.541l6.164-2.289a4.118,4.118,0,0,1,1.578-3.395L36.815,14.2A4.117,4.117,0,0,1,33.4,12.662L27.24,14.951A4.109,4.109,0,0,1,25.7,18.314Zm1.166-4.922c.043.094.086.186.121.283l5.775-2.144v0c-.037-.1-.064-.2-.091-.3l4.215-1.567,1.529,4.115c-.107.053-.217.1-.33.147l7.242,19.493c.115-.041.228-.074.344-.105l1.744,4.694-4.129,1.533a4.119,4.119,0,0,1-.424-.828l-5.773,2.146v0a4.084,4.084,0,0,1,.221.9l-3.994,1.485-1.748-4.7c.08-.035.158-.072.24-.1L24.568,18.955c-.082.031-.166.053-.25.078l-1.534-4.125Z" transform="translate(-23.567 -10.531)" fill="#3c9c36"/>
          </g>
        </g>
      </g>
    </g>
    <path id="Path_316" data-name="Path 316" d="M41.536,35.879c2.291-.852,4.689-.088,5.357,1.707s-.652,3.938-2.943,4.789-4.691.088-5.357-1.705.65-3.939,2.943-4.791" transform="translate(-19.21 -17.765)" fill="#3c9c36"/>
    <path id="Path_317" data-name="Path 317" d="M42.421,39.131l.938,2.521a1.716,1.716,0,0,0,2.209,1.011l.17-.062a1.716,1.716,0,0,0,1.012-2.209l-.937-2.521A1.716,1.716,0,0,0,43.6,36.86l-.17.062A1.718,1.718,0,0,0,42.421,39.131ZM36.575,23.4l.938,2.521a1.716,1.716,0,0,0,2.209,1.012l.17-.062A1.716,1.716,0,0,0,40.9,24.659l-.938-2.522a1.716,1.716,0,0,0-2.209-1.012l-.17.063A1.718,1.718,0,0,0,36.575,23.4Z" transform="translate(-18.233 -10.508)" fill="#3c9c36"/>
    <path id="Path_318" data-name="Path 318" d="M46.461,58.411H22.617a1.5,1.5,0,0,1-1.5-1.5V39.383a1.5,1.5,0,0,1,1.5-1.5H46.459a1.5,1.5,0,0,1,1.5,1.5V56.911a1.5,1.5,0,0,1-1.5,1.5Z" transform="translate(-10.558 -18.942)" fill="#f49c0b"/>
    <path id="Path_319" data-name="Path 319" d="M63.68,37.883H62.5a1.58,1.58,0,0,1,1.58,1.58V50.89l-8.361-.74,7.841,7.842a1.562,1.562,0,0,1-1.06.416H63.68a1.58,1.58,0,0,0,1.58-1.58V39.463A1.58,1.58,0,0,0,63.68,37.883Z" transform="translate(-27.857 -18.942)" fill="#e48316" opacity="0.67"/>
    <path id="Path_320" data-name="Path 320" d="M28.744,41.372h-.793a.2.2,0,1,1,0-.395h.793A.2.2,0,1,1,28.744,41.372Zm2.773,0h-.793a.2.2,0,1,1,0-.395h.793A.2.2,0,1,1,31.518,41.372Zm2.773,0H33.5a.2.2,0,1,1,0-.395h.793A.2.2,0,1,1,34.291,41.372Zm2.773,0h-.793a.2.2,0,1,1,0-.395h.793A.2.2,0,1,1,37.064,41.372Zm2.774,0h-.793a.2.2,0,1,1,0-.395h.793A.2.2,0,1,1,39.838,41.372Zm2.774,0h-.793a.2.2,0,1,1,0-.395h.793A.2.2,0,1,1,42.612,41.372Zm2.773,0h-.793a.2.2,0,1,1,0-.395h.793A.2.2,0,1,1,45.385,41.372Zm2.381.563a.2.2,0,0,1-.2-.2v-.168a.2.2,0,0,0-.2-.2.2.2,0,0,1-.2-.2.2.2,0,0,1,.2-.2h0a.592.592,0,0,1,.592.591v.168a.2.2,0,0,1-.2.2Zm-22.139.061a.2.2,0,0,1-.2-.2v-.228a.594.594,0,0,1,.507-.586.2.2,0,1,1,.055.391.2.2,0,0,0-.17.195V41.8a.2.2,0,0,1-.2.2Zm22.139,2.713a.2.2,0,0,1-.2-.2v-.793a.2.2,0,1,1,.395,0v.793A.2.2,0,0,1,47.766,44.708Zm-22.139.06a.2.2,0,0,1-.2-.2v-.793a.2.2,0,1,1,.395,0v.793A.2.2,0,0,1,25.627,44.768Zm0,2.775a.2.2,0,0,1-.2-.2v-.793a.2.2,0,1,1,.395,0v.793A.2.2,0,0,1,25.627,47.543Zm0,2.773a.2.2,0,0,1-.2-.2v-.793a.2.2,0,1,1,.395,0v.793A.2.2,0,0,1,25.627,50.317Zm0,2.773a.2.2,0,0,1-.2-.2V52.1a.2.2,0,1,1,.395,0v.793A.2.2,0,0,1,25.627,53.09ZM47.766,55.8a.2.2,0,0,1-.2-.2v-.793a.2.2,0,1,1,.395,0v.793A.2.2,0,0,1,47.766,55.8Zm-22.139.06a.2.2,0,0,1-.2-.2v-.792a.2.2,0,1,1,.395,0v.792A.2.2,0,0,1,25.627,55.863Zm21.805,2.545a.2.2,0,0,1-.029-.392.2.2,0,0,0,.166-.2v-.235a.2.2,0,1,1,.395,0v.235a.592.592,0,0,1-.5.586A.152.152,0,0,1,47.432,58.408Zm-21.4,0h-.01a.593.593,0,0,1-.592-.592v-.172a.2.2,0,1,1,.394,0v.172a.2.2,0,0,0,.2.2.2.2,0,0,1,.2.2.192.192,0,0,1-.191.2Zm2.773,0h-.793a.2.2,0,1,1,0-.395h.793A.2.2,0,1,1,28.807,58.413Zm2.773,0h-.793a.2.2,0,1,1,0-.395h.793A.2.2,0,1,1,31.58,58.413Zm2.775,0h-.793a.2.2,0,1,1,0-.395h.793A.2.2,0,1,1,34.355,58.413Zm2.774,0h-.793a.2.2,0,1,1,0-.395h.791a.2.2,0,1,1,0,.395Zm2.773,0H39.11a.2.2,0,1,1,0-.395H39.9A.2.2,0,1,1,39.9,58.413Zm2.774,0h-.793a.2.2,0,1,1,0-.395h.793A.2.2,0,1,1,42.676,58.413Zm2.773,0h-.793a.2.2,0,1,1,0-.395h.793A.2.2,0,1,1,45.45,58.413Z" transform="translate(-12.715 -20.489)" fill="#fbca76"/>
    <path id="Path_321" data-name="Path 321" d="M22.3,56.83V39.463a1.579,1.579,0,0,1,1.58-1.58H22.7a1.579,1.579,0,0,0-1.58,1.58V56.832a1.58,1.58,0,0,0,1.58,1.58h1.184a1.58,1.58,0,0,1-1.58-1.58Z" transform="translate(-10.56 -18.942)" fill="#f9c187" opacity="0.5"/>
    <path id="Path_322" data-name="Path 322" d="M64.58,58.411h-7.3a3,3,0,0,1-3-3v-.317a3,3,0,0,1,3-3h7.3a.75.75,0,0,1,.75.75V57.66A.75.75,0,0,1,64.58,58.411Z" transform="translate(-27.138 -26.047)" fill="#d17311"/>
    <g id="Group_133" data-name="Group 133" transform="translate(37.4 25.972)">
      <g id="Group_132" data-name="Group 132" transform="translate(0 0)" clip-path="url(#clip-path-3)">
        <g id="Group_131" data-name="Group 131" transform="translate(-1.896 0.077)">
          <g id="Group_130" data-name="Group 130" clip-path="url(#clip-path-4)">
            <rect id="Rectangle_147" data-name="Rectangle 147" width="1.183" height="9.627" transform="translate(1.502 -1.438)" fill="#ca6213"/>
          </g>
        </g>
      </g>
    </g>
    <g id="Group_137" data-name="Group 137" transform="translate(30.128 29.089)">
      <g id="Group_136" data-name="Group 136" transform="translate(0 0)" clip-path="url(#clip-path-5)">
        <g id="Group_135" data-name="Group 135" transform="translate(-2.99 -3.042)">
          <g id="Group_134" data-name="Group 134" clip-path="url(#clip-path-6)">
            <path id="Path_324" data-name="Path 324" d="M58.344,58.485l2.317,2.279h4.074l-4.312-4.314Z" transform="translate(-56.311 -54.272)" fill="#c56415"/>
          </g>
        </g>
      </g>
    </g>
    <path id="Path_326" data-name="Path 326" d="M60.35,56.952a1.458,1.458,0,1,1-2.916,0,1.458,1.458,0,0,1,2.916,0" transform="translate(-28.717 -27.747)" fill="#d8b997"/>
    <path id="Path_327" data-name="Path 327" d="M58.223,56.972a2.355,2.355,0,0,1,.457-1.438,1.452,1.452,0,0,0,0,2.875A2.359,2.359,0,0,1,58.223,56.972Z" transform="translate(-28.717 -27.767)" fill="#f1d2ae"/>
    <path id="Path_328" data-name="Path 328" d="M61.231,56.972a2.354,2.354,0,0,1-.458,1.437,1.452,1.452,0,0,0,0-2.875A2.36,2.36,0,0,1,61.231,56.972Z" transform="translate(-30.386 -27.767)" fill="#c8a57e"/>
  </g>
</svg>
