<svg xmlns="http://www.w3.org/2000/svg" width="25.126" height="23.615" viewBox="0 0 25.126 23.615">
  <path id="Path_744" data-name="Path 744" d="M49.944,57.4l-.356,7.572a.993.993,0,0,1-1.986,0l-.356-7.569A1.349,1.349,0,0,1,48.58,56h.013a1.349,1.349,0,0,1,1.349,1.409ZM48.6,69.886a1.242,1.242,0,1,1,.878-.364A1.242,1.242,0,0,1,48.6,69.886ZM60.922,70,50.345,50.357a1.986,1.986,0,0,0-3.5,0L36.271,70a1.986,1.986,0,0,0,1.746,2.928H59.173A1.986,1.986,0,0,0,60.922,70Z" transform="translate(-36.033 -49.312)" fill="#43475d"/>
</svg>
